<svg width="135" height="40" viewBox="0 0 135 40" fill="none" xmlns="http://www.w3.org/2000/svg">
<path fill-rule="evenodd" clip-rule="evenodd" d="M5.72023 40C2.57406 40 0 37.7501 0 35.0001V5.00027C0 2.24992 2.57406 0 5.72023 0H129.28C132.426 0 135 2.24992 135 5.00027V35.0001C135 37.7501 132.426 40 129.28 40H5.72023Z" fill="#262D33"/>
<path fill-rule="evenodd" clip-rule="evenodd" d="M32.7973 20.3007C32.7994 22.22 33.9488 23.9522 35.7166 24.6999C35.3766 25.8043 34.8641 26.848 34.1981 27.7924C33.3038 29.1303 32.366 30.4374 30.8776 30.4615C29.4314 30.4949 28.9454 29.6104 27.2866 29.6104C25.6123 29.6104 25.0943 30.4374 23.7072 30.4949C22.2898 30.5474 21.2065 29.0669 20.2796 27.7416C18.427 25.035 16.9844 20.1139 18.9184 16.7655C19.8266 15.1335 21.5246 14.0979 23.3913 14.0376C24.81 14.0085 26.1275 14.9958 26.9998 14.9958C27.8555 14.9958 29.4835 13.8147 31.1627 13.991C32.7588 14.0409 34.2379 14.8405 35.1539 16.1486C33.7086 17.0372 32.8192 18.6042 32.7973 20.3007ZM30.0657 12.2109C29.2783 13.1902 28.0854 13.7542 26.8289 13.7413C26.749 12.5134 27.1605 11.3042 27.9726 10.3799C28.7951 9.44306 29.9404 8.8505 31.1802 8.72028C31.277 9.98451 30.8772 11.2367 30.0657 12.2109ZM50.3307 27.1397H45.5973L44.4606 30.4961H42.4557L46.9391 18.0781H49.0221L53.5055 30.4961H51.4664L50.3307 27.1397ZM46.0875 25.5908H49.8395L47.9899 20.1436H47.9382L46.0875 25.5908ZM63.1881 25.9697C63.1881 28.7832 61.6823 30.5908 59.4098 30.5908C58.2352 30.6523 57.1288 30.037 56.5612 29.0068H56.5182V33.4912H54.6598V21.4424H56.4586V22.9483H56.4928C57.0856 21.9245 58.1932 21.3095 59.3756 21.3477C61.6734 21.3477 63.1881 23.1641 63.1881 25.9697ZM61.278 25.9697C61.278 24.1367 60.3307 22.9317 58.8854 22.9317C57.4655 22.9317 56.5104 24.1621 56.5104 25.9697C56.5104 27.794 57.4655 29.0156 58.8854 29.0156C60.3307 29.0156 61.278 27.8194 61.278 25.9697ZM73.153 25.9697C73.153 28.7832 71.6471 30.5908 69.3746 30.5908C68.2 30.6523 67.0936 30.037 66.526 29.0068H66.483V33.4912H64.6246V21.4424H66.4234V22.9483H66.4576C67.0504 21.9245 68.158 21.3095 69.3404 21.3477C71.6383 21.3477 73.153 23.1641 73.153 25.9697ZM71.2428 25.9697C71.2428 24.1367 70.2955 22.9317 68.8502 22.9317C67.4303 22.9317 66.4752 24.1621 66.4752 25.9697C66.4752 27.794 67.4303 29.0156 68.8502 29.0156C70.2955 29.0156 71.2428 27.8194 71.2428 25.9697ZM94.0934 25.9697C94.0934 23.1211 95.7712 21.3311 98.3874 21.3311C101.012 21.3311 102.682 23.1211 102.682 25.9697C102.682 28.8262 101.021 30.6084 98.3874 30.6084C95.7545 30.6084 94.0934 28.8262 94.0934 25.9697ZM100.789 25.9697C100.789 24.0156 99.8932 22.8623 98.3874 22.8623C96.8815 22.8623 95.987 24.0244 95.987 25.9697C95.987 27.9317 96.8815 29.0762 98.3874 29.0762C99.8932 29.0762 100.789 27.9317 100.789 25.9697ZM117.413 27.8369C117.163 29.4805 115.562 30.6084 113.514 30.6084C110.881 30.6084 109.246 28.8438 109.246 26.0127C109.246 23.1729 110.889 21.3311 113.436 21.3311C115.941 21.3311 117.516 23.0518 117.516 25.7969V26.4336H111.122V26.5459C111.062 27.2199 111.295 27.8871 111.761 28.3778C112.227 28.8684 112.881 29.1352 113.557 29.1104C114.459 29.1949 115.309 28.677 115.648 27.8369L117.413 27.8369ZM111.13 25.1348L115.657 25.1348C115.691 24.5291 115.47 23.9368 115.049 23.5006C114.627 23.0645 114.043 22.8239 113.436 22.8369C112.825 22.8333 112.238 23.0739 111.805 23.5054C111.372 23.9369 111.129 24.5235 111.13 25.1348ZM79.7389 27.0361C79.8766 28.2676 81.0729 29.0761 82.7076 29.0761C84.2741 29.0761 85.401 28.2676 85.401 27.1572C85.401 26.1933 84.7213 25.6162 83.112 25.2207L81.5026 24.833C79.2223 24.2822 78.1637 23.2158 78.1637 21.4853C78.1637 19.3427 80.0309 17.8711 82.6823 17.8711C85.3063 17.8711 87.1051 19.3427 87.1657 21.4853H85.2897C85.1774 20.2461 84.1529 19.498 82.6559 19.498C81.1588 19.498 80.1344 20.2549 80.1344 21.3564C80.1344 22.2343 80.7887 22.7509 82.3893 23.1464L83.7574 23.4824C86.3053 24.0849 87.3639 25.1084 87.3639 26.9247C87.3639 29.248 85.5133 30.7031 82.5699 30.7031C79.816 30.7031 77.9567 29.2822 77.8365 27.0361L79.7389 27.0361ZM91.3746 19.2998V21.4424H93.0963V22.9141H91.3746V27.9053C91.3746 28.6807 91.7194 29.042 92.4762 29.042C92.6806 29.0384 92.8847 29.0241 93.0875 28.999V30.4619C92.7473 30.5255 92.4014 30.5543 92.0553 30.5478C90.2223 30.5478 89.5075 29.8594 89.5075 28.1035V22.9141H88.1911V21.4424H89.5074V19.2998H91.3746ZM104.214 21.4424H105.987V22.9834H106.03C106.277 21.9914 107.186 21.3086 108.208 21.3477C108.422 21.3469 108.635 21.3702 108.844 21.417V23.1553C108.574 23.0727 108.292 23.0347 108.009 23.043C107.463 23.0208 106.934 23.2385 106.562 23.639C106.19 24.0395 106.011 24.5827 106.073 25.126V30.4961H104.214L104.214 21.4424ZM45.8546 8.73101C46.6436 8.6744 47.4163 8.97456 47.9602 9.54888C48.5041 10.1232 48.7617 10.9112 48.6622 11.6959C48.6622 13.6021 47.632 14.6979 45.8546 14.6979H43.6994V8.73101H45.8546ZM44.6261 13.854H45.7511C46.3149 13.8877 46.8639 13.6656 47.2457 13.2493C47.6274 12.833 47.8012 12.2668 47.7189 11.708C47.7952 11.1515 47.6189 10.5901 47.2381 10.1771C46.8573 9.76423 46.3119 9.5431 45.7511 9.57422H44.6261V13.854ZM49.7091 12.4444C49.6319 11.6372 50.0189 10.8561 50.7078 10.4286C51.3968 10.0011 52.2685 10.0011 52.9574 10.4286C53.6464 10.8561 54.0334 11.6372 53.9562 12.4444C54.0349 13.2523 53.6482 14.035 52.9587 14.4634C52.2691 14.8918 51.3962 14.8918 50.7066 14.4634C50.0171 14.035 49.6304 13.2523 49.7091 12.4444ZM53.0421 12.4444C53.0421 11.4683 52.6036 10.8975 51.8341 10.8975C51.0617 10.8975 50.6271 11.4683 50.6271 12.4444C50.6271 13.4283 51.0617 13.9947 51.8341 13.9947C52.6037 13.9946 53.0421 13.4243 53.0421 12.4444ZM59.6017 14.6978H58.6798L57.7492 11.3814H57.6789L56.7521 14.6978H55.839L54.5978 10.1948H55.4992L56.3058 13.6308H56.3722L57.298 10.1948H58.1505L59.0763 13.6308H59.1466L59.9494 10.1948H60.838L59.6017 14.6978ZM61.882 10.1948H62.7374V10.9102H62.8038C63.0348 10.3835 63.5744 10.0613 64.1476 10.1079C64.5914 10.0745 65.0263 10.2448 65.3295 10.5706C65.6327 10.8964 65.7713 11.3424 65.7062 11.7827V14.6977H64.8175V12.0059C64.8175 11.2822 64.5031 10.9224 63.8458 10.9224C63.5448 10.9084 63.2527 11.0265 63.046 11.2458C62.8393 11.4652 62.7387 11.7638 62.7706 12.0635V14.6978H61.882L61.882 10.1948ZM67.1222 8.43701H68.0109V14.6978H67.1222V8.43701ZM69.2462 12.4444C69.1691 11.6372 69.5561 10.8561 70.2451 10.4285C70.9341 10.001 71.8059 10.001 72.4949 10.4285C73.1839 10.8561 73.5709 11.6372 73.4938 12.4444C73.5724 13.2524 73.1856 14.035 72.4961 14.4634C71.8065 14.8918 70.9335 14.8918 70.2439 14.4634C69.5544 14.035 69.1676 13.2524 69.2462 12.4444ZM72.5792 12.4444C72.5792 11.4683 72.1407 10.8975 71.3712 10.8975C70.5988 10.8975 70.1642 11.4683 70.1642 12.4444C70.1642 13.4283 70.5988 13.9947 71.3712 13.9947C72.1408 13.9946 72.5792 13.4243 72.5792 12.4444ZM74.4293 13.4243C74.4293 12.6138 75.0329 12.1465 76.1041 12.0801L77.3239 12.0098V11.6211C77.3239 11.1455 77.0094 10.877 76.402 10.877C75.9059 10.877 75.5622 11.0591 75.4635 11.3775H74.6032C74.694 10.604 75.4215 10.1079 76.443 10.1079C77.5719 10.1079 78.2086 10.6699 78.2086 11.6211V14.6978H77.3532V14.065H77.2829C76.9923 14.5271 76.4756 14.7972 75.9303 14.772C75.548 14.8117 75.1668 14.6879 74.8808 14.4312C74.5949 14.1744 74.4308 13.8087 74.4293 13.4243ZM77.3239 13.0396V12.6631L76.2243 12.7334C75.6041 12.7749 75.3229 12.9859 75.3229 13.3828C75.3229 13.7881 75.6744 14.0239 76.1579 14.0239C76.4441 14.0529 76.7298 13.9645 76.9496 13.7789C77.1693 13.5934 77.3044 13.3266 77.3239 13.0396ZM79.3766 12.4444C79.3766 11.0215 80.108 10.1201 81.2457 10.1201C81.8202 10.0937 82.3583 10.4015 82.6266 10.9101H82.693V8.43701H83.5817V14.6978H82.7301V13.9863H82.6598C82.3712 14.4907 81.8265 14.7934 81.2457 14.772C80.1002 14.772 79.3766 13.8706 79.3766 12.4444ZM80.2946 12.4444C80.2946 13.3994 80.7448 13.9741 81.4977 13.9741C82.2467 13.9741 82.7096 13.3911 82.7096 12.4483C82.7096 11.5098 82.2419 10.9185 81.4977 10.9185C80.7496 10.9185 80.2946 11.4971 80.2946 12.4444ZM87.2584 12.4444C87.1812 11.6372 87.5682 10.8561 88.2572 10.4286C88.9461 10.0011 89.8178 10.0011 90.5068 10.4286C91.1957 10.8561 91.5827 11.6372 91.5055 12.4444C91.5842 13.2523 91.1975 14.035 90.508 14.4634C89.8184 14.8918 88.9455 14.8918 88.256 14.4634C87.5664 14.035 87.1797 13.2523 87.2584 12.4444ZM90.5914 12.4444C90.5914 11.4683 90.1529 10.8975 89.3834 10.8975C88.611 10.8975 88.1764 11.4683 88.1764 12.4444C88.1764 13.4283 88.611 13.9947 89.3834 13.9947C90.153 13.9946 90.5914 13.4243 90.5914 12.4444ZM92.6979 10.1948H93.5534V10.9102H93.6198C93.8507 10.3835 94.3903 10.0613 94.9635 10.1079C95.4073 10.0745 95.8422 10.2448 96.1454 10.5706C96.4486 10.8964 96.5872 11.3424 96.5221 11.7827V14.6977H95.6334V12.0059C95.6334 11.2822 95.319 10.9224 94.6618 10.9224C94.3607 10.9084 94.0686 11.0265 93.8619 11.2458C93.6552 11.4652 93.5547 11.7638 93.5866 12.0635V14.6978H92.6979V10.1948ZM101.544 9.07374V10.2153H102.519V10.9639H101.544V13.2793C101.544 13.751 101.738 13.9575 102.18 13.9575C102.294 13.9572 102.407 13.9503 102.519 13.937V14.6773C102.36 14.7058 102.198 14.721 102.036 14.7227C101.048 14.7227 100.654 14.375 100.654 13.5068V10.9638H99.9391V10.2153H100.654V9.07374H101.544ZM103.733 8.43701H104.614V10.9185H104.684C104.926 10.3872 105.475 10.0646 106.057 10.1118C106.499 10.0878 106.928 10.2618 107.227 10.5864C107.527 10.9111 107.667 11.3525 107.608 11.7905V14.6978H106.718V12.0098C106.718 11.2905 106.383 10.9263 105.756 10.9263C105.446 10.9009 105.142 11.0133 104.923 11.2334C104.705 11.4535 104.594 11.7589 104.622 12.0679V14.6977H103.733L103.733 8.43701ZM112.79 13.4819C112.54 14.3313 111.719 14.8801 110.839 14.7847C110.238 14.8005 109.661 14.5516 109.26 14.1041C108.86 13.6565 108.676 13.0555 108.758 12.4605C108.678 11.8638 108.861 11.2618 109.26 10.8105C109.658 10.3591 110.233 10.1028 110.835 10.1079C112.088 10.1079 112.843 10.9639 112.843 12.3779V12.688H109.664V12.7378C109.636 13.072 109.75 13.4025 109.978 13.6481C110.206 13.8936 110.528 14.0315 110.863 14.0278C111.298 14.08 111.721 13.8643 111.934 13.4819L112.79 13.4819ZM109.664 12.0308H111.938C111.961 11.7252 111.853 11.4242 111.642 11.2021C111.431 10.9799 111.136 10.8572 110.83 10.8643C110.519 10.8604 110.22 10.982 110.001 11.2017C109.781 11.4213 109.66 11.7203 109.664 12.0308Z" fill="white"/>
</svg>
