<svg width="255" height="299" viewBox="0 0 255 299" fill="none" xmlns="http://www.w3.org/2000/svg">
<path d="M98.2324 299C150.027 299 192.015 295.411 192.015 290.984C192.015 286.556 150.027 282.967 98.2324 282.967C46.4374 282.967 4.44931 286.556 4.44931 290.984C4.44931 295.411 46.4374 299 98.2324 299Z" fill="black" fill-opacity="0.1"/>
<path d="M140.605 276.963V245.487H171.75V276.963C171.75 285.049 165.181 291.608 157.081 291.608H155.239C147.14 291.573 140.605 285.049 140.605 276.963Z" fill="#F27442"/>
<path d="M157.081 293.066H155.239C146.341 293.066 139.11 285.847 139.11 276.963V245.487C139.11 244.689 139.771 244.03 140.57 244.03H171.715C172.515 244.03 173.175 244.689 173.175 245.487V276.963C173.21 285.847 165.98 293.066 157.081 293.066ZM142.065 246.945V276.929C142.065 284.182 147.974 290.116 155.274 290.116H157.116C164.381 290.116 170.325 284.216 170.325 276.929V246.945H142.065Z" fill="#552659"/>
<path d="M70.6675 276.963V245.487H101.813V276.963C101.813 285.049 95.2429 291.608 87.1438 291.608H85.3015C77.2372 291.573 70.6675 285.049 70.6675 276.963Z" fill="#F27442"/>
<path d="M87.1438 293.066H85.3015C76.4029 293.066 69.1728 285.847 69.1728 276.963V245.487C69.1728 244.689 69.8332 244.03 70.6327 244.03H101.778C102.577 244.03 103.238 244.689 103.238 245.487V276.963C103.273 285.847 96.0424 293.066 87.1438 293.066ZM72.1274 246.945V276.929C72.1274 284.182 78.0366 290.116 85.3363 290.116H87.1786C94.4435 290.116 100.387 284.216 100.387 276.929V246.945H72.1274Z" fill="#552659"/>
<path d="M209.117 176.046V214.601C209.117 226.019 199.836 235.285 188.4 235.285H160.94V255.725H193.927C226.81 255.725 253.471 229.107 253.471 196.278V176.046C253.471 163.83 243.53 153.905 231.294 153.905C219.024 153.905 209.117 163.83 209.117 176.046Z" fill="#F6904E"/>
<path d="M253.471 176.046H209.117V189.268H253.471V176.046Z" fill="#D34954"/>
<path d="M253.471 198.221H209.117V207.834H253.471V198.221Z" fill="#D34954"/>
<path d="M235.049 239.9C232.615 226.782 222.952 215.33 209.117 207.799V215.261C209.117 226.678 199.836 235.944 188.4 235.944H160.94V256.384H193.927C209.882 256.419 224.377 250.138 235.049 239.9Z" fill="#F27442"/>
<path d="M231.294 155.363C219.059 155.363 209.117 165.288 209.117 177.503V180.696C209.256 180.522 209.361 180.384 209.5 180.245C211.446 170.007 220.449 162.234 231.294 162.234C243.53 162.234 253.471 172.159 253.471 184.375V177.538C253.437 165.288 243.53 155.363 231.294 155.363Z" fill="#FAB367"/>
<path d="M193.892 257.217H160.94C160.14 257.217 159.48 256.558 159.48 255.76V235.319C159.48 234.521 160.14 233.862 160.94 233.862H188.4C199.037 233.862 207.658 225.221 207.658 214.636V176.08C207.658 163.067 218.259 152.482 231.294 152.482C244.33 152.482 254.931 163.067 254.931 176.08V196.313C254.931 229.871 227.54 257.217 193.892 257.217ZM162.4 254.267H193.927C225.941 254.267 252.012 228.24 252.012 196.278V176.046C252.012 164.663 242.731 155.363 231.294 155.363C219.858 155.363 210.577 164.628 210.577 176.046V214.601C210.577 226.817 200.636 236.777 188.366 236.777H162.365V254.267H162.4Z" fill="#552659"/>
<path d="M32.8484 220.258V241.601C32.8484 264.991 51.8275 283.939 75.2559 283.939H135.53C155.517 283.939 171.75 267.767 171.75 247.778V220.258H32.8484Z" fill="#F6904E"/>
<path d="M71.9189 222.201C113.805 227.58 147.627 247.396 160.384 273.285C167.753 265.754 172.272 255.482 172.272 244.169V222.201H71.9189Z" fill="#F27442"/>
<path d="M31.3884 218.8V248.923C31.3884 269.051 47.7257 285.396 67.9214 285.396H136.712C156.873 285.396 173.245 269.086 173.245 248.923V218.8H31.3884ZM170.255 248.923C170.255 267.455 155.204 282.447 136.677 282.447H67.9214C49.3595 282.447 34.343 267.42 34.343 248.923V221.715H170.29V248.923H170.255Z" fill="#552659"/>
<path d="M102.369 139.538L139.806 93.3128C143.247 89.0443 149.33 88.0378 153.988 90.9529C157.151 92.931 159.028 96.4014 159.028 100.115V140.51L102.369 139.538Z" fill="#F6904E"/>
<path d="M121.174 125.066L142.204 99.1083C144.151 96.7137 147.557 96.1585 150.164 97.7896C151.937 98.9001 153.015 100.843 153.015 102.926V125.622L121.174 125.066Z" fill="#F27442"/>
<path d="M159.028 141.967L102.334 140.995C101.778 140.995 101.257 140.648 101.048 140.162C100.805 139.642 100.874 139.052 101.222 138.635L138.658 92.4452C142.586 87.6214 149.504 86.4762 154.752 89.7731C158.333 92.0288 160.488 95.9155 160.488 100.149V140.509C160.488 140.891 160.314 141.273 160.036 141.551C159.793 141.828 159.41 141.967 159.028 141.967ZM105.393 138.115L157.568 139.017V100.149C157.568 96.9219 155.934 93.9722 153.188 92.237C149.191 89.7036 143.907 90.6059 140.918 94.2498L105.393 138.115Z" fill="#552659"/>
<path d="M37.9929 139.538L75.4297 93.3128C78.8709 89.0443 84.9539 88.0378 89.6118 90.9529C92.775 92.931 94.652 96.4014 94.652 100.115V140.51L37.9929 139.538Z" fill="#F6904E"/>
<path d="M57.8062 123.609L78.8361 97.6507C80.7827 95.2562 84.1892 94.7009 86.7962 96.332C88.569 97.4425 89.6466 99.3859 89.6466 101.468V124.164L57.8062 123.609Z" fill="#F27442"/>
<path d="M94.652 141.967L37.9581 140.995C37.402 140.995 36.8806 140.648 36.672 140.162C36.4287 139.642 36.4982 139.052 36.8458 138.635L74.2825 92.4452C78.2105 87.6214 85.1277 86.4762 90.3765 89.7731C93.9568 92.0288 96.112 95.9155 96.112 100.149V140.509C96.112 140.891 95.9382 141.273 95.6601 141.551C95.4168 141.828 95.0344 141.967 94.652 141.967ZM41.017 138.115L93.1921 139.017V100.149C93.1921 96.9219 91.5584 93.9722 88.8123 92.237C84.8149 89.7036 79.5313 90.6059 76.542 94.2498L41.017 138.115Z" fill="#552659"/>
<path d="M97.1548 265.06C144.803 265.06 183.43 231.484 183.43 190.066C183.43 148.648 144.803 115.072 97.1548 115.072C49.5065 115.072 10.8799 148.648 10.8799 190.066C10.8799 231.484 49.5065 265.06 97.1548 265.06Z" fill="#552659"/>
<path d="M94.6521 257.564C146.121 257.564 187.844 223.988 187.844 182.57C187.844 141.152 146.121 107.576 94.6521 107.576C43.1835 107.576 1.45993 141.152 1.45993 182.57C1.45993 223.988 43.1835 257.564 94.6521 257.564Z" fill="#F6904E"/>
<path d="M91.7322 235.875C130.914 235.875 162.678 207.348 162.678 172.159C162.678 136.97 130.914 108.443 91.7322 108.443C52.55 108.443 20.7866 136.97 20.7866 172.159C20.7866 207.348 52.55 235.875 91.7322 235.875Z" fill="#FAB367"/>
<path d="M86.2401 228.309C76.8201 228.309 68.0605 223.242 63.3679 215.122L51.9318 195.306C49.6028 191.315 48.3862 186.734 48.3862 182.119V181.008C48.3862 166.468 60.2395 154.634 74.804 154.634H97.6762C112.241 154.634 124.094 166.468 124.094 181.008V182.119C124.094 186.734 122.877 191.315 120.548 195.306L109.112 215.122C104.42 223.242 95.6601 228.309 86.2401 228.309ZM74.804 157.583C61.8384 157.583 51.3061 168.099 51.3061 181.043V182.154C51.3061 186.249 52.3837 190.309 54.4345 193.883L65.8706 213.699C70.0418 220.952 77.8629 225.429 86.2053 225.429C94.5826 225.429 102.369 220.917 106.54 213.699L117.976 193.883C120.027 190.309 121.105 186.283 121.105 182.154V181.043C121.105 168.099 110.572 157.583 97.6067 157.583H74.804Z" fill="#552659"/>
<path d="M107.826 115.141H100.666C98.7885 115.141 97.259 116.668 97.259 118.542C97.259 120.416 98.7885 121.943 100.666 121.943H107.826C109.703 121.943 111.233 120.416 111.233 118.542C111.233 116.668 109.703 115.141 107.826 115.141Z" fill="#552659"/>
<path d="M71.7451 115.141H64.5845C62.7074 115.141 61.178 116.668 61.178 118.542C61.178 120.416 62.7074 121.943 64.5845 121.943H71.7451C73.6221 121.943 75.1516 120.416 75.1516 118.542C75.1516 116.668 73.6221 115.141 71.7451 115.141Z" fill="#552659"/>
<path d="M134.348 194.265C134.348 197.041 136.608 199.262 139.354 199.262H186.384V189.268H139.354C136.608 189.268 134.348 191.524 134.348 194.265Z" fill="#D34954"/>
<path d="M139.354 169.417C136.573 169.417 134.348 171.673 134.348 174.415C134.348 177.191 136.608 179.412 139.354 179.412H187.462V169.417H139.354Z" fill="#D34954"/>
<path d="M29.3029 189.268H2.91986V199.262H29.3029C32.0837 199.262 34.3083 197.007 34.3083 194.265C34.3083 191.524 32.0837 189.268 29.3029 189.268Z" fill="#D34954"/>
<path d="M29.3029 169.417H2.91986V179.412H29.3029C32.0837 179.412 34.3083 177.156 34.3083 174.415C34.3083 171.638 32.0837 169.417 29.3029 169.417Z" fill="#D34954"/>
<path d="M132.124 268.53V276.929C132.124 285.015 125.554 291.573 117.455 291.573H115.612C107.513 291.573 100.944 285.015 100.944 276.929V268.53" fill="#F6904E"/>
<path d="M117.455 293.066H115.612C106.714 293.066 99.4838 285.847 99.4838 276.963V268.565C99.4838 267.767 100.144 267.108 100.944 267.108C101.743 267.108 102.404 267.767 102.404 268.565V276.963C102.404 284.216 108.313 290.151 115.612 290.151H117.455C124.72 290.151 130.664 284.251 130.664 276.963V268.565C130.664 267.767 131.324 267.108 132.124 267.108C132.923 267.108 133.584 267.767 133.584 268.565V276.963C133.584 285.847 126.353 293.066 117.455 293.066Z" fill="#552659"/>
<path d="M63.9935 268.53V276.929C63.9935 285.015 57.4239 291.573 49.3247 291.573H47.4824C39.3833 291.573 32.8136 285.015 32.8136 276.929V245.453" fill="#F6904E"/>
<path d="M49.3595 293.066H47.5172C38.6185 293.066 31.3884 285.847 31.3884 276.963V245.487C31.3884 244.689 32.0489 244.03 32.8484 244.03C33.6478 244.03 34.3083 244.689 34.3083 245.487V276.963C34.3083 284.216 40.2175 290.151 47.5172 290.151H49.3595C56.6243 290.151 62.5683 284.251 62.5683 276.963V268.565C62.5683 267.767 63.2288 267.108 64.0283 267.108C64.8277 267.108 65.4882 267.767 65.4882 268.565V276.963C65.4534 285.847 58.2233 293.066 49.3595 293.066Z" fill="#552659"/>
<path d="M140.605 63.8495C161.665 63.8495 178.737 49.9282 178.737 32.7553C178.737 15.5824 161.665 1.66107 140.605 1.66107C119.545 1.66107 102.473 15.5824 102.473 32.7553C102.473 49.9282 119.545 63.8495 140.605 63.8495Z" fill="white"/>
<path d="M140.605 65.3418C118.776 65.3418 101.013 50.7317 101.013 32.79C101.013 14.8483 118.776 0.23822 140.605 0.23822C162.435 0.23822 180.197 14.8483 180.197 32.79C180.197 50.7317 162.435 65.3418 140.605 65.3418ZM140.605 3.11858C120.375 3.11858 103.933 16.41 103.933 32.7553C103.933 49.1006 120.375 62.392 140.605 62.392C160.836 62.392 177.277 49.1006 177.277 32.7553C177.277 16.41 160.801 3.11858 140.605 3.11858Z" fill="#D0D0D4"/>
<path d="M130.49 44.5892C124.233 44.5892 118.88 41.5353 116.586 37.2321C115.821 35.7745 115.404 34.2129 115.404 32.5471C115.404 25.884 122.147 20.4703 130.49 20.4703V44.5892Z" fill="white"/>
<path d="M159.723 40.7024C158.958 39.2449 158.541 37.6832 158.541 36.0174C158.541 34.0394 160.001 31.4713 161.635 29.2156C163.13 27.1334 160.87 24.4959 158.576 25.5718C154.057 27.654 150.998 31.5754 150.998 36.0521C150.998 37.7179 151.416 39.3143 152.18 40.7371C153.362 42.9581 155.309 44.8321 157.811 46.1161C160.14 47.3307 162.504 44.4851 160.87 42.4029C160.384 41.7782 160.001 41.1882 159.723 40.7024Z" fill="white"/>
<path d="M161.044 36.538C160.384 35.254 160.036 33.9006 160.036 32.5124C160.036 31.749 160.418 29.9443 162.852 26.5434C163.894 25.0859 163.86 23.1772 162.713 21.789C161.566 20.3662 159.654 19.9498 157.985 20.7132C153.327 22.8649 150.234 26.7516 149.678 31.0549H145.298C145.819 29.285 147.244 27.6886 149.33 26.7516C150.06 26.4046 150.373 25.537 150.06 24.8082C149.712 24.0795 148.843 23.7671 148.113 24.0795C144.95 25.537 142.83 28.1398 142.308 31.0549H137.164C137.755 27.8968 140.153 25.0165 143.734 23.3854C144.463 23.0384 144.776 22.1708 144.463 21.442C144.116 20.7132 143.247 20.4009 142.517 20.7132C137.859 22.8649 134.765 26.7516 134.209 31.0549H132.019V20.4356C132.019 19.6374 131.359 18.9781 130.559 18.9781C121.452 18.9781 114.014 25.0512 114.014 32.5124C114.014 34.3517 114.465 36.1563 115.334 37.822C115.334 37.822 115.334 37.8567 115.369 37.8567C117.976 42.8193 123.955 46.0121 130.559 46.0121C131.359 46.0121 132.019 45.3527 132.019 44.5545V33.97H134.174C134.348 35.3234 134.765 36.6422 135.426 37.8915C136.747 40.3554 138.867 42.4376 141.648 43.8952C141.856 43.9993 142.1 44.0687 142.343 44.0687C142.865 44.0687 143.386 43.7911 143.629 43.3052C144.012 42.5764 143.734 41.7088 143.004 41.3271C140.744 40.1472 139.041 38.4814 137.998 36.538C137.581 35.7051 137.268 34.8723 137.129 33.97H142.308C142.447 34.7681 142.725 35.5316 143.108 36.2951C144.046 38.0303 145.541 39.5225 147.488 40.5289C147.696 40.633 147.939 40.7025 148.183 40.7025C148.704 40.7025 149.226 40.4248 149.469 39.939C149.851 39.2102 149.573 38.3426 148.843 37.9609C147.418 37.1974 146.341 36.1563 145.68 34.9417C145.506 34.6293 145.402 34.317 145.298 34.0047H149.643C149.817 35.3581 150.234 36.6768 150.894 37.9262C152.215 40.3901 154.335 42.4723 157.116 43.9299C157.707 44.2422 158.333 44.381 158.958 44.381C160.071 44.381 161.148 43.8952 161.913 42.9582C163.13 41.5006 163.164 39.5225 162.017 38.0303C161.461 37.2668 161.183 36.781 161.044 36.538ZM129.03 43.0623C125.067 42.7152 121.522 41.0495 119.297 38.5161L123.99 38.2385C124.789 38.2038 125.415 37.5097 125.38 36.6769C125.345 35.8787 124.615 35.2193 123.816 35.2887L117.524 35.6704C117.107 34.6293 116.899 33.5882 116.899 32.4777C116.899 27.0292 122.217 22.5178 129.03 21.9279V43.0623ZM159.688 41.0842C159.549 41.2577 159.098 41.6741 158.507 41.3271C156.247 40.1472 154.544 38.4814 153.501 36.538C152.841 35.254 152.493 33.9006 152.493 32.5124C152.493 28.7645 155.065 25.2594 159.202 23.3507C159.376 23.2813 159.515 23.2466 159.654 23.2466C160.071 23.2466 160.349 23.5242 160.418 23.6283C160.557 23.8018 160.836 24.253 160.453 24.8082C158.194 27.9662 157.081 30.4649 157.081 32.4777C157.081 34.3517 157.533 36.1563 158.437 37.8567C158.715 38.3773 159.132 39.002 159.723 39.7654C160.175 40.3901 159.827 40.9107 159.688 41.0842Z" fill="#FBC187"/>
<path d="M124.615 33.137C126.228 33.137 127.535 31.8319 127.535 30.2219C127.535 28.612 126.228 27.3069 124.615 27.3069C123.003 27.3069 121.696 28.612 121.696 30.2219C121.696 31.8319 123.003 33.137 124.615 33.137Z" fill="#FBC187"/>
<path d="M122.078 74.8159C125.111 74.8159 127.57 73.0757 127.57 70.9291C127.57 68.7824 125.111 67.0422 122.078 67.0422C119.045 67.0422 116.586 68.7824 116.586 70.9291C116.586 73.0757 119.045 74.8159 122.078 74.8159Z" fill="white"/>
<path d="M122.078 76.3081C118.185 76.3081 115.126 73.9483 115.126 70.9291C115.126 67.9099 118.185 65.55 122.078 65.55C125.971 65.55 129.03 67.9099 129.03 70.9291C129.03 73.9483 125.971 76.3081 122.078 76.3081ZM122.078 68.4998C119.714 68.4998 118.046 69.7838 118.046 70.9291C118.046 72.0743 119.679 73.3583 122.078 73.3583C124.442 73.3583 126.11 72.0743 126.11 70.9291C126.11 69.7838 124.442 68.4998 122.078 68.4998Z" fill="#D0D0D4"/>
<path d="M112.415 87.5521C114.949 87.5521 117.003 86.0916 117.003 84.2899C117.003 82.4882 114.949 81.0277 112.415 81.0277C109.88 81.0277 107.826 82.4882 107.826 84.2899C107.826 86.0916 109.88 87.5521 112.415 87.5521Z" fill="white"/>
<path d="M112.415 89.0442C109.008 89.0442 106.366 86.962 106.366 84.3245C106.366 81.6524 109.043 79.6049 112.415 79.6049C115.786 79.6049 118.463 81.6871 118.463 84.3245C118.463 86.962 115.786 89.0442 112.415 89.0442ZM112.415 82.4853C110.607 82.4853 109.286 83.457 109.286 84.2899C109.286 85.1227 110.642 86.0944 112.415 86.0944C114.187 86.0944 115.543 85.1227 115.543 84.2899C115.543 83.457 114.187 82.4853 112.415 82.4853Z" fill="#D0D0D4"/>
<path d="M87.1439 276.616L83.2855 278.872C83.0422 279.011 82.7293 279.011 82.486 278.872L78.6276 276.616C75.4992 274.812 73.7264 272.14 73.7264 269.329V266.83C73.7264 266.587 74.074 266.379 74.4216 266.413C77.0287 266.691 79.74 266.136 81.617 264.817L82.4513 264.262C82.6946 264.088 83.0769 264.088 83.3203 264.262L84.1197 264.817C85.9968 266.136 88.7081 266.726 91.3151 266.413C91.6975 266.379 92.0103 266.552 92.0103 266.83L92.0451 269.294C92.0451 272.14 90.2375 274.777 87.1439 276.616Z" fill="#EE4A8A"/>
<path d="M74.804 157.584C61.8384 157.584 51.3061 168.099 51.3061 181.043V182.154C51.3061 186.249 52.3837 190.309 54.4345 193.883L65.8706 213.699C70.0418 220.952 77.8629 225.429 86.2053 225.429C94.5826 225.429 102.369 220.917 106.54 213.699L117.976 193.883C120.027 190.309 121.105 186.283 121.105 182.154V181.043C121.105 168.099 110.572 157.584 97.6067 157.584H74.804Z" fill="white"/>
<path d="M86.2053 176.323C85.232 178.718 82.8684 180.28 80.2961 180.28C77.7238 180.28 75.3601 178.718 74.3869 176.323L72.4751 171.743C71.3627 169.07 73.3441 166.121 76.2292 166.121H84.3283C87.2134 166.121 89.1947 169.07 88.0824 171.743L86.2053 176.323Z" fill="#552659"/>
<path d="M82.8684 194.161C68.0605 194.161 56.0335 185.416 56.0335 174.658C56.0335 173.859 56.6939 173.2 57.4934 173.2C58.2929 173.2 58.9533 173.859 58.9533 174.658C58.9533 183.819 69.6595 191.246 82.8336 191.246C96.0077 191.246 106.714 183.819 106.714 174.658C106.714 173.859 107.374 173.2 108.174 173.2C108.973 173.2 109.634 173.859 109.634 174.658C109.703 185.416 97.6762 194.161 82.8684 194.161Z" fill="#552659"/>
<path d="M80.2961 193.953C79.4966 193.953 78.8362 193.293 78.8362 192.495V177.087C78.8362 176.289 79.4966 175.629 80.2961 175.629C81.0956 175.629 81.756 176.289 81.756 177.087V192.495C81.7908 193.293 81.1304 193.953 80.2961 193.953Z" fill="#552659"/>
<path d="M104.246 162.442C111.963 162.442 118.22 154.363 118.22 144.396C118.22 134.43 111.963 126.35 104.246 126.35C96.5285 126.35 90.2723 134.43 90.2723 144.396C90.2723 154.363 96.5285 162.442 104.246 162.442Z" fill="white"/>
<path d="M102.577 155.085C107.358 155.085 111.233 151.216 111.233 146.444C111.233 141.671 107.358 137.803 102.577 137.803C97.7972 137.803 93.9221 141.671 93.9221 146.444C93.9221 151.216 97.7972 155.085 102.577 155.085Z" fill="#435AA8"/>
<path d="M102.577 156.542C97.0157 156.542 92.4622 151.996 92.4622 146.444C92.4622 140.891 97.0157 136.345 102.577 136.345C108.139 136.345 112.693 140.891 112.693 146.444C112.693 151.996 108.174 156.542 102.577 156.542ZM102.577 139.295C98.6147 139.295 95.382 142.522 95.382 146.478C95.382 150.435 98.6147 153.662 102.577 153.662C106.54 153.662 109.773 150.435 109.773 146.478C109.773 142.488 106.54 139.295 102.577 139.295Z" fill="#54C9F1"/>
<path d="M98.7537 150.678C100.827 150.678 102.508 148.999 102.508 146.93C102.508 144.86 100.827 143.182 98.7537 143.182C96.6804 143.182 94.9996 144.86 94.9996 146.93C94.9996 148.999 96.6804 150.678 98.7537 150.678Z" fill="white"/>
<path d="M118.254 144.396C118.254 134.436 111.997 126.35 104.281 126.35C96.5639 126.35 90.307 134.436 90.307 144.396H118.254Z" fill="#F6904E"/>
<path d="M104.246 163.9C95.7296 163.9 88.7776 155.154 88.7776 144.396C88.7776 133.638 95.6949 124.893 104.246 124.893C112.762 124.893 119.714 133.638 119.714 144.396C119.714 155.154 112.797 163.9 104.246 163.9ZM104.246 127.808C97.3286 127.808 91.7322 135.234 91.7322 144.396C91.7322 153.558 97.3634 160.984 104.246 160.984C111.128 160.984 116.76 153.558 116.76 144.396C116.76 135.234 111.163 127.808 104.246 127.808Z" fill="#552659"/>
<path d="M127.779 146.583H90.307C89.5075 146.583 88.8471 145.923 88.8471 145.125C88.8471 144.327 89.5075 143.668 90.307 143.668H127.779C128.578 143.668 129.238 144.327 129.238 145.125C129.238 145.923 128.578 146.583 127.779 146.583Z" fill="#552659"/>
<path d="M68.2343 162.442C75.9517 162.442 82.2079 154.363 82.2079 144.396C82.2079 134.43 75.9517 126.35 68.2343 126.35C60.5169 126.35 54.2607 134.43 54.2607 144.396C54.2607 154.363 60.5169 162.442 68.2343 162.442Z" fill="white"/>
<path d="M66.5658 155.085C71.346 155.085 75.2211 151.216 75.2211 146.444C75.2211 141.671 71.346 137.803 66.5658 137.803C61.7856 137.803 57.9105 141.671 57.9105 146.444C57.9105 151.216 61.7856 155.085 66.5658 155.085Z" fill="#435AA8"/>
<path d="M66.5658 156.542C61.0042 156.542 56.4506 151.996 56.4506 146.444C56.4506 140.891 61.0042 136.345 66.5658 136.345C72.1274 136.345 76.681 140.891 76.681 146.444C76.681 151.996 72.1274 156.542 66.5658 156.542ZM66.5658 139.295C62.6032 139.295 59.3705 142.522 59.3705 146.478C59.3705 150.435 62.6032 153.662 66.5658 153.662C70.5285 153.662 73.7612 150.435 73.7612 146.478C73.7264 142.488 70.5285 139.295 66.5658 139.295Z" fill="#54C9F1"/>
<path d="M62.7422 150.678C64.8155 150.678 66.4963 148.999 66.4963 146.93C66.4963 144.86 64.8155 143.182 62.7422 143.182C60.6688 143.182 58.9881 144.86 58.9881 146.93C58.9881 148.999 60.6688 150.678 62.7422 150.678Z" fill="white"/>
<path d="M82.2079 144.396C82.2079 134.436 75.9511 126.35 68.2343 126.35C60.5175 126.35 54.2607 134.436 54.2607 144.396H82.2079Z" fill="#F6904E"/>
<path d="M68.2343 163.9C59.718 163.9 52.766 155.154 52.766 144.396C52.766 133.638 59.6833 124.893 68.2343 124.893C76.7505 124.893 83.7026 133.638 83.7026 144.396C83.6678 155.154 76.7505 163.9 68.2343 163.9ZM68.2343 127.808C61.317 127.808 55.7206 135.234 55.7206 144.396C55.7206 153.558 61.3518 160.984 68.2343 160.984C75.1168 160.984 80.748 153.558 80.748 144.396C80.748 135.234 75.1168 127.808 68.2343 127.808Z" fill="#552659"/>
<path d="M81.478 146.583H44.0064C43.207 146.583 42.5465 145.923 42.5465 145.125C42.5465 144.327 43.207 143.668 44.0064 143.668H81.478C82.2774 143.668 82.9379 144.327 82.9379 145.125C82.9379 145.923 82.2774 146.583 81.478 146.583Z" fill="#552659"/>
<path d="M94.6521 259.022C42.477 259.022 0 224.735 0 182.57C0 140.405 42.477 106.118 94.6521 106.118C146.827 106.118 189.304 140.405 189.304 182.57C189.304 224.735 146.862 259.022 94.6521 259.022ZM94.6521 109.034C44.076 109.034 2.91986 142.036 2.91986 182.57C2.91986 223.104 44.076 256.107 94.6521 256.107C145.228 256.107 186.384 223.104 186.384 182.57C186.384 142.036 145.228 109.034 94.6521 109.034Z" fill="#552659"/>
<path d="M78.8362 172.159C80.9671 172.159 82.6946 171.538 82.6946 170.771C82.6946 170.004 80.9671 169.383 78.8362 169.383C76.7053 169.383 74.9778 170.004 74.9778 170.771C74.9778 171.538 76.7053 172.159 78.8362 172.159Z" fill="white"/>
</svg>
