<svg width="215" height="321" viewBox="0 0 215 321" fill="none" xmlns="http://www.w3.org/2000/svg">
<path d="M211.377 125.175L176.929 81.4143C172.167 75.3759 163.442 74.3348 157.394 79.0891C156.803 79.5403 156.282 80.0608 155.795 80.5814C145.054 92.0682 139.597 106.782 139.597 124.655C139.597 135.031 141.856 144.817 145.854 153.459C145.541 150.752 145.332 147.975 145.332 145.13C145.332 129.34 150.546 114.903 159.167 103.833L189.478 142.319C194.24 148.357 202.965 149.398 209.013 144.644C215.061 139.924 216.104 131.179 211.377 125.175Z" fill="#552659"/>
<path d="M84.2588 113.237C84.2588 95.3303 78.8362 80.6161 68.0605 69.164C67.5738 68.6434 67.0524 68.1229 66.4615 67.6717C60.4132 62.9173 51.6884 63.9931 46.9263 69.9968L12.4788 113.758C7.71666 119.796 8.79425 128.507 14.8078 133.261C20.8561 138.016 29.5809 136.94 34.343 130.936L64.654 92.4499C73.2745 103.52 78.4886 117.957 78.4886 133.747C78.4886 136.558 78.3148 139.334 77.9672 142.076C81.9994 133.4 84.2588 123.648 84.2588 113.237Z" fill="#552659"/>
<path d="M112.136 320.59C163.931 320.59 205.919 317.001 205.919 312.574C205.919 308.146 163.931 304.557 112.136 304.557C60.3414 304.557 18.3534 308.146 18.3534 312.574C18.3534 317.001 60.3414 320.59 112.136 320.59Z" fill="black" fill-opacity="0.1"/>
<path d="M129.76 287.449V295.847C129.76 303.933 123.19 310.492 115.091 310.492H113.249C105.15 310.492 98.5798 303.933 98.5798 295.847V287.449" fill="#D49072"/>
<path d="M115.091 311.949H113.249C104.35 311.949 97.1199 304.731 97.1199 295.847V287.449C97.1199 286.65 97.7804 285.991 98.5798 285.991C99.3793 285.991 100.04 286.65 100.04 287.449V295.847C100.04 303.1 105.949 309.034 113.249 309.034H115.091C122.356 309.034 128.3 303.134 128.3 295.847V287.449C128.3 286.65 128.96 285.991 129.76 285.991C130.559 285.991 131.22 286.65 131.22 287.449V295.847C131.22 304.731 123.99 311.949 115.091 311.949Z" fill="#552659"/>
<path d="M175.608 269.993L159.341 291.96L146.966 282.833L163.234 260.866C164.416 259.235 166.71 258.922 168.344 260.102L174.844 264.891C176.477 266.071 176.825 268.362 175.608 269.993Z" fill="#D49072"/>
<path d="M159.654 294.007L144.915 283.111L159.654 263.226C162.643 259.165 168.413 258.298 172.48 261.317C176.547 264.301 177.416 270.062 174.392 274.122L159.654 294.007ZM149.017 282.521L159.028 289.912L172.028 272.353C174.079 269.611 173.488 265.689 170.742 263.642C167.996 261.594 164.068 262.184 162.017 264.926L149.017 282.521Z" fill="#552659"/>
<path d="M149.121 265.481V249.032H51.6188V296.957H166.362V282.694C166.362 277.94 162.504 274.088 157.742 274.088C152.98 274.088 149.121 270.236 149.121 265.481Z" fill="#EEB38B"/>
<path d="M149.121 265.481V249.032H51.6188V262.67C72.6835 270.548 98.0932 275.129 125.484 275.129C135.391 275.129 145.019 274.539 154.3 273.394C151.276 272.04 149.121 269.021 149.121 265.481Z" fill="#D49072"/>
<path d="M166.362 298.415H51.6187C50.8192 298.415 50.1588 297.755 50.1588 296.957V249.032C50.1588 248.234 50.8192 247.574 51.6187 247.574H149.121C149.921 247.574 150.581 248.234 150.581 249.032V265.481C150.581 269.403 153.779 272.63 157.742 272.63C163.303 272.63 167.822 277.142 167.822 282.694V296.957C167.822 297.755 167.162 298.415 166.362 298.415ZM53.0786 295.5H164.868V282.694C164.868 278.773 161.67 275.545 157.707 275.545C152.145 275.545 147.627 271.034 147.627 265.481V250.489H53.0786V295.5Z" fill="#552659"/>
<path d="M82.7988 287.449V295.847C82.7988 303.933 76.2291 310.492 68.13 310.492H66.2876C58.1885 310.492 51.6188 303.933 51.6188 295.847V264.371" fill="#EEB38B"/>
<path d="M68.1647 311.949H66.3224C57.4237 311.949 50.1936 304.731 50.1936 295.847V264.371C50.1936 263.573 50.8541 262.913 51.6536 262.913C52.453 262.913 53.1135 263.573 53.1135 264.371V295.847C53.1135 303.1 59.0227 309.034 66.3224 309.034H68.1647C75.4295 309.034 81.3735 303.135 81.3735 295.847V287.449C81.3735 286.65 82.034 285.991 82.8335 285.991C83.6329 285.991 84.2934 286.65 84.2934 287.449V295.847C84.2587 304.731 77.0285 311.949 68.1647 311.949Z" fill="#552659"/>
<path d="M137.198 63.6461C158.258 63.6461 175.33 49.7247 175.33 32.5518C175.33 15.3789 158.258 1.45755 137.198 1.45755C116.139 1.45755 99.0665 15.3789 99.0665 32.5518C99.0665 49.7247 116.139 63.6461 137.198 63.6461Z" fill="white"/>
<path d="M137.198 65.1036C115.369 65.1036 97.6066 50.4935 97.6066 32.5518C97.6066 14.6101 115.334 0 137.198 0C159.028 0 176.79 14.6101 176.79 32.5518C176.79 50.4935 159.028 65.1036 137.198 65.1036ZM137.198 2.91509C116.968 2.91509 100.526 16.2065 100.526 32.5518C100.526 48.8971 116.968 62.1885 137.198 62.1885C157.429 62.1885 173.871 48.8971 173.871 32.5518C173.871 16.2065 157.394 2.91509 137.198 2.91509Z" fill="#D0D0D4"/>
<path d="M118.671 74.6124C121.705 74.6124 124.163 72.8722 124.163 70.7256C124.163 68.579 121.705 66.8388 118.671 66.8388C115.638 66.8388 113.179 68.579 113.179 70.7256C113.179 72.8722 115.638 74.6124 118.671 74.6124Z" fill="white"/>
<path d="M118.671 76.1046C114.778 76.1046 111.719 73.7448 111.719 70.7256C111.719 67.7064 114.778 65.3466 118.671 65.3466C122.564 65.3466 125.623 67.7064 125.623 70.7256C125.623 73.7448 122.564 76.1046 118.671 76.1046ZM118.671 68.2964C116.308 68.2964 114.639 69.5804 114.639 70.7256C114.639 71.8708 116.273 73.1548 118.671 73.1548C121.035 73.1548 122.703 71.8708 122.703 70.7256C122.669 69.5804 121.035 68.2964 118.671 68.2964Z" fill="#D0D0D4"/>
<path d="M109.008 87.3485C111.542 87.3485 113.596 85.888 113.596 84.0864C113.596 82.2848 111.542 80.8243 109.008 80.8243C106.474 80.8243 104.42 82.2848 104.42 84.0864C104.42 85.888 106.474 87.3485 109.008 87.3485Z" fill="white"/>
<path d="M109.008 88.8061C105.601 88.8061 102.96 86.7239 102.96 84.0864C102.96 81.4142 105.636 79.3667 109.008 79.3667C112.414 79.3667 115.056 81.4489 115.056 84.0864C115.056 86.7586 112.38 88.8061 109.008 88.8061ZM109.008 82.2818C107.2 82.2818 105.879 83.2535 105.879 84.0864C105.879 84.954 107.235 85.891 109.008 85.891C110.781 85.891 112.136 84.9193 112.136 84.0864C112.136 83.2188 110.781 82.2818 109.008 82.2818Z" fill="#D0D0D4"/>
<path d="M99.136 275.059C140.257 275.059 173.592 241.312 173.592 199.684C173.592 158.055 140.257 124.308 99.136 124.308C58.0148 124.308 24.6796 158.055 24.6796 199.684C24.6796 241.312 58.0148 275.059 99.136 275.059Z" fill="#552659"/>
<path d="M99.136 269.16C145.575 269.16 183.221 235.413 183.221 193.784C183.221 152.155 145.575 118.408 99.136 118.408C52.6972 118.408 15.051 152.155 15.051 193.784C15.051 235.413 52.6972 269.16 99.136 269.16Z" fill="#D49072"/>
<path d="M93.6439 257.014C131.329 257.014 161.878 226.483 161.878 188.821C161.878 151.16 131.329 120.629 93.6439 120.629C55.9591 120.629 25.4095 151.16 25.4095 188.821C25.4095 226.483 55.9591 257.014 93.6439 257.014Z" fill="#EEB38B"/>
<path d="M99.1361 270.617C51.9665 270.617 13.5565 236.157 13.5565 193.784C13.5565 151.411 51.9317 116.951 99.1361 116.951C146.34 116.951 184.716 151.411 184.716 193.784C184.716 236.157 146.306 270.617 99.1361 270.617ZM99.1361 119.866C53.5654 119.866 16.5111 153.007 16.5111 193.749C16.5111 234.491 53.5654 267.633 99.1361 267.633C144.707 267.633 181.761 234.491 181.761 193.749C181.761 153.007 144.672 119.866 99.1361 119.866Z" fill="#552659"/>
<path d="M115.353 199.128C131.063 195.756 140.413 177.3 136.236 157.906C132.06 138.511 115.938 125.522 100.228 128.894C84.5183 132.266 75.1685 150.722 79.3451 170.117C83.5217 189.511 99.643 202.5 115.353 199.128Z" fill="#A46270"/>
<path d="M108.933 179.842C118.442 177.432 123.734 165.976 120.754 154.254C117.774 142.531 107.65 134.981 98.1414 137.39C88.6326 139.8 83.3399 151.256 86.3199 162.979C89.2998 174.701 99.424 182.251 108.933 179.842Z" fill="white"/>
<path d="M105.323 181.742C96.3205 181.742 87.6304 174.246 84.8496 163.349C83.3202 157.345 83.8068 151.238 86.1705 146.101C88.6037 140.861 92.7054 137.287 97.7456 136.003C108.035 133.4 118.984 141.416 122.147 153.91C123.677 159.913 123.19 166.021 120.826 171.157C118.393 176.398 114.292 179.972 109.251 181.256C107.965 181.568 106.644 181.742 105.323 181.742ZM101.708 138.397C100.631 138.397 99.5532 138.536 98.4756 138.814C94.3044 139.855 90.8979 142.874 88.8471 147.316C86.7614 151.828 86.3443 157.276 87.6999 162.62C90.4808 173.552 99.8313 180.631 108.521 178.41C112.693 177.369 116.099 174.35 118.15 169.908C120.235 165.397 120.653 159.948 119.297 154.604C116.899 145.026 109.39 138.397 101.708 138.397Z" fill="#552659"/>
<path d="M111.093 115.875H99.6226C95.2081 115.875 91.6278 119.449 91.6278 123.857C91.6278 128.264 95.2081 131.838 99.6226 131.838H111.093C115.508 131.838 119.088 128.264 119.088 123.857C119.088 119.449 115.508 115.875 111.093 115.875Z" fill="#552659"/>
<path d="M66.392 115.875H54.9211C50.5066 115.875 46.9263 119.449 46.9263 123.857C46.9263 128.264 50.5066 131.838 54.9211 131.838H66.392C70.8065 131.838 74.3868 128.264 74.3868 123.857C74.3868 119.449 70.8065 115.875 66.392 115.875Z" fill="#552659"/>
<path d="M135.043 233.103C133.688 233.103 132.402 233.311 131.185 233.624V225.642C132.402 225.989 133.688 226.162 135.043 226.162C141.613 226.162 146.966 221.824 146.966 216.48C146.966 211.136 141.648 206.798 135.043 206.798C128.439 206.798 123.121 211.136 123.121 216.48V225.642H25.2707V216.48C25.2707 211.136 19.9523 206.798 13.3479 206.798C6.77821 206.798 1.42517 211.136 1.42517 216.48C1.42517 221.824 6.74345 226.162 13.3479 226.162C14.7035 226.162 15.9897 225.954 17.2063 225.642V233.624C15.9897 233.276 14.7035 233.103 13.3479 233.103C6.77821 233.103 1.42517 237.441 1.42517 242.785C1.42517 248.13 6.74345 252.467 13.3479 252.467C19.2224 252.467 24.0888 248.997 25.0621 244.451L25.2359 233.624H123.086L123.26 244.451C124.233 248.997 129.099 252.467 134.974 252.467C141.544 252.467 146.896 248.13 146.896 242.785C146.966 237.441 141.613 233.103 135.043 233.103Z" fill="#FAF3D4"/>
<path d="M135.043 253.96C128.543 253.96 123.016 250.108 121.904 244.763L121.869 244.486L121.695 235.081H26.7306L26.522 244.763C25.3749 250.073 19.8481 253.96 13.3827 253.96C6.01352 253.96 0 248.962 0 242.785C0 236.643 6.01352 231.611 13.3827 231.611C14.1822 231.611 14.9816 231.68 15.7811 231.784V227.412C14.9816 227.516 14.1822 227.585 13.3827 227.585C6.01352 227.585 0 222.588 0 216.411C0 210.268 6.01352 205.236 13.3827 205.236C20.7518 205.236 26.7654 210.233 26.7654 216.411V224.184H121.661V216.48C121.661 210.337 127.674 205.305 135.043 205.305C142.413 205.305 148.426 210.303 148.426 216.48C148.426 222.622 142.413 227.655 135.043 227.655C134.244 227.655 133.444 227.585 132.645 227.481V231.819C133.444 231.715 134.244 231.645 135.043 231.645C142.413 231.645 148.426 236.643 148.426 242.82C148.426 248.928 142.413 253.96 135.043 253.96ZM124.789 244.277C125.693 248.199 130.003 251.01 135.043 251.01C140.814 251.01 145.471 247.331 145.471 242.785C145.471 238.239 140.779 234.56 135.043 234.56C133.896 234.56 132.714 234.734 131.602 235.046L129.76 235.567V223.733L131.602 224.254C132.749 224.566 133.896 224.739 135.043 224.739C140.814 224.739 145.471 221.061 145.471 216.515C145.471 211.969 140.779 208.29 135.043 208.29C129.273 208.29 124.615 211.969 124.615 216.515V227.134H23.8455V216.515C23.8455 211.969 19.1529 208.29 13.4174 208.29C7.682 208.29 2.98937 211.969 2.98937 216.515C2.98937 221.061 7.682 224.739 13.4174 224.739C14.5645 224.739 15.7464 224.566 16.8587 224.254L18.701 223.733V235.567L16.8587 235.046C15.7116 234.734 14.5645 234.56 13.4174 234.56C7.64724 234.56 2.98937 238.239 2.98937 242.785C2.98937 247.331 7.682 251.01 13.4174 251.01C18.4577 251.01 22.7679 248.199 23.6717 244.277L23.8802 232.166H124.615L124.789 244.277Z" fill="#552659"/>
<path d="M109.773 210.372C111.302 213.183 112.171 216.376 112.171 219.812C112.171 230.5 103.794 239.141 93.4701 239.141C84.8843 239.141 77.6542 233.172 75.4643 225.052" fill="#EEB38B"/>
<path d="M39.9046 210.372C38.3751 213.183 37.5061 216.376 37.5061 219.812C37.5061 230.5 45.8834 239.141 56.2072 239.141C64.793 239.141 72.0231 233.172 74.213 225.052" fill="#EEB38B"/>
<path d="M108.243 167.583C112.371 167.583 115.717 164.242 115.717 160.122C115.717 156.001 112.371 152.66 108.243 152.66C104.116 152.66 100.77 156.001 100.77 160.122C100.77 164.242 104.116 167.583 108.243 167.583Z" fill="#552659"/>
<path d="M108.869 163.037C110.827 163.037 112.414 161.452 112.414 159.497C112.414 157.542 110.827 155.957 108.869 155.957C106.911 155.957 105.323 157.542 105.323 159.497C105.323 161.452 106.911 163.037 108.869 163.037Z" fill="white"/>
<path d="M135.217 295.847C135.217 303.933 141.787 310.492 149.886 310.492H151.728C159.827 310.492 166.397 303.933 166.397 295.847V287.449" fill="#EEB38B"/>
<path d="M151.693 311.949H149.851C140.953 311.949 133.722 304.731 133.722 295.847C133.722 295.049 134.383 294.389 135.182 294.389C135.982 294.389 136.642 295.049 136.642 295.847C136.642 303.1 142.552 309.034 149.851 309.034H151.693C158.958 309.034 164.902 303.134 164.902 295.847V287.449C164.902 286.65 165.563 285.991 166.362 285.991C167.162 285.991 167.822 286.65 167.822 287.449V295.847C167.822 304.731 160.592 311.949 151.693 311.949Z" fill="#552659"/>
<path d="M102.438 287.483L98.5798 289.739C98.3365 289.878 98.0237 289.878 97.7804 289.739L93.922 287.483C90.7936 285.679 89.0208 283.006 89.0208 280.195V277.697C89.0208 277.454 89.3684 277.246 89.716 277.28C92.323 277.558 95.0344 277.003 96.9114 275.684L97.7456 275.129C97.9889 274.955 98.3713 274.955 98.6146 275.129L99.4141 275.684C101.291 277.003 104.002 277.593 106.609 277.28C106.992 277.246 107.305 277.419 107.305 277.697L107.339 280.161C107.339 283.006 105.567 285.679 102.438 287.483Z" fill="#EE4A8A"/>
<path d="M143.803 287.449V295.847C143.803 303.933 137.233 310.492 129.134 310.492H127.292C119.193 310.492 112.623 303.933 112.623 295.847V287.449" fill="#EEB38B"/>
<path d="M129.134 311.949H127.292C118.393 311.949 111.163 304.731 111.163 295.847V287.449C111.163 286.65 111.823 285.991 112.623 285.991C113.422 285.991 114.083 286.65 114.083 287.449V295.847C114.083 303.1 119.992 309.034 127.292 309.034H129.134C136.399 309.034 142.343 303.134 142.343 295.847V287.449C142.343 286.65 143.003 285.991 143.803 285.991C144.602 285.991 145.263 286.65 145.263 287.449V295.847C145.263 304.731 138.033 311.949 129.134 311.949Z" fill="#552659"/>
<path d="M62.4293 138.397C54.7473 138.397 47.2738 145.026 44.8406 154.604C43.4849 159.948 43.902 165.397 45.9876 169.908C48.0385 174.315 51.445 177.335 55.6163 178.41C56.6938 178.688 57.7714 178.827 58.849 178.827C66.531 178.827 74.0044 172.198 76.4377 162.62C77.7933 157.276 77.3762 151.828 75.2906 147.316C73.2397 142.909 69.8332 139.89 65.662 138.814C64.6192 138.536 63.5068 138.397 62.4293 138.397Z" fill="white"/>
<path d="M64.3411 167.583C68.4686 167.583 71.8146 164.242 71.8146 160.122C71.8146 156.001 68.4686 152.66 64.3411 152.66C60.2136 152.66 56.8676 156.001 56.8676 160.122C56.8676 164.242 60.2136 167.583 64.3411 167.583Z" fill="#552659"/>
<path d="M64.9667 163.037C66.9249 163.037 68.5123 161.452 68.5123 159.497C68.5123 157.542 66.9249 155.957 64.9667 155.957C63.0085 155.957 61.4211 157.542 61.4211 159.497C61.4211 161.452 63.0085 163.037 64.9667 163.037Z" fill="white"/>
<path d="M58.8142 181.742C57.4933 181.742 56.1724 181.568 54.8862 181.256C49.846 179.972 45.7443 176.398 43.3111 171.157C40.9474 166.021 40.4607 159.879 41.9902 153.91C45.1534 141.416 56.1029 133.4 66.3919 136.003C71.4321 137.287 75.5338 140.861 77.967 146.101C80.3307 151.238 80.8174 157.38 79.288 163.349C76.5071 174.211 67.8171 181.742 58.8142 181.742ZM62.4292 138.397C54.7472 138.397 47.2738 145.026 44.8405 154.604C43.4849 159.948 43.902 165.397 45.9876 169.908C48.0385 174.315 51.445 177.335 55.6162 178.41C56.6938 178.688 57.7713 178.827 58.8489 178.827C66.5309 178.827 74.0044 172.198 76.4376 162.62C77.7932 157.276 77.3761 151.828 75.2905 147.316C73.2397 142.909 69.8331 139.89 65.6619 138.814C64.6191 138.536 63.5068 138.397 62.4292 138.397Z" fill="#552659"/>
<path d="M116.899 208.915H105.88C105.08 208.915 104.42 209.574 104.42 210.372C104.42 211.17 105.08 211.83 105.88 211.83H108.869C110.051 214.294 110.676 217.035 110.676 219.812C110.676 229.667 102.96 237.684 93.4355 237.684C85.7534 237.684 78.9404 232.339 76.8548 224.67C76.6462 223.907 75.8467 223.421 75.0472 223.629C74.9777 223.664 74.9082 223.698 74.8039 223.733C74.7344 223.698 74.6649 223.664 74.5606 223.629C73.7959 223.421 72.9616 223.872 72.7531 224.67C70.9455 231.402 65.4534 236.365 58.9185 237.441C58.849 237.441 58.8142 237.441 58.7447 237.441C58.5362 237.441 58.3623 237.476 58.1885 237.545C57.5281 237.614 56.8329 237.684 56.1377 237.684C46.6482 237.684 38.8966 229.667 38.8966 219.812C38.8966 217.035 39.5223 214.294 40.7042 211.83H43.6935C44.493 211.83 45.1534 211.17 45.1534 210.372C45.1534 209.574 44.493 208.915 43.6935 208.915H32.6746C31.8751 208.915 31.2146 209.574 31.2146 210.372C31.2146 211.17 31.8751 211.83 32.6746 211.83H37.5062C36.4981 214.363 35.942 217.07 35.942 219.812C35.942 228.592 41.2603 236.122 48.7338 239.176V241.848C48.7338 245.006 51.306 247.54 54.4344 247.54C57.5629 247.54 60.1351 244.972 60.1351 241.848V240.148C66.6353 238.76 72.1274 234.109 74.6649 227.759C76.9938 233.519 81.7212 237.857 87.3871 239.662V241.848C87.3871 245.006 89.9594 247.54 93.0878 247.54C96.251 247.54 98.7885 244.972 98.7885 241.848V239.801C107.2 237.302 113.388 229.286 113.388 219.812C113.388 217.07 112.866 214.328 111.824 211.83H116.655C117.455 211.83 118.115 211.17 118.115 210.372C118.359 209.574 117.698 208.915 116.899 208.915ZM57.3543 241.848C57.3543 243.375 56.1029 244.624 54.5735 244.624C53.044 244.624 51.7927 243.375 51.7927 241.848V240.078C53.2178 240.425 54.7125 240.599 56.242 240.599C56.6243 240.599 57.0067 240.564 57.3891 240.564V241.848H57.3543ZM96.0772 241.848C96.0772 243.375 94.8258 244.624 93.2964 244.624C91.7669 244.624 90.5155 243.375 90.5155 241.848V240.356C91.4888 240.495 92.4621 240.599 93.4702 240.599C94.3739 240.599 95.2429 240.529 96.0772 240.425V241.848Z" fill="#552659"/>
<path d="M97.0503 207.075L86.8656 219.777C80.7478 227.446 69.0684 227.446 62.9159 219.777L52.7311 207.075C50.576 204.403 49.3942 201.037 49.3942 197.601C49.3942 189.238 56.2071 182.436 64.5843 182.436H85.1276C93.5048 182.436 100.318 189.238 100.318 197.601C100.353 201.037 99.1707 204.403 97.0503 207.075Z" fill="#552659"/>
<path d="M70.0765 196.907C77.1028 196.907 82.7988 194.825 82.7988 192.257C82.7988 189.689 77.1028 187.607 70.0765 187.607C63.0502 187.607 57.3542 189.689 57.3542 192.257C57.3542 194.825 63.0502 196.907 70.0765 196.907Z" fill="white"/>
<path d="M136.434 48.5848C145.457 48.5848 152.771 41.2823 152.771 32.2742C152.771 23.2661 145.457 15.9636 136.434 15.9636C127.411 15.9636 120.096 23.2661 120.096 32.2742C120.096 41.2823 127.411 48.5848 136.434 48.5848Z" fill="#BCD872"/>
<path d="M57.3543 241.848C57.3543 243.375 56.1029 244.624 54.5735 244.624C53.044 244.624 51.7927 243.375 51.7927 241.848V240.078C53.2178 240.425 54.7125 240.599 56.242 240.599C56.6243 240.599 57.0067 240.564 57.3891 240.564V241.848H57.3543Z" fill="white"/>
<path d="M96.0771 241.848C96.0771 243.375 94.8258 244.624 93.2963 244.624C91.7669 244.624 90.5155 243.375 90.5155 241.848V240.356C91.4888 240.495 92.4621 240.599 93.4701 240.599C94.3739 240.599 95.2429 240.529 96.0771 240.425V241.848Z" fill="white"/>
<path d="M136.434 15.2695C136.399 15.2695 136.364 15.2695 136.364 15.2695C136.19 15.2348 135.982 15.2001 135.773 15.2348C135.669 15.2348 135.565 15.2695 135.495 15.3042C127.048 15.79 120.062 22.4878 119.401 30.9901C119.366 31.4413 119.366 31.8577 119.366 32.3089C119.366 41.7135 127.014 49.383 136.468 49.383C145.889 49.383 153.571 41.7482 153.571 32.3089C153.571 22.8695 145.854 15.2695 136.434 15.2695ZM150.06 28.4221C144.324 27.8321 139.458 23.7371 137.859 18.254C143.699 18.8439 148.496 22.9737 150.06 28.4221ZM122.286 32.3436C123.885 31.7536 125.554 31.4413 127.292 31.4413C135.078 31.4413 141.404 37.7573 141.439 45.5309C139.875 46.1208 138.207 46.4679 136.434 46.4679C128.647 46.4332 122.321 40.1171 122.286 32.3436ZM144.324 44.0386C143.56 35.3281 136.225 28.4915 127.327 28.4915C125.728 28.4915 124.198 28.6997 122.703 29.1509C124.024 23.3901 128.926 18.9828 134.87 18.2887C136.608 25.5764 143.038 30.9901 150.616 31.4066C150.651 31.7189 150.651 31.9965 150.651 32.3089C150.616 37.2021 148.113 41.5053 144.324 44.0386Z" fill="#7ABB63"/>
</svg>
