<svg width="388" height="368" viewBox="0 0 388 368" fill="none" xmlns="http://www.w3.org/2000/svg">
<path d="M59.5563 223.081L64.8361 161.938C69.0301 109.82 115.607 71.7303 167.272 77.5984L270.824 88.5065C314.817 93.2046 349.256 128.617 353.516 172.353C357.23 211.505 335.303 248.663 299.9 264.903L191.593 314.835C126.035 344.286 53.4938 293.775 59.5563 223.081Z" fill="#F5F5F5"/>
<g clip-path="url(#clip0)">
<path d="M268.146 362.714C267.868 362.714 267.567 362.621 267.336 362.413C248.808 347.133 225.33 338.696 201.251 338.696C178.49 338.696 156.885 345.908 138.774 359.547C138.219 359.963 137.409 359.847 136.993 359.292C136.576 358.738 136.692 357.929 137.247 357.512C146.268 350.716 156.261 345.423 166.924 341.794C177.958 338.049 189.5 336.13 201.251 336.13C213.834 336.13 226.14 338.303 237.844 342.58C249.155 346.717 259.633 352.728 268.955 360.425C269.487 360.864 269.58 361.673 269.117 362.205C268.886 362.552 268.516 362.714 268.146 362.714Z" fill="#D1D1D1"/>
<path d="M201.158 355.085C209.807 355.085 216.818 352.674 216.818 349.699C216.818 346.725 209.807 344.313 201.158 344.313C192.509 344.313 185.498 346.725 185.498 349.699C185.498 352.674 192.509 355.085 201.158 355.085Z" fill="#D1D1D1"/>
<path d="M201.158 293.158C186.863 293.158 177.865 308.553 184.897 320.989L200.881 349.306C201.135 349.746 201.759 349.746 201.991 349.306L217.558 320.758C224.335 308.322 215.337 293.158 201.158 293.158ZM201.158 321.382C196.393 321.382 192.53 317.522 192.53 312.76C192.53 307.998 196.393 304.138 201.158 304.138C205.923 304.138 209.786 307.998 209.786 312.76C209.786 317.522 205.923 321.382 201.158 321.382Z" fill="#FF5231"/>
<path d="M256.071 208.647C242.863 202.452 222.462 198.476 199.539 198.476C176.639 198.476 156.214 202.452 143.007 208.647H127.509V225.29C127.509 240.107 159.754 252.104 199.562 252.104C239.371 252.104 271.615 240.107 271.615 225.29V208.647H256.071Z" fill="#8972B3"/>
<path d="M167.086 249.238C176.801 251.087 187.858 252.127 199.562 252.127C228.175 252.127 252.902 245.932 264.468 236.94V208.647H256.071C242.863 202.452 222.485 198.476 199.562 198.476C187.858 198.476 176.801 199.516 167.086 201.342V249.238Z" fill="#736198"/>
<path d="M199.585 252.567C180.271 252.567 162.113 249.77 148.466 244.684C134.656 239.552 127.069 232.664 127.069 225.29V208.647C127.069 208.392 127.278 208.184 127.532 208.184H142.914C156.746 201.712 177.379 198.013 199.539 198.013C221.698 198.013 242.331 201.712 256.164 208.184H271.638C271.893 208.184 272.101 208.392 272.101 208.647V225.29C272.101 232.664 264.491 239.552 250.705 244.684C237.057 249.77 218.9 252.567 199.585 252.567ZM127.995 209.109V225.29C127.995 232.248 135.373 238.836 148.789 243.829C162.344 248.868 180.386 251.642 199.585 251.642C218.784 251.642 236.826 248.868 250.381 243.829C263.797 238.836 271.176 232.248 271.176 225.29V209.109H256.071C256.002 209.109 255.932 209.086 255.886 209.063C242.169 202.636 221.629 198.938 199.562 198.938C177.472 198.938 156.955 202.636 143.238 209.063C143.169 209.086 143.099 209.109 143.053 209.109H127.995Z" fill="#552659"/>
<path d="M320.445 290.846V281.924L265.485 259.132L237.636 244.592L232.524 245.447L216.818 238.928V248.175L216.98 248.244L258.546 294.707C266.596 303.699 278.971 307.49 290.698 304.554L315.495 298.336C319.149 297.434 320.931 293.99 320.445 290.846Z" fill="#8972B3"/>
<path d="M291.531 269.973L265.462 259.131L253.133 252.659V288.604L258.569 294.707C266.619 303.699 278.948 307.49 290.652 304.554L291.531 304.323V269.973Z" fill="#9E86D1"/>
<path d="M282.741 306.01C273.489 306.01 264.56 302.104 258.199 295.007L216.702 248.637L216.633 248.614C216.471 248.544 216.355 248.383 216.355 248.198V238.951C216.355 238.79 216.425 238.651 216.563 238.558C216.702 238.466 216.864 238.466 217.003 238.512L232.57 244.985L237.566 244.152C237.659 244.129 237.774 244.152 237.867 244.199L265.694 258.715L320.63 281.508C320.792 281.577 320.907 281.739 320.907 281.924V290.8C321.37 293.99 319.705 297.758 315.587 298.775L290.791 304.993C288.131 305.687 285.424 306.01 282.741 306.01ZM217.28 247.897C217.304 247.92 217.304 247.92 217.327 247.943L258.893 294.406C265.069 301.295 273.743 305.086 282.741 305.086C285.355 305.086 287.969 304.762 290.583 304.115L315.379 297.897C318.964 296.995 320.422 293.713 320.005 290.916C320.005 290.893 320.005 290.87 320.005 290.846V282.247L265.324 259.548C265.3 259.548 265.3 259.548 265.277 259.524L237.566 245.077L232.593 245.909C232.501 245.932 232.431 245.909 232.339 245.886L217.28 239.645V247.897Z" fill="#552659"/>
<path d="M199.562 235.461C239.381 235.461 271.661 223.456 271.661 208.647C271.661 193.837 239.381 181.832 199.562 181.832C159.743 181.832 127.463 193.837 127.463 208.647C127.463 223.456 159.743 235.461 199.562 235.461Z" fill="#C3BCFF"/>
<path d="M200.719 231.994C160.887 231.994 128.619 219.996 128.619 205.179C128.619 204.648 128.665 204.116 128.758 203.584C127.902 205.225 127.463 206.913 127.463 208.647C127.463 223.464 159.73 235.461 199.562 235.461C237.936 235.461 269.302 224.296 271.523 210.242C265.162 222.632 235.878 231.994 200.719 231.994Z" fill="#DEDCFF"/>
<path d="M199.562 235.923C180.248 235.923 162.09 233.126 148.419 228.041C134.61 222.909 127 216.021 127 208.647C127 201.273 134.61 194.384 148.419 189.252C162.09 184.167 180.248 181.37 199.562 181.37C218.876 181.37 237.034 184.167 250.705 189.252C264.514 194.384 272.124 201.273 272.124 208.647C272.124 216.021 264.514 222.909 250.705 228.041C237.034 233.126 218.853 235.923 199.562 235.923ZM199.562 182.295C180.363 182.295 162.321 185.068 148.743 190.131C135.327 195.124 127.925 201.712 127.925 208.647C127.925 215.581 135.327 222.192 148.743 227.162C162.298 232.202 180.363 234.999 199.562 234.999C218.761 234.999 236.803 232.225 250.381 227.162C263.797 222.169 271.199 215.581 271.199 208.647C271.199 201.712 263.797 195.101 250.381 190.131C236.803 185.092 218.761 182.295 199.562 182.295Z" fill="#552659"/>
<path d="M216.818 238.951L258.546 285.599C266.596 294.591 278.971 298.382 290.698 295.446L315.472 289.228C321.416 287.749 322.365 279.705 316.929 276.861L237.636 235.484L216.818 238.951Z" fill="#C3BCFF"/>
<path d="M316.235 285.969L291.438 292.187C279.734 295.123 267.336 291.332 259.286 282.34L220.01 238.42L216.818 238.951L258.546 285.599C266.596 294.591 278.971 298.382 290.698 295.447L315.472 289.228C318.826 288.396 320.584 285.484 320.514 282.594C319.728 284.166 318.27 285.437 316.235 285.969Z" fill="#DEDCFF"/>
<path d="M282.741 296.88C273.489 296.88 264.56 292.973 258.199 285.876L216.471 239.252C216.355 239.136 216.332 238.951 216.378 238.79C216.424 238.628 216.563 238.512 216.748 238.489L237.566 235.022C237.659 234.999 237.774 235.022 237.867 235.068L317.16 276.445C319.843 277.855 321.301 280.583 320.931 283.588C320.584 286.593 318.525 288.928 315.587 289.667L290.791 295.886C288.131 296.556 285.424 296.88 282.741 296.88ZM217.72 239.252L258.893 285.275C266.85 294.175 278.994 297.897 290.583 294.984L315.379 288.766C317.947 288.119 319.728 286.108 320.028 283.472C320.329 280.86 319.08 278.479 316.744 277.254L237.566 235.946L217.72 239.252Z" fill="#552659"/>
<path d="M195.676 146.881L180.456 159.849C179.554 160.612 178.235 160.612 177.356 159.849L162.136 146.881C149.877 136.433 142.798 121.107 142.798 104.995V90.6866C142.798 89.2072 144.117 88.0976 145.574 88.3288C155.914 90.0162 166.508 86.6644 173.979 79.1518L177.217 75.8925C178.143 74.9447 179.692 74.9447 180.618 75.8925L183.764 79.1056C191.212 86.6182 201.783 90.0393 212.122 88.375C213.579 88.1438 214.875 89.2534 214.898 90.7097L214.99 104.995C215.014 121.107 207.935 136.41 195.676 146.881Z" fill="#85B94E"/>
<path d="M178.906 160.889C178.258 160.889 177.588 160.658 177.056 160.196L161.835 147.228C149.414 136.664 142.313 121.269 142.313 104.995V90.6866C142.313 89.8544 142.683 89.0685 143.307 88.5137C143.955 87.9589 144.788 87.7278 145.62 87.8665C155.868 89.5308 166.323 86.1559 173.609 78.8282L176.847 75.5689C177.379 75.0141 178.096 74.7367 178.883 74.7367C179.646 74.7367 180.363 75.0372 180.918 75.592L184.087 78.8051C191.374 86.1559 201.829 89.577 212.053 87.9358C212.886 87.7971 213.718 88.0283 214.343 88.5831C214.967 89.1147 215.337 89.9007 215.361 90.7328L215.453 105.018C215.453 121.292 208.352 136.687 195.954 147.251L180.733 160.219C180.201 160.658 179.554 160.889 178.906 160.889ZM145.181 88.7449C144.718 88.7449 144.279 88.9067 143.932 89.2072C143.492 89.577 143.261 90.1087 143.261 90.6635V104.995C143.261 120.991 150.247 136.132 162.437 146.534L177.657 159.502C178.374 160.127 179.438 160.127 180.155 159.502L195.375 146.534L195.676 146.881L195.375 146.534C207.565 136.155 214.551 121.015 214.551 104.995L214.458 90.7097C214.458 90.1549 214.204 89.6233 213.788 89.2534C213.348 88.8836 212.793 88.7218 212.238 88.8142C201.713 90.5017 190.957 86.9881 183.463 79.4061L180.271 76.2161C179.901 75.8463 179.415 75.6382 178.906 75.6382C178.397 75.6382 177.911 75.8463 177.541 76.2161L174.303 79.4754C168.058 85.7629 159.568 89.2072 150.825 89.2072C149.044 89.2072 147.263 89.0685 145.505 88.768C145.389 88.768 145.274 88.7449 145.181 88.7449Z" fill="#608238"/>
<path d="M260.836 168.217L249.594 177.787C248.924 178.342 247.975 178.342 247.304 177.787L236.063 168.217C227.019 160.496 221.791 149.216 221.791 137.311V126.747C221.791 125.661 222.762 124.829 223.85 125.013C231.483 126.262 239.301 123.788 244.806 118.241L247.189 115.837C247.883 115.143 249.016 115.143 249.687 115.837L252.023 118.217C257.505 123.765 265.324 126.285 272.957 125.06C274.021 124.898 274.992 125.707 274.992 126.793L275.062 137.334C275.085 149.216 269.88 160.496 260.836 168.217Z" fill="#FFBD31"/>
<path d="M248.461 178.55C247.975 178.55 247.49 178.388 247.096 178.041L235.855 168.471C226.718 160.681 221.467 149.331 221.467 137.311V126.747C221.467 126.123 221.745 125.545 222.207 125.152C222.67 124.759 223.294 124.574 223.919 124.69C231.483 125.915 239.185 123.418 244.575 118.009L246.957 115.605C247.351 115.212 247.883 114.981 248.461 114.981C249.016 114.981 249.548 115.212 249.965 115.605L252.301 117.986C257.667 123.418 265.393 125.938 272.934 124.736C273.535 124.644 274.16 124.805 274.622 125.198C275.085 125.591 275.362 126.169 275.362 126.793L275.432 137.334C275.432 149.354 270.181 160.704 261.044 168.494L249.826 178.041C249.409 178.388 248.947 178.55 248.461 178.55ZM223.572 125.337C223.225 125.337 222.901 125.453 222.647 125.684C222.323 125.961 222.138 126.354 222.138 126.77V137.334C222.138 149.146 227.296 160.311 236.294 167.963L247.536 177.533C248.068 177.995 248.854 177.995 249.386 177.533L260.628 167.963L260.859 168.217L260.628 167.963C269.626 160.311 274.784 149.123 274.784 137.334L274.715 126.793C274.715 126.377 274.53 125.984 274.206 125.73C273.882 125.453 273.466 125.337 273.049 125.406C265.277 126.655 257.366 124.066 251.838 118.472L249.456 116.091C249.178 115.813 248.831 115.675 248.438 115.675C248.045 115.675 247.698 115.813 247.42 116.091L245.038 118.495C240.435 123.118 234.166 125.684 227.712 125.684C226.394 125.684 225.099 125.568 223.78 125.36C223.734 125.337 223.641 125.337 223.572 125.337Z" fill="#FF9431"/>
<path d="M195.93 81.8563C192.53 85.4855 190.818 90.1318 190.818 95.7952C190.818 99.0776 191.536 102.175 192.785 104.903C192.692 104.048 192.623 103.169 192.623 102.268C192.623 94.9168 196.208 88.4906 201.528 85.0463L195.93 81.8563Z" fill="#552659"/>
<path d="M168.243 78.2733C171.643 81.8794 173.355 86.5488 173.355 92.189C173.355 95.4715 172.638 98.569 171.388 101.297C171.481 100.441 171.55 99.563 171.55 98.6615C171.55 91.3106 167.965 84.8844 162.645 81.4402L168.243 78.2733Z" fill="#552659"/>
<path d="M213.464 95.9569L202.592 82.1337C201.089 80.2382 198.336 79.8914 196.439 81.394C194.543 82.8965 194.196 85.6473 195.699 87.5428L206.571 101.366C208.074 103.262 210.827 103.608 212.724 102.106C214.644 100.626 214.967 97.8524 213.464 95.9569Z" fill="#552659"/>
<path d="M167.734 77.7879C165.837 76.2854 163.061 76.6321 161.581 78.5276L150.709 92.3509C149.206 94.2464 149.553 97.0203 151.449 98.4997C153.346 100.002 156.122 99.6555 157.602 97.76L168.474 83.9367C169.977 82.0643 169.654 79.2904 167.734 77.7879Z" fill="#552659"/>
<path d="M178.05 143.298C191.029 143.298 201.551 132.638 201.551 119.489C201.551 106.339 191.029 95.6796 178.05 95.6796C165.071 95.6796 154.549 106.339 154.549 119.489C154.549 132.638 165.071 143.298 178.05 143.298Z" fill="#552659"/>
<path d="M178.05 141.449C192.716 141.449 204.605 130.789 204.605 117.639C204.605 104.49 192.716 93.8302 178.05 93.8302C163.385 93.8302 151.496 104.49 151.496 117.639C151.496 130.789 163.385 141.449 178.05 141.449Z" fill="#D49072"/>
<path d="M178.05 141.911C163.154 141.911 151.033 131.024 151.033 117.64C151.033 104.255 163.154 93.3679 178.05 93.3679C192.947 93.3679 205.067 104.255 205.067 117.64C205.067 131.024 192.923 141.911 178.05 141.911ZM178.05 94.2926C163.663 94.2926 151.958 104.764 151.958 117.64C151.958 130.515 163.663 140.987 178.05 140.987C192.438 140.987 204.142 130.515 204.142 117.64C204.142 104.764 192.415 94.2926 178.05 94.2926Z" fill="#552659"/>
<path d="M176.315 137.681C188.209 137.681 197.85 128.035 197.85 116.137C197.85 104.239 188.209 94.593 176.315 94.593C164.422 94.593 154.78 104.239 154.78 116.137C154.78 128.035 164.422 137.681 176.315 137.681Z" fill="#EEB38B"/>
<path d="M183.146 119.329C188.105 118.264 191.056 112.432 189.737 106.303C188.419 100.175 183.33 96.07 178.372 97.1353C173.413 98.2007 170.462 104.033 171.781 110.161C173.099 116.29 178.188 120.394 183.146 119.329Z" fill="#A46270"/>
<path d="M181.14 113.221C184.149 112.458 185.827 108.84 184.887 105.14C183.948 101.44 180.747 99.0589 177.737 99.822C174.728 100.585 173.051 104.203 173.991 107.903C174.93 111.603 178.131 113.984 181.14 113.221Z" fill="white"/>
<path d="M179.993 113.825C178.79 113.825 177.588 113.409 176.523 112.6C175.089 111.537 174.025 109.896 173.563 108C172.568 104.047 174.395 100.187 177.634 99.3549C180.872 98.5228 184.342 101.066 185.336 105.018C186.331 108.971 184.504 112.831 181.265 113.664C180.826 113.779 180.41 113.825 179.993 113.825ZM178.86 100.141C178.513 100.141 178.166 100.187 177.842 100.28C175.089 100.973 173.563 104.348 174.442 107.792C174.881 109.48 175.806 110.936 177.055 111.861C178.281 112.785 179.692 113.109 181.011 112.762C183.764 112.069 185.29 108.694 184.411 105.249C183.648 102.221 181.288 100.141 178.86 100.141Z" fill="#552659"/>
<path d="M167.592 99.8205C164.583 99.0573 161.382 101.438 160.443 105.138C159.503 108.838 161.181 112.456 164.19 113.219C167.199 113.983 170.4 111.602 171.339 107.902C172.279 104.202 170.601 100.584 167.592 99.8205Z" fill="white"/>
<path d="M165.328 113.826C164.912 113.826 164.495 113.779 164.079 113.664C160.841 112.832 159.013 108.971 160.008 105.018C160.494 103.123 161.535 101.505 162.969 100.418C164.426 99.3319 166.115 98.9389 167.711 99.355C170.949 100.187 172.776 104.048 171.782 108C170.903 111.445 168.173 113.826 165.328 113.826ZM166.462 100.141C165.467 100.141 164.449 100.488 163.524 101.181C162.252 102.129 161.326 103.562 160.91 105.25C160.031 108.694 161.558 112.069 164.31 112.762C167.063 113.456 170.001 111.213 170.88 107.769C171.759 104.325 170.232 100.95 167.479 100.257C167.155 100.187 166.809 100.141 166.462 100.141Z" fill="#552659"/>
<path d="M181.821 93.0212H178.189C176.801 93.0212 175.668 94.1539 175.668 95.5409C175.668 96.9278 176.801 98.0605 178.189 98.0605H181.821C183.208 98.0605 184.342 96.9278 184.342 95.5409C184.342 94.1539 183.208 93.0212 181.821 93.0212Z" fill="#552659"/>
<path d="M167.711 93.0212H164.079C162.691 93.0212 161.558 94.1539 161.558 95.5409C161.558 96.9278 162.691 98.0605 164.079 98.0605H167.711C169.098 98.0605 170.232 96.9278 170.232 95.5409C170.232 94.1539 169.098 93.0212 167.711 93.0212Z" fill="#552659"/>
<path d="M177.541 131.879V132.804C177.541 133.543 176.94 134.144 176.2 134.144C175.459 134.144 174.858 133.543 174.858 132.804V131.879" fill="white"/>
<path d="M176.2 134.63C175.205 134.63 174.395 133.821 174.395 132.827V131.902C174.395 131.648 174.604 131.44 174.858 131.44C175.113 131.44 175.321 131.648 175.321 131.902V132.827C175.321 133.312 175.714 133.705 176.2 133.705C176.685 133.705 177.079 133.312 177.079 132.827V131.902C177.079 131.648 177.287 131.44 177.541 131.44C177.796 131.44 178.004 131.648 178.004 131.902V132.827C178.004 133.821 177.194 134.63 176.2 134.63Z" fill="#552659"/>
<path d="M165.328 131.879V132.804C165.328 133.543 164.727 134.144 163.987 134.144C163.246 134.144 162.645 133.543 162.645 132.804V131.879" fill="white"/>
<path d="M163.987 134.63C162.992 134.63 162.182 133.821 162.182 132.827V131.902C162.182 131.648 162.39 131.44 162.645 131.44C162.899 131.44 163.108 131.648 163.108 131.902V132.827C163.108 133.312 163.501 133.705 163.987 133.705C164.472 133.705 164.866 133.312 164.866 132.827V131.902C164.866 131.648 165.074 131.44 165.328 131.44C165.583 131.44 165.791 131.648 165.791 131.902V132.827C165.791 133.821 164.981 134.63 163.987 134.63Z" fill="#552659"/>
<path d="M189.384 130.053C188.968 130.053 188.552 130.122 188.158 130.215V127.695C188.529 127.811 188.945 127.857 189.384 127.857C191.466 127.857 193.155 126.493 193.155 124.782C193.155 123.095 191.466 121.708 189.384 121.708C187.303 121.708 185.614 123.072 185.614 124.782V127.672H154.734V124.782C154.734 123.095 153.046 121.708 150.964 121.708C148.882 121.708 147.193 123.072 147.193 124.782C147.193 126.47 148.882 127.857 150.964 127.857C151.38 127.857 151.796 127.787 152.19 127.695V130.215C151.82 130.099 151.403 130.053 150.964 130.053C148.882 130.053 147.193 131.417 147.193 133.127C147.193 134.815 148.882 136.202 150.964 136.202C152.814 136.202 154.364 135.115 154.665 133.659L154.734 130.238H185.614L185.683 133.659C185.984 135.092 187.534 136.202 189.384 136.202C191.466 136.202 193.155 134.838 193.155 133.127C193.132 131.44 191.466 130.053 189.384 130.053Z" fill="#FAF3D4"/>
<path d="M189.384 136.641C187.326 136.641 185.591 135.416 185.244 133.728V133.636L185.198 130.677H155.197L155.127 133.728C154.78 135.416 153.022 136.641 150.987 136.641C148.651 136.641 146.754 135.069 146.754 133.104C146.754 131.139 148.651 129.567 150.987 129.567C151.241 129.567 151.496 129.59 151.75 129.614V128.227C151.496 128.273 151.241 128.273 150.987 128.273C148.651 128.273 146.754 126.701 146.754 124.736C146.754 122.771 148.651 121.199 150.987 121.199C153.323 121.199 155.22 122.771 155.22 124.736V127.163H185.175V124.736C185.175 122.794 187.071 121.199 189.408 121.199C191.744 121.199 193.64 122.771 193.64 124.736C193.64 126.701 191.744 128.273 189.408 128.273C189.153 128.273 188.899 128.25 188.644 128.227V129.614C188.899 129.567 189.153 129.567 189.408 129.567C191.744 129.567 193.64 131.139 193.64 133.104C193.64 135.069 191.721 136.641 189.384 136.641ZM186.146 133.59C186.424 134.815 187.788 135.716 189.384 135.716C191.212 135.716 192.692 134.56 192.692 133.104C192.692 131.648 191.212 130.492 189.384 130.492C189.014 130.492 188.644 130.538 188.297 130.631L187.719 130.793V127.048L188.297 127.21C188.644 127.302 189.014 127.348 189.384 127.348C191.212 127.348 192.692 126.192 192.692 124.736C192.692 123.28 191.212 122.124 189.384 122.124C187.557 122.124 186.077 123.28 186.077 124.736V128.088H154.271V124.736C154.271 123.303 152.791 122.124 150.964 122.124C149.136 122.124 147.656 123.28 147.656 124.736C147.656 126.192 149.136 127.348 150.964 127.348C151.334 127.348 151.704 127.302 152.051 127.21L152.629 127.048V130.793L152.051 130.631C151.704 130.538 151.334 130.492 150.964 130.492C149.136 130.492 147.656 131.648 147.656 133.104C147.656 134.56 149.136 135.716 150.964 135.716C152.56 135.716 153.901 134.815 154.202 133.59L154.271 129.752H186.054L186.146 133.59Z" fill="#552659"/>
<path d="M181.404 122.888C181.89 123.766 182.167 124.783 182.167 125.87C182.167 129.244 179.531 131.972 176.269 131.972C173.563 131.972 171.273 130.077 170.579 127.511" fill="#EEB38B"/>
<path d="M176.246 132.434C173.401 132.434 170.88 130.469 170.116 127.626L171.018 127.394C171.666 129.822 173.817 131.509 176.246 131.509C179.253 131.509 181.682 128.966 181.682 125.869C181.682 124.898 181.45 123.95 180.988 123.095L181.797 122.656C182.329 123.627 182.607 124.736 182.607 125.869C182.607 129.475 179.762 132.434 176.246 132.434Z" fill="#552659"/>
<path d="M159.36 122.888C158.875 123.766 158.597 124.783 158.597 125.87C158.597 129.244 161.234 131.972 164.495 131.972C167.202 131.972 169.492 130.077 170.186 127.511" fill="#EEB38B"/>
<path d="M164.495 132.434C160.979 132.434 158.134 129.498 158.134 125.869C158.134 124.736 158.412 123.627 158.944 122.656L159.754 123.095C159.291 123.927 159.06 124.898 159.06 125.869C159.06 128.989 161.488 131.509 164.495 131.509C166.924 131.509 169.075 129.822 169.723 127.394L170.625 127.626C169.862 130.469 167.341 132.434 164.495 132.434Z" fill="#552659"/>
<path d="M180.918 109.364C182.221 109.364 183.278 108.308 183.278 107.006C183.278 105.704 182.221 104.648 180.918 104.648C179.615 104.648 178.559 105.704 178.559 107.006C178.559 108.308 179.615 109.364 180.918 109.364Z" fill="#552659"/>
<path d="M181.127 107.908C181.74 107.908 182.237 107.411 182.237 106.798C182.237 106.185 181.74 105.689 181.127 105.689C180.513 105.689 180.016 106.185 180.016 106.798C180.016 107.411 180.513 107.908 181.127 107.908Z" fill="white"/>
<path d="M167.063 109.364C168.366 109.364 169.422 108.308 169.422 107.006C169.422 105.704 168.366 104.648 167.063 104.648C165.76 104.648 164.704 105.704 164.704 107.006C164.704 108.308 165.76 109.364 167.063 109.364Z" fill="#552659"/>
<path d="M167.248 107.908C167.861 107.908 168.358 107.411 168.358 106.798C168.358 106.185 167.861 105.689 167.248 105.689C166.635 105.689 166.138 106.185 166.138 106.798C166.138 107.411 166.635 107.908 167.248 107.908Z" fill="white"/>
<path d="M177.379 121.847L174.164 125.869C172.221 128.296 168.543 128.296 166.6 125.869L163.385 121.847C162.714 120.991 162.344 119.951 162.344 118.865C162.344 116.206 164.495 114.08 167.132 114.08H173.609C176.269 114.08 178.397 116.229 178.397 118.865C178.443 119.928 178.073 120.991 177.379 121.847Z" fill="#552659"/>
<path d="M183.648 123.349H180.178C179.924 123.349 179.716 123.141 179.716 122.887C179.716 122.633 179.924 122.425 180.178 122.425H183.648C183.902 122.425 184.111 122.633 184.111 122.887C184.111 123.141 183.902 123.349 183.648 123.349Z" fill="#552659"/>
<path d="M160.586 123.349H157.117C156.862 123.349 156.654 123.141 156.654 122.887C156.654 122.633 156.862 122.425 157.117 122.425H160.586C160.841 122.425 161.049 122.633 161.049 122.887C161.049 123.141 160.841 123.349 160.586 123.349Z" fill="#552659"/>
<path d="M168.867 118.472C171.09 118.472 172.892 117.809 172.892 116.992C172.892 116.175 171.09 115.513 168.867 115.513C166.644 115.513 164.842 116.175 164.842 116.992C164.842 117.809 166.644 118.472 168.867 118.472Z" fill="white"/>
<path d="M200.857 283.311C198.822 283.311 197.156 281.646 197.156 279.612V264.125C197.156 262.09 198.822 260.426 200.857 260.426C202.893 260.426 204.558 262.09 204.558 264.125V279.612C204.558 281.669 202.916 283.311 200.857 283.311Z" fill="#FF8631"/>
<path d="M201.158 223.996C231.384 223.996 255.886 215.592 255.886 205.225C255.886 194.859 231.384 186.455 201.158 186.455C170.933 186.455 146.43 194.859 146.43 205.225C146.43 215.592 170.933 223.996 201.158 223.996Z" fill="#B4E9FF"/>
<path d="M201.158 197.551C225.746 197.551 246.564 203.122 253.457 210.773C255.03 209.016 255.886 207.167 255.886 205.225C255.886 194.846 231.39 186.455 201.158 186.455C170.926 186.455 146.43 194.87 146.43 205.225C146.43 207.167 147.286 209.016 148.859 210.773C155.752 203.122 176.57 197.551 201.158 197.551Z" fill="#94D9F8"/>
<path d="M200.857 194.821C198.822 194.821 197.156 196.485 197.156 198.519V207.812V214.007C197.156 216.041 198.822 217.705 200.857 217.705C202.893 217.705 204.558 216.041 204.558 214.007V207.812V198.519C204.558 196.485 202.916 194.821 200.857 194.821Z" fill="#FF8631"/>
<path opacity="0.5" d="M173.308 208.647C183.004 208.647 190.865 205.49 190.865 201.596C190.865 197.702 183.004 194.546 173.308 194.546C163.612 194.546 155.752 197.702 155.752 201.596C155.752 205.49 163.612 208.647 173.308 208.647Z" fill="#F5F5F5"/>
<path opacity="0.5" d="M229.54 213.224C234.778 213.224 239.024 211.785 239.024 210.01C239.024 208.236 234.778 206.797 229.54 206.797C224.302 206.797 220.056 208.236 220.056 210.01C220.056 211.785 224.302 213.224 229.54 213.224Z" fill="#F5F5F5"/>
<path d="M201.158 224.481C186.493 224.481 172.707 222.516 162.321 218.956C151.773 215.327 145.967 210.473 145.967 205.225C145.967 199.978 151.773 195.124 162.298 191.518C172.684 187.958 186.47 185.993 201.135 185.993C215.8 185.993 229.586 187.958 239.972 191.518C250.52 195.124 256.302 200.001 256.302 205.225C256.302 210.45 250.497 215.327 239.972 218.933C229.609 222.516 215.823 224.481 201.158 224.481ZM201.158 186.918C186.586 186.918 172.892 188.859 162.622 192.396C152.49 195.863 146.916 200.44 146.916 205.225C146.916 210.01 152.49 214.587 162.622 218.055C172.915 221.591 186.609 223.533 201.158 223.533C215.707 223.533 229.424 221.591 239.694 218.055C249.826 214.587 255.4 210.01 255.4 205.225C255.4 200.44 249.826 195.863 239.694 192.396C229.401 188.859 215.731 186.918 201.158 186.918Z" fill="#552659"/>
<path d="M200.857 175.766C198.822 175.766 197.156 174.101 197.156 172.067V156.58C197.156 154.545 198.822 152.881 200.857 152.881C202.893 152.881 204.558 154.545 204.558 156.58V172.067C204.558 174.125 202.916 175.766 200.857 175.766Z" fill="#FF8631"/>
<path d="M250.219 136.525L258.87 125.846C259.656 124.852 261.067 124.621 262.155 125.314C262.872 125.776 263.311 126.562 263.311 127.418V136.756L250.219 136.525Z" fill="#F6904E"/>
<path d="M263.311 137.219L250.219 136.987C250.034 136.987 249.872 136.872 249.803 136.71C249.733 136.548 249.756 136.363 249.872 136.225L258.523 125.545C259.471 124.389 261.137 124.112 262.409 124.898C263.265 125.453 263.797 126.377 263.797 127.394V136.733C263.797 136.849 263.751 136.987 263.658 137.057C263.542 137.172 263.427 137.219 263.311 137.219ZM251.191 136.086L262.849 136.294V127.418C262.849 126.724 262.502 126.077 261.9 125.684C261.021 125.129 259.888 125.314 259.24 126.123L251.191 136.086Z" fill="#552659"/>
<path d="M254.753 132.827L259.61 126.817C260.05 126.262 260.859 126.123 261.461 126.516C261.877 126.77 262.108 127.233 262.108 127.695V132.942L254.753 132.827Z" fill="#F27442"/>
<path d="M235.369 136.525L244.02 125.846C244.806 124.852 246.217 124.621 247.305 125.314C248.022 125.776 248.461 126.562 248.461 127.418V136.756L235.369 136.525Z" fill="#F6904E"/>
<path d="M248.461 137.219C248.438 137.219 248.438 137.219 248.461 137.219L235.369 136.987C235.184 136.987 235.022 136.872 234.953 136.71C234.883 136.548 234.906 136.363 235.022 136.225L243.673 125.545C244.621 124.389 246.287 124.112 247.559 124.898C248.415 125.453 248.947 126.377 248.947 127.394V136.733C248.947 136.849 248.901 136.987 248.808 137.057C248.692 137.172 248.577 137.219 248.461 137.219ZM236.317 136.086L247.975 136.294V127.418C247.975 126.724 247.628 126.077 247.027 125.684C246.148 125.129 245.015 125.314 244.367 126.123L236.317 136.086Z" fill="#552659"/>
<path d="M239.926 132.827L244.783 126.817C245.223 126.262 246.032 126.123 246.634 126.516C247.05 126.77 247.281 127.233 247.281 127.695V132.942L239.926 132.827Z" fill="#F27442"/>
<path d="M248.924 165.374C259.923 165.374 268.839 157.612 268.839 148.037C268.839 138.462 259.923 130.7 248.924 130.7C237.924 130.7 229.008 138.462 229.008 148.037C229.008 157.612 237.924 165.374 248.924 165.374Z" fill="#552659"/>
<path d="M248.461 163.825C260.342 163.825 269.973 156.063 269.973 146.488C269.973 136.913 260.342 129.151 248.461 129.151C236.58 129.151 226.949 136.913 226.949 146.488C226.949 156.063 236.58 163.825 248.461 163.825Z" fill="#F6904E"/>
<path d="M248.461 164.287C236.34 164.287 226.487 156.312 226.487 146.488C226.487 136.664 236.34 128.689 248.461 128.689C260.582 128.689 270.436 136.664 270.436 146.488C270.436 156.289 260.582 164.287 248.461 164.287ZM248.461 129.613C236.849 129.613 227.412 137.172 227.412 146.488C227.412 155.781 236.849 163.363 248.461 163.363C260.073 163.363 269.51 155.804 269.51 146.488C269.51 137.172 260.073 129.613 248.461 129.613Z" fill="#552659"/>
<path d="M247.767 158.878C256.812 158.878 264.144 152.286 264.144 144.153C264.144 136.021 256.812 129.429 247.767 129.429C238.723 129.429 231.39 136.021 231.39 144.153C231.39 152.286 238.723 158.878 247.767 158.878Z" fill="#FAB367"/>
<path d="M238.098 146.118V146.372C238.098 147.39 238.353 148.384 238.862 149.239L241.499 153.816C242.516 155.596 244.436 156.705 246.495 156.705C248.554 156.705 250.45 155.596 251.491 153.816L254.128 149.239C254.637 148.36 254.891 147.366 254.891 146.372V146.118C254.891 142.928 252.301 140.362 249.132 140.362H243.835C240.689 140.362 238.098 142.951 238.098 146.118Z" fill="white"/>
<path d="M246.495 157.168C244.274 157.168 242.216 155.966 241.105 154.047L238.468 149.47C237.913 148.522 237.636 147.459 237.636 146.372V146.118C237.636 142.697 240.435 139.9 243.858 139.9H249.155C252.578 139.9 255.377 142.697 255.377 146.118V146.372C255.377 147.459 255.1 148.545 254.545 149.47L251.908 154.07C250.797 155.989 248.715 157.168 246.495 157.168ZM243.858 140.825C240.943 140.825 238.561 143.206 238.561 146.118V146.372C238.561 147.297 238.815 148.222 239.278 149.031L241.915 153.608C242.863 155.249 244.621 156.266 246.495 156.266C248.369 156.266 250.15 155.249 251.075 153.608L253.712 149.031C254.174 148.222 254.429 147.32 254.429 146.372V146.118C254.429 143.206 252.046 140.825 249.132 140.825H243.858Z" fill="#552659"/>
<path d="M249.849 130.885H251.491C251.931 130.885 252.278 131.232 252.278 131.671C252.278 132.11 251.931 132.457 251.491 132.457H249.849C249.409 132.457 249.062 132.11 249.062 131.671C249.039 131.255 249.409 130.885 249.849 130.885Z" fill="#552659"/>
<path d="M241.499 130.885H243.141C243.58 130.885 243.927 131.232 243.927 131.671C243.927 132.11 243.58 132.457 243.141 132.457H241.499C241.059 132.457 240.712 132.11 240.712 131.671C240.712 131.255 241.059 130.885 241.499 130.885Z" fill="#552659"/>
<path d="M246.495 145.032C246.264 145.587 245.732 145.933 245.13 145.933C244.529 145.933 243.997 145.563 243.765 145.032L243.326 143.968C243.071 143.344 243.534 142.674 244.205 142.674H246.079C246.749 142.674 247.212 143.344 246.958 143.968L246.495 145.032Z" fill="#552659"/>
<path d="M245.732 149.285C242.239 149.285 239.417 147.205 239.417 144.662C239.417 144.408 239.625 144.2 239.879 144.2C240.134 144.2 240.342 144.408 240.342 144.662C240.342 146.696 242.771 148.36 245.732 148.36C248.692 148.36 251.121 146.696 251.121 144.662C251.121 144.408 251.329 144.2 251.584 144.2C251.838 144.2 252.046 144.408 252.046 144.662C252.046 147.205 249.224 149.285 245.732 149.285Z" fill="#552659"/>
<path d="M245.13 149.239C244.876 149.239 244.668 149.031 244.668 148.777V145.217C244.668 144.962 244.876 144.754 245.13 144.754C245.385 144.754 245.593 144.962 245.593 145.217V148.777C245.593 149.031 245.385 149.239 245.13 149.239Z" fill="#552659"/>
<path d="M250.659 141.819C252.447 141.819 253.897 139.956 253.897 137.658C253.897 135.36 252.447 133.497 250.659 133.497C248.87 133.497 247.42 135.36 247.42 137.658C247.42 139.956 248.87 141.819 250.659 141.819Z" fill="white"/>
<path d="M250.658 142.304C248.623 142.304 246.958 140.224 246.958 137.681C246.958 135.138 248.623 133.058 250.658 133.058C252.694 133.058 254.359 135.138 254.359 137.681C254.359 140.224 252.694 142.304 250.658 142.304ZM250.658 133.959C249.132 133.959 247.883 135.624 247.883 137.658C247.883 139.692 249.132 141.356 250.658 141.356C252.185 141.356 253.434 139.692 253.434 137.658C253.434 135.624 252.185 133.959 250.658 133.959Z" fill="#552659"/>
<path d="M250.288 140.131C251.387 140.131 252.278 139.241 252.278 138.143C252.278 137.045 251.387 136.155 250.288 136.155C249.19 136.155 248.299 137.045 248.299 138.143C248.299 139.241 249.19 140.131 250.288 140.131Z" fill="#435AA8"/>
<path d="M250.288 140.594C248.924 140.594 247.836 139.484 247.836 138.143C247.836 136.803 248.947 135.693 250.288 135.693C251.63 135.693 252.74 136.803 252.74 138.143C252.74 139.484 251.63 140.594 250.288 140.594ZM250.288 136.595C249.433 136.595 248.762 137.288 248.762 138.12C248.762 138.952 249.456 139.646 250.288 139.646C251.121 139.646 251.815 138.952 251.815 138.12C251.815 137.288 251.121 136.595 250.288 136.595Z" fill="#54C9F1"/>
<path d="M249.733 139.091C250.206 139.091 250.589 138.708 250.589 138.236C250.589 137.763 250.206 137.38 249.733 137.38C249.261 137.38 248.877 137.763 248.877 138.236C248.877 138.708 249.261 139.091 249.733 139.091Z" fill="white"/>
<path d="M250.658 133.821C249.062 133.821 247.767 135.531 247.767 137.658H253.55C253.55 135.554 252.255 133.821 250.658 133.821Z" fill="#F6904E"/>
<path d="M256.094 138.282H247.443C247.189 138.282 246.981 138.074 246.981 137.82C246.981 137.565 247.189 137.357 247.443 137.357H256.094C256.349 137.357 256.557 137.565 256.557 137.82C256.557 138.074 256.349 138.282 256.094 138.282Z" fill="#552659"/>
<path d="M242.331 141.819C244.12 141.819 245.57 139.956 245.57 137.658C245.57 135.36 244.12 133.497 242.331 133.497C240.543 133.497 239.093 135.36 239.093 137.658C239.093 139.956 240.543 141.819 242.331 141.819Z" fill="white"/>
<path d="M242.331 142.304C240.296 142.304 238.63 140.224 238.63 137.681C238.63 135.138 240.296 133.058 242.331 133.058C244.367 133.058 246.032 135.138 246.032 137.681C246.032 140.224 244.367 142.304 242.331 142.304ZM242.331 133.959C240.805 133.959 239.556 135.624 239.556 137.658C239.556 139.692 240.805 141.356 242.331 141.356C243.858 141.356 245.107 139.692 245.107 137.658C245.107 135.624 243.858 133.959 242.331 133.959Z" fill="#552659"/>
<path d="M241.915 140.131C243.014 140.131 243.904 139.241 243.904 138.143C243.904 137.045 243.014 136.155 241.915 136.155C240.816 136.155 239.926 137.045 239.926 138.143C239.926 139.241 240.816 140.131 241.915 140.131Z" fill="#435AA8"/>
<path d="M241.915 140.594C240.55 140.594 239.463 139.484 239.463 138.143C239.463 136.803 240.573 135.693 241.915 135.693C243.257 135.693 244.367 136.803 244.367 138.143C244.367 139.484 243.257 140.594 241.915 140.594ZM241.915 136.595C241.059 136.595 240.388 137.288 240.388 138.12C240.388 138.952 241.082 139.646 241.915 139.646C242.748 139.646 243.442 138.952 243.442 138.12C243.442 137.288 242.748 136.595 241.915 136.595Z" fill="#54C9F1"/>
<path d="M241.36 139.091C241.833 139.091 242.216 138.708 242.216 138.236C242.216 137.763 241.833 137.38 241.36 137.38C240.887 137.38 240.504 137.763 240.504 138.236C240.504 138.708 240.887 139.091 241.36 139.091Z" fill="white"/>
<path d="M242.331 133.821C243.927 133.821 245.223 135.531 245.223 137.658H239.44C239.44 135.554 240.735 133.821 242.331 133.821Z" fill="#F6904E"/>
<path d="M245.547 138.282H236.896C236.641 138.282 236.433 138.074 236.433 137.82C236.433 137.565 236.641 137.357 236.896 137.357H245.547C245.801 137.357 246.009 137.565 246.009 137.82C246.009 138.074 245.801 138.282 245.547 138.282Z" fill="#552659"/>
<path d="M244.783 143.922C245.269 143.922 245.662 143.777 245.662 143.599C245.662 143.42 245.269 143.275 244.783 143.275C244.298 143.275 243.904 143.42 243.904 143.599C243.904 143.777 244.298 143.922 244.783 143.922Z" fill="white"/>
<path d="M258.777 148.037C258.13 148.037 257.621 148.545 257.621 149.193C257.621 149.84 258.13 150.348 258.777 150.348H269.094C269.302 149.586 269.464 148.823 269.557 148.037H258.777Z" fill="#D34954"/>
<path d="M257.621 144.593C257.621 145.24 258.13 145.748 258.777 145.748H269.626C269.58 144.962 269.487 144.2 269.302 143.437H258.777C258.13 143.437 257.621 143.968 257.621 144.593Z" fill="#D34954"/>
<path d="M233.356 145.748C234.004 145.748 234.513 145.24 234.513 144.593C234.513 143.945 234.004 143.437 233.356 143.437H227.597C227.435 144.2 227.319 144.962 227.273 145.748H233.356Z" fill="#D34954"/>
<path d="M234.513 149.193C234.513 148.545 234.004 148.037 233.356 148.037H227.342C227.435 148.823 227.597 149.586 227.805 150.348H233.356C234.004 150.348 234.513 149.84 234.513 149.193Z" fill="#D34954"/>
</g>
<defs>
<clipPath id="clip0">
<rect width="194" height="288" fill="white" transform="translate(127 74.7135)"/>
</clipPath>
</defs>
</svg>
