<svg width="417" height="413" viewBox="0 0 417 413" fill="none" xmlns="http://www.w3.org/2000/svg">
<path d="M70.142 148.714L123.842 88.6687C148.701 60.3036 189.298 50.4411 224.535 63.4898L293.413 88.5417C342.34 106.453 367.342 161.086 348.408 209.728L316.097 292.887C295.818 344.293 235.059 366.92 186.364 340.961L95.6658 292.057C42.6106 263.699 29.9117 192.979 70.142 148.714Z" fill="#F5F5F5"/>
<g clip-path="url(#clip0)">
<path d="M364.263 302.881H378.499C390.927 302.881 401.007 292.837 401.007 280.441V279.119C401.007 269.822 393.45 262.287 384.125 262.287H364.263C354.938 262.287 347.381 269.822 347.381 279.119V286.05C347.381 295.347 354.938 302.881 364.263 302.881Z" fill="#F6904E"/>
<path d="M378.504 303.872H364.268C354.412 303.872 346.393 295.877 346.393 286.05V279.119C346.393 269.292 354.412 261.297 364.268 261.297H384.13C393.986 261.297 402.005 269.292 402.005 279.119V280.441C402 293.362 391.458 303.872 378.504 303.872ZM364.263 263.278C355.504 263.278 348.374 270.382 348.374 279.119V286.05C348.374 294.787 355.504 301.891 364.263 301.891H378.499C390.361 301.891 400.014 292.268 400.014 280.441V279.119C400.014 270.382 392.884 263.278 384.125 263.278H364.263Z" fill="#552659"/>
<path d="M330.801 368C365.895 368 394.343 365.573 394.343 362.58C394.343 359.586 365.895 357.159 330.801 357.159C295.708 357.159 267.259 359.586 267.259 362.58C267.259 365.573 295.708 368 330.801 368Z" fill="#D0D0D1"/>
<path d="M117.483 346.55H130.364C135.85 346.55 140.294 342.119 140.294 336.649V335.411C140.294 329.941 135.85 325.51 130.364 325.51H109.012" fill="#EEB38B"/>
<path d="M130.371 347.54H117.485V345.56H130.371C135.296 345.56 139.308 341.565 139.308 336.649V335.411C139.308 330.495 135.296 326.5 130.371 326.5H109.019V324.52H130.371C136.394 324.52 141.294 329.406 141.294 335.411V336.649C141.294 342.654 136.394 347.54 130.371 347.54Z" fill="#552659"/>
<path d="M176.323 347.188C129.778 347.188 91.9116 309.436 91.9116 263.03C91.9116 216.624 129.778 178.872 176.323 178.872C222.869 178.872 260.735 216.624 260.735 263.03C260.735 309.436 222.869 347.188 176.323 347.188ZM176.323 182.832C131.967 182.832 95.8839 218.807 95.8839 263.03C95.8839 307.253 131.967 343.228 176.323 343.228C220.679 343.228 256.762 307.253 256.762 263.03C256.762 218.807 220.679 182.832 176.323 182.832Z" fill="#FFBD31"/>
<path d="M131.287 206.946C123.998 214.708 120.324 224.669 120.324 236.773C120.324 243.797 121.858 250.416 124.564 256.263C124.346 254.421 124.221 252.545 124.221 250.634C124.221 234.881 131.903 221.124 143.323 213.738L131.287 206.946Z" fill="#552659"/>
<path d="M71.8614 199.238C79.1506 207 82.825 216.961 82.825 229.065C82.825 236.09 81.2907 242.708 78.5845 248.555C78.803 246.713 78.9271 244.837 78.9271 242.926C78.9271 227.174 71.2457 213.416 59.8253 206.03L71.8614 199.238Z" fill="#552659"/>
<path d="M168.945 237.129L145.612 207.53C142.395 203.451 136.471 202.743 132.38 205.951C128.288 209.158 127.578 215.064 130.796 219.144L154.128 248.743C157.345 252.822 163.269 253.53 167.361 250.322C171.447 247.114 172.157 241.208 168.945 237.129Z" fill="#552659"/>
<path d="M70.774 198.238C66.6825 195.03 60.7588 195.738 57.5412 199.817L34.2089 229.416C30.9913 233.495 31.7013 239.401 35.7928 242.609C39.8843 245.817 45.808 245.109 49.0256 241.03L72.3579 211.431C75.5755 207.352 74.8654 201.446 70.774 198.238Z" fill="#552659"/>
<path d="M87.5421 367.936C122.635 367.936 151.084 365.509 151.084 362.515C151.084 359.521 122.635 357.094 87.5421 357.094C52.4488 357.094 24 359.521 24 362.515C24 365.509 52.4488 367.936 87.5421 367.936Z" fill="#D0D0D1"/>
<path d="M72.3579 346.921V352.614C72.3579 358.084 76.8019 362.515 82.2887 362.515H83.53C89.0168 362.515 93.4608 358.084 93.4608 352.614V346.921" fill="#D49072"/>
<path d="M83.5301 363.505H82.2887C76.2657 363.505 71.3649 358.619 71.3649 352.614V346.921H73.351V352.614C73.351 357.53 77.363 361.525 82.2887 361.525H83.5301C88.4557 361.525 92.4677 357.53 92.4677 352.614V346.921H94.4539V352.614C94.4539 358.619 89.5531 363.505 83.5301 363.505Z" fill="#552659"/>
<path d="M42.9231 337.307L52.3276 349.976L60.7091 343.793L51.3047 331.124C49.5916 328.817 46.3294 328.332 44.0105 330.035C41.6967 331.743 41.2101 334.995 42.9231 337.307Z" fill="#D49072"/>
<path d="M52.119 351.362L42.1237 337.896C41.1356 336.57 40.7284 334.936 40.9767 333.302C41.22 331.669 42.0889 330.228 43.4246 329.243C46.1754 327.213 50.0683 327.792 52.1041 330.535L62.0994 344L52.119 351.362ZM43.7225 336.718L52.5361 348.589L59.3238 343.584L50.5102 331.708C49.1249 329.842 46.4783 329.451 44.6064 330.827C43.6977 331.495 43.1068 332.476 42.943 333.589C42.7741 334.703 43.0522 335.812 43.7225 336.718Z" fill="#552659"/>
<path d="M59.2344 332.07V320.931H125.304V329.53C125.304 342.688 114.603 353.357 101.405 353.357H47.5658V343.703C47.5658 340.49 50.1775 337.886 53.4001 337.886C56.6226 337.886 59.2344 335.282 59.2344 332.07Z" fill="#EEB38B"/>
<path d="M101.4 354.347H46.5727V343.703C46.5727 339.951 49.6363 336.896 53.4001 336.896C56.0715 336.896 58.2413 334.733 58.2413 332.07V319.941H126.297V329.53C126.292 343.213 115.125 354.347 101.4 354.347ZM48.5588 352.367H101.4C114.032 352.367 124.306 342.119 124.306 329.53V321.921H60.2275V332.07C60.2275 335.822 57.1638 338.877 53.4001 338.877C50.7287 338.877 48.5588 341.04 48.5588 343.703V352.367Z" fill="#552659"/>
<path d="M124.35 321.896V330.486C110.279 335.585 93.426 338.56 75.2974 338.56C69.1701 338.56 63.1918 338.213 57.4121 337.57C59.1351 336.332 60.2622 334.322 60.2622 332.045V321.896H124.35Z" fill="#D49072"/>
<path d="M42.6848 285.56C42.6848 313.723 72.7452 336.55 100.601 336.55C128.457 336.55 131.883 313.723 131.883 285.56C131.883 257.396 120.974 234.57 93.1182 234.57C65.2624 234.57 42.6848 257.396 42.6848 285.56Z" fill="#552659"/>
<path d="M92.8898 334.545C124.358 334.545 149.868 311.716 149.868 283.555C149.868 255.393 124.358 232.564 92.8898 232.564C61.4218 232.564 35.912 255.393 35.912 283.555C35.912 311.716 61.4218 334.545 92.8898 334.545Z" fill="#D49072"/>
<path d="M92.8898 335.535C60.9226 335.535 34.9189 312.218 34.9189 283.555C34.9189 254.891 60.9226 231.574 92.8898 231.574C124.857 231.574 150.861 254.891 150.861 283.555C150.861 312.218 124.857 335.535 92.8898 335.535ZM92.8898 233.555C62.02 233.555 36.9051 255.985 36.9051 283.555C36.9051 311.124 62.02 333.555 92.8898 333.555C123.76 333.555 148.875 311.124 148.875 283.555C148.875 255.985 123.76 233.555 92.8898 233.555Z" fill="#552659"/>
<path d="M97.6168 328.48C123.145 328.48 143.84 307.823 143.84 282.342C143.84 256.86 123.145 236.203 97.6168 236.203C72.0887 236.203 51.3941 256.86 51.3941 282.342C51.3941 307.823 72.0887 328.48 97.6168 328.48Z" fill="#EEB38B"/>
<path d="M117.771 287.178C128.412 284.897 134.745 272.412 131.916 259.292C129.087 246.173 118.167 237.386 107.525 239.667C96.8839 241.948 90.5508 254.433 93.3799 267.553C96.209 280.672 107.129 289.459 117.771 287.178Z" fill="#A46270"/>
<path d="M113.427 274.118C119.873 272.487 123.462 264.737 121.443 256.807C119.425 248.878 112.563 243.772 106.117 245.403C99.6715 247.034 96.0823 254.785 98.1007 262.714C100.119 270.643 106.981 275.749 113.427 274.118Z" fill="white"/>
<path d="M111.004 275.396C104.906 275.396 99.0171 270.317 97.1402 262.946C94.9902 254.5 98.9079 246.198 105.874 244.436C112.846 242.674 120.259 248.109 122.409 256.555C124.559 265 120.641 273.302 113.675 275.065C112.786 275.288 111.892 275.396 111.004 275.396ZM108.556 246.085C107.826 246.085 107.091 246.174 106.361 246.357C100.457 247.852 97.1799 255.075 99.0618 262.461C100.944 269.847 107.275 274.639 113.178 273.144C119.082 271.649 122.354 264.426 120.477 257.04C118.834 250.565 113.759 246.085 108.556 246.085Z" fill="#552659"/>
<path d="M92.4029 262.699C94.4214 254.769 90.8322 247.019 84.3862 245.388C77.9403 243.757 71.0786 248.863 69.0601 256.792C67.0417 264.722 70.6309 272.472 77.0768 274.103C83.5228 275.734 90.3845 270.628 92.4029 262.699Z" fill="white"/>
<path d="M79.4932 275.396C78.6044 275.396 77.7106 275.287 76.8268 275.064C69.8603 273.302 65.9426 264.995 68.0927 256.555C70.2427 248.109 77.661 242.673 84.6274 244.436C91.5938 246.198 95.5115 254.505 93.3615 262.946C91.4796 270.317 85.5907 275.396 79.4932 275.396ZM70.0143 257.04C68.1324 264.426 71.4095 271.649 77.3134 273.144C83.2123 274.639 89.5531 269.847 91.43 262.461C93.3119 255.074 90.0347 247.852 84.1309 246.357C78.2369 244.862 71.8961 249.654 70.0143 257.04Z" fill="#552659"/>
<path d="M114.901 230.832H107.121C104.126 230.832 101.698 233.253 101.698 236.238C101.698 239.223 104.126 241.644 107.121 241.644H114.901C117.895 241.644 120.324 239.223 120.324 236.238C120.324 233.253 117.895 230.832 114.901 230.832Z" fill="#552659"/>
<path d="M84.6125 230.832H76.8317C73.8376 230.832 71.4095 233.253 71.4095 236.238C71.4095 239.223 73.8376 241.644 76.8317 241.644H84.6125C87.6066 241.644 90.0347 239.223 90.0347 236.238C90.0347 233.253 87.6066 230.832 84.6125 230.832Z" fill="#552659"/>
<path d="M112.985 265.822C115.776 265.822 118.04 263.566 118.04 260.783C118.04 257.999 115.776 255.743 112.985 255.743C110.193 255.743 107.93 257.999 107.93 260.783C107.93 263.566 110.193 265.822 112.985 265.822Z" fill="#552659"/>
<path d="M113.407 262.748C114.729 262.748 115.8 261.68 115.8 260.362C115.8 259.044 114.729 257.976 113.407 257.976C112.085 257.976 111.013 259.044 111.013 260.362C111.013 261.68 112.085 262.748 113.407 262.748Z" fill="white"/>
<path d="M83.2222 265.822C86.0139 265.822 88.2769 263.566 88.2769 260.783C88.2769 257.999 86.0139 255.743 83.2222 255.743C80.4305 255.743 78.1674 257.999 78.1674 260.783C78.1674 263.566 80.4305 265.822 83.2222 265.822Z" fill="#552659"/>
<path d="M83.6393 262.748C84.9611 262.748 86.0326 261.68 86.0326 260.362C86.0326 259.044 84.9611 257.976 83.6393 257.976C82.3175 257.976 81.246 259.044 81.246 260.362C81.246 261.68 82.3175 262.748 83.6393 262.748Z" fill="white"/>
<path d="M68.6686 352.614C68.6686 358.084 64.2246 362.515 58.7379 362.515H57.4965C52.0098 362.515 47.5658 358.084 47.5658 352.614V346.921" fill="#EEB38B"/>
<path d="M58.7379 363.505H57.4965C51.4735 363.505 46.5727 358.619 46.5727 352.614V346.921H48.5588V352.614C48.5588 357.53 52.5709 361.525 57.4965 361.525H58.7379C63.6635 361.525 67.6756 357.53 67.6756 352.614H69.6617C69.6617 358.619 64.7609 363.505 58.7379 363.505Z" fill="#552659"/>
<path d="M81.2162 346.921V352.614C81.2162 358.084 85.6602 362.515 91.1469 362.515H92.3883C97.875 362.515 102.319 358.084 102.319 352.614V346.921" fill="#EEB38B"/>
<path d="M92.3933 363.505H91.1519C85.1289 363.505 80.2281 358.619 80.2281 352.614V346.921H82.2142V352.614C82.2142 357.53 86.2263 361.525 91.1519 361.525H92.3933C97.3189 361.525 101.331 357.53 101.331 352.614V346.921H103.317V352.614C103.317 358.619 98.4163 363.505 92.3933 363.505Z" fill="#552659"/>
<path d="M114.658 314.079V316.079C114.658 317.664 113.367 318.951 111.778 318.951C110.189 318.951 108.898 317.664 108.898 316.079V314.079" fill="white"/>
<path d="M111.773 319.941C109.638 319.941 107.9 318.208 107.9 316.079V314.079C107.9 313.535 108.347 313.089 108.893 313.089C109.439 313.089 109.886 313.535 109.886 314.079V316.079C109.886 317.119 110.735 317.961 111.773 317.961C112.816 317.961 113.66 317.114 113.66 316.079V314.079C113.66 313.535 114.107 313.089 114.653 313.089C115.199 313.089 115.646 313.535 115.646 314.079V316.079C115.651 318.208 113.913 319.941 111.773 319.941Z" fill="#552659"/>
<path d="M88.4259 314.079V316.079C88.4259 317.664 87.1349 318.951 85.546 318.951C83.9571 318.951 82.6661 317.664 82.6661 316.079V314.079" fill="white"/>
<path d="M85.546 319.941C83.4109 319.941 81.673 318.208 81.673 316.079V314.079C81.673 313.535 82.1199 313.089 82.6661 313.089C83.2123 313.089 83.6591 313.535 83.6591 314.079V316.079C83.6591 317.119 84.5082 317.961 85.546 317.961C86.5887 317.961 87.4328 317.114 87.4328 316.079V314.079C87.4328 313.535 87.8797 313.089 88.4259 313.089C88.9721 313.089 89.419 313.535 89.419 314.079V316.079C89.419 318.208 87.6811 319.941 85.546 319.941Z" fill="#552659"/>
<path d="M122.94 294.778C123.968 296.669 124.554 298.847 124.554 301.169C124.554 308.391 118.884 314.248 111.887 314.248C106.078 314.248 101.182 310.213 99.6874 304.708" fill="#EEB38B"/>
<path d="M111.887 315.238C105.785 315.238 100.373 311.015 98.7291 304.966L100.646 304.451C102.056 309.639 106.674 313.263 111.887 313.263C118.323 313.263 123.561 307.842 123.561 301.173C123.561 299.099 123.045 297.05 122.066 295.253L123.814 294.307C124.951 296.391 125.547 298.768 125.547 301.173C125.547 308.926 119.42 315.238 111.887 315.238Z" fill="#552659"/>
<path d="M75.6103 294.778C74.5824 296.669 73.9965 298.847 73.9965 301.169C73.9965 308.391 79.667 314.248 86.6632 314.248C92.4727 314.248 97.3686 310.213 98.8632 304.708" fill="#EEB38B"/>
<path d="M86.6632 315.238C79.1307 315.238 73.0034 308.926 73.0034 301.169C73.0034 298.763 73.6042 296.391 74.7364 294.302L76.4842 295.248C75.506 297.045 74.9896 299.094 74.9896 301.169C74.9896 307.832 80.2281 313.258 86.6632 313.258C91.8719 313.258 96.4947 309.634 97.9049 304.446L99.8215 304.961C98.178 311.015 92.7657 315.238 86.6632 315.238Z" fill="#552659"/>
<path d="M114.32 292.555L107.428 301.154C103.272 306.342 95.3626 306.342 91.2065 301.154L84.3146 292.555C82.8548 290.738 82.0653 288.476 82.0653 286.149C82.0653 280.481 86.6731 275.886 92.3585 275.886H106.276C111.962 275.886 116.57 280.481 116.57 286.149C116.57 288.476 115.775 290.733 114.32 292.555Z" fill="#552659"/>
<path d="M127.772 295.768H120.304C119.758 295.768 119.311 295.322 119.311 294.778C119.311 294.233 119.758 293.788 120.304 293.788H127.772C128.318 293.788 128.765 294.233 128.765 294.778C128.765 295.322 128.318 295.768 127.772 295.768Z" fill="#552659"/>
<path d="M78.2469 295.768H70.7789C70.2327 295.768 69.7859 295.322 69.7859 294.778C69.7859 294.233 70.2327 293.788 70.7789 293.788H78.2469C78.7931 293.788 79.24 294.233 79.24 294.778C79.24 295.322 78.7931 295.768 78.2469 295.768Z" fill="#552659"/>
<path d="M96.0577 285.337C100.818 285.337 104.678 283.923 104.678 282.178C104.678 280.434 100.818 279.02 96.0577 279.02C91.2971 279.02 87.4378 280.434 87.4378 282.178C87.4378 283.923 91.2971 285.337 96.0577 285.337Z" fill="white"/>
<path d="M106.262 344.396L108.878 345.921C109.032 346.01 109.256 346.01 109.41 345.921L112.026 344.396C114.137 343.168 115.348 341.371 115.348 339.475V337.792C115.348 337.619 115.12 337.485 114.872 337.515C113.094 337.713 111.272 337.317 109.991 336.436L109.434 336.055C109.276 335.946 109.012 335.946 108.849 336.055L108.302 336.431C107.021 337.312 105.204 337.713 103.426 337.52C103.178 337.49 102.95 337.624 102.95 337.797L102.93 339.475C102.935 341.366 104.151 343.168 106.262 344.396Z" fill="#EE4A8A"/>
<path d="M286.803 364.763C286.545 364.763 286.282 364.723 286.024 364.639C284.723 364.208 284.017 362.812 284.445 361.51L302.32 307.55C302.752 306.253 304.157 305.55 305.458 305.975C306.759 306.406 307.464 307.802 307.037 309.104L289.162 363.064C288.819 364.104 287.846 364.763 286.803 364.763Z" fill="#A46270"/>
<path d="M323.05 361.297C321.869 361.297 320.821 360.451 320.607 359.253L311.67 308.758C311.431 307.411 312.335 306.129 313.681 305.891C315.036 305.654 316.317 306.555 316.556 307.896L325.493 358.391C325.732 359.738 324.828 361.02 323.482 361.258C323.338 361.287 323.189 361.297 323.05 361.297Z" fill="#A46270"/>
<path d="M376.18 364.763C375.137 364.763 374.169 364.104 373.821 363.065L355.946 309.104C355.514 307.807 356.224 306.406 357.525 305.976C358.826 305.545 360.231 306.253 360.663 307.55L378.539 361.51C378.971 362.807 378.261 364.208 376.96 364.639C376.701 364.723 376.438 364.763 376.18 364.763Z" fill="#A46270"/>
<path d="M339.938 361.299C339.794 361.299 339.65 361.284 339.501 361.259C338.15 361.021 337.246 359.739 337.49 358.393L346.427 307.898C346.666 306.551 347.952 305.655 349.302 305.893C350.653 306.13 351.557 307.412 351.313 308.759L342.376 359.254C342.167 360.452 341.119 361.299 339.938 361.299Z" fill="#A46270"/>
<path d="M382.138 302.386H279.464V309.317H382.138V302.386Z" fill="#AD8070"/>
<path d="M330.801 314.535C359.154 314.535 382.138 312.108 382.138 309.114C382.138 306.12 359.154 303.693 330.801 303.693C302.449 303.693 279.464 306.12 279.464 309.114C279.464 312.108 302.449 314.535 330.801 314.535Z" fill="#AD8070"/>
<path d="M330.801 308.099C359.154 308.099 382.138 305.672 382.138 302.678C382.138 299.685 359.154 297.258 330.801 297.258C302.449 297.258 279.464 299.685 279.464 302.678C279.464 305.672 302.449 308.099 330.801 308.099Z" fill="#914870"/>
<path d="M358.066 290.302V269.015H379.169V290.302C379.169 295.772 374.725 300.203 369.238 300.203H367.997C362.51 300.203 358.066 295.767 358.066 290.302Z" fill="#F27442"/>
<path d="M369.238 301.193H367.997C361.974 301.193 357.073 296.307 357.073 290.302V269.015C357.073 268.47 357.52 268.025 358.066 268.025H379.169C379.715 268.025 380.162 268.47 380.162 269.015V290.302C380.162 296.307 375.261 301.193 369.238 301.193ZM359.059 270.005V290.302C359.059 295.218 363.071 299.213 367.997 299.213H369.238C374.164 299.213 378.176 295.218 378.176 290.302V270.005H359.059Z" fill="#552659"/>
<path d="M310.687 290.302V269.015H331.789V290.302C331.789 295.772 327.345 300.203 321.859 300.203H320.617C315.131 300.203 310.687 295.767 310.687 290.302Z" fill="#F27442"/>
<path d="M321.859 301.193H320.617C314.594 301.193 309.694 296.307 309.694 290.302V269.015C309.694 268.47 310.14 268.025 310.687 268.025H331.789C332.336 268.025 332.783 268.47 332.783 269.015V290.302C332.783 296.307 327.882 301.193 321.859 301.193ZM311.68 270.005V290.302C311.68 295.218 315.692 299.213 320.617 299.213H321.859C326.784 299.213 330.796 295.218 330.796 290.302V270.005H311.68Z" fill="#552659"/>
<path d="M350.866 295.005H313.378C297.747 295.005 285.075 282.371 285.075 266.787V251.936H379.169V266.787C379.169 282.371 366.497 295.005 350.866 295.005Z" fill="#F6904E"/>
<path d="M350.866 295.995H313.378C297.225 295.995 284.082 282.891 284.082 266.787V251.936C284.082 251.391 284.529 250.946 285.075 250.946H379.169C379.715 250.946 380.162 251.391 380.162 251.936V266.787C380.162 282.891 367.019 295.995 350.866 295.995ZM286.068 252.926V266.787C286.068 281.802 298.318 294.015 313.378 294.015H350.866C365.926 294.015 378.176 281.802 378.176 266.787V252.926H286.068Z" fill="#552659"/>
<path d="M378.246 252.852H318.969C343.364 257.599 362.778 269.713 370.986 285.173C375.49 280.317 378.246 273.832 378.246 266.713V252.852Z" fill="#F27442"/>
<path d="M352.321 284.609V290.302C352.321 295.773 347.877 300.203 342.391 300.203H341.149C335.662 300.203 331.218 295.773 331.218 290.302V284.609" fill="#F6904E"/>
<path d="M342.391 301.193H341.149C335.126 301.193 330.225 296.307 330.225 290.302V284.609C330.225 284.065 330.672 283.619 331.218 283.619C331.765 283.619 332.212 284.065 332.212 284.609V290.302C332.212 295.218 336.224 299.213 341.149 299.213H342.391C347.316 299.213 351.328 295.218 351.328 290.302V284.609C351.328 284.065 351.775 283.619 352.321 283.619C352.868 283.619 353.314 284.065 353.314 284.609V290.302C353.314 296.307 348.414 301.193 342.391 301.193Z" fill="#552659"/>
<path d="M306.178 284.609V290.302C306.178 295.772 301.734 300.203 296.247 300.203H295.006C289.519 300.203 285.075 295.772 285.075 290.302V269.015" fill="#F6904E"/>
<path d="M296.247 301.193H295.006C288.983 301.193 284.082 296.307 284.082 290.302V269.015C284.082 268.47 284.529 268.025 285.075 268.025C285.621 268.025 286.068 268.47 286.068 269.015V290.302C286.068 295.218 290.08 299.213 295.006 299.213H296.247C301.173 299.213 305.185 295.218 305.185 290.302V284.609C305.185 284.065 305.632 283.619 306.178 283.619C306.724 283.619 307.171 284.065 307.171 284.609V290.302C307.171 296.307 302.27 301.193 296.247 301.193Z" fill="#552659"/>
<path d="M335.141 190.876L360.504 159.619C362.843 156.738 366.969 156.055 370.112 158.03C372.242 159.366 373.538 161.703 373.538 164.218V191.535L335.141 190.876Z" fill="#F6904E"/>
<path d="M373.538 192.53C373.533 192.53 373.528 192.53 373.524 192.53L335.126 191.871C334.749 191.866 334.401 191.644 334.242 191.302C334.083 190.961 334.133 190.555 334.371 190.263L359.735 159.005C362.386 155.738 367.078 154.961 370.644 157.203C373.082 158.733 374.531 161.357 374.531 164.228V191.545C374.531 191.812 374.422 192.064 374.234 192.253C374.05 192.426 373.802 192.53 373.538 192.53ZM337.192 189.926L372.545 190.535V164.223C372.545 162.04 371.438 160.04 369.581 158.871C366.865 157.168 363.295 157.758 361.274 160.243L337.192 189.926Z" fill="#552659"/>
<path d="M348.389 180.025L362.649 162.456C363.965 160.837 366.284 160.456 368.052 161.564C369.248 162.317 369.978 163.629 369.978 165.045V180.401L348.389 180.025Z" fill="#F27442"/>
<path d="M291.53 190.876L316.893 159.619C319.232 156.738 323.358 156.055 326.501 158.03C328.631 159.366 329.927 161.703 329.927 164.218V191.535L291.53 190.876Z" fill="#F6904E"/>
<path d="M329.927 192.53C329.922 192.53 329.918 192.53 329.913 192.53L291.515 191.871C291.138 191.866 290.79 191.644 290.631 191.302C290.473 190.961 290.522 190.555 290.761 190.263L316.124 159.005C318.775 155.738 323.467 154.961 327.033 157.203C329.471 158.733 330.921 161.357 330.921 164.228V191.545C330.921 191.812 330.811 192.064 330.623 192.253C330.439 192.426 330.186 192.53 329.927 192.53ZM293.581 189.926L328.934 190.535V164.223C328.934 162.04 327.827 160.04 325.975 158.871C323.259 157.168 319.689 157.758 317.668 160.243L293.581 189.926Z" fill="#552659"/>
<path d="M304.947 180.025L319.207 162.456C320.523 160.837 322.842 160.456 324.609 161.564C325.806 162.317 326.536 163.629 326.536 165.045V180.401L304.947 180.025Z" fill="#F27442"/>
<path d="M331.313 275.283C363.601 275.283 389.775 252.564 389.775 224.54C389.775 196.516 363.601 173.797 331.313 173.797C299.025 173.797 272.85 196.516 272.85 224.54C272.85 252.564 299.025 275.283 331.313 275.283Z" fill="#552659"/>
<path d="M329.927 270.748C364.801 270.748 393.072 248.029 393.072 220.005C393.072 191.981 364.801 169.262 329.927 169.262C295.054 169.262 266.783 191.981 266.783 220.005C266.783 248.029 295.054 270.748 329.927 270.748Z" fill="#F6904E"/>
<path d="M329.927 271.738C294.564 271.738 265.79 248.53 265.79 220.005C265.79 191.48 294.559 168.272 329.927 168.272C365.296 168.272 394.065 191.48 394.065 220.005C394.065 248.53 365.291 271.738 329.927 271.738ZM329.927 170.253C295.656 170.253 267.776 192.569 267.776 220.005C267.776 247.441 295.656 269.758 329.927 269.758C364.199 269.758 392.079 247.441 392.079 220.005C392.079 192.569 364.199 170.253 329.927 170.253Z" fill="#552659"/>
<path d="M327.946 256.257C354.489 256.257 376.006 236.959 376.006 213.154C376.006 189.348 354.489 170.05 327.946 170.05C301.403 170.05 279.886 189.348 279.886 213.154C279.886 236.959 301.403 256.257 327.946 256.257Z" fill="#FAB367"/>
<path d="M299.554 218.956V219.698C299.554 222.654 300.334 225.56 301.818 228.124L309.574 241.525C312.593 246.743 318.179 249.956 324.217 249.956C330.26 249.956 335.841 246.743 338.86 241.525L346.616 228.124C348.101 225.564 348.88 222.659 348.88 219.698V218.956C348.88 209.644 341.308 202.099 331.973 202.099H316.461C307.126 202.099 299.554 209.649 299.554 218.956Z" fill="white"/>
<path d="M324.217 250.946C317.842 250.946 311.898 247.525 308.71 242.015L300.954 228.614C299.385 225.906 298.561 222.822 298.561 219.693V218.951C298.561 209.109 306.59 201.104 316.461 201.104H331.968C341.839 201.104 349.868 209.109 349.868 218.951V219.693C349.868 222.822 349.039 225.906 347.475 228.614L339.719 242.015C336.536 247.525 330.593 250.946 324.217 250.946ZM316.461 203.089C307.687 203.089 300.547 210.208 300.547 218.955V219.698C300.547 222.48 301.282 225.218 302.677 227.629L310.433 241.03C313.269 245.926 318.547 248.965 324.217 248.965C329.888 248.965 335.171 245.926 338.001 241.03L345.757 227.629C347.152 225.223 347.887 222.48 347.887 219.698V218.955C347.887 210.208 340.747 203.089 331.973 203.089H316.461Z" fill="#552659"/>
<path d="M334.004 174.376H338.845C340.126 174.376 341.164 175.411 341.164 176.688C341.164 177.966 340.126 179 338.845 179H334.004C332.723 179 331.685 177.966 331.685 176.688C331.685 175.411 332.723 174.376 334.004 174.376Z" fill="#552659"/>
<path d="M309.549 174.376H314.391C315.672 174.376 316.71 175.411 316.71 176.688C316.71 177.966 315.672 179 314.391 179H309.549C308.268 179 307.231 177.966 307.231 176.688C307.231 175.411 308.268 174.376 309.549 174.376Z" fill="#552659"/>
<path d="M324.207 215.767C323.537 217.381 321.958 218.436 320.205 218.436C318.452 218.436 316.873 217.381 316.203 215.767L314.917 212.668C314.167 210.857 315.503 208.866 317.469 208.866H322.951C324.917 208.866 326.253 210.857 325.503 212.668L324.207 215.767Z" fill="#552659"/>
<path d="M312.052 228.916C311.784 228.916 311.521 228.812 311.327 228.599C310.955 228.198 310.975 227.574 311.377 227.198C313.507 225.218 316.019 223.55 318.845 222.238C323.631 220.01 328.706 219.109 333.135 219.703C337.723 220.322 341.095 222.46 342.629 225.733C342.862 226.228 342.644 226.817 342.147 227.05C341.651 227.282 341.06 227.064 340.826 226.569C339.59 223.931 336.765 222.188 332.867 221.663C328.81 221.119 324.128 221.96 319.684 224.03C317.047 225.257 314.709 226.812 312.727 228.649C312.534 228.827 312.295 228.916 312.052 228.916Z" fill="#552659"/>
<path d="M320.205 223.673C319.659 223.673 319.212 223.228 319.212 222.683V216.292C319.212 215.748 319.659 215.302 320.205 215.302C320.751 215.302 321.198 215.748 321.198 216.292V222.683C321.198 223.228 320.751 223.673 320.205 223.673Z" fill="#552659"/>
<path d="M336.432 206.391C341.664 206.391 345.906 200.923 345.906 194.178C345.906 187.433 341.664 181.965 336.432 181.965C331.2 181.965 326.958 187.433 326.958 194.178C326.958 200.923 331.2 206.391 336.432 206.391Z" fill="white"/>
<path d="M336.432 207.381C330.657 207.381 325.965 201.46 325.965 194.178C325.965 186.896 330.662 180.975 336.432 180.975C342.207 180.975 346.899 186.896 346.899 194.178C346.899 201.46 342.202 207.381 336.432 207.381ZM336.432 182.956C331.755 182.956 327.951 187.99 327.951 194.178C327.951 200.366 331.755 205.401 336.432 205.401C341.109 205.401 344.913 200.366 344.913 194.178C344.913 187.99 341.109 182.956 336.432 182.956Z" fill="#552659"/>
<path d="M335.295 201.406C338.531 201.406 341.154 198.79 341.154 195.564C341.154 192.338 338.531 189.723 335.295 189.723C332.059 189.723 329.436 192.338 329.436 195.564C329.436 198.79 332.059 201.406 335.295 201.406Z" fill="#435AA8"/>
<path d="M335.295 202.396C331.516 202.396 328.443 199.332 328.443 195.564C328.443 191.797 331.516 188.733 335.295 188.733C339.074 188.733 342.147 191.797 342.147 195.564C342.147 199.332 339.074 202.396 335.295 202.396ZM335.295 190.713C332.614 190.713 330.429 192.891 330.429 195.564C330.429 198.238 332.614 200.416 335.295 200.416C337.976 200.416 340.161 198.238 340.161 195.564C340.161 192.891 337.981 190.713 335.295 190.713Z" fill="#54C9F1"/>
<path d="M333.701 198.416C335.105 198.416 336.243 197.281 336.243 195.881C336.243 194.481 335.105 193.347 333.701 193.347C332.297 193.347 331.159 194.481 331.159 195.881C331.159 197.281 332.297 198.416 333.701 198.416Z" fill="white"/>
<path d="M336.432 182.956C331.755 182.956 327.951 187.99 327.951 194.178H344.918C344.913 187.99 341.109 182.956 336.432 182.956Z" fill="#F6904E"/>
<path d="M352.361 195.664H326.968C326.422 195.664 325.975 195.218 325.975 194.673C325.975 194.129 326.422 193.683 326.968 193.683H352.361C352.907 193.683 353.354 194.129 353.354 194.673C353.354 195.218 352.912 195.664 352.361 195.664Z" fill="#552659"/>
<path d="M311.973 206.391C317.205 206.391 321.447 200.923 321.447 194.178C321.447 187.433 317.205 181.965 311.973 181.965C306.74 181.965 302.499 187.433 302.499 194.178C302.499 200.923 306.74 206.391 311.973 206.391Z" fill="white"/>
<path d="M311.968 207.381C306.193 207.381 301.501 201.46 301.501 194.178C301.501 186.896 306.198 180.975 311.968 180.975C317.742 180.975 322.435 186.896 322.435 194.178C322.435 201.46 317.742 207.381 311.968 207.381ZM311.968 182.956C307.29 182.956 303.487 187.99 303.487 194.178C303.487 200.366 307.29 205.401 311.968 205.401C316.645 205.401 320.449 200.366 320.449 194.178C320.449 187.99 316.645 182.956 311.968 182.956Z" fill="#552659"/>
<path d="M310.726 201.406C313.962 201.406 316.585 198.79 316.585 195.564C316.585 192.338 313.962 189.723 310.726 189.723C307.49 189.723 304.867 192.338 304.867 195.564C304.867 198.79 307.49 201.406 310.726 201.406Z" fill="#435AA8"/>
<path d="M310.726 202.396C306.948 202.396 303.874 199.332 303.874 195.564C303.874 191.797 306.948 188.733 310.726 188.733C314.505 188.733 317.578 191.797 317.578 195.564C317.578 199.332 314.505 202.396 310.726 202.396ZM310.726 190.713C308.045 190.713 305.86 192.891 305.86 195.564C305.86 198.238 308.045 200.416 310.726 200.416C313.408 200.416 315.592 198.238 315.592 195.564C315.592 192.891 313.413 190.713 310.726 190.713Z" fill="#54C9F1"/>
<path d="M309.117 198.416C310.522 198.416 311.66 197.281 311.66 195.881C311.66 194.481 310.522 193.347 309.117 193.347C307.713 193.347 306.575 194.481 306.575 195.881C306.575 197.281 307.713 198.416 309.117 198.416Z" fill="white"/>
<path d="M311.968 182.956C316.645 182.956 320.448 187.99 320.448 194.178H303.482C303.487 187.99 307.29 182.956 311.968 182.956Z" fill="#F6904E"/>
<path d="M321.432 195.664H296.039C295.492 195.664 295.046 195.218 295.046 194.673C295.046 194.129 295.492 193.683 296.039 193.683H321.432C321.978 193.683 322.425 194.129 322.425 194.673C322.425 195.218 321.978 195.664 321.432 195.664Z" fill="#552659"/>
<path d="M324.833 283.154L322.216 284.678C322.062 284.768 321.839 284.768 321.685 284.678L319.068 283.154C316.958 281.926 315.746 280.129 315.746 278.233V276.55C315.746 276.377 315.975 276.243 316.223 276.273C318.001 276.471 319.823 276.075 321.104 275.193L321.66 274.812C321.819 274.703 322.082 274.703 322.246 274.812L322.792 275.188C324.073 276.07 325.891 276.471 327.668 276.278C327.916 276.248 328.145 276.381 328.145 276.555L328.165 278.233C328.155 280.129 326.938 281.926 324.833 283.154Z" fill="#EE4A8A"/>
<path d="M319.192 212.54C320.632 212.54 321.799 212.114 321.799 211.589C321.799 211.064 320.632 210.639 319.192 210.639C317.752 210.639 316.585 211.064 316.585 211.589C316.585 212.114 317.752 212.54 319.192 212.54Z" fill="white"/>
<path d="M360.216 224.54C358.344 224.54 356.825 226.055 356.825 227.921C356.825 229.787 358.344 231.302 360.216 231.302H390.46C391.101 229.099 391.558 226.842 391.816 224.535H360.216V224.54Z" fill="#D34954"/>
<path d="M356.825 214.475C356.825 216.342 358.344 217.857 360.216 217.857H392.015C391.89 215.56 391.578 213.297 391.076 211.089H360.216C358.344 211.094 356.825 212.609 356.825 214.475Z" fill="#D34954"/>
<path d="M285.651 217.865C287.523 217.865 289.042 216.35 289.042 214.484C289.042 212.617 287.523 211.103 285.651 211.103H268.774C268.272 213.31 267.959 215.568 267.835 217.87H285.651V217.865Z" fill="#D34954"/>
<path d="M289.047 227.926C289.047 226.06 287.528 224.545 285.656 224.545H268.044C268.307 226.847 268.759 229.109 269.399 231.312H285.656C287.528 231.307 289.047 229.792 289.047 227.926Z" fill="#D34954"/>
<path d="M384.125 269.218H364.263C354.938 269.218 347.381 276.753 347.381 286.05C347.381 295.347 354.938 302.881 364.263 302.881H378.499C390.927 302.881 401.007 292.837 401.007 280.441" fill="#F6904E"/>
<path d="M378.504 303.872H364.268C354.412 303.872 346.393 295.877 346.393 286.05C346.393 276.223 354.412 268.228 364.268 268.228H384.13C384.676 268.228 385.123 268.674 385.123 269.218C385.123 269.763 384.676 270.208 384.13 270.208H364.268C355.509 270.208 348.379 277.312 348.379 286.05C348.379 294.787 355.509 301.891 364.268 301.891H378.504C390.366 301.891 400.019 292.268 400.019 280.441C400.019 279.896 400.466 279.451 401.012 279.451C401.558 279.451 402.005 279.896 402.005 280.441C402 293.362 391.458 303.872 378.504 303.872Z" fill="#552659"/>
<path d="M380.152 270.208H374.616V301.891H380.152V270.208Z" fill="#D34954"/>
<path d="M370.405 270.208H362.774V301.891H370.405V270.208Z" fill="#D34954"/>
<path d="M258.749 149.911C281.373 149.911 299.713 136.945 299.713 120.951C299.713 104.956 281.373 91.9902 258.749 91.9902C236.125 91.9902 217.784 104.956 217.784 120.951C217.784 136.945 236.125 149.911 258.749 149.911Z" fill="white"/>
<path d="M258.749 150.901C235.615 150.901 216.791 137.466 216.791 120.951C216.791 104.436 235.615 91.0002 258.749 91.0002C281.882 91.0002 300.706 104.436 300.706 120.951C300.706 137.466 281.887 150.901 258.749 150.901ZM258.749 92.9804C236.707 92.9804 218.777 105.53 218.777 120.951C218.777 136.372 236.707 148.921 258.749 148.921C280.79 148.921 298.72 136.372 298.72 120.951C298.72 105.53 280.79 92.9804 258.749 92.9804Z" fill="#D0D0D4"/>
<path d="M277.726 162.079C280.94 162.079 283.546 160.242 283.546 157.975C283.546 155.709 280.94 153.871 277.726 153.871C274.512 153.871 271.907 155.709 271.907 157.975C271.907 160.242 274.512 162.079 277.726 162.079Z" fill="white"/>
<path d="M277.726 163.069C273.908 163.069 270.914 160.832 270.914 157.975C270.914 155.119 273.908 152.881 277.726 152.881C281.545 152.881 284.539 155.119 284.539 157.975C284.539 160.832 281.545 163.069 277.726 163.069ZM277.726 154.862C275.11 154.862 272.9 156.287 272.9 157.975C272.9 159.664 275.11 161.089 277.726 161.089C280.343 161.089 282.553 159.664 282.553 157.975C282.553 156.287 280.343 154.862 277.726 154.862Z" fill="#D0D0D4"/>
<path d="M289.425 171.149C292.639 171.149 295.244 169.311 295.244 167.045C295.244 164.778 292.639 162.941 289.425 162.941C286.211 162.941 283.605 164.778 283.605 167.045C283.605 169.311 286.211 171.149 289.425 171.149Z" fill="white"/>
<path d="M289.425 172.139C285.606 172.139 282.612 169.901 282.612 167.045C282.612 164.188 285.606 161.951 289.425 161.951C293.243 161.951 296.237 164.188 296.237 167.045C296.237 169.901 293.243 172.139 289.425 172.139ZM289.425 163.931C286.808 163.931 284.598 165.357 284.598 167.045C284.598 168.733 286.808 170.159 289.425 170.159C292.042 170.159 294.251 168.733 294.251 167.045C294.251 165.357 292.042 163.931 289.425 163.931Z" fill="#D0D0D4"/>
<path d="M256.321 123.664C256.321 122.238 256.589 121.05 257.12 120.094C257.651 119.139 258.391 118.159 259.335 117.159C260.035 116.401 260.551 115.758 260.889 115.223C261.221 114.693 261.39 114.094 261.39 113.426C261.39 111.941 260.417 111.198 258.471 111.198C257.343 111.198 256.082 111.456 254.682 111.97C253.282 112.485 251.896 113.183 250.531 114.065L247.974 108.149C249.19 107.119 250.839 106.292 252.924 105.668C255.01 105.05 257.1 104.738 259.2 104.738C261.206 104.738 263.004 105.069 264.583 105.738C266.162 106.406 267.398 107.337 268.277 108.535C269.161 109.733 269.603 111.104 269.603 112.654C269.603 113.777 269.375 114.797 268.918 115.723C268.461 116.649 267.905 117.451 267.254 118.134C266.599 118.817 265.755 119.599 264.722 120.475C263.689 121.357 262.905 122.099 262.373 122.703C261.842 123.312 261.499 123.946 261.345 124.614L261.028 126.386H256.325V123.664H256.321ZM254.588 133.079C254.588 130.792 256.445 128.941 258.739 128.941H258.873C261.167 128.941 263.024 130.792 263.024 133.079C263.024 135.367 261.167 137.218 258.873 137.218H258.739C256.45 137.218 254.588 135.367 254.588 133.079Z" fill="#7ABB63"/>
</g>
<defs>
<clipPath id="clip0">
<rect width="378" height="277" fill="white" transform="translate(24 91.0002)"/>
</clipPath>
</defs>
</svg>
