<svg width="305" height="303" viewBox="0 0 305 303" fill="none" xmlns="http://www.w3.org/2000/svg">
<path d="M288.311 157.508L253.166 207.82C223.476 250.857 164.094 260.556 122.285 229.642L38.0603 168.419C2.31028 142.354 -9.80839 94.4664 8.3696 54.4595C24.7298 18.6956 62.2976 -2.52018 101.077 1.11682L219.84 12.0278C291.34 19.3018 328.908 99.3158 288.311 157.508Z" fill="#F5F5F5"/>
<g clip-path="url(#clip0)">
<path d="M226.1 200.145V185.953H240.247V200.145C240.247 203.793 237.265 206.751 233.588 206.751H232.759C229.06 206.751 226.1 203.793 226.1 200.145Z" fill="#F27442"/>
<path d="M233.566 207.419H232.736C228.701 207.419 225.405 204.171 225.405 200.145V185.953C225.405 185.597 225.697 185.286 226.078 185.286H240.224C240.583 185.286 240.897 185.575 240.897 185.953V200.145C240.897 204.149 237.601 207.419 233.566 207.419ZM226.751 186.62V200.145C226.751 203.415 229.441 206.084 232.736 206.084H233.566C236.861 206.084 239.552 203.415 239.552 200.145V186.62H226.751Z" fill="#552659"/>
<path d="M194.333 200.145V185.953H208.479V200.145C208.479 203.793 205.498 206.751 201.821 206.751H200.991C197.315 206.751 194.333 203.793 194.333 200.145Z" fill="#F27442"/>
<path d="M201.821 207.419H200.991C196.956 207.419 193.66 204.171 193.66 200.145V185.953C193.66 185.597 193.952 185.286 194.333 185.286H208.479C208.838 185.286 209.152 185.575 209.152 185.953V200.145C209.152 204.149 205.856 207.419 201.821 207.419ZM195.006 186.62V200.145C195.006 203.415 197.696 206.084 200.991 206.084H201.821C205.116 206.084 207.807 203.415 207.807 200.145V186.62H195.006Z" fill="#552659"/>
<path d="M257.195 154.611V172.006C257.195 177.167 252.981 181.348 247.779 181.348H235.315V190.558H250.29C265.221 190.558 277.327 178.546 277.327 163.731V154.589C277.327 149.072 272.821 144.601 267.261 144.601C261.701 144.645 257.195 149.116 257.195 154.611Z" fill="#F6904E"/>
<path d="M277.327 154.611H257.195V160.572H277.327V154.611Z" fill="#D34954"/>
<path d="M277.327 164.621H257.195V168.958H277.327V164.621Z" fill="#D34954"/>
<path d="M268.988 183.439C267.889 177.522 263.495 172.362 257.218 168.958V172.34C257.218 177.5 253.003 181.682 247.802 181.682H235.337V190.891H250.313C257.554 190.891 264.123 188.044 268.988 183.439Z" fill="#F27442"/>
<path d="M267.261 145.29C261.702 145.29 257.195 149.762 257.195 155.278V156.724C257.263 156.657 257.307 156.591 257.375 156.524C258.249 151.897 262.352 148.405 267.261 148.405C272.821 148.405 277.327 152.876 277.327 158.392V155.3C277.327 149.762 272.821 145.29 267.261 145.29Z" fill="#FAB367"/>
<path d="M250.29 191.247H235.314C234.956 191.247 234.642 190.958 234.642 190.58V181.371C234.642 181.015 234.933 180.703 235.314 180.703H247.779C252.599 180.703 256.523 176.811 256.523 172.028V154.633C256.523 148.76 261.343 143.978 267.261 143.978C273.18 143.978 278 148.76 278 154.633V163.775C278 178.902 265.558 191.247 250.29 191.247ZM235.987 189.912H250.29C264.84 189.912 276.655 178.167 276.655 163.753V154.611C276.655 149.472 272.44 145.29 267.261 145.29C262.083 145.29 257.868 149.472 257.868 154.611V172.006C257.868 177.522 253.339 181.993 247.802 181.993H236.009V189.912H235.987Z" fill="#552659"/>
<path d="M177.183 174.564V184.196C177.183 194.74 185.791 203.281 196.418 203.281H223.791C232.871 203.281 240.224 195.985 240.224 186.976V174.564H177.183Z" fill="#F6904E"/>
<path d="M194.916 175.454C213.927 177.878 229.284 186.821 235.068 198.499C238.408 195.118 240.471 190.469 240.471 185.352V175.454H194.916Z" fill="#F27442"/>
<path d="M176.51 173.897V187.488C176.51 196.564 183.931 203.926 193.077 203.926H224.307C233.454 203.926 240.874 196.564 240.874 187.488V173.897H176.51ZM239.574 187.488C239.574 195.852 232.759 202.614 224.329 202.614H193.1C184.67 202.614 177.855 195.852 177.855 187.488V175.209H239.574V187.488Z" fill="#552659"/>
<path d="M208.726 138.15L225.719 117.307C227.289 115.394 230.046 114.927 232.154 116.239C233.588 117.129 234.44 118.686 234.44 120.355V138.573L208.726 138.15Z" fill="#F6904E"/>
<path d="M217.267 131.61L226.818 119.887C227.692 118.797 229.261 118.553 230.427 119.287C231.234 119.798 231.727 120.666 231.727 121.6V131.833L217.267 131.61Z" fill="#F27442"/>
<path d="M234.463 139.24L208.726 138.795C208.479 138.795 208.233 138.639 208.143 138.417C208.031 138.194 208.076 137.928 208.233 137.727L225.226 116.884C226.997 114.704 230.136 114.193 232.535 115.683C234.171 116.706 235.135 118.464 235.135 120.377V138.573C235.135 138.751 235.068 138.929 234.933 139.04C234.799 139.173 234.642 139.24 234.463 139.24ZM210.116 137.505L233.79 137.905V120.355C233.79 118.886 233.05 117.574 231.795 116.795C229.979 115.661 227.58 116.061 226.235 117.707L210.116 137.505Z" fill="#552659"/>
<path d="M179.514 138.15L196.508 117.307C198.077 115.394 200.834 114.927 202.942 116.239C204.377 117.129 205.228 118.686 205.228 120.355V138.573L179.514 138.15Z" fill="#F6904E"/>
<path d="M188.504 130.965L198.054 119.242C198.929 118.152 200.498 117.908 201.664 118.642C202.471 119.153 202.964 120.021 202.964 120.955V131.187L188.504 130.965Z" fill="#F27442"/>
<path d="M205.251 139.24C205.229 139.24 205.229 139.24 205.251 139.24L179.514 138.795C179.268 138.795 179.021 138.639 178.931 138.417C178.819 138.194 178.864 137.928 179.021 137.727L196.014 116.884C197.785 114.704 200.924 114.193 203.323 115.683C204.959 116.706 205.924 118.464 205.924 120.377V138.573C205.924 138.751 205.856 138.929 205.722 139.04C205.587 139.173 205.408 139.24 205.251 139.24ZM180.882 137.505L204.578 137.905V120.355C204.578 118.886 203.839 117.574 202.583 116.795C200.767 115.661 198.368 116.061 197.023 117.707L180.882 137.505Z" fill="#552659"/>
<path d="M206.372 194.784C228.002 194.784 245.538 179.636 245.538 160.95C245.538 142.265 228.002 127.117 206.372 127.117C184.741 127.117 167.206 142.265 167.206 160.95C167.206 179.636 184.741 194.784 206.372 194.784Z" fill="#552659"/>
<path d="M205.251 191.403C228.615 191.403 247.555 176.255 247.555 157.569C247.555 138.883 228.615 123.736 205.251 123.736C181.887 123.736 162.947 138.883 162.947 157.569C162.947 176.255 181.887 191.403 205.251 191.403Z" fill="#F6904E"/>
<path d="M203.906 181.615C221.686 181.615 236.099 168.748 236.099 152.876C236.099 137.003 221.686 124.136 203.906 124.136C186.126 124.136 171.712 137.003 171.712 152.876C171.712 168.748 186.126 181.615 203.906 181.615Z" fill="#FAB367"/>
<path d="M201.417 178.19C197.135 178.19 193.167 175.899 191.037 172.228L185.836 163.286C184.783 161.484 184.222 159.416 184.222 157.347V156.857C184.222 150.295 189.603 144.957 196.216 144.957H206.618C213.232 144.957 218.613 150.295 218.613 156.857V157.347C218.613 159.438 218.052 161.484 216.998 163.286L211.797 172.228C209.667 175.921 205.677 178.19 201.417 178.19ZM196.216 146.291C190.342 146.291 185.545 151.029 185.545 156.88V157.369C185.545 159.215 186.038 161.062 186.98 162.663L192.181 171.605C194.086 174.875 197.629 176.9 201.417 176.9C205.206 176.9 208.748 174.875 210.654 171.605L215.855 162.663C216.797 161.062 217.29 159.238 217.29 157.369V156.88C217.29 151.052 212.515 146.291 206.618 146.291H196.216Z" fill="#552659"/>
<path d="M211.214 127.139H207.964C207.112 127.139 206.417 127.829 206.417 128.674C206.417 129.519 207.112 130.209 207.964 130.209H211.214C212.066 130.209 212.761 129.519 212.761 128.674C212.761 127.829 212.066 127.139 211.214 127.139Z" fill="#552659"/>
<path d="M194.826 127.139H191.575C190.723 127.139 190.028 127.829 190.028 128.674C190.028 129.519 190.723 130.209 191.575 130.209H194.826C195.678 130.209 196.373 129.519 196.373 128.674C196.373 127.829 195.678 127.139 194.826 127.139Z" fill="#552659"/>
<path d="M223.253 162.841C223.253 164.087 224.262 165.088 225.518 165.088H246.86V160.594H225.518C224.284 160.594 223.253 161.595 223.253 162.841Z" fill="#D34954"/>
<path d="M225.54 151.63C224.285 151.63 223.276 152.631 223.276 153.877C223.276 155.122 224.285 156.123 225.54 156.123H247.376V151.608H225.54V151.63Z" fill="#D34954"/>
<path d="M175.568 160.594H163.597V165.11H175.568C176.824 165.11 177.833 164.109 177.833 162.863C177.855 161.595 176.824 160.594 175.568 160.594Z" fill="#D34954"/>
<path d="M175.568 151.63H163.597V156.146H175.568C176.824 156.146 177.833 155.145 177.833 153.899C177.855 152.631 176.824 151.63 175.568 151.63Z" fill="#D34954"/>
<path d="M222.244 196.363V200.167C222.244 203.815 219.263 206.774 215.586 206.774H214.756C211.08 206.774 208.098 203.815 208.098 200.167V196.363" fill="#F6904E"/>
<path d="M215.586 207.419H214.756C210.721 207.419 207.425 204.171 207.425 200.145V196.341C207.425 195.985 207.717 195.674 208.098 195.674C208.457 195.674 208.771 195.963 208.771 196.341V200.145C208.771 203.415 211.461 206.084 214.756 206.084H215.586C218.882 206.084 221.572 203.415 221.572 200.145V196.341C221.572 195.985 221.863 195.674 222.244 195.674C222.625 195.674 222.917 195.963 222.917 196.341V200.145C222.917 204.149 219.621 207.419 215.586 207.419Z" fill="#552659"/>
<path d="M191.329 196.363V200.167C191.329 203.815 188.347 206.774 184.67 206.774H183.841C180.164 206.774 177.183 203.815 177.183 200.167V185.953" fill="#F6904E"/>
<path d="M184.67 207.419H183.841C179.806 207.419 176.51 204.171 176.51 200.145V185.953C176.51 185.597 176.801 185.286 177.183 185.286C177.564 185.286 177.855 185.575 177.855 185.953V200.145C177.855 203.415 180.545 206.084 183.841 206.084H184.67C187.966 206.084 190.656 203.415 190.656 200.145V196.341C190.656 195.985 190.948 195.674 191.329 195.674C191.71 195.674 192.001 195.963 192.001 196.341V200.145C191.979 204.149 188.706 207.419 184.67 207.419Z" fill="#552659"/>
<path d="M201.821 199.989L200.072 201.012C199.96 201.079 199.826 201.079 199.713 201.012L197.965 199.989C196.552 199.166 195.745 197.965 195.745 196.719V195.607C195.745 195.496 195.902 195.407 196.059 195.429C197.247 195.563 198.48 195.296 199.332 194.717L199.713 194.473C199.826 194.406 200.005 194.406 200.095 194.473L200.453 194.717C201.305 195.296 202.538 195.563 203.726 195.451C203.883 195.429 204.04 195.518 204.04 195.629L204.063 196.742C204.063 197.965 203.233 199.166 201.821 199.989Z" fill="#EE4A8A"/>
<path d="M196.216 146.291C190.342 146.291 185.545 151.029 185.545 156.88V157.369C185.545 159.215 186.038 161.062 186.98 162.663L192.181 171.605C194.086 174.875 197.628 176.9 201.417 176.9C205.206 176.9 208.748 174.875 210.654 171.605L215.855 162.663C216.797 161.062 217.29 159.238 217.29 157.369V156.88C217.29 151.052 212.515 146.291 206.618 146.291H196.216Z" fill="white"/>
<path d="M201.417 154.744C200.969 155.812 199.915 156.524 198.727 156.524C197.561 156.524 196.485 155.812 196.037 154.744L195.185 152.675C194.692 151.474 195.566 150.14 196.889 150.14H200.565C201.888 150.14 202.785 151.474 202.269 152.675L201.417 154.744Z" fill="#552659"/>
<path d="M199.893 162.797C193.167 162.797 187.719 158.837 187.719 153.988C187.719 153.632 188.011 153.321 188.392 153.321C188.751 153.321 189.064 153.61 189.064 153.988C189.064 158.103 193.929 161.462 199.915 161.462C205.901 161.462 210.766 158.103 210.766 153.988C210.766 153.632 211.057 153.321 211.438 153.321C211.82 153.321 212.111 153.61 212.111 153.988C212.066 158.837 206.618 162.797 199.893 162.797Z" fill="#552659"/>
<path d="M198.727 162.708C198.368 162.708 198.054 162.419 198.054 162.04V155.1C198.054 154.744 198.346 154.433 198.727 154.433C199.108 154.433 199.4 154.722 199.4 155.1V162.04C199.4 162.396 199.086 162.708 198.727 162.708Z" fill="#552659"/>
<path d="M209.6 148.494C213.104 148.494 215.945 144.849 215.945 140.352C215.945 135.856 213.104 132.211 209.6 132.211C206.096 132.211 203.256 135.856 203.256 140.352C203.256 144.849 206.096 148.494 209.6 148.494Z" fill="white"/>
<path d="M208.838 145.157C211.005 145.157 212.761 143.414 212.761 141.264C212.761 139.114 211.005 137.371 208.838 137.371C206.671 137.371 204.915 139.114 204.915 141.264C204.915 143.414 206.671 145.157 208.838 145.157Z" fill="#435AA8"/>
<path d="M208.838 145.824C206.305 145.824 204.242 143.778 204.242 141.264C204.242 138.751 206.305 136.704 208.838 136.704C211.371 136.704 213.434 138.751 213.434 141.264C213.434 143.778 211.371 145.824 208.838 145.824ZM208.838 138.039C207.044 138.039 205.587 139.485 205.587 141.264C205.587 143.044 207.044 144.49 208.838 144.49C210.631 144.49 212.089 143.044 212.089 141.264C212.089 139.485 210.631 138.039 208.838 138.039Z" fill="#54C9F1"/>
<path d="M207.112 143.177C208.053 143.177 208.815 142.42 208.815 141.487C208.815 140.553 208.053 139.796 207.112 139.796C206.171 139.796 205.408 140.553 205.408 141.487C205.408 142.42 206.171 143.177 207.112 143.177Z" fill="white"/>
<path d="M215.945 140.352C215.945 135.859 213.097 132.211 209.6 132.211C206.103 132.211 203.256 135.859 203.256 140.352H215.945Z" fill="#F6904E"/>
<path d="M209.6 149.139C205.722 149.139 202.583 145.179 202.583 140.33C202.583 135.481 205.722 131.521 209.6 131.521C213.479 131.521 216.617 135.481 216.617 140.33C216.617 145.179 213.456 149.139 209.6 149.139ZM209.6 132.856C206.461 132.856 203.906 136.215 203.906 140.33C203.906 144.445 206.461 147.804 209.6 147.804C212.739 147.804 215.294 144.445 215.294 140.33C215.294 136.215 212.739 132.856 209.6 132.856Z" fill="#552659"/>
<path d="M220.271 141.331H203.256C202.897 141.331 202.583 141.042 202.583 140.664C202.583 140.308 202.874 139.996 203.256 139.996H220.271C220.63 139.996 220.944 140.285 220.944 140.664C220.944 141.042 220.63 141.331 220.271 141.331Z" fill="#552659"/>
<path d="M193.234 148.494C196.738 148.494 199.579 144.849 199.579 140.352C199.579 135.856 196.738 132.211 193.234 132.211C189.73 132.211 186.89 135.856 186.89 140.352C186.89 144.849 189.73 148.494 193.234 148.494Z" fill="white"/>
<path d="M192.472 145.157C194.639 145.157 196.396 143.414 196.396 141.264C196.396 139.114 194.639 137.371 192.472 137.371C190.305 137.371 188.549 139.114 188.549 141.264C188.549 143.414 190.305 145.157 192.472 145.157Z" fill="#435AA8"/>
<path d="M192.472 145.824C189.939 145.824 187.876 143.778 187.876 141.264C187.876 138.751 189.939 136.704 192.472 136.704C195.006 136.704 197.068 138.751 197.068 141.264C197.068 143.778 195.006 145.824 192.472 145.824ZM192.472 138.039C190.679 138.039 189.221 139.485 189.221 141.264C189.221 143.044 190.679 144.49 192.472 144.49C194.266 144.49 195.723 143.044 195.723 141.264C195.723 139.485 194.266 138.039 192.472 138.039Z" fill="#54C9F1"/>
<path d="M190.746 143.177C191.687 143.177 192.45 142.42 192.45 141.487C192.45 140.553 191.687 139.796 190.746 139.796C189.805 139.796 189.042 140.553 189.042 141.487C189.042 142.42 189.805 143.177 190.746 143.177Z" fill="white"/>
<path d="M199.579 140.352C199.579 135.859 196.732 132.211 193.234 132.211C189.737 132.211 186.89 135.859 186.89 140.352H199.579Z" fill="#F6904E"/>
<path d="M193.234 149.139C189.356 149.139 186.217 145.179 186.217 140.33C186.217 135.481 189.356 131.521 193.234 131.521C197.113 131.521 200.251 135.481 200.251 140.33C200.251 145.179 197.113 149.139 193.234 149.139ZM193.234 132.856C190.096 132.856 187.54 136.215 187.54 140.33C187.54 144.445 190.096 147.804 193.234 147.804C196.373 147.804 198.929 144.445 198.929 140.33C198.929 136.215 196.373 132.856 193.234 132.856Z" fill="#552659"/>
<path d="M199.243 141.331H182.227C181.868 141.331 181.554 141.042 181.554 140.664C181.554 140.308 181.846 139.996 182.227 139.996H199.243C199.601 139.996 199.915 140.285 199.915 140.664C199.915 141.042 199.624 141.331 199.243 141.331Z" fill="#552659"/>
<path d="M205.251 192.07C181.554 192.07 162.274 176.588 162.274 157.569C162.274 138.55 181.554 123.068 205.251 123.068C228.948 123.068 248.228 138.55 248.228 157.569C248.228 176.588 228.948 192.07 205.251 192.07ZM205.251 124.381C182.294 124.381 163.597 139.262 163.597 157.569C163.597 175.876 182.272 190.758 205.251 190.758C228.208 190.758 246.905 175.876 246.905 157.569C246.905 139.262 228.208 124.381 205.251 124.381Z" fill="#552659"/>
<path d="M198.054 152.876C199.02 152.876 199.803 152.597 199.803 152.253C199.803 151.909 199.02 151.63 198.054 151.63C197.089 151.63 196.306 151.909 196.306 152.253C196.306 152.597 197.089 152.876 198.054 152.876Z" fill="white"/>
<path d="M168.305 125.448L152.679 105.718C150.527 103.004 146.558 102.537 143.823 104.672C143.554 104.872 143.33 105.095 143.106 105.34C138.219 110.522 135.753 117.151 135.753 125.226C135.753 129.92 136.784 134.324 138.6 138.217C138.443 136.993 138.376 135.748 138.376 134.457C138.376 127.339 140.752 120.822 144.653 115.839L158.396 133.189C160.548 135.903 164.516 136.37 167.251 134.235C169.986 132.122 170.457 128.184 168.305 125.448Z" fill="#552659"/>
<path d="M110.621 120.088C110.621 112.013 108.155 105.384 103.268 100.201C103.043 99.9564 102.819 99.734 102.55 99.5338C99.8152 97.3983 95.847 97.8654 93.6948 100.579L78.0689 120.31C75.9167 123.024 76.3875 126.961 79.1226 129.096C81.8577 131.232 85.8258 130.765 87.978 128.051L101.721 110.7C105.644 115.683 107.998 122.201 107.998 129.319C107.998 130.587 107.908 131.833 107.774 133.078C109.59 129.185 110.621 124.759 110.621 120.088Z" fill="#552659"/>
<path d="M131.269 198.655V202.458C131.269 206.106 128.287 209.065 124.61 209.065H123.781C120.104 209.065 117.122 206.106 117.122 202.458V198.655" fill="#D49072"/>
<path d="M124.61 209.71H123.781C119.746 209.71 116.472 206.462 116.472 202.458V198.655C116.472 198.299 116.764 197.987 117.145 197.987C117.526 197.987 117.818 198.276 117.818 198.655V202.458C117.818 205.728 120.508 208.398 123.803 208.398H124.633C127.928 208.398 130.619 205.728 130.619 202.458V198.655C130.619 198.299 130.91 197.987 131.291 197.987C131.65 197.987 131.964 198.276 131.964 198.655V202.458C131.919 206.44 128.646 209.71 124.61 209.71Z" fill="#552659"/>
<path d="M151.67 191.336L144.698 200.701L139.093 196.586L146.065 187.221C146.827 186.175 148.307 185.975 149.361 186.732L151.199 188.066C152.208 188.822 152.432 190.291 151.67 191.336Z" fill="#D49072"/>
<path d="M144.832 201.613L138.151 196.697L144.855 187.71C146.222 185.886 148.823 185.486 150.661 186.843C152.499 188.2 152.903 190.78 151.535 192.604L144.832 201.613ZM139.99 196.43L144.541 199.767L150.437 191.848C151.356 190.602 151.109 188.845 149.854 187.933C148.599 187.021 146.827 187.288 145.908 188.511L139.99 196.43Z" fill="#552659"/>
<path d="M140.057 188.756V181.326H95.8022V202.948H147.881V196.519C147.881 194.384 146.132 192.649 143.98 192.649C141.806 192.626 140.057 190.891 140.057 188.756Z" fill="#EEB38B"/>
<path d="M140.057 188.756V181.326H95.8022V187.466C105.353 191.002 116.898 193.093 129.318 193.093C133.825 193.093 138.196 192.826 142.411 192.315C141.021 191.714 140.057 190.335 140.057 188.756Z" fill="#D49072"/>
<path d="M147.881 203.593H95.8022C95.4435 203.593 95.1296 203.304 95.1296 202.925V181.304C95.1296 180.948 95.4211 180.637 95.8022 180.637H140.057C140.416 180.637 140.73 180.926 140.73 181.304V188.734C140.73 190.513 142.187 191.959 143.98 191.959C146.491 191.959 148.554 194.005 148.554 196.497V202.925C148.531 203.304 148.24 203.593 147.881 203.593ZM96.4747 202.28H147.209V196.497C147.209 194.717 145.751 193.271 143.958 193.271C141.447 193.271 139.384 191.225 139.384 188.734V181.971H96.4747V202.28Z" fill="#552659"/>
<path d="M109.948 198.654V202.458C109.948 206.106 106.967 209.065 103.29 209.065H102.461C98.7839 209.065 95.8022 206.106 95.8022 202.458V188.266" fill="#EEB38B"/>
<path d="M103.29 209.71H102.461C98.4252 209.71 95.1521 206.462 95.1521 202.458V188.266C95.1521 187.91 95.4435 187.599 95.8246 187.599C96.1833 187.599 96.4972 187.888 96.4972 188.266V202.458C96.4972 205.728 99.1874 208.397 102.483 208.397H103.313C106.608 208.397 109.298 205.728 109.298 202.458V198.654C109.298 198.299 109.59 197.987 109.971 197.987C110.33 197.987 110.643 198.276 110.643 198.654V202.458C110.621 206.44 107.325 209.71 103.29 209.71Z" fill="#552659"/>
<path d="M117.347 193.049C136.006 193.049 151.132 177.831 151.132 159.06C151.132 140.288 136.006 125.07 117.347 125.07C98.6876 125.07 83.5615 140.288 83.5615 159.06C83.5615 177.831 98.6876 193.049 117.347 193.049Z" fill="#552659"/>
<path d="M117.347 190.402C138.42 190.402 155.504 175.184 155.504 156.413C155.504 137.641 138.42 122.423 117.347 122.423C96.2732 122.423 79.1898 137.641 79.1898 156.413C79.1898 175.184 96.2732 190.402 117.347 190.402Z" fill="#D49072"/>
<path d="M114.858 184.93C131.957 184.93 145.819 171.156 145.819 154.166C145.819 137.175 131.957 123.402 114.858 123.402C97.7592 123.402 83.8978 137.175 83.8978 154.166C83.8978 171.156 97.7592 184.93 114.858 184.93Z" fill="#EEB38B"/>
<path d="M117.347 191.069C95.9367 191.069 78.5173 175.52 78.5173 156.413C78.5173 137.305 95.9367 121.756 117.347 121.756C138.757 121.756 156.176 137.305 156.176 156.413C156.176 175.52 138.779 191.069 117.347 191.069ZM117.347 123.068C96.6765 123.068 79.84 138.016 79.84 156.39C79.84 174.764 96.6765 189.735 117.347 189.735C138.017 189.735 154.853 174.786 154.853 156.413C154.853 138.039 138.039 123.068 117.347 123.068Z" fill="#552659"/>
<path d="M124.706 158.808C131.836 157.287 136.08 148.966 134.185 140.221C132.291 131.477 124.975 125.622 117.845 127.143C110.714 128.664 106.47 136.985 108.365 145.729C110.26 154.474 117.576 160.329 124.706 158.808Z" fill="#A46270"/>
<path d="M121.79 150.111C126.111 149.023 128.517 143.855 127.165 138.568C125.812 133.281 121.213 129.877 116.893 130.965C112.572 132.053 110.166 137.221 111.519 142.508C112.871 147.795 117.47 151.199 121.79 150.111Z" fill="white"/>
<path d="M120.171 150.963C116.091 150.963 112.145 147.582 110.89 142.666C110.195 139.974 110.419 137.193 111.495 134.88C112.594 132.522 114.455 130.898 116.741 130.32C121.404 129.141 126.381 132.767 127.816 138.395C128.511 141.086 128.287 143.867 127.211 146.18C126.112 148.538 124.252 150.162 121.965 150.74C121.382 150.896 120.777 150.963 120.171 150.963ZM118.535 131.432C118.042 131.432 117.548 131.499 117.055 131.61C115.172 132.077 113.603 133.456 112.684 135.436C111.742 137.483 111.54 139.93 112.168 142.332C113.423 147.248 117.661 150.451 121.629 149.45C123.512 148.983 125.081 147.604 126 145.624C126.942 143.578 127.144 141.131 126.516 138.728C125.417 134.413 122.032 131.432 118.535 131.432Z" fill="#552659"/>
<path d="M122.794 121.266H117.593C115.598 121.266 113.961 122.89 113.961 124.87C113.961 126.85 115.598 128.474 117.593 128.474H122.794C124.79 128.474 126.426 126.85 126.426 124.87C126.426 122.868 124.79 121.266 122.794 121.266Z" fill="#552659"/>
<path d="M102.505 121.266H97.3043C95.309 121.266 93.6724 122.89 93.6724 124.87C93.6724 126.85 95.309 128.474 97.3043 128.474H102.505C104.501 128.474 106.137 126.85 106.137 124.87C106.137 122.868 104.501 121.266 102.505 121.266Z" fill="#552659"/>
<path d="M133.668 174.141C133.062 174.141 132.479 174.23 131.919 174.386V170.782C132.457 170.938 133.062 171.027 133.668 171.027C136.649 171.027 139.071 169.069 139.071 166.645C139.071 164.22 136.649 162.263 133.668 162.263C130.686 162.263 128.265 164.22 128.265 166.645V170.782H83.853V166.645C83.853 164.22 81.4317 162.263 78.45 162.263C75.4683 162.263 73.0471 164.22 73.0471 166.645C73.0471 169.069 75.4683 171.027 78.45 171.027C79.0553 171.027 79.6382 170.938 80.1987 170.782V174.386C79.6606 174.23 79.0553 174.141 78.45 174.141C75.4683 174.141 73.0471 176.099 73.0471 178.523C73.0471 180.948 75.4683 182.905 78.45 182.905C81.1179 182.905 83.3373 181.348 83.7633 179.28L83.853 174.386H128.265L128.354 179.28C128.803 181.326 131 182.905 133.668 182.905C136.649 182.905 139.071 180.948 139.071 178.523C139.071 176.099 136.649 174.141 133.668 174.141Z" fill="#FAF3D4"/>
<path d="M133.668 183.551C130.731 183.551 128.22 181.816 127.704 179.413L127.682 179.28L127.615 175.031H84.5031L84.4134 179.391C83.8978 181.793 81.3869 183.528 78.45 183.528C75.1096 183.528 72.3745 181.282 72.3745 178.501C72.3745 175.721 75.0872 173.474 78.45 173.474C78.8087 173.474 79.1674 173.496 79.5261 173.563V171.583C79.1674 171.628 78.8087 171.672 78.45 171.672C75.1096 171.672 72.3745 169.425 72.3745 166.645C72.3745 163.864 75.0872 161.618 78.45 161.618C81.7904 161.618 84.5255 163.864 84.5255 166.645V170.115H127.592V166.645C127.592 163.864 130.305 161.618 133.668 161.618C137.03 161.618 139.743 163.864 139.743 166.645C139.743 169.425 137.03 171.672 133.668 171.672C133.309 171.672 132.95 171.65 132.591 171.583V173.563C132.95 173.518 133.309 173.474 133.668 173.474C137.008 173.474 139.743 175.721 139.743 178.501C139.743 181.282 137.008 183.551 133.668 183.551ZM129.004 179.191C129.43 180.948 131.358 182.238 133.668 182.238C136.291 182.238 138.398 180.57 138.398 178.523C138.398 176.477 136.268 174.809 133.668 174.809C133.13 174.809 132.614 174.875 132.098 175.031L131.246 175.253V169.915L132.098 170.137C132.614 170.271 133.13 170.36 133.668 170.36C136.291 170.36 138.398 168.691 138.398 166.645C138.398 164.598 136.268 162.93 133.668 162.93C131.045 162.93 128.937 164.598 128.937 166.645V171.45H83.2028V166.645C83.2028 164.598 81.073 162.93 78.4724 162.93C75.8719 162.93 73.7196 164.598 73.7196 166.645C73.7196 168.691 75.8494 170.36 78.45 170.36C78.9881 170.36 79.5037 170.293 80.0193 170.137L80.8712 169.915V175.253L80.0193 175.031C79.5037 174.898 78.9881 174.809 78.45 174.809C75.827 174.809 73.7196 176.477 73.7196 178.523C73.7196 180.57 75.8494 182.238 78.45 182.238C80.7367 182.238 82.6872 180.97 83.1131 179.191L83.2028 173.719H128.915L129.004 179.191Z" fill="#552659"/>
<path d="M122.189 163.887C122.884 165.155 123.265 166.6 123.265 168.158C123.265 172.962 119.476 176.877 114.791 176.877C110.89 176.877 107.617 174.186 106.63 170.515" fill="#EEB38B"/>
<path d="M90.4889 163.887C89.7939 165.155 89.4128 166.6 89.4128 168.158C89.4128 172.962 93.2016 176.877 97.8871 176.877C101.788 176.877 105.061 174.186 106.048 170.515" fill="#EEB38B"/>
<path d="M121.494 144.578C123.364 144.578 124.879 143.075 124.879 141.22C124.879 139.365 123.364 137.861 121.494 137.861C119.625 137.861 118.109 139.365 118.109 141.22C118.109 143.075 119.625 144.578 121.494 144.578Z" fill="#552659"/>
<path d="M121.786 142.532C122.665 142.532 123.377 141.825 123.377 140.953C123.377 140.081 122.665 139.373 121.786 139.373C120.906 139.373 120.194 140.081 120.194 140.953C120.194 141.825 120.906 142.532 121.786 142.532Z" fill="white"/>
<path d="M133.735 202.436C133.735 206.084 136.717 209.043 140.393 209.043H141.223C144.899 209.043 147.881 206.084 147.881 202.436V198.632" fill="#EEB38B"/>
<path d="M141.223 209.71H140.393C136.358 209.71 133.085 206.462 133.085 202.458C133.085 202.102 133.376 201.791 133.757 201.791C134.116 201.791 134.43 202.08 134.43 202.458C134.43 205.728 137.12 208.398 140.416 208.398H141.245C144.541 208.398 147.231 205.728 147.231 202.458V198.655C147.231 198.299 147.522 197.987 147.904 197.987C148.285 197.987 148.576 198.276 148.576 198.655V202.458C148.531 206.44 145.258 209.71 141.223 209.71Z" fill="#552659"/>
<path d="M118.871 198.677L117.122 199.7C117.01 199.767 116.876 199.767 116.764 199.7L115.015 198.677C113.603 197.854 112.796 196.652 112.796 195.407V194.295C112.796 194.183 112.953 194.094 113.109 194.117C114.298 194.25 115.531 193.983 116.383 193.405L116.764 193.16C116.876 193.093 117.055 193.093 117.145 193.16L117.504 193.405C118.356 193.983 119.589 194.25 120.777 194.139C120.934 194.117 121.091 194.206 121.091 194.317L121.113 195.429C121.091 196.652 120.284 197.854 118.871 198.677Z" fill="#EE4A8A"/>
<path d="M137.636 198.655V202.458C137.636 206.106 134.654 209.065 130.977 209.065H130.148C126.471 209.065 123.489 206.106 123.489 202.458V198.655" fill="#EEB38B"/>
<path d="M130.977 209.71H130.148C126.112 209.71 122.839 206.462 122.839 202.458V198.655C122.839 198.299 123.131 197.987 123.512 197.987C123.893 197.987 124.184 198.276 124.184 198.655V202.458C124.184 205.728 126.875 208.398 130.17 208.398H131C134.295 208.398 136.986 205.728 136.986 202.458V198.655C136.986 198.299 137.277 197.987 137.658 197.987C138.017 197.987 138.331 198.276 138.331 198.655V202.458C138.308 206.44 135.013 209.71 130.977 209.71Z" fill="#552659"/>
<path d="M100.712 131.432C97.2145 131.432 93.8293 134.413 92.7308 138.728C92.1255 141.131 92.3048 143.6 93.2464 145.624C94.1656 147.626 95.7349 148.983 97.6181 149.45C98.1113 149.584 98.6045 149.628 99.0977 149.628C102.595 149.628 105.98 146.647 107.079 142.332C107.684 139.929 107.505 137.46 106.563 135.436C105.644 133.434 104.075 132.077 102.192 131.61C101.698 131.477 101.205 131.432 100.712 131.432Z" fill="white"/>
<path d="M101.564 144.578C103.433 144.578 104.949 143.075 104.949 141.22C104.949 139.365 103.433 137.861 101.564 137.861C99.6942 137.861 98.1786 139.365 98.1786 141.22C98.1786 143.075 99.6942 144.578 101.564 144.578Z" fill="#552659"/>
<path d="M101.855 142.532C102.734 142.532 103.447 141.825 103.447 140.953C103.447 140.081 102.734 139.373 101.855 139.373C100.976 139.373 100.264 140.081 100.264 140.953C100.264 141.825 100.976 142.532 101.855 142.532Z" fill="white"/>
<path d="M99.0753 150.963C98.47 150.963 97.8871 150.896 97.2818 150.74C94.9951 150.162 93.1343 148.538 92.0358 146.18C90.9597 143.867 90.7355 141.108 91.4305 138.395C92.8653 132.767 97.8423 129.141 102.505 130.32C104.792 130.898 106.653 132.522 107.751 134.88C108.827 137.193 109.052 139.952 108.357 142.666C107.101 147.582 103.156 150.963 99.0753 150.963ZM100.712 131.432C97.2145 131.432 93.8293 134.413 92.7308 138.728C92.1255 141.131 92.3048 143.6 93.2464 145.624C94.1656 147.626 95.7349 148.983 97.6181 149.45C98.1113 149.584 98.6045 149.628 99.0977 149.628C102.595 149.628 105.98 146.647 107.079 142.332C107.684 139.93 107.505 137.46 106.563 135.436C105.644 133.434 104.075 132.077 102.192 131.61C101.698 131.477 101.205 131.432 100.712 131.432Z" fill="#552659"/>
<path d="M125.417 163.219H120.418C120.059 163.219 119.746 163.508 119.746 163.887C119.746 164.265 120.037 164.554 120.418 164.554H121.763C122.301 165.666 122.593 166.912 122.593 168.157C122.593 172.606 119.095 176.21 114.769 176.21C111.271 176.21 108.177 173.785 107.236 170.337C107.146 169.982 106.765 169.781 106.429 169.87C106.384 169.87 106.361 169.893 106.317 169.915C106.294 169.893 106.249 169.893 106.205 169.87C105.846 169.781 105.487 169.982 105.397 170.337C104.568 173.385 102.079 175.609 99.1202 176.099C99.0978 176.099 99.0754 176.099 99.0529 176.099C98.9633 176.099 98.8736 176.121 98.8063 176.143C98.4925 176.188 98.1786 176.21 97.8648 176.21C93.5603 176.21 90.0406 172.584 90.0406 168.157C90.0406 166.912 90.332 165.666 90.8701 164.554H92.2152C92.5739 164.554 92.8878 164.265 92.8878 163.887C92.8878 163.508 92.5963 163.219 92.2152 163.219H87.2158C86.8571 163.219 86.5432 163.508 86.5432 163.887C86.5432 164.265 86.8347 164.554 87.2158 164.554H89.4129C88.9421 165.688 88.7179 166.912 88.7179 168.157C88.7179 172.117 91.1391 175.52 94.5243 176.877V178.078C94.5243 179.502 95.6901 180.659 97.1249 180.659C98.5597 180.659 99.7255 179.502 99.7255 178.078V177.322C102.662 176.699 105.173 174.608 106.317 171.739C107.37 174.341 109.523 176.299 112.101 177.1V178.078C112.101 179.502 113.266 180.659 114.701 180.659C116.136 180.659 117.302 179.502 117.302 178.078V177.144C121.135 176.01 123.938 172.406 123.938 168.135C123.938 166.89 123.691 165.666 123.243 164.532H125.44C125.799 164.532 126.112 164.242 126.112 163.864C126.112 163.486 125.799 163.219 125.417 163.219ZM98.4028 178.101C98.4028 178.79 97.8423 179.346 97.1473 179.346C96.4524 179.346 95.8919 178.79 95.8919 178.101V177.3C96.542 177.456 97.2146 177.522 97.9096 177.522C98.0889 177.522 98.2459 177.5 98.4252 177.5V178.101H98.4028ZM115.979 178.101C115.979 178.79 115.419 179.346 114.724 179.346C114.029 179.346 113.468 178.79 113.468 178.101V177.433C113.917 177.5 114.365 177.545 114.813 177.545C115.217 177.545 115.62 177.522 116.002 177.456V178.101H115.979Z" fill="#552659"/>
<path d="M116.405 162.396L111.787 168.135C109.007 171.583 103.694 171.583 100.914 168.135L96.2954 162.396C95.309 161.173 94.7933 159.682 94.7933 158.125C94.7933 154.344 97.8871 151.274 101.698 151.274H111.025C114.836 151.274 117.93 154.344 117.93 158.125C117.93 159.682 117.392 161.195 116.405 162.396Z" fill="#552659"/>
<path d="M104.187 157.836C107.381 157.836 109.971 156.89 109.971 155.723C109.971 154.556 107.381 153.61 104.187 153.61C100.992 153.61 98.4028 154.556 98.4028 155.723C98.4028 156.89 100.992 157.836 104.187 157.836Z" fill="white"/>
<path d="M98.4028 178.101C98.4028 178.79 97.8423 179.346 97.1473 179.346C96.4523 179.346 95.8919 178.79 95.8919 178.101V177.3C96.542 177.456 97.2146 177.522 97.9095 177.522C98.0889 177.522 98.2458 177.5 98.4252 177.5V178.101H98.4028Z" fill="white"/>
<path d="M115.979 178.101C115.979 178.79 115.419 179.346 114.724 179.346C114.029 179.346 113.468 178.79 113.468 178.101V177.433C113.917 177.5 114.365 177.545 114.813 177.545C115.217 177.545 115.62 177.522 116.001 177.456V178.101H115.979Z" fill="white"/>
<path opacity="0.1" d="M137.837 302.714C203.2 302.714 256.186 296.479 256.186 288.789C256.186 281.098 203.2 274.864 137.837 274.864C72.4751 274.864 19.4885 281.098 19.4885 288.789C19.4885 296.479 72.4751 302.714 137.837 302.714Z" fill="#353535"/>
<path d="M243.318 208.798L248.474 207.864C250.044 207.574 251.277 209.154 250.582 210.577L237.175 238.85H237.691C239.103 238.85 240.247 239.984 240.247 241.386C240.247 242.787 239.103 243.922 237.691 243.922H230.27L243.318 208.798Z" fill="#FFC08D"/>
<path d="M248.474 207.841L243.318 208.776L241.928 212.535L246.569 211.69C248.138 211.401 249.371 212.98 248.676 214.404L234.754 243.877C234.754 243.877 237.512 243.143 237.96 243.877C239.238 243.744 240.247 242.654 240.247 241.341C240.247 239.94 239.103 238.806 237.691 238.806H237.175L250.582 210.533C251.254 209.154 250.021 207.552 248.474 207.841Z" fill="#FFE6D2"/>
<path d="M237.691 244.589H230.27C230.046 244.589 229.844 244.478 229.71 244.3C229.575 244.122 229.553 243.877 229.62 243.677L242.646 208.553C242.735 208.331 242.915 208.175 243.161 208.131L248.318 207.196C249.304 207.018 250.268 207.397 250.873 208.175C251.479 208.954 251.591 209.999 251.165 210.889L238.184 238.227C239.709 238.494 240.874 239.807 240.874 241.408C240.919 243.165 239.485 244.589 237.691 244.589ZM231.257 243.254H237.691C238.722 243.254 239.574 242.409 239.574 241.386C239.574 240.363 238.722 239.517 237.691 239.517H237.175C236.951 239.517 236.727 239.406 236.592 239.206C236.458 239.006 236.458 238.761 236.548 238.561L249.954 210.288C250.156 209.844 250.111 209.376 249.82 208.976C249.528 208.598 249.057 208.42 248.587 208.509L243.811 209.376L231.257 243.254Z" fill="#C16868"/>
<path d="M212.402 265.699C212.402 270.793 216.572 274.93 221.706 274.93H243.811C247.667 274.93 250.784 271.838 250.784 268.012C250.784 264.186 247.667 261.094 243.811 261.094H233.611L231.324 266.3L212.402 265.699Z" fill="#CCBAE0"/>
<path d="M222.177 265.988L212.402 265.677C212.402 270.771 216.572 274.908 221.706 274.908H231.481C226.437 274.93 222.334 270.949 222.177 265.988Z" fill="#D293E0"/>
<path d="M243.789 275.598H221.684C216.169 275.598 211.685 271.149 211.685 265.677C211.685 265.499 211.752 265.321 211.887 265.187C212.021 265.054 212.201 264.987 212.38 264.987L230.876 265.588L232.983 260.805C233.095 260.56 233.342 260.405 233.611 260.405H243.811C248.026 260.405 251.479 263.808 251.479 268.012C251.456 272.194 248.026 275.598 243.789 275.598ZM213.098 266.389C213.456 270.771 217.178 274.241 221.684 274.241H243.789C247.264 274.241 250.089 271.438 250.089 267.99C250.089 264.542 247.264 261.739 243.789 261.739H234.037L231.929 266.522C231.817 266.767 231.548 266.945 231.279 266.922L213.098 266.389Z" fill="#8D78A8"/>
<path d="M250.761 268.012H263.63L260.894 260.916H268.741C269.817 260.916 270.691 260.049 270.691 258.981C270.691 257.913 269.817 257.046 268.741 257.046H252.712L257.487 264.876H250.761V268.012Z" fill="#CCBAE0"/>
<path d="M250.761 268.012H263.63L257.487 264.876H250.761V268.012Z" fill="#D293E0"/>
<path d="M263.63 268.68H250.761C250.38 268.68 250.089 268.368 250.089 268.012V264.876C250.089 264.498 250.402 264.209 250.761 264.209H256.276L252.129 257.402C251.994 257.202 251.994 256.935 252.129 256.712C252.263 256.49 252.487 256.356 252.734 256.356H268.763C270.221 256.356 271.409 257.535 271.409 258.981C271.409 260.427 270.221 261.606 268.763 261.606H261.926L264.302 267.768C264.392 267.968 264.347 268.213 264.235 268.391C264.078 268.568 263.854 268.68 263.63 268.68ZM251.456 267.323H262.643L260.267 261.161C260.177 260.961 260.222 260.716 260.334 260.538C260.469 260.36 260.67 260.249 260.894 260.249H268.741C269.436 260.249 270.019 259.693 270.019 258.981C270.019 258.269 269.458 257.713 268.741 257.713H253.922L258.07 264.52C258.204 264.72 258.204 264.987 258.07 265.21C257.935 265.432 257.711 265.565 257.464 265.565H251.434V267.323H251.456Z" fill="#8D78A8"/>
<path d="M78.1361 199.522C79.5261 196.653 81.8128 194.895 84.3013 194.895C86.7898 194.895 89.0765 196.653 90.4665 199.522H94.6364C94.6364 199.188 94.5691 198.855 94.457 198.543C92.4842 193.36 88.6057 190.135 84.3013 190.135C79.683 190.135 75.6028 193.805 73.8093 199.522H78.1361Z" fill="#6D295A"/>
<path d="M86.2069 283.472L85.8258 273.195C86.3639 269.436 86.0052 264.765 84.5479 259.915C83.1131 255.066 80.8488 250.929 78.3379 248.081L76.522 241.986L69.5946 244.077C64.3934 245.59 62.6672 255.155 65.7386 265.432C68.0701 273.24 72.4866 279.223 76.7686 280.958L86.2069 283.472Z" fill="#7B3A4F"/>
<path d="M86.2069 284.162C86.1397 284.162 86.0948 284.162 86.0276 284.14L76.6117 281.626C76.5893 281.626 76.5668 281.604 76.522 281.604C71.9037 279.735 67.42 273.462 65.0884 265.655C63.5863 260.583 63.1604 255.533 63.9002 251.396C64.6849 247.103 66.6353 244.278 69.4152 243.477L76.3202 241.386C76.4996 241.341 76.6789 241.341 76.8359 241.43C76.9928 241.519 77.1049 241.653 77.1721 241.831L78.9432 247.77C81.5887 250.795 83.8081 255.044 85.1981 259.738C86.6105 264.476 87.0588 269.258 86.4984 273.24L86.8795 283.45C86.8795 283.672 86.7898 283.873 86.6329 284.006C86.5208 284.117 86.3639 284.162 86.2069 284.162ZM77.0152 280.314L85.4895 282.582L85.1532 273.24C85.1532 273.195 85.1532 273.151 85.1532 273.129C85.7137 269.325 85.2653 264.698 83.8978 260.138C82.5302 255.578 80.378 251.463 77.8223 248.549C77.755 248.482 77.7102 248.393 77.6878 248.304L76.0736 242.876L69.8188 244.767C67.5545 245.434 65.9403 247.859 65.2678 251.641C64.5504 255.578 64.9539 260.405 66.4111 265.276C68.6082 272.55 72.8453 278.601 77.0152 280.314Z" fill="#421D2A"/>
<path d="M88.8932 283.473C94.0822 281.953 95.5247 271.436 92.1152 259.985C88.7057 248.533 81.7353 240.483 76.5464 242.004C71.3575 243.524 69.915 254.041 73.3245 265.492C76.7339 276.944 83.7043 284.994 88.8932 283.473Z" fill="#7B3A4F"/>
<path d="M87.5969 284.34C82.2388 284.34 75.9391 276.643 72.666 265.677C70.9846 260.049 70.4017 254.443 71.0294 249.928C71.6795 245.212 73.5627 242.164 76.3427 241.341C79.1226 240.518 82.3733 242.053 85.512 245.679C88.5161 249.149 91.0943 254.154 92.7757 259.782C94.4571 265.41 95.04 271.015 94.4122 275.531C93.7621 280.247 91.8789 283.294 89.099 284.117C88.6058 284.273 88.1125 284.34 87.5969 284.34ZM77.8447 242.498C77.4636 242.498 77.1049 242.543 76.7462 242.654C74.5492 243.299 72.9574 246.013 72.397 250.128C71.7916 254.466 72.3745 259.871 73.9887 265.321C77.2394 276.198 83.9651 284.228 88.7179 282.849C90.9149 282.204 92.5066 279.49 93.0671 275.375C93.6724 271.038 93.0895 265.632 91.4754 260.182C89.8612 254.733 87.3727 249.905 84.5031 246.569C82.194 243.944 79.84 242.498 77.8447 242.498Z" fill="#421D2A"/>
<path d="M87.9168 280.208C92.0133 279.008 92.9967 270.184 90.1134 260.499C87.2301 250.815 81.5718 243.937 77.4753 245.138C73.3788 246.339 72.3953 255.163 75.2787 264.847C78.162 274.532 83.8203 281.409 87.9168 280.208Z" fill="#8D78A8"/>
<path d="M86.9916 281.048C82.6423 281.048 77.4187 274.419 74.6388 265.054C73.2264 260.294 72.666 255.555 73.0919 251.752C73.5403 247.748 75.0423 245.167 77.3066 244.5C81.8352 243.165 87.7538 250.128 90.8028 260.316C93.8517 270.526 92.6635 279.557 88.1349 280.87C87.7538 280.981 87.3727 281.048 86.9916 281.048ZM78.4724 245.679C78.2034 245.679 77.9344 245.723 77.6878 245.79C76.0064 246.28 74.8406 248.504 74.4595 251.885C74.0559 255.533 74.594 260.071 75.9615 264.653C78.6966 273.818 84.0771 280.647 87.7538 279.557C91.4305 278.489 92.2151 269.836 89.4801 260.672C86.9467 252.174 82.0819 245.679 78.4724 245.679Z" fill="#421D2A"/>
<path d="M85.783 271.566C87.6591 271.017 87.98 266.54 86.4997 261.568C85.0195 256.597 82.2986 253.012 80.4225 253.562C78.5464 254.112 78.2256 258.588 79.7058 263.56C81.1861 268.532 83.9069 272.116 85.783 271.566Z" fill="#6C5E82"/>
<path d="M169.672 283.472L169.291 273.195C169.829 269.436 169.47 264.765 168.013 259.915C166.578 255.066 164.314 250.929 161.803 248.081L159.987 241.986L153.06 244.077C147.859 245.59 146.132 255.155 149.204 265.432C151.535 273.24 155.952 279.223 160.234 280.958L169.672 283.472Z" fill="#7B3A4F"/>
<path d="M169.672 284.162C169.605 284.162 169.56 284.162 169.493 284.14L160.077 281.626C160.055 281.626 160.032 281.604 159.987 281.604C155.369 279.735 150.885 273.462 148.554 265.655C147.052 260.583 146.626 255.533 147.365 251.396C148.15 247.103 150.101 244.278 152.881 243.477L159.786 241.386C159.965 241.341 160.144 241.341 160.301 241.43C160.458 241.519 160.57 241.653 160.637 241.831L162.409 247.77C165.054 250.795 167.273 255.044 168.663 259.738C170.076 264.476 170.524 269.258 169.964 273.24L170.345 283.45C170.345 283.672 170.255 283.873 170.098 284.006C169.986 284.117 169.829 284.162 169.672 284.162ZM160.48 280.314L168.955 282.582L168.619 273.24C168.619 273.195 168.619 273.151 168.619 273.129C169.179 269.325 168.731 264.698 167.363 260.138C165.996 255.578 163.843 251.463 161.288 248.549C161.22 248.482 161.175 248.393 161.153 248.304L159.539 242.876L153.284 244.767C151.02 245.434 149.406 247.859 148.733 251.641C148.016 255.578 148.419 260.405 149.876 265.276C152.073 272.55 156.311 278.601 160.48 280.314Z" fill="#421D2A"/>
<path d="M172.357 283.477C177.546 281.957 178.988 271.44 175.579 259.989C172.17 248.537 165.199 240.487 160.01 242.007C154.821 243.528 153.379 254.045 156.788 265.496C160.198 276.948 167.168 284.998 172.357 283.477Z" fill="#7B3A4F"/>
<path d="M171.062 284.34C168.641 284.34 165.973 282.76 163.395 279.802C160.391 276.332 157.813 271.327 156.131 265.699C154.45 260.071 153.867 254.466 154.495 249.95C155.145 245.234 157.028 242.187 159.808 241.364C162.588 240.541 165.839 242.075 168.977 245.701C171.981 249.171 174.56 254.176 176.241 259.804C177.922 265.432 178.505 271.038 177.878 275.553C177.227 280.269 175.344 283.316 172.564 284.139C172.071 284.273 171.578 284.34 171.062 284.34ZM161.31 242.498C160.929 242.498 160.57 242.543 160.212 242.654C158.014 243.299 156.423 246.013 155.862 250.128C155.257 254.466 155.84 259.871 157.454 265.321C159.068 270.771 161.557 275.598 164.426 278.934C167.139 282.071 169.964 283.494 172.183 282.849C174.38 282.204 175.972 279.49 176.532 275.375C177.138 271.038 176.555 265.632 174.941 260.182C173.327 254.732 170.838 249.905 167.968 246.569C165.659 243.944 163.305 242.498 161.31 242.498Z" fill="#421D2A"/>
<path d="M171.381 280.212C175.477 279.012 176.461 270.187 173.577 260.503C170.694 250.819 165.036 243.941 160.939 245.142C156.843 246.343 155.859 255.167 158.742 264.851C161.626 274.536 167.284 281.413 171.381 280.212Z" fill="#8D78A8"/>
<path d="M170.457 281.048C166.108 281.048 160.884 274.419 158.104 265.054C155.055 254.844 156.243 245.812 160.772 244.5C165.3 243.165 171.219 250.128 174.268 260.316C175.68 265.076 176.241 269.814 175.815 273.618C175.367 277.622 173.864 280.202 171.6 280.87C171.219 280.981 170.838 281.048 170.457 281.048ZM161.938 245.679C161.669 245.679 161.4 245.723 161.153 245.79C157.476 246.858 156.692 255.511 159.427 264.676C162.162 273.84 167.542 280.669 171.219 279.579C172.9 279.09 174.066 276.866 174.447 273.484C174.851 269.836 174.313 265.299 172.945 260.716C170.412 252.174 165.547 245.679 161.938 245.679Z" fill="#421D2A"/>
<path d="M169.247 271.571C171.123 271.021 171.444 266.544 169.964 261.573C168.483 256.601 165.762 253.016 163.886 253.566C162.01 254.116 161.689 258.592 163.17 263.564C164.65 268.536 167.371 272.12 169.247 271.571Z" fill="#6C5E82"/>
<path d="M201.709 268.68H167.565L166.197 263.986L200.655 265.098L201.709 268.68Z" fill="#8D78A8"/>
<path d="M201.709 269.369H167.565C167.251 269.369 166.982 269.169 166.915 268.88L165.547 264.164C165.48 263.964 165.525 263.741 165.659 263.563C165.794 263.385 165.996 263.297 166.22 263.297L200.677 264.409C200.969 264.409 201.238 264.609 201.305 264.898L202.359 268.479C202.426 268.68 202.381 268.902 202.247 269.08C202.112 269.258 201.911 269.369 201.709 269.369ZM168.058 268.012H200.79L200.139 265.766L167.116 264.698L168.058 268.012Z" fill="#6C5E82"/>
<path d="M116.921 268.635H82.7768L81.4092 263.919L115.867 265.054L116.921 268.635Z" fill="#8D78A8"/>
<path d="M116.921 269.302H82.7768C82.4629 269.302 82.1939 269.102 82.1267 268.813L80.7591 264.097C80.6919 263.897 80.7367 263.675 80.8712 263.497C81.0057 263.319 81.2075 263.23 81.4317 263.23L115.889 264.342C116.181 264.342 116.45 264.542 116.517 264.831L117.571 268.413C117.638 268.613 117.593 268.835 117.459 269.013C117.324 269.213 117.122 269.302 116.921 269.302ZM83.2924 267.968H116.024L115.374 265.721L82.3508 264.653L83.2924 267.968Z" fill="#6C5E82"/>
<path d="M111.137 263.987C111.047 263.987 110.98 263.965 110.89 263.943C110.531 263.809 110.352 263.409 110.487 263.075C112.078 258.96 112.482 254.311 111.675 249.662C110.666 243.878 107.864 238.74 103.806 235.225C103.514 234.98 103.492 234.558 103.739 234.269C103.783 234.202 103.851 234.157 103.918 234.135L99.7928 228.352H96.856V266.3H110.038L111.204 263.987C111.182 263.965 111.159 263.987 111.137 263.987Z" fill="#495D89"/>
<path d="M193.1 263.052C193.167 262.896 193.212 262.74 193.279 262.562C194.714 258.558 195.073 254.11 194.288 249.639C193.795 246.791 192.853 244.1 191.553 241.697C191.239 241.119 190.903 240.541 190.544 239.984C189.894 238.984 189.154 238.027 188.37 237.137C187.764 236.448 187.114 235.803 186.419 235.224C186.128 234.98 186.105 234.557 186.352 234.268L185.747 228.351H139.093V266.3H192.652L193.347 263.875C193.1 263.675 192.988 263.363 193.1 263.052Z" fill="#495D89"/>
<path d="M131.09 228.328H99.8152L103.94 234.112C104.187 233.979 104.501 234.001 104.725 234.179C107.348 236.448 109.478 239.362 110.98 242.676C111.921 244.767 112.639 247.036 113.042 249.394C113.894 254.288 113.468 259.181 111.787 263.519C111.697 263.764 111.451 263.919 111.204 263.942L110.038 266.255H139.116V228.328H131.09Z" fill="#6B85CE"/>
<path d="M131.448 230.731C131.448 229.908 131.336 229.107 131.112 228.328H99.8152L103.94 234.112C104.187 233.979 104.501 234.001 104.725 234.179C107.348 236.448 109.478 239.362 110.98 242.676C111.899 242.787 112.863 242.832 113.827 242.832C123.557 242.854 131.448 237.426 131.448 230.731Z" fill="#4E75CC"/>
<path d="M213.389 228.328H182.115L186.24 234.112C186.486 233.979 186.8 234.001 187.024 234.179C189.647 236.448 191.777 239.362 193.279 242.676C194.221 244.767 194.938 247.036 195.342 249.394C196.194 254.288 195.768 259.181 194.086 263.519C193.997 263.764 193.75 263.919 193.503 263.942L192.338 266.255H221.415V228.328H213.389Z" fill="#6B85CE"/>
<path d="M213.725 230.731C213.725 229.908 213.613 229.107 213.389 228.328H182.115L186.24 234.112C186.486 233.979 186.8 234.001 187.024 234.179C189.647 236.448 191.777 239.362 193.279 242.676C194.198 242.787 195.162 242.832 196.126 242.832C205.856 242.854 213.725 237.426 213.725 230.731Z" fill="#4E75CC"/>
<path d="M96.8782 266.279C96.7437 264.633 96.6764 262.92 96.6764 261.207C96.6764 243.612 103.85 229.353 112.728 229.353C121.606 229.353 128.78 243.612 128.78 261.207C128.78 262.942 128.713 264.633 128.578 266.279H136.985L120.239 203.283C119.454 200.302 116.674 198.278 113.58 198.367L34.9126 201.125L64.2364 250.018L59.7975 266.279H96.8782Z" fill="#79A2EC"/>
<path d="M85.9378 229.73L47.1084 221.477L64.2364 250.017L59.7975 266.277H96.8782C96.7437 264.631 96.6764 262.918 96.6764 261.206C96.6764 243.61 103.85 229.352 112.728 229.352C121.606 229.352 128.78 243.61 128.78 261.206C128.78 262.941 128.713 264.631 128.578 266.277H136.986L124.386 218.964L85.9378 229.73Z" fill="#A4C1EA"/>
<path d="M37.7598 204.794L116.405 202.036C117.75 201.991 119.028 202.347 120.104 202.992C119.207 200.167 116.54 198.276 113.535 198.365L34.9126 201.124L37.7598 204.794Z" fill="#A4C1EA"/>
<path d="M137.837 266.967H127.816L127.883 266.233C128.018 264.564 128.085 262.874 128.085 261.206C128.085 244.011 121.203 230.041 112.728 230.041C104.254 230.041 97.3715 244.033 97.3715 261.206C97.3715 262.874 97.4387 264.564 97.5732 266.233L97.6405 266.967H58.9008L63.4966 250.128L34.0159 200.99L35.0471 200.501L113.535 197.676C116.966 197.565 119.992 199.789 120.866 203.081L137.837 266.967ZM129.296 265.61H136.066L119.544 203.459C118.826 200.768 116.383 198.966 113.58 199.055L36.0784 201.769L64.9763 249.928L60.6943 265.61H96.1384C96.0487 264.142 95.9815 262.674 95.9815 261.206C95.9815 252.597 97.6853 244.5 100.757 238.383C103.918 232.132 108.155 228.684 112.706 228.684C117.257 228.684 121.517 232.132 124.655 238.383C127.727 244.5 129.43 252.597 129.43 261.206C129.453 262.674 129.386 264.142 129.296 265.61Z" fill="#3A4F91"/>
<path d="M193.75 263.986C193.66 263.986 193.593 263.964 193.503 263.942C193.145 263.808 192.965 263.408 193.1 263.074C194.692 258.959 195.095 254.31 194.288 249.661C193.279 243.877 190.477 238.739 186.419 235.224C186.128 234.979 186.105 234.557 186.352 234.268C186.598 233.978 187.024 233.956 187.316 234.201C191.62 237.916 194.557 243.321 195.633 249.416C196.485 254.31 196.059 259.204 194.378 263.541C194.266 263.808 194.019 263.986 193.75 263.986Z" fill="#3A4F91"/>
<path d="M111.137 263.986C111.047 263.986 110.98 263.964 110.89 263.942C110.531 263.808 110.352 263.408 110.486 263.074C112.078 258.959 112.482 254.31 111.675 249.661C110.666 243.877 107.863 238.739 103.806 235.224C103.514 234.979 103.492 234.557 103.738 234.268C103.985 233.978 104.411 233.956 104.702 234.201C109.007 237.916 111.944 243.321 113.02 249.416C113.872 254.31 113.446 259.204 111.764 263.541C111.675 263.808 111.428 263.986 111.137 263.986Z" fill="#3A4F91"/>
<path d="M120.127 202.948H174.627L148.912 266.277H136.963L120.127 202.948Z" fill="#79A2EC"/>
<path d="M149.361 266.967H136.425L119.23 202.28H175.636L149.361 266.967ZM137.479 265.61H148.442L173.618 203.637H121.023L137.479 265.61Z" fill="#3A4F91"/>
<path d="M32.5587 202.347L26.3038 207.641C24.6224 209.065 24.0395 211.423 24.9138 213.447L41.728 253.398L35.5404 266.277H59.7751L64.2141 250.017L40.4277 203.904C38.9256 200.99 35.0696 200.234 32.5587 202.347Z" fill="#6795D6"/>
<path d="M41.728 253.398L35.5404 266.277H59.7976L64.2365 250.017L41.728 253.398Z" fill="#4E75CC"/>
<path d="M60.3132 266.967H34.4643L40.9881 253.398L24.2861 213.714C23.3221 211.4 23.9498 208.753 25.8778 207.13L32.1327 201.835C33.4778 200.679 35.2713 200.234 37.02 200.568C38.7687 200.901 40.2259 202.013 41.0554 203.593L64.9763 249.95L60.3132 266.967ZM36.6389 265.61H59.2819L63.5191 250.106L39.8224 204.193C39.1946 202.992 38.0737 202.147 36.751 201.88C35.4058 201.613 34.0607 201.969 33.0295 202.836L26.7746 208.131C25.295 209.376 24.8242 211.4 25.564 213.158L42.5126 253.398L36.6389 265.61Z" fill="#3A4F91"/>
<path d="M170.95 204.616L144.855 266.277H177.99C177.855 264.631 177.788 262.918 177.788 261.206C177.788 243.61 185.276 229.352 194.512 229.352C203.749 229.352 211.237 243.61 211.237 261.206C211.237 262.941 211.169 264.631 211.035 266.277H221.011L245.739 202.325C246.524 200.323 244.955 198.187 242.713 198.187H180.949C176.555 198.187 172.587 200.723 170.95 204.616Z" fill="#79A2EC"/>
<path d="M177.99 266.277C177.855 264.631 177.788 262.918 177.788 261.206C177.788 243.61 185.276 229.352 194.512 229.352C203.749 229.352 211.237 243.61 211.237 261.206C211.237 262.941 211.17 264.631 211.035 266.277H221.011L236.256 226.771L164.426 220.054L144.855 266.277H177.99Z" fill="#A4C1EA"/>
<path d="M221.437 266.967H210.25L210.318 266.233C210.452 264.564 210.519 262.874 210.519 261.206C210.519 244.011 203.323 230.041 194.49 230.041C185.657 230.041 178.46 244.033 178.46 261.206C178.46 262.874 178.528 264.564 178.662 266.233L178.729 266.967H143.823L170.3 204.371C172.071 200.212 176.241 197.52 180.949 197.52H242.668C243.991 197.52 245.201 198.143 245.941 199.188C246.636 200.189 246.793 201.435 246.345 202.57L221.437 266.967ZM211.73 265.61H220.496L245.044 202.102C245.313 201.391 245.224 200.612 244.775 199.967C244.304 199.277 243.497 198.877 242.646 198.877H180.949C176.801 198.877 173.102 201.235 171.555 204.905L145.864 265.632H177.227C177.115 264.164 177.07 262.696 177.07 261.228C177.07 252.619 178.842 244.5 182.047 238.405C185.321 232.155 189.737 228.707 194.467 228.707C199.198 228.707 203.614 232.155 206.888 238.405C210.093 244.522 211.864 252.619 211.864 261.228C211.887 262.674 211.842 264.142 211.73 265.61Z" fill="#3A4F91"/>
<path d="M231.302 266.277L237.332 252.553C238.139 250.706 236.772 248.66 234.754 248.66H222.872C218.747 248.66 215.16 251.485 214.218 255.489C212.918 261.005 217.155 266.277 222.872 266.277H231.302Z" fill="#FFD677"/>
<path d="M215.295 257.78C216.236 253.798 219.823 250.951 223.948 250.951H235.83C236.48 250.951 237.063 251.173 237.512 251.507C237.242 250.284 236.166 249.305 234.776 249.305H222.895C218.769 249.305 215.182 252.13 214.241 256.134C213.591 258.914 214.331 261.628 215.967 263.63C215.093 261.917 214.801 259.871 215.295 257.78Z" fill="#FFE7B6"/>
<path d="M126.404 297.308L125.933 284.54C126.606 279.869 126.157 274.041 124.364 268.035C122.57 262.006 119.768 256.868 116.652 253.331L114.41 245.768L105.823 248.348C99.3668 250.239 97.2146 262.118 101.026 274.886C103.918 284.607 109.433 292.014 114.746 294.172L126.404 297.308Z" fill="#7B3A4F"/>
<path d="M124.588 268.813C124.521 268.546 124.453 268.302 124.364 268.035C122.57 262.006 119.768 256.868 116.652 253.331L114.41 245.768L105.823 248.348C100.084 250.039 97.7526 259.582 99.972 270.637L124.588 268.813Z" fill="#89586C"/>
<path d="M100.824 274.241L114.925 273.596L115.62 277.577L101.698 278.334L100.824 274.241Z" fill="#89586C"/>
<path d="M126.404 297.998C126.337 297.998 126.292 297.998 126.224 297.975L114.522 294.839C114.499 294.839 114.477 294.817 114.432 294.817C108.738 292.503 103.2 284.762 100.331 275.086C98.47 268.813 97.9543 262.54 98.8735 257.424C99.8375 252.152 102.214 248.704 105.599 247.703L114.186 245.123C114.365 245.078 114.544 245.078 114.701 245.167C114.858 245.256 114.97 245.39 115.037 245.568L117.257 252.997C120.53 256.757 123.288 262.029 125.014 267.857C126.763 273.729 127.323 279.668 126.628 284.584L127.099 297.286C127.099 297.508 127.009 297.709 126.852 297.842C126.718 297.931 126.561 297.998 126.404 297.998ZM114.925 293.527L125.686 296.418L125.26 284.562C125.26 284.518 125.26 284.473 125.26 284.451C125.955 279.691 125.395 273.929 123.714 268.235C122.01 262.54 119.319 257.402 116.136 253.776C116.069 253.709 116.024 253.62 116.002 253.531L113.939 246.613L106.003 248.993C103.133 249.839 101.093 252.908 100.219 257.647C99.3219 262.563 99.8375 268.613 101.653 274.686C104.366 283.828 109.702 291.391 114.925 293.527Z" fill="#421D2A"/>
<path d="M129.74 297.317C136.2 295.424 138.001 282.352 133.764 268.12C129.526 253.888 120.855 243.885 114.396 245.778C107.936 247.672 106.135 260.744 110.372 274.976C114.609 289.208 123.281 299.211 129.74 297.317Z" fill="#A34F6D"/>
<path d="M128.108 298.22C121.517 298.22 113.76 288.7 109.724 275.153C105.308 260.338 107.281 247.147 114.186 245.123C121.091 243.099 129.991 253.109 134.385 267.923C138.801 282.738 136.829 295.929 129.924 297.953C129.341 298.131 128.735 298.22 128.108 298.22ZM116.024 246.213C115.531 246.213 115.037 246.28 114.589 246.413C111.742 247.258 109.769 250.595 109.052 255.822C108.312 261.25 109.007 267.968 111.025 274.775C113.042 281.581 116.136 287.587 119.745 291.747C123.22 295.751 126.695 297.508 129.542 296.663C132.39 295.818 134.363 292.481 135.08 287.254C135.82 281.826 135.125 275.108 133.107 268.301C131.089 261.517 127.996 255.489 124.386 251.329C121.494 247.992 118.58 246.213 116.024 246.213Z" fill="#421D2A"/>
<path d="M128.533 293.261C133.627 291.768 134.85 280.796 131.265 268.756C127.68 256.715 120.645 248.165 115.551 249.658C110.457 251.151 109.234 262.122 112.819 274.163C116.403 286.203 123.439 294.754 128.533 293.261Z" fill="#CCBAE0"/>
<path d="M133.242 284.117L124.274 270.303C124.274 270.303 124.498 262.651 124.655 254.999C121.629 250.973 118.311 248.86 115.553 249.661C114.903 249.861 114.32 250.195 113.804 250.684L122.055 271.46L127.233 293.438C127.682 293.438 128.108 293.393 128.534 293.282C131.246 292.481 132.86 289.011 133.242 284.117Z" fill="#DAD7DD"/>
<path d="M127.345 294.105C124.924 294.105 122.234 292.414 119.589 289.211C116.562 285.541 113.939 280.247 112.168 274.352C110.419 268.435 109.724 262.585 110.262 257.869C110.8 252.953 112.616 249.794 115.374 248.994C120.911 247.37 128.197 255.956 131.941 268.546C133.69 274.463 134.385 280.314 133.847 285.029C133.309 289.945 131.493 293.104 128.735 293.905C128.287 294.061 127.816 294.105 127.345 294.105ZM116.764 250.173C116.427 250.173 116.069 250.217 115.755 250.306C113.603 250.929 112.101 253.754 111.63 258.025C111.114 262.563 111.787 268.235 113.491 273.974C115.194 279.713 117.75 284.829 120.665 288.366C123.4 291.703 126.225 293.26 128.377 292.615C130.529 291.992 132.031 289.167 132.502 284.896C133.017 280.358 132.345 274.686 130.641 268.947C127.435 258.292 121.337 250.173 116.764 250.173Z" fill="#421D2A"/>
<path d="M125.884 282.481C128.211 281.799 128.608 276.242 126.77 270.068C124.932 263.895 121.555 259.443 119.228 260.125C116.901 260.807 116.504 266.365 118.342 272.538C120.18 278.712 123.557 283.163 125.884 282.481Z" fill="#8D78A8"/>
<path d="M126.785 270.081C126.471 268.991 126.09 267.968 125.686 266.989C126.224 271.126 125.552 274.33 123.826 274.841C121.898 275.397 119.275 272.483 117.391 267.99C117.571 269.414 117.907 270.971 118.378 272.55C120.216 278.734 123.601 283.183 125.933 282.493C128.22 281.804 128.623 276.243 126.785 270.081Z" fill="#6C5E82"/>
<path d="M50.8525 231.176C47.3103 221.989 42.7593 215.182 40.7192 215.961L36.908 217.273L41.6608 228.862C42.154 230.508 42.7593 232.221 43.4543 234.001C44.3286 236.27 45.2702 238.383 46.2118 240.274L50.1799 250.239L53.61 249.216C55.6277 248.437 54.3947 240.363 50.8525 231.176Z" fill="#E3AFAE"/>
<path d="M50.1575 250.929C49.8885 250.929 49.6194 250.773 49.5298 250.506L45.584 240.563C44.5976 238.583 43.6784 236.47 42.8265 234.245C42.154 232.51 41.5486 230.775 41.033 229.085L36.3026 217.518C36.2354 217.34 36.2354 217.162 36.3026 216.984C36.3699 216.806 36.5268 216.695 36.7062 216.628L40.5174 215.316C41.8625 214.804 43.6336 216.205 45.8082 219.453C47.7587 222.367 49.7764 226.438 51.5026 230.931C53.2289 235.424 54.4843 239.784 54.9999 243.254C55.5828 247.125 55.1793 249.349 53.8342 249.861C53.8118 249.861 53.8118 249.883 53.7893 249.883L50.3593 250.906C50.292 250.906 50.2247 250.929 50.1575 250.929ZM37.8271 217.673L42.3109 228.618C42.3109 228.64 42.3333 228.662 42.3333 228.684C42.8489 230.353 43.4318 232.066 44.1044 233.778C44.9563 235.981 45.8755 238.071 46.8395 240.007C46.8395 240.029 46.8619 240.051 46.8619 240.051L50.5834 249.438L53.3634 248.593C53.6548 248.46 54.2377 247.303 53.6548 243.455C53.1392 240.096 51.9286 235.825 50.2247 231.42C48.5209 227.016 46.548 223.034 44.6649 220.209C42.4678 216.917 41.2572 216.494 40.9658 216.606L37.8271 217.673Z" fill="#3A4F91"/>
<path d="M50.1656 250.267C52.2119 249.488 50.9908 241.409 47.4383 232.221C43.8858 223.033 39.3471 216.216 37.3009 216.995C35.2546 217.773 36.4757 225.853 40.0282 235.041C43.5807 244.229 48.1194 251.046 50.1656 250.267Z" fill="#FFD6AE"/>
<path d="M47.4448 232.199C43.9026 223.012 39.3516 216.205 37.3115 216.984C35.2714 217.762 36.482 225.837 40.0242 235.024C40.069 235.135 40.1138 235.246 40.1587 235.335L48.2294 234.29C47.9604 233.623 47.7138 232.911 47.4448 232.199Z" fill="#FFEDDE"/>
<path d="M49.8212 250.973C48.5433 250.973 46.9516 249.55 45.0908 246.747C43.1404 243.833 41.1227 239.762 39.3964 235.269C37.6702 230.775 36.4147 226.415 35.8991 222.945C35.3162 219.075 35.7197 216.85 37.0649 216.339C38.4324 215.827 40.2035 217.206 42.3781 220.476C44.3286 223.39 46.3463 227.461 48.0725 231.954C49.7988 236.448 51.0542 240.807 51.5698 244.278C52.1527 248.148 51.7492 250.373 50.4041 250.884C50.2247 250.951 50.0229 250.973 49.8212 250.973ZM37.6253 217.607C37.5805 217.607 37.5581 217.607 37.5357 217.629C37.2442 217.74 36.6389 218.875 37.2218 222.767C37.7374 226.126 38.948 230.397 40.6519 234.802C42.3557 239.206 44.3286 243.188 46.2117 246.013C48.4088 249.305 49.6194 249.727 49.9109 249.616C50.2023 249.505 50.8076 248.371 50.2247 244.478C49.7091 241.119 48.4985 236.848 46.7946 232.444C45.0908 228.039 43.1179 224.057 41.2348 221.232C39.2395 218.229 38.0513 217.607 37.6253 217.607Z" fill="#C16868"/>
<path d="M37.5133 234.98C34.554 227.328 30.7876 221.655 29.0838 222.3L25.9227 223.39L29.8684 233.044C30.2944 234.401 30.7876 235.847 31.3481 237.315C32.0879 239.206 32.8501 240.963 33.6348 242.543L36.9528 250.862L39.8 249.995C41.5038 249.349 40.4725 242.632 37.5133 234.98Z" fill="#E3AFAE"/>
<path d="M36.9527 251.529C36.6837 251.529 36.4147 251.374 36.325 251.107L33.0294 242.832C32.2224 241.186 31.4377 239.428 30.7203 237.56C30.1598 236.114 29.6666 234.668 29.2182 233.267L25.2949 223.657C25.2277 223.479 25.2277 223.301 25.2949 223.123C25.3622 222.945 25.5191 222.834 25.6985 222.767L28.8595 221.677C30.0477 221.233 31.5274 222.367 33.4106 225.17C35.0247 227.594 36.7285 230.998 38.1633 234.735C40.0914 239.74 42.9834 249.505 40.0465 250.617C40.0241 250.617 40.0241 250.64 40.0017 250.64L37.1545 251.507C37.0648 251.529 37.02 251.529 36.9527 251.529ZM26.8194 223.813L30.4961 232.8C30.4961 232.822 30.5185 232.844 30.5185 232.866C30.9445 234.246 31.4377 235.669 31.9982 237.093C32.6932 238.917 33.4554 240.652 34.2625 242.276C34.2625 242.298 34.2849 242.32 34.2849 242.32L37.3563 250.039L39.5757 249.372C40.2931 249.038 40.2483 243.9 36.9079 235.247C35.4955 231.598 33.8589 228.284 32.2896 225.926C30.4961 223.235 29.5097 222.901 29.3528 222.968L26.8194 223.813Z" fill="#3A4F91"/>
<path d="M36.9596 250.885C38.6591 250.238 37.6386 243.511 34.6804 235.86C31.7222 228.209 27.9465 222.531 26.2471 223.178C24.5476 223.825 25.5681 230.552 28.5263 238.203C31.4845 245.854 35.2602 251.532 36.9596 250.885Z" fill="#FFD6AE"/>
<path d="M34.6661 235.847C32.3345 229.774 29.4649 224.97 27.5369 223.546L26.7074 223.145C26.528 223.123 26.3711 223.123 26.2366 223.168C24.5328 223.813 25.5416 230.531 28.5009 238.183C28.5906 238.45 28.7027 238.694 28.8148 238.961L35.518 238.094C35.249 237.36 34.9799 236.603 34.6661 235.847Z" fill="#FFEDDE"/>
<path d="M36.6614 251.596C35.5628 251.596 34.2401 250.417 32.626 248.015C31.0118 245.59 29.308 242.187 27.8732 238.45C25.9452 233.445 23.0531 223.679 25.99 222.567C28.9269 221.455 33.3658 230.62 35.3162 235.625C36.7735 239.362 37.8047 243.01 38.2307 245.901C38.7239 249.216 38.3876 251.062 37.177 251.529C37.0201 251.552 36.8407 251.596 36.6614 251.596ZM26.5729 223.791C26.5505 223.791 26.5056 223.791 26.4832 223.813C25.7434 224.102 25.7658 229.24 29.1511 237.96C30.5634 241.608 32.2 244.923 33.7693 247.281C35.5628 249.972 36.5493 250.306 36.7062 250.239C36.8631 250.172 37.3788 249.283 36.8855 246.079C36.4596 243.299 35.4507 239.74 34.0384 236.092C30.7876 227.661 27.4472 223.791 26.5729 223.791Z" fill="#C16868"/>
<path d="M68.7876 216.317H58.9905C58.1162 216.317 57.3988 215.605 57.3988 214.737V213.091C57.3988 212.224 58.1162 211.512 58.9905 211.512H68.7876C69.6619 211.512 70.3793 212.224 70.3793 213.091V214.737C70.3793 215.605 69.6619 216.317 68.7876 216.317Z" fill="#FF8E4A"/>
<path d="M63.2053 213.892C63.2053 212.557 64.3038 211.49 65.6265 211.49H59.82C58.4749 211.49 57.3988 212.579 57.3988 213.892C57.3988 215.227 58.4973 216.294 59.82 216.294H65.6265C64.3038 216.317 63.2053 215.227 63.2053 213.892Z" fill="#FFA77B"/>
<path d="M67.958 216.984H59.82C58.0938 216.984 56.7038 215.605 56.7038 213.892C56.7038 212.179 58.0938 210.8 59.82 210.8H67.9356C69.6619 210.8 71.0518 212.179 71.0518 213.892C71.0518 215.605 69.6619 216.984 67.958 216.984ZM59.82 212.179C58.856 212.179 58.0713 212.958 58.0713 213.914C58.0713 214.871 58.856 215.649 59.82 215.649H67.9356C68.8996 215.649 69.6843 214.871 69.6843 213.914C69.6843 212.958 68.8996 212.179 67.9356 212.179H59.82Z" fill="#BF663A"/>
<path d="M208.569 225.637C212.506 225.637 215.698 222.47 215.698 218.563C215.698 214.657 212.506 211.49 208.569 211.49C204.632 211.49 201.44 214.657 201.44 218.563C201.44 222.47 204.632 225.637 208.569 225.637Z" fill="#79A2EC"/>
<path d="M208.569 226.304C204.264 226.304 200.767 222.834 200.767 218.563C200.767 214.292 204.264 210.822 208.569 210.822C212.873 210.822 216.371 214.292 216.371 218.563C216.371 222.834 212.873 226.304 208.569 226.304ZM208.569 212.179C205.027 212.179 202.135 215.049 202.135 218.563C202.135 222.078 205.027 224.947 208.569 224.947C212.111 224.947 215.003 222.078 215.003 218.563C215.003 215.026 212.111 212.179 208.569 212.179Z" fill="#3A4F91"/>
<path d="M61.0306 283.561L28.4785 277.244L31.6843 266.277H64.2365L61.0306 283.561Z" fill="#FFD677"/>
<path d="M32.8053 268.457H63.8329L64.2365 266.277H31.6843L28.4785 277.244L30.1374 277.577L32.8053 268.457Z" fill="#FFE7B6"/>
<path d="M61.0306 284.251C60.9857 284.251 60.9409 284.251 60.8961 284.228L28.3439 277.911C28.1646 277.867 27.9852 277.755 27.8955 277.6C27.8059 277.444 27.761 277.244 27.8283 277.066L31.0342 266.099C31.1238 265.81 31.3929 265.61 31.6843 265.61H64.2365C64.4382 265.61 64.64 265.699 64.7521 265.855C64.8866 266.01 64.9314 266.211 64.909 266.411L61.7031 283.695C61.6807 283.873 61.5686 284.028 61.4117 284.139C61.2996 284.206 61.1651 284.251 61.0306 284.251ZM29.3528 276.732L60.4925 282.783L63.4294 266.967H32.2L29.3528 276.732Z" fill="#D87577"/>
<path d="M61.0306 283.561L82.1939 274.196C84.7049 273.084 86.319 270.637 86.3414 267.901C86.3863 262.985 81.4093 259.604 76.8134 261.384L64.2365 266.255L61.0306 283.561Z" fill="#FFD677"/>
<path d="M64.0123 268.902L76.5892 264.031C80.9385 262.34 85.6016 265.254 86.0948 269.703C86.2518 269.125 86.3414 268.524 86.3414 267.901C86.3863 262.985 81.4093 259.604 76.8134 261.384L64.2365 266.255L61.0306 283.539L61.322 283.405L64.0123 268.902Z" fill="#FFE7B6"/>
<path d="M61.0306 284.251C60.8736 284.251 60.7391 284.206 60.6046 284.095C60.4028 283.939 60.3132 283.695 60.358 283.45L63.5639 266.166C63.6087 265.944 63.7657 265.743 63.9898 265.654L76.5668 260.783C78.9432 259.871 81.6111 260.16 83.7184 261.606C85.8258 263.03 87.0588 265.41 87.0364 267.923C87.014 270.904 85.2205 273.618 82.4854 274.819L61.322 284.184C61.2099 284.228 61.1202 284.251 61.0306 284.251ZM64.8418 266.767L61.9497 282.427L81.9249 273.573C84.1892 272.572 85.6464 270.348 85.6689 267.901C85.6913 265.788 84.6824 263.897 82.9338 262.696C81.1851 261.495 79.0329 261.25 77.06 262.029L64.8418 266.767Z" fill="#D87577"/>
<path d="M40.5622 261.984L37.4908 270.348L55.1344 275.998L57.3987 261.094L40.5622 261.984Z" fill="#E1EDFF"/>
<path d="M55.1344 276.665C55.0672 276.665 54.9999 276.665 54.9326 276.643L37.289 270.993C37.1097 270.926 36.9752 270.815 36.8855 270.637C36.7958 270.482 36.7958 270.281 36.8631 270.103L39.9344 261.739C40.0241 261.495 40.2707 261.317 40.5398 261.295L57.3763 260.383C57.5781 260.383 57.7798 260.449 57.9143 260.605C58.0489 260.761 58.1161 260.961 58.0937 261.161L55.807 276.065C55.7846 276.265 55.6725 276.443 55.4931 276.532C55.381 276.643 55.2465 276.665 55.1344 276.665ZM38.3651 269.925L54.5739 275.108L56.6141 261.806L41.0554 262.651L38.3651 269.925Z" fill="#D87577"/>
<path d="M26.797 218.608C26.5728 218.608 26.3486 218.496 26.2141 218.296C26.0124 217.985 26.102 217.562 26.4159 217.362L42.0642 207.241C42.1763 207.174 42.3108 207.13 42.4454 207.13H121.404C121.786 207.13 122.077 207.441 122.077 207.797C122.077 208.175 121.763 208.464 121.404 208.464H42.6471L27.1557 218.474C27.0436 218.563 26.9315 218.608 26.797 218.608Z" fill="#3A4F91"/>
<path d="M231.302 266.967H222.872C219.935 266.967 217.223 265.654 215.384 263.385C213.568 261.117 212.896 258.18 213.546 255.333C214.555 251.018 218.388 247.992 222.85 247.992H234.732C235.92 247.992 236.996 248.571 237.646 249.55C238.296 250.528 238.386 251.752 237.915 252.819L231.884 266.544C231.84 266.789 231.593 266.967 231.302 266.967ZM222.895 249.349C219.061 249.349 215.788 251.93 214.913 255.644C214.353 258.069 214.913 260.583 216.483 262.54C218.052 264.498 220.384 265.61 222.895 265.61H230.876L236.727 252.286C237.018 251.618 236.951 250.906 236.548 250.284C236.144 249.661 235.494 249.327 234.777 249.327H222.895V249.349Z" fill="#D87577"/>
<path d="M200.812 206.396C213.206 206.396 223.253 205.37 223.253 204.104C223.253 202.839 213.206 201.813 200.812 201.813C188.418 201.813 178.371 202.839 178.371 204.104C178.371 205.37 188.418 206.396 200.812 206.396Z" fill="#A4C1EA"/>
<path d="M243.228 267.968C245.965 267.968 248.183 267.002 248.183 265.81C248.183 264.619 245.965 263.652 243.228 263.652C240.492 263.652 238.274 264.619 238.274 265.81C238.274 267.002 240.492 267.968 243.228 267.968Z" fill="#DCCCF2"/>
<path d="M202.157 287.031L201.776 276.665C202.336 272.884 201.955 268.146 200.498 263.252C199.041 258.358 196.777 254.199 194.221 251.307L192.382 245.167L185.41 247.281C180.164 248.816 178.416 258.47 181.509 268.813C183.863 276.71 188.325 282.716 192.651 284.473L202.157 287.031Z" fill="#7B3A4F"/>
<path d="M200.677 263.897C200.61 263.697 200.565 263.474 200.498 263.274C199.041 258.381 196.777 254.221 194.221 251.329L192.382 245.19L185.41 247.303C180.747 248.66 178.864 256.423 180.657 265.41L200.677 263.897Z" fill="#89586C"/>
<path d="M181.375 268.302L192.831 267.768L193.391 270.993L182.092 271.616L181.375 268.302Z" fill="#89586C"/>
<path d="M202.157 287.565C202.112 287.565 202.067 287.565 202.023 287.543L192.517 285.007C192.495 285.007 192.472 284.985 192.45 284.985C187.831 283.116 183.325 276.821 180.994 268.969C179.469 263.875 179.066 258.781 179.806 254.644C180.59 250.35 182.518 247.548 185.276 246.747L192.248 244.656C192.382 244.611 192.539 244.634 192.674 244.7C192.808 244.767 192.898 244.878 192.943 245.034L194.736 251.062C197.404 254.11 199.624 258.381 201.036 263.119C202.448 267.879 202.919 272.706 202.336 276.71L202.718 287.031C202.718 287.209 202.65 287.365 202.516 287.476C202.404 287.543 202.292 287.565 202.157 287.565ZM192.831 283.962L201.574 286.297L201.215 276.688C201.215 276.665 201.215 276.621 201.215 276.599C201.776 272.728 201.328 268.057 199.96 263.43C198.592 258.803 196.395 254.621 193.817 251.685C193.772 251.618 193.728 251.552 193.705 251.485L192.046 245.879L185.59 247.792C183.258 248.482 181.599 250.973 180.904 254.821C180.187 258.803 180.59 263.719 182.07 268.657C184.267 276.065 188.594 282.226 192.831 283.962Z" fill="#421D2A"/>
<path d="M204.855 287.031C210.091 285.496 211.547 274.883 208.106 263.325C204.665 251.768 197.63 243.642 192.394 245.177C187.157 246.712 185.702 257.326 189.143 268.883C192.584 280.441 199.618 288.566 204.855 287.031Z" fill="#A34F6D"/>
<path d="M203.547 287.765C198.189 287.765 191.912 280.024 188.638 269.036C185.051 257.001 186.643 246.302 192.27 244.656C197.875 243.01 205.094 251.151 208.681 263.163C212.268 275.197 210.676 285.897 205.049 287.543C204.533 287.699 204.04 287.765 203.547 287.765ZM193.728 245.546C193.324 245.546 192.943 245.59 192.562 245.701C190.253 246.369 188.661 249.082 188.078 253.353C187.473 257.758 188.056 263.208 189.692 268.724C191.329 274.241 193.84 279.134 196.777 282.493C199.601 285.741 202.426 287.165 204.735 286.497C207.044 285.83 208.636 283.116 209.219 278.845C209.824 274.441 209.241 268.991 207.605 263.474C205.968 257.958 203.457 253.064 200.52 249.705C198.166 246.969 195.79 245.546 193.728 245.546Z" fill="#421D2A"/>
<path d="M203.872 283.745C208.004 282.533 208.994 273.624 206.082 263.846C203.171 254.067 197.461 247.122 193.329 248.333C189.197 249.544 188.207 258.453 191.119 268.232C194.03 278.011 199.74 284.956 203.872 283.745Z" fill="#CCBAE0"/>
<path d="M207.717 276.31L200.431 265.098C200.431 265.098 200.61 258.892 200.745 252.664C198.279 249.394 195.588 247.681 193.346 248.326C192.808 248.482 192.338 248.771 191.912 249.149L198.615 266.033L202.83 283.873C203.188 283.873 203.547 283.85 203.883 283.739C206.08 283.094 207.403 280.291 207.717 276.31Z" fill="#DAD7DD"/>
<path d="M202.919 284.429C200.946 284.429 198.772 283.05 196.62 280.447C194.154 277.466 192.024 273.173 190.589 268.368C189.154 263.563 188.616 258.825 189.042 254.999C189.49 250.995 190.97 248.437 193.19 247.792C197.673 246.48 203.592 253.442 206.641 263.675C208.076 268.48 208.614 273.218 208.188 277.044C207.739 281.048 206.26 283.606 204.04 284.251C203.682 284.384 203.3 284.429 202.919 284.429ZM194.333 248.749C194.041 248.749 193.772 248.793 193.503 248.86C191.755 249.372 190.522 251.663 190.141 255.133C189.737 258.825 190.275 263.408 191.665 268.079C193.055 272.75 195.118 276.888 197.494 279.757C199.713 282.471 202 283.717 203.749 283.205C205.498 282.694 206.731 280.402 207.112 276.932C207.515 273.24 206.977 268.657 205.587 263.986C203.009 255.355 198.032 248.749 194.333 248.749Z" fill="#421D2A"/>
<path d="M201.735 275.012C203.623 274.459 203.942 269.942 202.448 264.923C200.953 259.904 198.212 256.284 196.324 256.837C194.436 257.391 194.117 261.908 195.611 266.927C197.105 271.946 199.847 275.566 201.735 275.012Z" fill="#8D78A8"/>
<path d="M202.471 264.92C202.202 264.031 201.91 263.208 201.574 262.407C202 265.766 201.462 268.368 200.05 268.791C198.503 269.258 196.351 266.878 194.826 263.23C194.983 264.386 195.23 265.654 195.611 266.945C197.113 271.95 199.848 275.575 201.731 275.019C203.637 274.441 203.951 269.925 202.471 264.92Z" fill="#6C5E82"/>
<path d="M231.728 216.317H221.931C221.056 216.317 220.339 215.605 220.339 214.737V213.091C220.339 212.224 221.056 211.512 221.931 211.512H231.728C232.602 211.512 233.319 212.224 233.319 213.091V214.737C233.319 215.605 232.624 216.317 231.728 216.317Z" fill="#FF8E4A"/>
<path d="M226.168 213.892C226.168 212.557 227.266 211.49 228.589 211.49H222.782C221.437 211.49 220.361 212.579 220.361 213.892C220.361 215.227 221.46 216.294 222.782 216.294H228.589C227.244 216.317 226.168 215.227 226.168 213.892Z" fill="#FFA77B"/>
<path d="M230.898 216.984H222.782C221.056 216.984 219.666 215.605 219.666 213.892C219.666 212.179 221.056 210.8 222.782 210.8H230.898C232.624 210.8 234.014 212.179 234.014 213.892C234.014 215.605 232.624 216.984 230.898 216.984ZM222.782 212.179C221.818 212.179 221.034 212.958 221.034 213.914C221.034 214.871 221.818 215.649 222.782 215.649H230.898C231.862 215.649 232.647 214.871 232.647 213.914C232.647 212.958 231.862 212.179 230.898 212.179H222.782Z" fill="#BF663A"/>
<path d="M29.7524 204.96L26.033 197.207L24.7983 197.791L28.5176 205.543L29.7524 204.96Z" fill="#3A4F91"/>
<path d="M29.5321 198.677L27.8731 201.613C27.7834 201.791 27.5592 201.902 27.3575 201.902H23.9722C21.2371 201.902 19.0625 200.857 17.9864 199.033L17.0448 197.409C16.9551 197.253 17.0897 196.986 17.3587 196.875C19.1746 196.074 20.7215 194.673 21.4613 193.116L21.7752 192.448C21.8649 192.248 22.1115 192.115 22.3357 192.115L23.0755 192.181C24.8017 192.315 26.797 191.692 28.3887 190.513C28.6129 190.357 28.9044 190.357 28.9941 190.513L29.9581 192.115C31.0342 193.917 30.8772 196.319 29.5321 198.677Z" fill="#D293E0"/>
<path d="M158.575 216.65C158.844 215.449 158.463 214.181 157.521 213.18C156.445 212.023 154.786 211.334 153.06 211.334C152.32 211.334 151.603 211.467 150.975 211.734C150.392 211.979 149.876 212.313 149.495 212.735C148.643 212.023 147.455 211.623 146.132 211.623C143.644 211.623 141.447 213.024 140.819 214.937C140.281 214.67 139.676 214.537 139.048 214.537C137.434 214.537 135.708 215.382 134.564 216.761C133.802 217.673 133.354 218.719 133.286 219.742C132.726 219.764 132.166 219.898 131.605 220.143C129.475 221.099 127.996 223.546 128.153 225.837C128.287 227.95 129.812 229.441 131.807 229.441C132.412 229.441 132.995 229.307 133.6 229.04C133.892 228.907 134.183 228.751 134.452 228.551C134.43 228.907 134.407 229.263 134.43 229.619C134.654 233.89 138.488 236.87 143.756 236.87C144.877 236.87 146.02 236.737 147.186 236.47C153.665 234.979 158.53 229.863 158.261 224.836C158.149 222.678 157.118 220.832 155.436 219.564C155.705 219.497 155.952 219.431 156.199 219.319C157.432 218.808 158.306 217.829 158.575 216.65Z" fill="#3A4F91"/>
<path d="M142.232 214.737C142.456 213.514 144.025 212.535 145.729 212.535C147.455 212.535 148.666 213.536 148.442 214.737C148.217 215.961 146.648 216.939 144.944 216.939C143.241 216.939 142.007 215.961 142.232 214.737Z" fill="#FF8631"/>
<path d="M132.39 226.238C131.022 226.86 129.812 226.171 129.722 224.68C129.632 223.212 130.663 221.499 132.031 220.877C133.399 220.254 134.609 220.943 134.699 222.434C134.811 223.924 133.757 225.615 132.39 226.238Z" fill="#FF8631"/>
<path d="M135.663 216.984C136.761 215.671 138.532 215.115 139.653 215.716C140.752 216.316 140.752 217.851 139.676 219.164C138.6 220.476 136.806 221.032 135.685 220.432C134.587 219.831 134.587 218.296 135.663 216.984Z" fill="#FF8631"/>
<path d="M155.907 223.902C156.131 227.95 151.849 232.266 146.357 233.534C140.864 234.802 136.246 232.533 136.022 228.484C135.797 224.436 140.079 220.12 145.572 218.852C151.065 217.584 155.683 219.853 155.907 223.902Z" fill="#FF8631"/>
<path d="M155.033 216.472C153.643 217.028 151.692 216.606 150.683 215.493C149.652 214.403 149.944 213.047 151.334 212.49C152.724 211.934 154.674 212.357 155.683 213.469C156.714 214.581 156.423 215.916 155.033 216.472Z" fill="#FF8631"/>
<path d="M139.668 94.7815C141.141 94.7815 142.336 93.935 142.336 92.8908C142.336 91.8465 141.141 91 139.668 91C138.194 91 137 91.8465 137 92.8908C137 93.935 138.194 94.7815 139.668 94.7815Z" fill="white"/>
<path d="M139.013 95.8974C136.771 95.8974 135 94.5405 135 92.8055C135 91.0704 136.771 89.7135 139.013 89.7135C141.255 89.7135 143.026 91.0704 143.026 92.8055C143.026 94.5405 141.255 95.8974 139.013 95.8974ZM139.013 91.4263C137.645 91.4263 136.681 92.1604 136.681 92.8277C136.681 93.495 137.645 94.2291 139.013 94.2291C140.38 94.2291 141.344 93.495 141.344 92.8277C141.322 92.1604 140.38 91.4263 139.013 91.4263Z" fill="#D0D0D4"/>
<path d="M128.668 107.782C130.141 107.782 131.336 106.935 131.336 105.891C131.336 104.847 130.141 104 128.668 104C127.194 104 126 104.847 126 105.891C126 106.935 127.194 107.782 128.668 107.782Z" fill="white"/>
<path d="M128.497 108.141C126.524 108.141 125 106.94 125 105.427C125 103.915 126.547 102.714 128.497 102.714C130.47 102.714 131.995 103.915 131.995 105.427C131.995 106.94 130.47 108.141 128.497 108.141ZM128.497 104.382C127.466 104.382 126.681 104.938 126.681 105.427C126.681 105.917 127.466 106.473 128.497 106.473C129.529 106.473 130.313 105.917 130.313 105.427C130.313 104.938 129.529 104.382 128.497 104.382Z" fill="#D0D0D4"/>
<path d="M197.161 95.4934C198.907 95.4934 200.322 94.4875 200.322 93.2467C200.322 92.0059 198.907 91 197.161 91C195.415 91 194 92.0059 194 93.2467C194 94.4875 195.415 95.4934 197.161 95.4934Z" fill="white"/>
<path d="M197.013 95.8974C194.771 95.8974 193 94.5405 193 92.8055C193 91.0704 194.771 89.7135 197.013 89.7135C199.255 89.7135 201.026 91.0704 201.026 92.8055C201.026 94.5405 199.255 95.8974 197.013 95.8974ZM197.013 91.4263C195.645 91.4263 194.681 92.1604 194.681 92.8277C194.681 93.495 195.645 94.2291 197.013 94.2291C198.381 94.2291 199.345 93.495 199.345 92.8277C199.322 92.1604 198.381 91.4263 197.013 91.4263Z" fill="#D0D0D4"/>
<path d="M207.668 106.782C209.141 106.782 210.336 105.935 210.336 104.891C210.336 103.847 209.141 103 207.668 103C206.194 103 205 103.847 205 104.891C205 105.935 206.194 106.782 207.668 106.782Z" fill="white"/>
<path d="M207.497 108.141C205.524 108.141 204 106.94 204 105.427C204 103.892 205.547 102.714 207.497 102.714C209.448 102.714 210.995 103.915 210.995 105.427C210.995 106.94 209.47 108.141 207.497 108.141ZM207.497 104.382C206.466 104.382 205.681 104.938 205.681 105.427C205.681 105.917 206.466 106.473 207.497 106.473C208.529 106.473 209.313 105.917 209.313 105.427C209.313 104.938 208.529 104.382 207.497 104.382Z" fill="#D0D0D4"/>
</g>
<path d="M169 88C149.7 88 134 75.4483 134 60C134 44.5517 149.7 32 169 32C188.3 32 204 44.5517 204 60C204 75.4483 188.3 88 169 88Z" fill="white"/>
<path d="M169 88.7135C149.149 88.7135 133 75.7135 133 59.7135C133 43.7135 149.149 30.7135 169 30.7135C188.851 30.7135 205 43.7135 205 59.7135C205 75.7135 188.851 88.7135 169 88.7135ZM169 33.3342C150.63 33.3342 135.644 45.1618 135.644 59.7135C135.644 74.2652 150.595 86.0928 169 86.0928C187.37 86.0928 202.356 74.2652 202.356 59.7135C202.356 45.1618 187.37 33.3342 169 33.3342Z" fill="#D0D0D4"/>
<g clip-path="url(#clip1)">
<path d="M172.732 45.4453C172.734 45.2267 172.722 45.0057 172.692 44.7798C172.412 42.6889 170.698 41.0226 168.603 40.819C165.862 40.5533 163.556 42.7013 163.556 45.3906C163.556 45.3981 163.556 45.4055 163.556 45.4105C163.561 46.5702 162.911 47.6206 161.854 48.0924C156.198 50.6104 152.326 56.4161 152.664 63.0861C153.065 71.0051 159.494 77.4118 167.405 77.7793C176.3 78.194 183.644 71.0944 183.644 62.2765C183.644 55.9393 179.849 50.4936 174.413 48.0824C173.372 47.623 172.717 46.5826 172.732 45.4453ZM168.144 47.6255C166.911 47.6255 165.912 46.6248 165.912 45.3906C165.912 44.1565 166.911 43.1557 168.144 43.1557C169.376 43.1557 170.376 44.1565 170.376 45.3906C170.376 46.6248 169.376 47.6255 168.144 47.6255Z" fill="#FF8631"/>
<path d="M165.531 55.9068C165.707 54.9334 166.952 54.1437 168.313 54.1487C169.675 54.1537 170.637 54.9433 170.463 55.9192C170.287 56.8927 169.042 57.6823 167.681 57.6774C166.319 57.6724 165.354 56.8827 165.531 55.9068Z" fill="white"/>
<path d="M157.724 65.1147C156.635 65.6113 155.687 65.0526 155.606 63.8706C155.526 62.6886 156.345 61.3277 157.433 60.8336C158.522 60.3369 159.469 60.8957 159.551 62.0777C159.631 63.2597 158.812 64.618 157.724 65.1147Z" fill="white"/>
<path d="M162.999 59.9231C164.074 59.0515 164.457 57.7402 163.853 56.994C163.25 56.2479 161.89 56.3496 160.814 57.2211C159.739 58.0927 159.357 59.404 159.96 60.1502C160.563 60.8963 161.924 60.7946 162.999 59.9231Z" fill="white"/>
<path d="M176.366 63.2498C176.534 66.4979 173.139 69.952 168.782 70.9627C164.424 71.9759 160.754 70.1631 160.583 66.915C160.414 63.667 163.809 60.2153 168.167 59.2022C172.527 58.189 176.197 60.0018 176.366 63.2498Z" fill="white"/>
<path d="M175.686 57.3025C174.59 57.7519 173.042 57.4043 172.229 56.5277C171.416 55.6486 171.644 54.5734 172.737 54.1239C173.834 53.6745 175.381 54.0221 176.195 54.8987C177.008 55.7753 176.782 56.853 175.686 57.3025Z" fill="white"/>
</g>
<defs>
<clipPath id="clip0">
<rect width="261" height="246" fill="white" transform="translate(17 56.7135)"/>
</clipPath>
<clipPath id="clip1">
<rect width="31" height="37" fill="white" transform="translate(152.644 40.7965)"/>
</clipPath>
</defs>
</svg>
