<svg width="393" height="386" viewBox="0 0 393 386" fill="none" xmlns="http://www.w3.org/2000/svg">
<path d="M321.457 130.588L327.049 191.704C332.117 243.744 292.992 289.454 241.102 292.794L137.25 300.329C93.1181 303.467 52.9714 274.687 41.0603 232.389C30.4967 194.506 45.5231 154.063 77.5049 131.831L175.302 63.5714C234.635 23.0154 314.951 59.9334 321.457 130.588Z" fill="#F5F5F5"/>
<g clip-path="url(#clip0)">
<path d="M213.253 144.738L221.725 146.607C224.696 147.239 226.595 150.152 225.989 153.12L225.852 153.78C225.219 156.747 222.303 158.644 219.332 158.039L210.859 156.17" fill="#F27442"/>
<path d="M220.46 158.699C220.047 158.699 219.635 158.644 219.195 158.561L210.694 156.693C210.392 156.638 210.199 156.335 210.282 156.033C210.337 155.731 210.639 155.538 210.942 155.621L219.415 157.49C220.708 157.764 222.028 157.517 223.128 156.775C224.229 156.061 224.999 154.934 225.274 153.642L225.412 152.983C225.962 150.317 224.256 147.679 221.588 147.129L213.088 145.26C212.785 145.206 212.592 144.903 212.675 144.601C212.73 144.299 213.033 144.106 213.335 144.189L221.808 146.057C225.082 146.744 227.172 149.96 226.485 153.202L226.374 153.89C226.044 155.483 225.109 156.83 223.761 157.709C222.771 158.369 221.643 158.699 220.46 158.699Z" fill="#552659"/>
<g clip-path="url(#clip1)">
<path d="M267.495 155.583L237.747 173.656C236.313 174.527 234.445 174.071 233.574 172.637L222.577 154.536C221.706 153.102 222.162 151.235 223.595 150.363L253.34 132.292C254.774 131.421 256.642 131.877 257.513 133.311L268.508 151.409C269.384 152.845 268.928 154.712 267.495 155.583Z" fill="#85B94E"/>
<path d="M234.886 153.535C234.616 152.837 235.113 151.836 235.998 151.302C236.883 150.768 237.817 150.901 238.084 151.6C238.355 152.297 237.858 153.299 236.972 153.833C236.087 154.366 235.154 154.234 234.886 153.535Z" fill="white"/>
<path d="M233.447 162.564C232.937 163.313 232.104 163.326 231.588 162.592C231.071 161.858 231.066 160.656 231.579 159.905C232.089 159.156 232.922 159.143 233.438 159.877C233.955 160.611 233.957 161.815 233.447 162.564Z" fill="white"/>
<path d="M234.826 157.13C235.18 156.143 234.912 155.145 234.227 154.899C233.543 154.654 232.701 155.255 232.348 156.241C231.994 157.227 232.262 158.226 232.947 158.471C233.631 158.716 234.473 158.116 234.826 157.13Z" fill="white"/>
<path d="M244.79 154.02C246.176 156.056 245.333 159.625 242.909 161.996C240.486 164.367 237.395 164.638 236.006 162.604C234.62 160.567 235.463 156.999 237.886 154.628C240.315 152.258 243.403 151.984 244.79 154.02Z" fill="white"/>
<path d="M242.013 150.439C241.482 151.159 240.342 151.546 239.47 151.297C238.598 151.048 238.32 150.264 238.855 149.541C239.386 148.821 240.526 148.435 241.398 148.684C242.27 148.933 242.545 149.718 242.013 150.439Z" fill="white"/>
<path d="M258.496 141.692L246.094 149.227C245.51 149.582 244.746 149.395 244.392 148.812C244.037 148.228 244.223 147.464 244.807 147.11L257.21 139.575C257.794 139.22 258.557 139.406 258.912 139.99C259.266 140.574 259.083 141.335 258.496 141.692Z" fill="white"/>
<path d="M255.651 148.598L248.391 153.008C247.807 153.363 247.044 153.177 246.689 152.593C246.334 152.009 246.521 151.246 247.104 150.891L254.365 146.48C254.948 146.125 255.712 146.312 256.067 146.896C256.421 147.479 256.238 148.241 255.651 148.598Z" fill="white"/>
<path d="M254.831 154.065L250.596 156.638C250.013 156.993 249.249 156.807 248.894 156.223C248.54 155.639 248.726 154.876 249.31 154.521L253.545 151.948C254.129 151.593 254.892 151.78 255.247 152.363C255.602 152.947 255.418 153.709 254.831 154.065Z" fill="white"/>
</g>
<path d="M210.502 164.827V167.987C210.502 171.01 208.026 173.484 205 173.484H204.312C201.286 173.484 198.81 171.01 198.81 167.987V164.827" fill="#F27442"/>
<path d="M205 174.033H204.312C200.984 174.033 198.26 171.312 198.26 167.987V164.827C198.26 164.525 198.508 164.277 198.81 164.277C199.113 164.277 199.36 164.525 199.36 164.827V167.987C199.36 170.708 201.589 172.934 204.312 172.934H205C207.723 172.934 209.951 170.708 209.951 167.987V164.827C209.951 164.525 210.199 164.277 210.502 164.277C210.804 164.277 211.052 164.525 211.052 164.827V167.987C211.052 171.312 208.328 174.033 205 174.033Z" fill="#552659"/>
<path d="M151.742 120.72V135.202C151.742 139.489 155.236 142.979 159.527 142.979H169.843V150.647H157.464C145.113 150.647 135.099 140.644 135.099 128.305V120.692C135.099 116.103 138.813 112.393 143.407 112.393C148.029 112.393 151.742 116.13 151.742 120.72Z" fill="#F6904E"/>
<path d="M169.843 151.196H157.464C144.838 151.196 134.549 140.946 134.549 128.305V120.692C134.549 115.801 138.538 111.816 143.435 111.816C148.331 111.816 152.32 115.801 152.32 120.692V135.202C152.32 139.187 155.566 142.43 159.555 142.43H169.871C170.173 142.43 170.421 142.677 170.421 142.979V150.647C170.393 150.949 170.146 151.196 169.843 151.196ZM143.435 112.943C139.143 112.943 135.649 116.433 135.649 120.72V128.332C135.649 140.341 145.443 150.125 157.464 150.125H169.293V143.557H159.527C154.933 143.557 151.192 139.819 151.192 135.23V120.747C151.192 116.433 147.726 112.943 143.435 112.943Z" fill="#552659"/>
<path d="M151.192 129.321V132.921H136.09C135.842 131.74 135.704 130.558 135.677 129.321H151.192Z" fill="#D34954"/>
<path d="M151.192 120.995H135.649V125.969H151.192V120.995Z" fill="#D34954"/>
<path d="M159.527 143.529H169.293V150.097H157.464C151.522 150.097 146.13 147.706 142.197 143.859C143.297 139.462 146.598 135.615 151.192 132.949V135.202C151.192 139.792 154.933 143.529 159.527 143.529Z" fill="#F27442"/>
<path d="M151.192 120.775V120.94C149.982 117.807 146.956 115.608 143.407 115.608C139.858 115.608 136.832 117.834 135.649 120.94V120.802C135.649 116.515 139.143 113.025 143.435 113.025C143.435 113.025 143.435 113.025 143.462 113.025C147.726 113.025 151.192 116.515 151.192 120.775Z" fill="#FAB367"/>
<path d="M198.453 169.169H170.283C161.948 169.169 155.181 162.409 155.181 154.082C155.181 137.593 168.55 124.237 185.056 124.237H217.021V150.619C217.021 160.842 208.714 169.169 198.453 169.169Z" fill="#F6904E"/>
<path d="M198.453 169.719H170.283C161.646 169.719 154.631 162.711 154.631 154.082C154.631 137.318 168.275 123.688 185.056 123.688H217.021C217.324 123.688 217.572 123.935 217.572 124.237V150.619C217.572 161.144 208.989 169.719 198.453 169.719ZM185.056 124.76C168.88 124.76 155.731 137.895 155.731 154.054C155.731 162.079 162.251 168.592 170.283 168.592H198.453C208.384 168.592 216.499 160.512 216.499 150.564V124.732H185.056V124.76Z" fill="#552659"/>
<path d="M185.056 124.127C178.976 124.127 173.337 125.969 168.633 129.074C168.853 129.074 169.101 129.074 169.321 129.074C190.338 129.074 207.366 144.134 207.366 162.711C207.366 164.167 207.256 165.596 207.063 166.998C212.978 163.92 217.021 157.737 217.021 150.592V124.127H185.056Z" fill="#F27442"/>
<path d="M198.453 169.719H170.283C161.646 169.719 154.631 162.711 154.631 154.082C154.631 137.318 168.275 123.688 185.056 123.688H217.021C217.324 123.688 217.572 123.935 217.572 124.237V150.619C217.572 161.144 208.989 169.719 198.453 169.719ZM185.056 124.76C168.88 124.76 155.731 137.895 155.731 154.054C155.731 162.079 162.251 168.592 170.283 168.592H198.453C208.384 168.592 216.499 160.512 216.499 150.564V124.732H185.056V124.76Z" fill="#552659"/>
<path d="M161.728 162.766C161.728 146.277 175.042 132.921 191.548 132.921H217.021V124.127H185.056C168.55 124.127 155.126 137.538 155.126 154.027V154.054C155.126 159.441 157.987 164.167 162.223 166.833C161.866 165.541 161.728 164.195 161.728 162.766Z" fill="#FAB367"/>
<path d="M198.453 169.719H170.283C161.646 169.719 154.631 162.711 154.631 154.082C154.631 137.318 168.275 123.688 185.056 123.688H217.021C217.324 123.688 217.572 123.935 217.572 124.237V150.619C217.572 161.144 208.989 169.719 198.453 169.719ZM185.056 124.76C168.88 124.76 155.731 137.895 155.731 154.054C155.731 162.079 162.251 168.592 170.283 168.592H198.453C208.384 168.592 216.499 160.512 216.499 150.564V124.732H185.056V124.76Z" fill="#552659"/>
<path d="M186.486 347.713C246.954 347.713 295.973 340.688 295.973 332.022C295.973 323.356 246.954 316.33 186.486 316.33C126.019 316.33 77 323.356 77 332.022C77 340.688 126.019 347.713 186.486 347.713Z" fill="#85B94E"/>
<path d="M77 332.022C77 340.678 126.021 347.714 186.486 347.714C186.486 339.03 137.465 332.022 77 332.022Z" fill="#85D15D"/>
<path d="M256.635 331.06H116.366C113.009 331.06 110.314 328.339 110.314 325.014V235.976L186.514 157.297L262.714 235.976V325.014C262.687 328.367 259.991 331.06 256.635 331.06Z" fill="#D7895D"/>
<path d="M256.634 331.61H116.366C112.734 331.61 109.763 328.642 109.763 325.014V235.756L109.928 235.591L186.486 156.5L186.871 156.912L263.237 235.756V325.014C263.237 328.669 260.266 331.61 256.634 331.61ZM110.836 236.195V325.014C110.836 328.037 113.312 330.51 116.338 330.51H256.634C259.66 330.51 262.136 328.037 262.136 325.014V236.195L186.486 158.094L110.836 236.195Z" fill="#3B273D"/>
<path d="M162.416 182.113H210.557L197.462 168.647H175.51L162.416 182.113Z" fill="#EFA96A"/>
<path d="M262.686 243.753H110.286V257.273H262.686V243.753Z" fill="#EFA96A"/>
<path d="M117.328 228.83L110.286 235.975V242.296H262.686V235.975L255.672 228.83H117.328Z" fill="#EFA96A"/>
<path d="M118.786 227.181H254.214L241.119 213.716H131.881L118.786 227.181Z" fill="#EFA96A"/>
<path d="M133.339 212.067H239.661L226.567 198.601H146.433L133.339 212.067Z" fill="#EFA96A"/>
<path d="M147.891 197.227H225.109L212.015 183.761H160.958L147.891 197.227Z" fill="#EFA96A"/>
<path d="M262.686 258.73H110.286V272.25H262.686V258.73Z" fill="#EFA96A"/>
<path d="M262.686 273.652H110.286V287.173H262.686V273.652Z" fill="#EFA96A"/>
<path d="M262.686 288.574H110.286V302.095H262.686V288.574Z" fill="#EFA96A"/>
<path d="M262.686 303.469H110.286V316.99H262.686V303.469Z" fill="#EFA96A"/>
<path d="M257.377 331.06H115.623C112.679 331.06 110.314 328.669 110.314 325.756V318.391H262.714V325.756C262.687 328.697 260.321 331.06 257.377 331.06Z" fill="#EFA96A"/>
<path d="M262.686 318.364H110.286V320.068H262.686V318.364Z" fill="#EFBF81"/>
<path d="M262.686 303.469H110.286V305.173H262.686V303.469Z" fill="#EFBF81"/>
<path d="M262.686 288.574H110.286V290.278H262.686V288.574Z" fill="#EFBF81"/>
<path d="M262.686 273.652H110.286V275.356H262.686V273.652Z" fill="#EFBF81"/>
<path d="M262.686 258.73H110.286V260.434H262.686V258.73Z" fill="#EFBF81"/>
<path d="M262.686 243.753H110.286V245.456H262.686V243.753Z" fill="#EFBF81"/>
<path d="M259.11 228.83H113.862V230.534H259.11V228.83Z" fill="#EFBF81"/>
<path d="M243.925 213.716H129.047V215.42H243.925V213.716Z" fill="#EFBF81"/>
<path d="M229.483 198.601H143.517V200.305H229.483V198.601Z" fill="#EFBF81"/>
<path d="M217.021 183.761H155.951V185.465H217.021V183.761Z" fill="#EFBF81"/>
<g opacity="0.8">
<path opacity="0.8" d="M186.486 157.297L110.286 235.975V258.482L186.486 179.777L262.686 258.482V235.975L186.486 157.297Z" fill="#AA7443"/>
</g>
<path d="M257.267 331.61H115.705C112.404 331.61 109.736 328.944 109.736 325.646V235.756L109.901 235.591L186.486 156.5L186.871 156.912L263.237 235.756V325.646C263.237 328.944 260.568 331.61 257.267 331.61ZM110.836 236.195V325.646C110.836 328.339 113.009 330.51 115.705 330.51H257.267C259.963 330.51 262.136 328.339 262.136 325.646V236.195L186.486 158.094L110.836 236.195Z" fill="#3B3F53"/>
<path d="M186.486 226.632C209.264 226.632 227.75 245.099 227.75 267.853V331.06H145.223V267.853C145.223 245.099 163.709 226.632 186.486 226.632Z" fill="#966941"/>
<path d="M228.3 331.61H144.672V267.854C144.672 244.824 163.434 226.082 186.486 226.082C209.539 226.082 228.3 244.824 228.3 267.854V331.61ZM145.773 330.51H227.2V267.854C227.2 245.429 208.934 227.182 186.486 227.182C164.039 227.182 145.773 245.429 145.773 267.854V330.51Z" fill="#3B3F53"/>
<g opacity="0.4">
<path opacity="0.4" d="M186.486 226.632C163.709 226.632 145.223 245.099 145.223 267.853V283.325C145.223 260.571 163.709 242.104 186.486 242.104C209.264 242.104 227.75 260.571 227.75 283.325V267.853C227.75 245.099 209.291 226.632 186.486 226.632Z" fill="#3B273D"/>
</g>
<path d="M228.3 331.61H144.672V267.854C144.672 244.824 163.434 226.082 186.486 226.082C209.539 226.082 228.3 244.824 228.3 267.854V331.61ZM145.773 330.51H227.2V267.854C227.2 245.429 208.934 227.182 186.486 227.182C164.039 227.182 145.773 245.429 145.773 267.854V330.51Z" fill="#3B3F53"/>
<path d="M209.649 251.805C205.605 256.119 203.569 261.643 203.569 268.376C203.569 272.278 204.422 275.96 205.908 279.203C205.798 278.186 205.715 277.142 205.715 276.07C205.715 267.331 209.979 259.692 216.306 255.597L209.649 251.805Z" fill="#552659"/>
<path d="M176.721 247.517C180.764 251.832 182.8 257.356 182.8 264.089C182.8 267.991 181.947 271.673 180.462 274.916C180.572 273.899 180.654 272.855 180.654 271.783C180.654 263.044 176.39 255.405 170.063 251.31L176.721 247.517Z" fill="#552659"/>
<path d="M230.501 268.568L217.572 252.134C215.784 249.881 212.51 249.469 210.254 251.255C207.998 253.041 207.586 256.311 209.374 258.565L222.303 274.998C224.091 277.252 227.365 277.664 229.621 275.878C231.904 274.119 232.289 270.821 230.501 268.568Z" fill="#552659"/>
<path d="M176.115 246.968C173.86 245.182 170.559 245.594 168.798 247.847L155.869 264.281C154.081 266.534 154.493 269.832 156.749 271.591C159.005 273.377 162.306 272.965 164.066 270.712L176.996 254.278C178.784 252.024 178.399 248.754 176.115 246.968Z" fill="#552659"/>
<path d="M199.883 329.521V332.681C199.883 335.704 197.407 338.178 194.381 338.178H193.694C190.668 338.178 188.192 335.704 188.192 332.681V329.521" fill="#D49072"/>
<path d="M194.381 338.727H193.694C190.365 338.727 187.642 336.007 187.642 332.681V329.521H188.742V332.681C188.742 335.402 190.97 337.628 193.694 337.628H194.381C197.105 337.628 199.333 335.402 199.333 332.681V329.521H200.433V332.681C200.433 336.007 197.71 338.727 194.381 338.727Z" fill="#552659"/>
<path d="M216.196 324.162L210.969 331.197L206.32 327.762L211.52 320.727C212.455 319.436 214.27 319.188 215.563 320.123C216.856 321.084 217.131 322.898 216.196 324.162Z" fill="#D49072"/>
<path d="M211.079 331.967L205.55 327.872L211.079 320.397C211.63 319.655 212.427 319.188 213.335 319.051C214.243 318.913 215.151 319.133 215.894 319.683C216.636 320.232 217.104 321.029 217.241 321.936C217.379 322.843 217.159 323.75 216.609 324.492L211.079 331.967ZM207.091 327.652L210.859 330.428L215.728 323.833C216.114 323.338 216.251 322.706 216.169 322.101C216.086 321.497 215.756 320.947 215.233 320.562C214.738 320.205 214.105 320.04 213.5 320.123C212.895 320.205 212.345 320.535 211.96 321.057L207.091 327.652Z" fill="#552659"/>
<path d="M207.146 321.277V315.093H170.558V333.093H213.638V327.735C213.638 325.948 212.18 324.492 210.419 324.492C208.604 324.492 207.146 323.063 207.146 321.277Z" fill="#EEB38B"/>
<path d="M214.16 333.643H170.008V314.544H207.723V321.277C207.723 322.761 208.934 323.97 210.419 323.97C212.51 323.97 214.215 325.674 214.215 327.762V333.643H214.16ZM171.109 332.544H213.088V327.735C213.088 326.251 211.877 325.042 210.392 325.042C208.301 325.042 206.595 323.338 206.595 321.249V315.616H171.109V332.544Z" fill="#552659"/>
<path d="M171.081 315.616V320.397C178.866 323.228 188.219 324.877 198.26 324.877C201.644 324.877 204.972 324.684 208.163 324.327C207.201 323.64 206.595 322.513 206.595 321.249V315.616H171.081Z" fill="#D49072"/>
<path d="M182.25 329.521V332.681C182.25 335.704 179.774 338.178 176.748 338.178H176.06C173.034 338.178 170.558 335.704 170.558 332.681V320.865" fill="#EEB38B"/>
<path d="M176.748 338.727H176.06C172.732 338.727 170.008 336.007 170.008 332.681V320.865H171.109V332.681C171.109 335.402 173.337 337.628 176.06 337.628H176.748C179.471 337.628 181.7 335.402 181.7 332.681V329.521H182.8V332.681C182.8 336.007 180.077 338.727 176.748 338.727Z" fill="#552659"/>
<path d="M188.384 324.849C203.82 324.849 216.334 312.176 216.334 296.544C216.334 280.911 203.82 268.238 188.384 268.238C172.948 268.238 160.435 280.911 160.435 296.544C160.435 312.176 172.948 324.849 188.384 324.849Z" fill="#552659"/>
<path d="M188.384 322.651C205.826 322.651 219.965 309.978 219.965 294.345C219.965 278.712 205.826 266.04 188.384 266.04C170.943 266.04 156.804 278.712 156.804 294.345C156.804 309.978 170.943 322.651 188.384 322.651Z" fill="#D49072"/>
<path d="M188.384 323.2C170.669 323.2 156.254 310.257 156.254 294.345C156.254 278.434 170.669 265.49 188.384 265.49C206.1 265.49 220.488 278.434 220.488 294.345C220.488 310.257 206.073 323.2 188.384 323.2ZM188.384 266.589C171.274 266.589 157.354 279.038 157.354 294.345C157.354 309.652 171.274 322.101 188.384 322.101C205.495 322.101 219.387 309.652 219.387 294.345C219.387 279.038 205.468 266.589 188.384 266.589Z" fill="#552659"/>
<path d="M186.321 318.171C200.466 318.171 211.932 306.704 211.932 292.559C211.932 278.414 200.466 266.947 186.321 266.947C172.177 266.947 160.71 278.414 160.71 292.559C160.71 306.704 172.177 318.171 186.321 318.171Z" fill="#EEB38B"/>
<path d="M182.25 317.127H189.292C191.328 317.127 192.978 315.478 192.978 313.445V308.278H182.25V317.127Z" fill="#A46270"/>
<path d="M190.613 314.269H180.929C180.132 314.269 179.471 314.929 179.471 315.726C179.471 316.907 180.434 317.869 181.617 317.869H189.952C191.135 317.869 192.098 316.907 192.098 315.726C192.071 314.901 191.438 314.269 190.613 314.269Z" fill="#EE4B6D"/>
<path d="M187.807 318.721H182.58C180.572 318.721 178.921 317.1 178.921 315.066C178.921 314.764 179.169 314.516 179.471 314.516C179.774 314.516 180.022 314.764 180.022 315.066C180.022 316.467 181.177 317.622 182.58 317.622H187.807C190.365 317.622 192.428 315.561 192.428 313.005V300.556C192.428 300.254 192.676 300.006 192.978 300.006C193.281 300.006 193.529 300.254 193.529 300.556V313.005C193.529 316.165 190.97 318.721 187.807 318.721Z" fill="#552659"/>
<path d="M194.455 296.355C200.353 295.089 203.862 288.156 202.294 280.87C200.726 273.584 194.674 268.704 188.777 269.971C182.88 271.237 179.371 278.171 180.939 285.456C182.507 292.742 188.558 297.622 194.455 296.355Z" fill="#A46270"/>
<path d="M192.059 289.098C195.637 288.191 197.633 283.89 196.515 279.491C195.398 275.092 191.591 272.262 188.012 273.169C184.434 274.076 182.439 278.378 183.556 282.776C184.674 287.175 188.48 290.005 192.059 289.098Z" fill="white"/>
<path d="M190.695 289.811C189.265 289.811 187.834 289.316 186.569 288.354C184.863 287.09 183.598 285.139 183.048 282.886C182.47 280.632 182.663 278.324 183.543 276.4C184.451 274.421 185.991 273.075 187.889 272.608C189.787 272.141 191.768 272.58 193.529 273.872C195.234 275.136 196.5 277.087 197.05 279.341C197.627 281.594 197.435 283.902 196.555 285.826C195.647 287.805 194.106 289.151 192.208 289.619C191.685 289.756 191.19 289.811 190.695 289.811ZM189.347 273.542C188.935 273.542 188.522 273.597 188.137 273.707C186.569 274.092 185.303 275.246 184.533 276.895C183.735 278.599 183.598 280.632 184.093 282.638C184.616 284.644 185.716 286.376 187.202 287.475C188.66 288.574 190.338 288.959 191.906 288.547C193.474 288.162 194.739 287.008 195.509 285.359C196.307 283.655 196.445 281.622 195.949 279.615C195.427 277.609 194.326 275.878 192.841 274.779C191.741 273.954 190.53 273.542 189.347 273.542Z" fill="#552659"/>
<path d="M175.938 273.146C172.36 272.238 168.553 275.069 167.436 279.468C166.318 283.866 168.313 288.168 171.892 289.075C175.47 289.982 179.277 287.152 180.395 282.753C181.512 278.354 179.517 274.053 175.938 273.146Z" fill="white"/>
<path d="M173.254 289.811C172.759 289.811 172.264 289.756 171.769 289.619C169.871 289.151 168.33 287.805 167.422 285.826C166.542 283.902 166.35 281.594 166.927 279.341C167.505 277.087 168.743 275.163 170.448 273.872C172.182 272.58 174.19 272.113 176.088 272.608C177.986 273.075 179.526 274.421 180.434 276.4C181.315 278.324 181.507 280.632 180.929 282.886C180.352 285.139 179.114 287.063 177.408 288.354C176.115 289.316 174.685 289.811 173.254 289.811ZM174.602 273.542C173.419 273.542 172.209 273.954 171.109 274.779C169.596 275.905 168.495 277.609 168 279.615C167.477 281.622 167.643 283.655 168.44 285.359C169.211 287.008 170.503 288.162 172.044 288.547C173.612 288.931 175.29 288.547 176.748 287.475C178.261 286.348 179.361 284.644 179.857 282.638C180.379 280.632 180.214 278.599 179.416 276.895C178.646 275.246 177.353 274.092 175.813 273.707C175.428 273.597 175.015 273.542 174.602 273.542Z" fill="#552659"/>
<path d="M192.868 265.078H188.549C186.899 265.078 185.551 266.424 185.551 268.073C185.551 269.722 186.899 271.069 188.549 271.069H192.868C194.519 271.069 195.867 269.722 195.867 268.073C195.867 266.424 194.519 265.078 192.868 265.078Z" fill="#552659"/>
<path d="M176.088 265.078H171.769C170.118 265.078 168.77 266.424 168.77 268.073C168.77 269.722 170.118 271.069 171.769 271.069H176.088C177.738 271.069 179.086 269.722 179.086 268.073C179.086 266.424 177.738 265.078 176.088 265.078Z" fill="#552659"/>
<path d="M187.779 311.274V312.373C187.779 313.252 187.064 313.967 186.184 313.967C185.303 313.967 184.588 313.252 184.588 312.373V311.274" fill="white"/>
<path d="M186.184 314.544C185.001 314.544 184.038 313.582 184.038 312.4V311.301C184.038 310.999 184.286 310.751 184.588 310.751C184.891 310.751 185.138 310.999 185.138 311.301V312.4C185.138 312.977 185.606 313.445 186.184 313.445C186.761 313.445 187.229 312.977 187.229 312.4V311.301C187.229 310.999 187.477 310.751 187.779 310.751C188.082 310.751 188.329 310.999 188.329 311.301V312.4C188.329 313.582 187.367 314.544 186.184 314.544Z" fill="#552659"/>
<path d="M173.254 311.274V312.373C173.254 313.252 172.539 313.967 171.659 313.967C170.779 313.967 170.063 313.252 170.063 312.373V311.274" fill="white"/>
<path d="M171.659 314.544C170.476 314.544 169.513 313.582 169.513 312.4V311.301C169.513 310.999 169.761 310.751 170.063 310.751C170.366 310.751 170.614 310.999 170.614 311.301V312.4C170.614 312.977 171.081 313.445 171.659 313.445C172.237 313.445 172.704 312.977 172.704 312.4V311.301C172.704 310.999 172.952 310.751 173.254 310.751C173.557 310.751 173.805 310.999 173.805 311.301V312.4C173.805 313.582 172.842 314.544 171.659 314.544Z" fill="#552659"/>
<path d="M192.373 300.557C192.951 301.601 193.281 302.81 193.281 304.102C193.281 308.114 190.145 311.357 186.266 311.357C183.048 311.357 180.324 309.104 179.499 306.053" fill="#EEB38B"/>
<path d="M186.239 311.933C182.855 311.933 179.857 309.597 178.949 306.217L180.022 305.942C180.792 308.828 183.35 310.834 186.239 310.834C189.815 310.834 192.703 307.811 192.703 304.128C192.703 302.974 192.428 301.848 191.878 300.831L192.841 300.309C193.474 301.463 193.804 302.782 193.804 304.128C193.804 308.416 190.42 311.933 186.239 311.933Z" fill="#552659"/>
<path d="M166.157 300.557C165.579 301.601 165.249 302.81 165.249 304.102C165.249 308.114 168.385 311.357 172.264 311.357C175.483 311.357 178.206 309.104 179.031 306.053" fill="#EEB38B"/>
<path d="M172.264 311.933C168.083 311.933 164.699 308.443 164.699 304.128C164.699 302.782 165.029 301.463 165.662 300.309L166.625 300.831C166.075 301.82 165.799 302.974 165.799 304.128C165.799 307.838 168.688 310.834 172.264 310.834C175.153 310.834 177.711 308.828 178.481 305.942L179.554 306.217C178.646 309.57 175.648 311.933 172.264 311.933Z" fill="#552659"/>
<path d="M191.796 284.507C193.345 284.507 194.601 283.252 194.601 281.704C194.601 280.156 193.345 278.901 191.796 278.901C190.246 278.901 188.99 280.156 188.99 281.704C188.99 283.252 190.246 284.507 191.796 284.507Z" fill="#552659"/>
<path d="M192.043 282.776C192.772 282.776 193.364 282.185 193.364 281.457C193.364 280.728 192.772 280.138 192.043 280.138C191.314 280.138 190.723 280.728 190.723 281.457C190.723 282.185 191.314 282.776 192.043 282.776Z" fill="white"/>
<path d="M175.318 284.507C176.867 284.507 178.124 283.252 178.124 281.704C178.124 280.156 176.867 278.901 175.318 278.901C173.768 278.901 172.512 280.156 172.512 281.704C172.512 283.252 173.768 284.507 175.318 284.507Z" fill="#552659"/>
<path d="M175.538 282.776C176.267 282.776 176.858 282.185 176.858 281.457C176.858 280.728 176.267 280.138 175.538 280.138C174.808 280.138 174.217 280.728 174.217 281.457C174.217 282.185 174.808 282.776 175.538 282.776Z" fill="white"/>
<path d="M201.919 332.681C201.919 335.704 204.395 338.178 207.421 338.178H208.108C211.134 338.178 213.61 335.704 213.61 332.681V329.521" fill="#EEB38B"/>
<path d="M208.108 338.727H207.421C204.092 338.727 201.369 336.007 201.369 332.681H202.469C202.469 335.402 204.697 337.628 207.421 337.628H208.108C210.832 337.628 213.06 335.402 213.06 332.681V329.521H214.16V332.681C214.16 336.007 211.437 338.727 208.108 338.727Z" fill="#552659"/>
<path d="M187.587 299.319L183.763 304.101C181.452 306.987 177.078 306.987 174.767 304.101L170.944 299.319C170.146 298.303 169.706 297.066 169.706 295.774C169.706 292.614 172.264 290.086 175.4 290.086H183.103C186.266 290.086 188.797 292.641 188.797 295.774C188.852 297.066 188.412 298.33 187.587 299.319Z" fill="#552659"/>
<path d="M189.622 329.494L188.164 330.345C188.082 330.4 187.944 330.4 187.862 330.345L186.404 329.494C185.248 328.806 184.561 327.817 184.561 326.773V325.839C184.561 325.729 184.698 325.674 184.836 325.674C185.826 325.784 186.816 325.564 187.532 325.069L187.834 324.849C187.917 324.794 188.082 324.794 188.164 324.849L188.467 325.069C189.182 325.564 190.172 325.784 191.163 325.674C191.3 325.646 191.438 325.729 191.438 325.839V326.773C191.465 327.817 190.778 328.806 189.622 329.494Z" fill="#EE4A8A"/>
<path d="M205.137 329.521V332.681C205.137 335.704 202.662 338.178 199.636 338.178H198.948C195.922 338.178 193.446 335.704 193.446 332.681V329.521" fill="#EEB38B"/>
<path d="M199.636 338.727H198.948C195.619 338.727 192.896 336.007 192.896 332.681V329.521H193.996V332.681C193.996 335.402 196.225 337.628 198.948 337.628H199.636C202.359 337.628 204.587 335.402 204.587 332.681V329.521H205.688V332.681C205.688 336.007 202.992 338.727 199.636 338.727Z" fill="#552659"/>
<path d="M195.042 301.106H190.915C190.613 301.106 190.365 300.858 190.365 300.556C190.365 300.254 190.613 300.006 190.915 300.006H195.042C195.344 300.006 195.592 300.254 195.592 300.556C195.592 300.858 195.344 301.106 195.042 301.106Z" fill="#552659"/>
<path d="M167.615 301.106H163.489C163.186 301.106 162.938 300.858 162.938 300.556C162.938 300.254 163.186 300.006 163.489 300.006H167.615C167.918 300.006 168.165 300.254 168.165 300.556C168.165 300.858 167.918 301.106 167.615 301.106Z" fill="#552659"/>
<path d="M177.463 295.335C180.107 295.335 182.25 294.547 182.25 293.576C182.25 292.604 180.107 291.817 177.463 291.817C174.82 291.817 172.677 292.604 172.677 293.576C172.677 294.547 174.82 295.335 177.463 295.335Z" fill="white"/>
<path d="M203.597 193.847C203.955 192.226 203.432 190.522 202.166 189.175C200.708 187.609 198.48 186.702 196.197 186.702C195.207 186.702 194.244 186.867 193.391 187.224C192.593 187.554 191.933 187.994 191.41 188.571C190.255 187.609 188.687 187.087 186.899 187.087C183.543 187.087 180.627 188.983 179.774 191.566C179.059 191.209 178.261 191.044 177.381 191.044C175.208 191.044 172.924 192.198 171.384 194.039C170.366 195.276 169.761 196.678 169.678 198.079C168.935 198.107 168.165 198.271 167.422 198.629C164.562 199.92 162.581 203.218 162.801 206.323C162.993 209.181 165.002 211.188 167.698 211.188C168.495 211.188 169.293 210.995 170.091 210.638C170.476 210.446 170.861 210.226 171.219 209.978C171.191 210.446 171.164 210.94 171.191 211.407C171.494 217.178 176.638 221.191 183.68 221.191C185.166 221.191 186.734 220.998 188.274 220.641C196.967 218.635 203.487 211.737 203.129 204.922C202.964 202.009 201.589 199.536 199.333 197.804C199.691 197.722 200.021 197.612 200.351 197.474C202.056 196.76 203.239 195.468 203.597 193.847Z" fill="#3B3F53"/>
<path d="M181.672 191.291C181.975 189.642 184.065 188.323 186.376 188.323C188.687 188.323 190.31 189.67 190.007 191.319C189.705 192.968 187.614 194.287 185.303 194.287C183.02 194.259 181.397 192.913 181.672 191.291Z" fill="#FF8631"/>
<path d="M168.495 206.818C166.652 207.642 165.057 206.708 164.919 204.729C164.782 202.723 166.157 200.442 168 199.618C169.843 198.794 171.439 199.728 171.576 201.707C171.714 203.685 170.338 205.966 168.495 206.818Z" fill="#FF8631"/>
<path d="M172.897 194.314C174.355 192.555 176.748 191.786 178.234 192.583C179.719 193.38 179.719 195.468 178.261 197.227C176.803 198.986 174.41 199.755 172.924 198.959C171.439 198.162 171.411 196.073 172.897 194.314Z" fill="#FF8631"/>
<path d="M199.993 203.658C200.268 209.126 194.546 214.952 187.174 216.656C179.802 218.36 173.612 215.31 173.309 209.841C173.034 204.372 178.756 198.546 186.129 196.842C193.501 195.139 199.718 198.189 199.993 203.658Z" fill="#FF8631"/>
<path d="M186.239 204.674C191.906 203.355 196.857 204.867 199.003 208.11C199.718 206.653 200.103 205.142 200.021 203.658C199.746 198.189 193.529 195.139 186.156 196.842C178.784 198.546 173.062 204.372 173.337 209.841C173.392 211.105 173.805 212.259 174.437 213.221C176.363 209.346 180.847 205.911 186.239 204.674Z" fill="#FF9531"/>
<path d="M198.838 193.627C196.995 194.397 194.381 193.792 193.006 192.308C191.63 190.824 192.016 189.01 193.859 188.241C195.702 187.471 198.315 188.076 199.691 189.56C201.094 191.071 200.708 192.885 198.838 193.627Z" fill="#FF8631"/>
<path d="M274.24 255.817L186.486 164.057L98.7322 255.817C96.9441 257.686 94.0006 257.74 92.13 255.954C90.2594 254.168 90.2044 251.227 91.9925 249.359L186.486 150.537L280.98 249.359C282.768 251.227 282.686 254.195 280.843 255.954C278.972 257.74 276.028 257.686 274.24 255.817Z" fill="#3B273D"/>
<path d="M206.458 102.115L220.515 84.7746C221.808 83.1807 224.091 82.796 225.852 83.8952C227.035 84.6372 227.75 85.9288 227.75 87.3303V102.5L206.458 102.115Z" fill="#F6904E"/>
<path d="M227.722 103.022L206.43 102.665C206.21 102.665 206.018 102.527 205.935 102.335C205.853 102.143 205.88 101.923 206.018 101.758L220.075 84.4173C221.533 82.6036 224.146 82.1639 226.127 83.428C227.475 84.2799 228.273 85.7364 228.273 87.3303V102.5C228.273 102.637 228.218 102.802 228.108 102.885C228.025 102.967 227.887 103.022 227.722 103.022ZM207.586 101.593L227.172 101.923V87.3303C227.172 86.1212 226.567 84.9944 225.522 84.3624C224.009 83.428 222.028 83.7303 220.928 85.1319L207.586 101.593Z" fill="#552659"/>
<path d="M213.803 96.0969L221.698 86.3411C222.413 85.4342 223.706 85.2418 224.696 85.8464C225.357 86.2586 225.769 87.0006 225.769 87.7701V96.2892L213.803 96.0969Z" fill="#F27442"/>
<path d="M182.305 102.115L196.362 84.7746C197.655 83.1807 199.938 82.796 201.699 83.8952C202.882 84.6372 203.597 85.9288 203.597 87.3303V102.5L182.305 102.115Z" fill="#F6904E"/>
<path d="M203.569 103.022L182.277 102.665C182.057 102.665 181.865 102.527 181.782 102.335C181.7 102.143 181.727 101.923 181.865 101.758L195.922 84.4173C197.38 82.6036 199.993 82.1639 201.974 83.428C203.322 84.2799 204.12 85.7364 204.12 87.3303V102.5C204.12 102.637 204.065 102.802 203.955 102.885C203.844 102.967 203.707 103.022 203.569 103.022ZM183.433 101.593L203.019 101.923V87.3303C203.019 86.1212 202.414 84.9944 201.369 84.3624C199.856 83.428 197.875 83.7303 196.775 85.1319L183.433 101.593Z" fill="#552659"/>
<path d="M189.732 96.0969L197.627 86.3411C198.343 85.4342 199.636 85.2418 200.626 85.8464C201.286 86.2586 201.699 87.0006 201.699 87.7701V96.2892L189.732 96.0969Z" fill="#F27442"/>
<path d="M204.34 148.97C222.222 148.97 236.718 136.359 236.718 120.802C236.718 105.245 222.222 92.6342 204.34 92.6342C186.458 92.6342 171.961 105.245 171.961 120.802C171.961 136.359 186.458 148.97 204.34 148.97Z" fill="#552659"/>
<path d="M203.569 146.442C222.895 146.442 238.561 133.831 238.561 118.274C238.561 102.717 222.895 90.1061 203.569 90.1061C184.244 90.1061 168.578 102.717 168.578 118.274C168.578 133.831 184.244 146.442 203.569 146.442Z" fill="#F6904E"/>
<path d="M203.569 146.992C183.983 146.992 168.028 134.103 168.028 118.274C168.028 102.445 183.983 89.5564 203.569 89.5564C223.156 89.5564 239.111 102.445 239.111 118.274C239.111 134.103 223.156 146.992 203.569 146.992ZM203.569 90.6556C184.588 90.6556 169.128 103.05 169.128 118.274C169.128 133.499 184.561 145.893 203.569 145.893C222.551 145.893 238.011 133.499 238.011 118.274C238.011 103.05 222.551 90.6556 203.569 90.6556Z" fill="#552659"/>
<path d="M202.469 138.418C217.176 138.418 229.098 127.701 229.098 114.482C229.098 101.262 217.176 90.5457 202.469 90.5457C187.762 90.5457 175.84 101.262 175.84 114.482C175.84 127.701 187.762 138.418 202.469 138.418Z" fill="#FAB367"/>
<path d="M186.734 117.697V118.109C186.734 119.758 187.174 121.352 187.999 122.781L192.291 130.228C193.969 133.114 197.05 134.9 200.406 134.9C203.762 134.9 206.843 133.114 208.521 130.228L212.812 122.781C213.638 121.352 214.078 119.758 214.078 118.109V117.697C214.078 112.531 209.896 108.326 204.697 108.326H196.114C190.943 108.353 186.734 112.531 186.734 117.697Z" fill="white"/>
<path d="M200.406 135.45C196.885 135.45 193.584 133.553 191.823 130.503L187.532 123.056C186.651 121.544 186.211 119.84 186.211 118.109V117.697C186.211 112.228 190.668 107.776 196.142 107.776H204.725C210.199 107.776 214.656 112.228 214.656 117.697V118.109C214.656 119.84 214.188 121.544 213.335 123.056L209.044 130.503C207.228 133.553 203.955 135.45 200.406 135.45ZM196.114 108.903C191.245 108.903 187.284 112.86 187.284 117.724V118.137C187.284 119.676 187.697 121.214 188.467 122.534L192.758 129.981C194.326 132.702 197.242 134.378 200.406 134.378C203.542 134.378 206.485 132.702 208.053 129.981L212.345 122.534C213.115 121.187 213.528 119.676 213.528 118.137V117.724C213.528 112.86 209.566 108.903 204.697 108.903H196.114Z" fill="#552659"/>
<path d="M205.825 92.964H208.521C209.236 92.964 209.814 93.5411 209.814 94.2556C209.814 94.9701 209.236 95.5472 208.521 95.5472H205.825C205.11 95.5472 204.532 94.9701 204.532 94.2556C204.56 93.5411 205.11 92.964 205.825 92.964Z" fill="#552659"/>
<path d="M192.291 92.964H194.987C195.702 92.964 196.279 93.5411 196.279 94.2556C196.279 94.9701 195.702 95.5472 194.987 95.5472H192.291C191.575 95.5472 190.998 94.9701 190.998 94.2556C190.998 93.5411 191.575 92.964 192.291 92.964Z" fill="#552659"/>
<path d="M200.406 115.938C200.021 116.845 199.168 117.422 198.178 117.422C197.215 117.422 196.335 116.845 195.949 115.938L195.234 114.207C194.822 113.19 195.564 112.091 196.637 112.091H199.663C200.763 112.091 201.506 113.19 201.066 114.207L200.406 115.938Z" fill="#552659"/>
<path d="M199.14 122.644C193.584 122.644 189.072 119.346 189.072 115.306C189.072 115.004 189.32 114.756 189.622 114.756C189.925 114.756 190.172 115.004 190.172 115.306C190.172 118.741 194.189 121.544 199.14 121.544C204.092 121.544 208.108 118.741 208.108 115.306C208.108 115.004 208.356 114.756 208.659 114.756C208.961 114.756 209.209 115.004 209.209 115.306C209.209 119.346 204.697 122.644 199.14 122.644Z" fill="#552659"/>
<path d="M198.178 122.561C197.875 122.561 197.627 122.314 197.627 122.011V116.213C197.627 115.911 197.875 115.663 198.178 115.663C198.48 115.663 198.728 115.911 198.728 116.213V122.011C198.728 122.314 198.48 122.561 198.178 122.561Z" fill="#552659"/>
<path d="M207.173 110.744C210.075 110.744 212.427 107.705 212.427 103.957C212.427 100.208 210.075 97.1687 207.173 97.1687C204.271 97.1687 201.919 100.208 201.919 103.957C201.919 107.705 204.271 110.744 207.173 110.744Z" fill="white"/>
<path d="M207.173 111.266C203.982 111.266 201.369 107.969 201.369 103.929C201.369 99.8893 203.982 96.5916 207.173 96.5916C210.364 96.5916 212.977 99.8893 212.977 103.929C212.977 107.969 210.364 111.266 207.173 111.266ZM207.173 97.7183C204.587 97.7183 202.469 100.521 202.469 103.956C202.469 107.392 204.587 110.195 207.173 110.195C209.759 110.195 211.877 107.392 211.877 103.956C211.877 100.521 209.759 97.7183 207.173 97.7183Z" fill="#552659"/>
<path d="M207.366 107.419C209.158 107.419 210.612 105.967 210.612 104.176C210.612 102.385 209.158 100.934 207.366 100.934C205.573 100.934 204.119 102.385 204.119 104.176C204.119 105.967 205.573 107.419 207.366 107.419Z" fill="#435AA8"/>
<path d="M207.366 107.969C205.275 107.969 203.569 106.265 203.569 104.176C203.569 102.088 205.275 100.384 207.366 100.384C209.456 100.384 211.162 102.088 211.162 104.176C211.162 106.265 209.456 107.969 207.366 107.969ZM207.366 101.483C205.88 101.483 204.67 102.692 204.67 104.176C204.67 105.66 205.88 106.869 207.366 106.869C208.851 106.869 210.061 105.66 210.061 104.176C210.061 102.692 208.851 101.483 207.366 101.483Z" fill="#54C9F1"/>
<path d="M204.34 104.891C205.114 104.891 205.743 104.263 205.743 103.489C205.743 102.715 205.114 102.088 204.34 102.088C203.565 102.088 202.937 102.715 202.937 103.489C202.937 104.263 203.565 104.891 204.34 104.891Z" fill="white"/>
<path d="M207.173 97.1687C204.587 97.1687 202.469 99.5596 202.469 102.473H211.877C211.877 99.5596 209.759 97.1687 207.173 97.1687Z" fill="#F6904E"/>
<path d="M216.306 103.05H202.249C201.946 103.05 201.699 102.802 201.699 102.5C201.699 102.198 201.946 101.95 202.249 101.95H216.306C216.609 101.95 216.856 102.198 216.856 102.5C216.856 102.802 216.609 103.05 216.306 103.05Z" fill="#552659"/>
<path d="M207.173 111.266C203.982 111.266 201.369 107.969 201.369 103.929C201.369 99.8893 203.982 96.5916 207.173 96.5916C210.364 96.5916 212.977 99.8893 212.977 103.929C212.977 107.969 210.364 111.266 207.173 111.266ZM207.173 97.7183C204.587 97.7183 202.469 100.521 202.469 103.956C202.469 107.392 204.587 110.195 207.173 110.195C209.759 110.195 211.877 107.392 211.877 103.956C211.877 100.521 209.759 97.7183 207.173 97.7183Z" fill="#552659"/>
<path d="M193.611 110.744C196.513 110.744 198.865 107.705 198.865 103.957C198.865 100.208 196.513 97.1687 193.611 97.1687C190.709 97.1687 188.357 100.208 188.357 103.957C188.357 107.705 190.709 110.744 193.611 110.744Z" fill="white"/>
<path d="M193.611 111.266C190.42 111.266 187.807 107.969 187.807 103.929C187.807 99.8893 190.42 96.5916 193.611 96.5916C196.802 96.5916 199.415 99.8893 199.415 103.929C199.415 107.969 196.83 111.266 193.611 111.266ZM193.611 97.7183C191.025 97.7183 188.907 100.521 188.907 103.956C188.907 107.392 191.025 110.195 193.611 110.195C196.197 110.195 198.315 107.392 198.315 103.956C198.315 100.521 196.224 97.7183 193.611 97.7183Z" fill="#552659"/>
<path d="M193.749 107.419C195.541 107.419 196.995 105.967 196.995 104.176C196.995 102.385 195.541 100.934 193.749 100.934C191.956 100.934 190.503 102.385 190.503 104.176C190.503 105.967 191.956 107.419 193.749 107.419Z" fill="#435AA8"/>
<path d="M193.749 107.969C191.658 107.969 189.952 106.265 189.952 104.176C189.952 102.088 191.658 100.384 193.749 100.384C195.839 100.384 197.545 102.088 197.545 104.176C197.545 106.265 195.867 107.969 193.749 107.969ZM193.749 101.483C192.263 101.483 191.053 102.692 191.053 104.176C191.053 105.66 192.263 106.869 193.749 106.869C195.234 106.869 196.444 105.66 196.444 104.176C196.444 102.692 195.234 101.483 193.749 101.483Z" fill="#54C9F1"/>
<path d="M191.19 104.891C191.965 104.891 192.593 104.263 192.593 103.489C192.593 102.715 191.965 102.088 191.19 102.088C190.415 102.088 189.787 102.715 189.787 103.489C189.787 104.263 190.415 104.891 191.19 104.891Z" fill="white"/>
<path d="M193.611 97.7183C196.197 97.7183 198.315 99.7793 198.315 102.308H188.907C188.935 99.7793 191.025 97.7183 193.611 97.7183Z" fill="#F6904E"/>
<path d="M198.59 103.022H184.533C184.23 103.022 183.983 102.775 183.983 102.472C183.983 102.17 184.23 101.923 184.533 101.923H198.59C198.893 101.923 199.14 102.17 199.14 102.472C199.14 102.775 198.893 103.022 198.59 103.022Z" fill="#552659"/>
<path d="M193.611 111.266C190.42 111.266 187.807 107.969 187.807 103.929C187.807 99.8893 190.42 96.5916 193.611 96.5916C196.802 96.5916 199.415 99.8893 199.415 103.929C199.415 107.969 196.83 111.266 193.611 111.266ZM193.611 97.7183C191.025 97.7183 188.907 100.521 188.907 103.956C188.907 107.392 191.025 110.195 193.611 110.195C196.197 110.195 198.315 107.392 198.315 103.956C198.315 100.521 196.224 97.7183 193.611 97.7183Z" fill="#552659"/>
<path d="M200.736 153.34L199.278 154.192C199.195 154.247 199.058 154.247 198.975 154.192L197.517 153.34C196.362 152.653 195.674 151.664 195.674 150.619V149.685C195.674 149.575 195.812 149.52 195.949 149.52C196.94 149.63 197.93 149.41 198.645 148.915L198.948 148.696C199.03 148.641 199.195 148.641 199.278 148.696L199.581 148.915C200.296 149.41 201.286 149.63 202.276 149.52C202.414 149.493 202.552 149.575 202.552 149.685V150.619C202.579 151.664 201.919 152.653 200.736 153.34Z" fill="#EE4A8A"/>
<path d="M197.627 114.124C198.433 114.124 199.085 113.891 199.085 113.602C199.085 113.314 198.433 113.08 197.627 113.08C196.822 113.08 196.169 113.314 196.169 113.602C196.169 113.891 196.822 114.124 197.627 114.124Z" fill="white"/>
<path d="M220.35 120.802C219.305 120.802 218.479 121.654 218.479 122.671C218.479 123.688 219.332 124.54 220.35 124.54H237.103C237.461 123.331 237.708 122.066 237.846 120.775H220.35V120.802Z" fill="#D34954"/>
<path d="M218.479 115.224C218.479 116.268 219.332 117.092 220.35 117.092H237.956C237.901 115.828 237.708 114.564 237.433 113.327H220.322C219.305 113.327 218.479 114.179 218.479 115.224Z" fill="#D34954"/>
<path d="M179.031 117.094C180.077 117.094 180.902 116.242 180.902 115.225C180.902 114.181 180.049 113.356 179.031 113.356H169.678C169.403 114.593 169.238 115.83 169.156 117.121H179.031V117.094Z" fill="#D34954"/>
<path d="M180.929 122.671C180.929 121.627 180.077 120.802 179.059 120.802H169.293C169.431 122.094 169.678 123.331 170.036 124.567H179.031C180.077 124.567 180.929 123.715 180.929 122.671Z" fill="#D34954"/>
<path d="M91.9925 253.343L186.486 154.521L280.98 253.343C281.338 253.728 281.613 254.14 281.833 254.58C282.631 252.876 282.355 250.788 280.98 249.359L186.486 150.537L91.9925 249.359C90.617 250.788 90.3419 252.876 91.1397 254.58C91.3598 254.14 91.6348 253.728 91.9925 253.343Z" fill="#3B3F53"/>
<path d="M186.541 148.338V151.499C186.541 154.522 184.066 156.995 181.04 156.995H180.352C177.326 156.995 174.85 154.522 174.85 151.499V148.338" fill="#F6904E"/>
<path d="M181.039 157.544H180.352C177.023 157.544 174.3 154.824 174.3 151.499V148.338C174.3 148.036 174.547 147.789 174.85 147.789C175.153 147.789 175.4 148.036 175.4 148.338V151.499C175.4 154.219 177.628 156.445 180.352 156.445H181.039C183.763 156.445 185.991 154.219 185.991 151.499V148.338C185.991 148.036 186.239 147.789 186.541 147.789C186.844 147.789 187.091 148.036 187.091 148.338V151.499C187.091 154.824 184.396 157.544 181.039 157.544Z" fill="#552659"/>
<path d="M173.447 162.656V165.816C173.447 168.839 170.971 171.313 167.945 171.313H167.257C164.231 171.313 161.756 168.839 161.756 165.816V162.656" fill="#F6904E"/>
<path d="M167.945 171.862H167.257C163.929 171.862 161.205 169.141 161.205 165.816V162.656C161.205 162.354 161.453 162.106 161.756 162.106C162.058 162.106 162.306 162.354 162.306 162.656V165.816C162.306 168.537 164.534 170.763 167.257 170.763H167.945C170.669 170.763 172.897 168.537 172.897 165.816V162.656C172.897 162.354 173.144 162.106 173.447 162.106C173.75 162.106 173.997 162.354 173.997 162.656V165.816C173.997 169.169 171.274 171.862 167.945 171.862Z" fill="#552659"/>
<path d="M235.452 342.602C243.049 342.602 249.207 340.941 249.207 338.892C249.207 336.843 243.049 335.182 235.452 335.182C227.856 335.182 221.698 336.843 221.698 338.892C221.698 340.941 227.856 342.602 235.452 342.602Z" fill="#85D15D"/>
<path d="M277.431 332.269C281.457 332.269 284.721 331.383 284.721 330.291C284.721 329.198 281.457 328.312 277.431 328.312C273.405 328.312 270.141 329.198 270.141 330.291C270.141 331.383 273.405 332.269 277.431 332.269Z" fill="#85D15D"/>
<path d="M231.629 312.62L259.11 315.094V310.174L231.629 312.62Z" fill="#EFBF81"/>
<path d="M126.516 251.805L138.345 254.992L139.721 250.513L126.516 251.805Z" fill="#EFBF81"/>
<path d="M115.513 295.335V298.083L139.721 295.335H115.513Z" fill="#EFBF81"/>
<path d="M235.452 281.594H254.159L254.214 279.176L235.452 280.138V281.594Z" fill="#EFBF81"/>
<path d="M221.698 235.701L225.109 239.685L232.977 235.701H221.698Z" fill="#EFBF81"/>
<path d="M234.792 298.083C236.539 298.083 237.956 297.468 237.956 296.709C237.956 295.95 236.539 295.335 234.792 295.335C233.045 295.335 231.629 295.95 231.629 296.709C231.629 297.468 233.045 298.083 234.792 298.083Z" fill="#EFBF81"/>
<path d="M118.704 266.754C120.451 266.754 121.867 266.139 121.867 265.38C121.867 264.621 120.451 264.006 118.704 264.006C116.957 264.006 115.54 264.621 115.54 265.38C115.54 266.139 116.957 266.754 118.704 266.754Z" fill="#EFBF81"/>
<path d="M163.544 221.685C165.291 221.685 166.707 221.07 166.707 220.311C166.707 219.552 165.291 218.937 163.544 218.937C161.796 218.937 160.38 219.552 160.38 220.311C160.38 221.07 161.796 221.685 163.544 221.685Z" fill="#EFBF81"/>
</g>
<defs>
<clipPath id="clip0">
<rect width="219" height="265" fill="white" transform="translate(77 82.7135)"/>
</clipPath>
<clipPath id="clip1">
<rect width="40.8815" height="27.2544" fill="white" transform="translate(221 151.94) rotate(-31.2804)"/>
</clipPath>
</defs>
</svg>
