<svg width="936" height="446" viewBox="0 0 936 446" fill="none" xmlns="http://www.w3.org/2000/svg">
<path d="M699.879 262.18L581.767 244.972L463.66 262.18L345.553 244.972L227.441 262.18L60.359 445.649L262.009 428.441L463.66 445.649L665.31 428.441L866.961 445.649L699.879 262.18Z" fill="#F5F5F5"/>
<path d="M232.83 403.425L2 424.074L193.259 203.929L328.457 183.281L232.83 403.425Z" fill="#F5F5F5"/>
<path d="M463.66 424.074L232.83 403.425L328.457 183.281L463.66 203.929V424.074Z" fill="white"/>
<path d="M694.49 403.425L463.66 424.074V203.929L598.863 183.281L694.49 403.425Z" fill="#F5F5F5"/>
<path d="M925.32 424.074L694.49 403.425L598.863 183.281L734.061 203.929L925.32 424.074Z" fill="white"/>
<g style="mix-blend-mode:multiply">
<path d="M745.078 216.61L639.496 276.824L465.181 321.789L388.798 254.419L433.497 199.319L463.66 203.7L602.399 181.628L733.902 203.7L745.078 216.61Z" fill="#E7E7E7"/>
</g>
<path d="M50.2731 368.511L272.007 313.24L298.108 333.41L252.922 357.171L178.794 408.259L2.30649 424.074L50.2731 368.511Z" fill="#E7E7E7"/>
<g style="mix-blend-mode:multiply">
<path d="M894.211 388.265L881.453 373.578L819.436 362.722L741.439 260.754L767.907 242.886L758.909 232.529L724.756 255.583L649.988 306.141L467.037 362.535L334.215 266.57L397.982 193.898L380.725 191.263L313.127 268.3L463.326 376.816L658.975 316.504L728.998 269.158L797.653 358.912L669.899 336.549L667.212 336.081L465.302 401.648L286.128 278.497L259.528 285.087L202.109 202.572L193.259 203.929L188.443 209.474L243.782 288.995L85.0879 328.436L70.9179 344.75L258.329 298.168L282.083 292.28L341.603 333.192L217.401 404.808L232.83 403.425L244.641 404.48L353.77 341.559L462.018 415.956L668.788 348.809L894.211 388.265Z" fill="#E7E7E7"/>
</g>
<path d="M734.061 203.929L598.858 183.281L463.66 203.929L328.462 183.281L193.259 203.929L2 424.074L232.83 403.425L463.66 424.074L694.49 403.425L925.32 424.074L734.061 203.929Z" stroke="#E7E7E7" stroke-width="3" stroke-miterlimit="10" stroke-linecap="round" stroke-linejoin="round"/>
<path d="M274.73 207.521L274.736 207.515L287.696 194.493C303.807 188.691 315.319 174.585 315.319 157.975C315.319 136.133 295.44 118.61 271.169 118.61C246.897 118.61 227.018 136.133 227.018 157.975C227.018 174.586 238.531 188.692 254.695 194.494L267.654 207.515C269.598 209.468 272.768 209.46 274.73 207.521Z" fill="white" stroke="#E7E7E7" stroke-width="2"/>
<g clip-path="url(#clip0)">
<path d="M272.087 147.374L283.879 132.911C284.975 131.568 286.875 131.28 288.325 132.175C289.324 132.783 289.904 133.871 289.904 135.023V147.662L272.087 147.374Z" fill="#FC924B"/>
<path d="M289.904 148.142L272.055 147.822C271.894 147.822 271.733 147.726 271.636 147.566C271.572 147.406 271.572 147.214 271.701 147.086L283.493 132.655C284.717 131.152 286.908 130.8 288.551 131.824C289.678 132.527 290.355 133.743 290.355 135.087V147.726C290.355 147.854 290.291 147.982 290.226 148.046C290.13 148.11 290.033 148.142 289.904 148.142ZM273.022 146.926L289.421 147.214V135.055C289.421 134.031 288.905 133.135 288.035 132.591C286.779 131.792 285.104 132.079 284.169 133.231L273.022 146.926Z" fill="#552659"/>
<path d="M278.241 142.351L284.878 134.223C285.49 133.487 286.553 133.295 287.391 133.807C287.939 134.159 288.293 134.767 288.293 135.407V142.511L278.241 142.351Z" fill="#FB7440"/>
<path d="M271.991 147.374L260.199 132.943C259.103 131.6 257.203 131.312 255.753 132.207C254.754 132.815 254.142 133.903 254.142 135.055V147.694L271.991 147.374Z" fill="#FC924B"/>
<path d="M254.142 148.142C254.013 148.142 253.916 148.11 253.82 148.014C253.723 147.918 253.691 147.822 253.691 147.694V135.055C253.691 133.743 254.367 132.527 255.495 131.792C257.17 130.768 259.329 131.12 260.553 132.655L272.345 147.118C272.442 147.246 272.474 147.438 272.41 147.598C272.345 147.758 272.184 147.854 271.991 147.854L254.142 148.142C254.174 148.142 254.174 148.142 254.142 148.142ZM257.557 132.143C257.009 132.143 256.461 132.303 255.978 132.591C255.141 133.103 254.625 134.031 254.625 135.055V147.214L271.024 146.926L259.844 133.231C259.264 132.495 258.427 132.143 257.557 132.143Z" fill="#552659"/>
<path d="M265.837 142.351L259.2 134.223C258.588 133.487 257.525 133.295 256.687 133.807C256.139 134.159 255.785 134.767 255.785 135.407V142.511L265.837 142.351Z" fill="#FB7440"/>
<path d="M272.023 184.3C288.215 184.3 301.342 173.799 301.342 160.845C301.342 147.892 288.215 137.391 272.023 137.391C255.831 137.391 242.704 147.892 242.704 160.845C242.704 173.799 255.831 184.3 272.023 184.3Z" fill="#FC924B"/>
<path d="M272.023 184.78C255.592 184.78 242.253 174.06 242.253 160.845C242.253 147.63 255.624 136.911 272.023 136.911C288.422 136.911 301.793 147.63 301.793 160.845C301.793 174.06 288.454 184.78 272.023 184.78ZM272.023 137.839C256.107 137.839 243.188 148.174 243.188 160.845C243.188 173.516 256.139 183.852 272.055 183.852C287.971 183.852 300.89 173.548 300.89 160.845C300.89 148.142 287.939 137.839 272.023 137.839Z" fill="#552659"/>
<path d="M272.023 177.612C284.354 177.612 294.35 168.687 294.35 157.678C294.35 146.668 284.354 137.743 272.023 137.743C259.692 137.743 249.696 146.668 249.696 157.678C249.696 168.687 259.692 177.612 272.023 177.612Z" fill="#FFB566"/>
<path d="M272.023 184.3C288.215 184.3 301.342 173.799 301.342 160.845C301.342 147.892 288.215 137.391 272.023 137.391C255.831 137.391 242.704 147.892 242.704 160.845C242.704 173.799 255.831 184.3 272.023 184.3Z" fill="#FC924B"/>
<path d="M272.023 184.78C255.592 184.78 242.253 174.06 242.253 160.845C242.253 147.63 255.624 136.911 272.023 136.911C288.422 136.911 301.793 147.63 301.793 160.845C301.793 174.06 288.454 184.78 272.023 184.78ZM272.023 137.839C256.107 137.839 243.188 148.174 243.188 160.845C243.188 173.516 256.139 183.852 272.055 183.852C287.971 183.852 300.89 173.548 300.89 160.845C300.89 148.142 287.939 137.839 272.023 137.839Z" fill="#552659"/>
<path d="M272.023 184.78C255.592 184.78 242.253 174.06 242.253 160.845C242.253 147.63 255.624 136.911 272.023 136.911C288.422 136.911 301.793 147.63 301.793 160.845C301.793 174.06 288.454 184.78 272.023 184.78ZM272.023 137.839C256.107 137.839 243.188 148.174 243.188 160.845C243.188 173.516 256.139 183.852 272.055 183.852C287.971 183.852 300.89 173.548 300.89 160.845C300.89 148.142 287.939 137.839 272.023 137.839Z" fill="#552659"/>
<path d="M288.003 160.653H300.89C300.89 148.174 289.099 138.863 273.634 137.903V147.31C273.634 154.798 280.464 160.653 288.003 160.653Z" fill="#FFB566"/>
<path d="M269.123 147.31V137.903C254.625 138.863 243.188 148.174 243.188 160.653H256.075C263.614 160.653 269.123 154.798 269.123 147.31Z" fill="#FFB566"/>
<path d="M287.939 160.557V158.446C287.939 158.03 288.293 157.678 288.712 157.678H301.019V161.293H288.712C288.261 161.325 287.939 160.973 287.939 160.557Z" fill="#D44954"/>
<path d="M287.939 164.333C287.939 163.341 288.744 162.509 289.775 162.509H301.019L300.794 166.125H289.775C288.744 166.125 287.939 165.325 287.939 164.333Z" fill="#D44954"/>
<path d="M256.139 160.557V158.446C256.139 158.03 255.785 157.678 255.366 157.678H243.059V161.293H255.366C255.785 161.325 256.139 160.973 256.139 160.557Z" fill="#D44954"/>
<path d="M256.139 164.333C256.139 163.341 255.334 162.509 254.303 162.509H243.059L243.284 166.125H254.303C255.334 166.125 256.139 165.325 256.139 164.333Z" fill="#D44954"/>
<path d="M272.023 184.78C255.592 184.78 242.253 174.06 242.253 160.845C242.253 147.63 255.624 136.911 272.023 136.911C288.422 136.911 301.793 147.63 301.793 160.845C301.793 174.06 288.454 184.78 272.023 184.78ZM272.023 137.839C256.107 137.839 243.188 148.174 243.188 160.845C243.188 173.516 256.139 183.852 272.055 183.852C287.971 183.852 300.89 173.548 300.89 160.845C300.89 148.142 287.939 137.839 272.023 137.839Z" fill="#552659"/>
<path d="M272.022 176.171C278.623 176.171 283.975 172.275 283.975 167.468C283.975 162.661 278.623 158.765 272.022 158.765C265.421 158.765 260.069 162.661 260.069 167.468C260.069 172.275 265.421 176.171 272.022 176.171Z" fill="white"/>
<path d="M272.023 176.62C265.193 176.62 259.619 172.525 259.619 167.469C259.619 162.413 265.193 158.318 272.023 158.318C278.853 158.318 284.427 162.413 284.427 167.469C284.427 172.525 278.853 176.62 272.023 176.62ZM272.023 159.214C265.708 159.214 260.553 162.893 260.553 167.437C260.553 171.981 265.708 175.66 272.023 175.66C278.338 175.66 283.493 171.981 283.493 167.437C283.493 162.893 278.338 159.214 272.023 159.214Z" fill="#552659"/>
<path d="M272.023 166.701C274.407 166.701 276.34 165.283 276.34 163.533C276.34 161.784 274.407 160.365 272.023 160.365C269.639 160.365 267.706 161.784 267.706 163.533C267.706 165.283 269.639 166.701 272.023 166.701Z" fill="#552659"/>
<path d="M270.38 163.341C271.27 163.341 271.991 162.883 271.991 162.317C271.991 161.752 271.27 161.293 270.38 161.293C269.49 161.293 268.769 161.752 268.769 162.317C268.769 162.883 269.49 163.341 270.38 163.341Z" fill="white"/>
<path d="M276.082 170.349C273.602 170.349 271.572 168.333 271.572 165.869V165.197C271.572 164.941 271.765 164.749 272.023 164.749C272.281 164.749 272.474 164.941 272.474 165.197V165.869C272.474 167.821 274.085 169.421 276.05 169.421C277.5 169.421 278.66 167.949 278.66 166.157C278.66 165.901 278.853 165.709 279.111 165.709H280.239C280.496 165.709 280.69 165.901 280.69 166.157C280.69 166.413 280.496 166.605 280.239 166.605H279.53C279.401 168.717 277.887 170.349 276.082 170.349Z" fill="#552659"/>
<path d="M267.996 170.349C266.159 170.349 264.677 168.717 264.484 166.637H263.775C263.517 166.637 263.324 166.445 263.324 166.189C263.324 165.933 263.517 165.741 263.775 165.741H264.903C265.16 165.741 265.354 165.933 265.354 166.189C265.354 167.981 266.514 169.453 267.963 169.453C269.929 169.453 271.54 167.853 271.54 165.901V165.229C271.54 164.973 271.733 164.781 271.991 164.781C272.248 164.781 272.442 164.973 272.442 165.229V165.901C272.506 168.333 270.509 170.349 267.996 170.349Z" fill="#552659"/>
<path d="M279.659 142.703H281.914C282.494 142.703 282.977 143.183 282.977 143.759C282.977 144.335 282.494 144.815 281.914 144.815H279.659C279.079 144.815 278.595 144.335 278.595 143.759C278.595 143.183 279.079 142.703 279.659 142.703Z" fill="#552659"/>
<path d="M276.179 151.374C276.179 154.254 278.144 157.038 280.593 157.038C283.041 157.038 284.975 154.254 284.975 151.374H276.179Z" fill="white"/>
<path d="M280.561 158.061C277.919 158.061 275.696 155.277 275.696 151.95C275.696 151.694 275.889 151.502 276.147 151.502H284.942C285.2 151.502 285.393 151.694 285.393 151.95C285.426 155.277 283.203 158.061 280.561 158.061ZM276.63 152.398C276.823 154.957 278.563 157.133 280.561 157.133C282.558 157.133 284.298 154.957 284.491 152.398H276.63Z" fill="#552659"/>
<path d="M277.919 151.374C277.854 151.374 277.854 152.046 277.854 152.27C277.854 153.774 279.079 155.086 280.561 155.086C282.075 155.086 283.267 153.678 283.267 152.206C283.267 151.982 283.235 151.374 283.203 151.374H277.919Z" fill="#2243F7"/>
<path d="M280.561 155.694C278.821 155.694 277.371 154.222 277.371 152.494C277.371 152.11 277.371 151.374 277.919 151.374H283.203C283.75 151.374 283.75 152.11 283.75 152.494C283.75 154.222 282.333 155.694 280.561 155.694ZM278.305 152.014C278.305 152.014 278.305 152.302 278.305 152.366C278.305 153.582 279.304 154.702 280.561 154.702C281.817 154.702 282.816 153.582 282.816 152.334C282.816 152.27 282.816 152.046 282.816 152.046H278.305V152.014Z" fill="#3CD4FF"/>
<path d="M282.752 153.838C283.41 153.838 283.944 153.308 283.944 152.654C283.944 152 283.41 151.47 282.752 151.47C282.093 151.47 281.559 152 281.559 152.654C281.559 153.308 282.093 153.838 282.752 153.838Z" fill="white"/>
<path d="M287.971 152.43H276.372C276.05 152.43 275.792 152.174 275.792 151.854C275.792 151.534 276.05 151.278 276.372 151.278H287.971C288.293 151.278 288.551 151.534 288.551 151.854C288.551 152.174 288.293 152.43 287.971 152.43Z" fill="#552659"/>
<path d="M284.975 152.334C284.717 152.334 284.524 152.142 284.524 151.886C284.524 149.038 282.752 146.702 280.593 146.702C278.434 146.702 276.662 149.038 276.662 151.886C276.662 152.142 276.469 152.334 276.211 152.334C275.954 152.334 275.76 152.142 275.76 151.886C275.76 148.526 277.951 145.775 280.625 145.775C283.299 145.775 285.426 148.494 285.426 151.886C285.426 152.11 285.232 152.334 284.975 152.334Z" fill="#552659"/>
<path d="M264.645 142.703H262.39C261.81 142.703 261.326 143.183 261.326 143.759C261.326 144.335 261.81 144.815 262.39 144.815H264.645C265.225 144.815 265.708 144.335 265.708 143.759C265.708 143.183 265.225 142.703 264.645 142.703Z" fill="#552659"/>
<path d="M259.103 151.374C259.103 154.254 261.068 157.038 263.516 157.038C265.933 157.038 267.93 154.254 267.93 151.374H259.103Z" fill="white"/>
<path d="M263.517 158.061C260.875 158.061 258.652 155.277 258.652 151.949C258.652 151.693 258.846 151.501 259.103 151.501H267.899C268.157 151.501 268.35 151.693 268.35 151.949C268.35 155.277 266.127 158.061 263.517 158.061ZM259.587 152.397C259.78 154.957 261.52 157.133 263.517 157.133C265.515 157.133 267.255 154.957 267.448 152.397H259.587Z" fill="#552659"/>
<path d="M266.126 151.374C266.191 151.374 266.191 152.046 266.191 152.27C266.191 153.774 264.966 155.086 263.484 155.086C261.97 155.086 260.778 153.678 260.778 152.206C260.778 151.982 260.81 151.374 260.842 151.374H266.126Z" fill="#2243F7"/>
<path d="M263.517 155.694C261.778 155.694 260.328 154.222 260.328 152.494C260.328 152.11 260.328 151.374 260.875 151.374H266.159C266.707 151.374 266.707 152.11 266.707 152.494C266.675 154.222 265.257 155.694 263.517 155.694ZM261.262 152.014C261.262 152.014 261.262 152.302 261.262 152.366C261.262 153.614 262.261 154.67 263.517 154.67C264.774 154.67 265.773 153.518 265.773 152.302C265.773 152.27 265.773 152.014 265.773 152.014H261.262Z" fill="#3CD4FF"/>
<path d="M261.294 153.838C261.953 153.838 262.486 153.308 262.486 152.654C262.486 152 261.953 151.47 261.294 151.47C260.636 151.47 260.102 152 260.102 152.654C260.102 153.308 260.636 153.838 261.294 153.838Z" fill="white"/>
<path d="M267.706 152.43H256.107C255.785 152.43 255.527 152.174 255.527 151.854C255.527 151.534 255.785 151.278 256.107 151.278H267.706C268.028 151.278 268.286 151.534 268.286 151.854C268.286 152.174 268.028 152.43 267.706 152.43Z" fill="#552659"/>
<path d="M267.899 152.334C267.641 152.334 267.448 152.142 267.448 151.886C267.448 149.038 265.676 146.702 263.517 146.702C261.359 146.702 259.587 149.038 259.587 151.886C259.587 152.142 259.393 152.334 259.136 152.334C258.878 152.334 258.685 152.142 258.685 151.886C258.685 148.526 260.875 145.775 263.549 145.775C266.224 145.775 268.35 148.494 268.35 151.886C268.35 152.11 268.157 152.334 267.899 152.334Z" fill="#552659"/>
</g>
<path d="M63.7815 394.669L63.7905 394.659L78.8834 379.545C97.7821 372.734 111.317 356.212 111.317 336.721C111.317 311.056 87.894 290.538 59.388 290.538C30.882 290.538 7.45892 311.056 7.45892 336.721C7.45892 356.213 20.9952 372.735 39.9557 379.546L55.0479 394.659C57.4499 397.065 61.3603 397.052 63.7815 394.669Z" fill="white" stroke="#E7E7E7" stroke-width="3"/>
<g clip-path="url(#clip1)">
<path d="M57.6212 337.314L69.5035 302.939C70.5652 299.728 74.5668 298.74 76.9759 301.086C77.4251 301.539 77.7925 302.033 78.0375 302.651L83.3866 315.66C85.2649 320.188 85.4283 325.293 83.9174 329.945L80.8958 339.29L57.6212 337.314Z" fill="#EEB38B"/>
<path d="M80.8142 339.784H80.7734L57.5396 337.808C57.3763 337.808 57.2538 337.726 57.1721 337.561C57.0904 337.438 57.0496 337.273 57.1313 337.108L69.0136 302.774C69.5444 301.127 70.8919 299.892 72.6069 299.44C74.281 299.028 76.0368 299.481 77.3026 300.716C77.7926 301.21 78.2009 301.786 78.4459 302.445L83.795 315.454C85.7141 320.106 85.8775 325.293 84.3258 330.11L81.3042 339.455C81.2225 339.661 81.0592 339.784 80.8142 339.784ZM58.2746 336.861L80.4467 338.755L83.3458 329.822C84.8158 325.252 84.6525 320.312 82.815 315.866L77.5476 302.857C77.3434 302.321 77.0168 301.868 76.6085 301.498C75.5876 300.51 74.1993 300.139 72.8519 300.469C71.5044 300.798 70.4427 301.786 69.9936 303.145L58.2746 336.861Z" fill="#552659"/>
<path d="M62.7661 332.004L71.0959 307.879C71.8309 305.656 74.6484 304.956 76.3225 306.562L76.8125 307.014L80.8141 316.771C82.1208 319.982 82.2433 323.523 81.1816 326.816L79.0583 333.362L62.7661 332.004Z" fill="#D49072"/>
<path d="M62.2354 337.314L50.3122 302.939C49.2914 299.769 45.2898 298.781 42.8807 301.086C42.4315 301.539 42.064 302.033 41.819 302.651L36.47 315.66C34.5916 320.188 34.4283 325.293 35.9391 329.945L38.9607 339.29L62.2354 337.314Z" fill="#EEB38B"/>
<path d="M39.0015 339.784C38.7973 339.784 38.5932 339.661 38.5115 339.455L35.4899 330.11C33.9382 325.334 34.1424 320.106 36.0207 315.454L41.3698 302.445C41.6556 301.786 42.0231 301.21 42.5131 300.716C43.7789 299.481 45.5347 299.028 47.2089 299.44C48.883 299.851 50.2305 301.086 50.8021 302.774L62.6844 337.108C62.7253 337.273 62.7253 337.438 62.6436 337.561C62.5619 337.685 62.4394 337.767 62.2761 337.808L39.0423 339.784H39.0015ZM46.0247 300.304C45.0039 300.304 43.9831 300.716 43.2481 301.457C42.8398 301.868 42.5131 302.321 42.3089 302.815L36.9599 315.866C35.1224 320.312 34.9591 325.252 36.429 329.822L39.3282 338.755L61.5003 336.861L49.8221 303.104C49.373 301.745 48.3113 300.757 46.9639 300.428C46.678 300.345 46.3514 300.304 46.0247 300.304Z" fill="#552659"/>
<path d="M57.0904 332.004L48.7197 307.879C47.9847 305.656 45.1673 304.956 43.4931 306.562L43.0031 307.014L39.0015 316.771C37.6949 319.982 37.5724 323.523 38.634 326.816L40.7573 333.362L57.0904 332.004Z" fill="#D49072"/>
<path d="M59.9078 375.765C75.7163 375.765 88.5315 364.172 88.5315 349.871C88.5315 335.569 75.7163 323.976 59.9078 323.976C44.0994 323.976 31.2841 335.569 31.2841 349.871C31.2841 364.172 44.0994 375.765 59.9078 375.765Z" fill="#D49072"/>
<path d="M59.9079 372.554C72.7396 372.554 83.1417 362.067 83.1417 349.13C83.1417 336.192 72.7396 325.705 59.9079 325.705C47.0762 325.705 36.6741 336.192 36.6741 349.13C36.6741 362.067 47.0762 372.554 59.9079 372.554Z" fill="#EEB38B"/>
<path d="M70.5243 326.199C64.6035 328.916 60.7244 333.486 60.7244 338.632C60.7244 346.989 70.9326 353.782 83.4682 353.782C85.0199 353.782 86.5307 353.699 87.9598 353.493C88.1232 352.382 88.2048 351.27 88.2048 350.159C88.2457 339.332 80.9366 330.069 70.5243 326.199Z" fill="#D49072"/>
<path d="M49.2506 326.199C55.1713 328.916 59.0504 333.486 59.0504 338.632C59.0504 346.989 48.8423 353.782 36.3066 353.782C34.755 353.782 33.2442 353.699 31.815 353.493C31.6517 352.382 31.57 351.27 31.57 350.159C31.57 339.332 38.8791 330.069 49.2506 326.199Z" fill="#D49072"/>
<path d="M59.9078 376.259C43.8606 376.259 30.7941 364.444 30.7941 349.871C30.7941 335.297 43.8606 323.482 59.9078 323.482C75.9551 323.482 89.0215 335.338 89.0215 349.871C89.0215 364.403 75.9551 376.259 59.9078 376.259ZM59.9078 324.47C44.3914 324.47 31.7741 335.873 31.7741 349.871C31.7741 363.868 44.3914 375.271 59.9078 375.271C75.4242 375.271 88.0415 363.868 88.0415 349.871C88.0415 335.873 75.4242 324.47 59.9078 324.47Z" fill="#552659"/>
<path d="M59.9078 375.765C75.7163 375.765 88.5315 364.172 88.5315 349.871C88.5315 335.569 75.7163 323.976 59.9078 323.976C44.0994 323.976 31.2841 335.569 31.2841 349.871C31.2841 364.172 44.0994 375.765 59.9078 375.765Z" fill="#EEB38B"/>
<path d="M59.9078 376.259C43.8606 376.259 30.7941 364.444 30.7941 349.871C30.7941 335.297 43.8606 323.482 59.9078 323.482C75.9551 323.482 89.0215 335.338 89.0215 349.871C89.0215 364.403 75.9551 376.259 59.9078 376.259ZM59.9078 324.47C44.3914 324.47 31.7741 335.873 31.7741 349.871C31.7741 363.868 44.3914 375.271 59.9078 375.271C75.4242 375.271 88.0415 363.868 88.0415 349.871C88.0415 335.873 75.4242 324.47 59.9078 324.47Z" fill="#552659"/>
<path d="M49.0056 349.253C52.8844 349.253 56.0288 346.083 56.0288 342.172C56.0288 338.261 52.8844 335.091 49.0056 335.091C45.1268 335.091 41.9824 338.261 41.9824 342.172C41.9824 346.083 45.1268 349.253 49.0056 349.253Z" fill="white"/>
<path d="M49.0055 349.747C44.8814 349.747 41.4923 346.371 41.4923 342.172C41.4923 337.973 44.8406 334.597 49.0055 334.597C53.1705 334.597 56.5188 338.014 56.5188 342.172C56.5188 346.33 53.1705 349.747 49.0055 349.747ZM49.0055 335.626C45.4123 335.626 42.5132 338.549 42.5132 342.172C42.5132 345.795 45.4123 348.718 49.0055 348.718C52.5988 348.718 55.4979 345.795 55.4979 342.172C55.4979 338.549 52.5988 335.626 49.0055 335.626Z" fill="#552659"/>
<path d="M70.8103 349.253C74.6891 349.253 77.8335 346.083 77.8335 342.172C77.8335 338.261 74.6891 335.091 70.8103 335.091C66.9314 335.091 63.787 338.261 63.787 342.172C63.787 346.083 66.9314 349.253 70.8103 349.253Z" fill="white"/>
<path d="M70.8102 349.747C66.6861 349.747 63.297 346.371 63.297 342.172C63.297 337.973 66.6861 334.638 70.8102 334.638C74.9343 334.638 78.3234 338.014 78.3234 342.213C78.3234 346.412 74.9343 349.747 70.8102 349.747ZM70.8102 335.626C67.217 335.626 64.3178 338.549 64.3178 342.172C64.3178 345.795 67.217 348.718 70.8102 348.718C74.4035 348.718 77.3026 345.795 77.3026 342.172C77.3026 338.549 74.4035 335.626 70.8102 335.626Z" fill="#552659"/>
<path d="M70.8102 346.083C72.9525 346.083 74.6893 344.332 74.6893 342.172C74.6893 340.012 72.9525 338.261 70.8102 338.261C68.6678 338.261 66.9311 340.012 66.9311 342.172C66.9311 344.332 68.6678 346.083 70.8102 346.083Z" fill="#552659"/>
<path d="M49.0056 346.083C51.148 346.083 52.8847 344.332 52.8847 342.172C52.8847 340.012 51.148 338.261 49.0056 338.261C46.8633 338.261 45.1265 340.012 45.1265 342.172C45.1265 344.332 46.8633 346.083 49.0056 346.083Z" fill="#552659"/>
<path d="M70.0344 342.213C71.0492 342.213 71.8719 341.568 71.8719 340.772C71.8719 339.977 71.0492 339.332 70.0344 339.332C69.0196 339.332 68.197 339.977 68.197 340.772C68.197 341.568 69.0196 342.213 70.0344 342.213Z" fill="white"/>
<path d="M49.9038 342.213C50.9186 342.213 51.7413 341.568 51.7413 340.772C51.7413 339.977 50.9186 339.332 49.9038 339.332C48.889 339.332 48.0663 339.977 48.0663 340.772C48.0663 341.568 48.889 342.213 49.9038 342.213Z" fill="white"/>
<path d="M72.8926 332.456H68.7685C67.9927 332.456 67.3394 331.839 67.3394 331.016C67.3394 330.233 67.9519 329.575 68.7685 329.575H72.8926C73.6684 329.575 74.3218 330.192 74.3218 331.016C74.2809 331.798 73.6684 332.456 72.8926 332.456Z" fill="white"/>
<path d="M51.0881 332.456H46.964C46.1882 332.456 45.5349 331.839 45.5349 331.016C45.5349 330.233 46.1473 329.575 46.964 329.575H51.0881C51.8639 329.575 52.5172 330.192 52.5172 331.016C52.4764 331.798 51.8639 332.456 51.0881 332.456Z" fill="white"/>
<path d="M54.6405 369.714C55.988 371.113 57.8663 371.978 59.9079 371.978C61.9904 371.978 63.8687 371.113 65.1753 369.714L63.6237 368.684C62.5212 369.343 61.2554 369.714 59.9079 369.714C58.5604 369.714 57.2946 369.343 56.1921 368.684L54.6405 369.714Z" fill="white"/>
<path d="M76.7315 354.728C76.7315 351.723 69.2183 349.253 59.9085 349.253C50.5986 349.253 43.0854 351.682 43.0854 354.728C43.0854 354.77 43.0854 354.811 43.0854 354.852C43.0038 354.934 42.8813 355.017 42.7996 355.099C42.7996 355.099 43.7387 357.24 44.9229 357.24H44.9637C45.1271 357.322 45.2904 357.446 45.4537 357.528V357.693C45.4537 363.991 47.1687 369.961 52.4361 369.961C55.9477 369.961 58.8468 365.72 59.3368 360.204C59.5002 360.204 59.7043 360.204 59.8676 360.204C59.9493 360.204 60.0718 360.204 60.1535 360.204C60.6435 365.72 63.5426 369.961 67.0542 369.961C72.3216 369.961 74.0366 363.991 74.0366 357.693C74.3632 357.528 74.6491 357.363 74.8941 357.199C75.2616 357.075 75.6291 356.746 75.9149 356.416C76.2415 356.046 76.4865 355.675 76.609 355.305C76.6499 355.181 76.6907 355.14 76.6907 355.14L76.6499 355.099C76.6907 354.934 76.7315 354.852 76.7315 354.728Z" fill="white"/>
<path d="M59.908 360.533L58.1522 365.597L55.8247 368.684L59.908 369.055L63.9096 368.684L61.5821 365.185L59.908 360.533Z" fill="#552659"/>
<path d="M57.0904 366.997L55.7838 368.684L59.867 369.714L63.8686 368.684L62.6436 366.873C61.8678 366.708 60.9695 366.585 60.0303 366.585C59.0095 366.585 57.9479 366.75 57.0904 366.997Z" fill="#EE4A8A"/>
<path d="M59.9079 359.504C58.3154 359.504 56.8863 358.557 56.2738 357.075L55.1713 354.44C54.3546 352.464 55.7838 350.282 57.9071 350.282H61.9495C64.0728 350.282 65.502 352.464 64.6853 354.44L63.5828 357.075C62.9295 358.557 61.4595 359.504 59.9079 359.504Z" fill="#552659"/>
<path d="M45.739 357.775H45.2081C43.779 357.775 42.5948 356.581 42.5948 355.14C42.5948 354.852 42.799 354.646 43.0848 354.646C43.3707 354.646 43.5748 354.852 43.5748 355.14C43.5748 356.046 44.3098 356.787 45.2081 356.787H45.739C46.0248 356.787 46.229 356.993 46.229 357.281C46.229 357.528 46.0248 357.775 45.739 357.775Z" fill="#552659"/>
<path d="M58.7645 353.411C60.0048 353.411 61.0103 352.987 61.0103 352.464C61.0103 351.941 60.0048 351.517 58.7645 351.517C57.5242 351.517 56.5187 351.941 56.5187 352.464C56.5187 352.987 57.5242 353.411 58.7645 353.411Z" fill="white"/>
<path d="M52.7213 370.455C47.9848 370.455 45.249 365.803 45.249 357.693C45.249 357.404 45.4531 357.199 45.739 357.199C46.0248 357.199 46.2289 357.404 46.2289 357.693C46.2289 361.233 46.8414 369.467 52.7213 369.467C56.3146 369.467 59.2137 364.568 59.2137 358.557C59.2137 358.269 59.4179 358.063 59.7037 358.063C59.9896 358.063 60.1937 358.269 60.1937 358.557C60.1937 365.103 56.8454 370.455 52.7213 370.455Z" fill="#552659"/>
<path d="M67.0945 370.455C62.9704 370.455 59.6221 365.103 59.6221 358.516C59.6221 358.228 59.8263 358.022 60.1121 358.022C60.3979 358.022 60.6021 358.228 60.6021 358.516C60.6021 364.526 63.5012 369.425 67.0945 369.425C72.9335 369.425 73.5869 361.192 73.5869 357.651V357.198C73.5869 356.91 73.791 356.704 74.0769 356.704H74.6077C75.506 356.704 76.241 355.963 76.241 355.058C76.241 354.77 76.4452 354.564 76.731 354.564C77.0168 354.564 77.221 354.77 77.221 355.058C77.221 356.499 76.0368 357.693 74.6077 357.693C74.5669 365.803 71.8311 370.455 67.0945 370.455Z" fill="#552659"/>
<path d="M59.9078 372.472C57.7437 372.472 55.7429 371.607 54.2729 370.043C54.0688 369.837 54.0688 369.508 54.2729 369.343C54.4771 369.137 54.8038 369.137 54.9671 369.343C56.2737 370.702 58.0295 371.443 59.9078 371.443C61.7861 371.443 63.5419 370.702 64.8486 369.343C65.0527 369.137 65.3386 369.137 65.5427 369.343C65.7469 369.549 65.7469 369.837 65.5427 370.043C64.0728 371.607 62.072 372.472 59.9078 372.472Z" fill="#552659"/>
<path d="M59.908 370.208C58.5196 370.208 57.1313 369.837 55.9472 369.137C55.7022 369.014 55.6205 368.684 55.7839 368.437C55.9064 368.19 56.233 368.108 56.478 368.273C57.5397 368.89 58.7238 369.22 59.9488 369.22C61.1738 369.22 62.3579 368.89 63.4196 368.273C63.6646 368.149 63.9504 368.232 64.1137 368.437C64.2362 368.684 64.1545 368.973 63.9504 369.137C62.6846 369.837 61.2963 370.208 59.908 370.208Z" fill="#552659"/>
<path d="M66.4412 361.398C66.7795 361.398 67.0537 361.121 67.0537 360.78C67.0537 360.439 66.7795 360.163 66.4412 360.163C66.103 360.163 65.8287 360.439 65.8287 360.78C65.8287 361.121 66.103 361.398 66.4412 361.398Z" fill="#552659"/>
<path d="M68.197 363.827C68.5352 363.827 68.8094 363.55 68.8094 363.209C68.8094 362.868 68.5352 362.592 68.197 362.592C67.8587 362.592 67.5845 362.868 67.5845 363.209C67.5845 363.55 67.8587 363.827 68.197 363.827Z" fill="#552659"/>
<path d="M69.871 361.151C70.2093 361.151 70.4835 360.874 70.4835 360.533C70.4835 360.192 70.2093 359.916 69.871 359.916C69.5327 359.916 69.2585 360.192 69.2585 360.533C69.2585 360.874 69.5327 361.151 69.871 361.151Z" fill="#552659"/>
<path d="M53.4563 361.398C53.7945 361.398 54.0688 361.121 54.0688 360.78C54.0688 360.439 53.7945 360.163 53.4563 360.163C53.118 360.163 52.8438 360.439 52.8438 360.78C52.8438 361.121 53.118 361.398 53.4563 361.398Z" fill="#552659"/>
<path d="M51.7414 363.827C52.0797 363.827 52.3539 363.55 52.3539 363.209C52.3539 362.868 52.0797 362.592 51.7414 362.592C51.4032 362.592 51.1289 362.868 51.1289 363.209C51.1289 363.55 51.4032 363.827 51.7414 363.827Z" fill="#552659"/>
<path d="M50.0672 361.151C50.4054 361.151 50.6797 360.874 50.6797 360.533C50.6797 360.192 50.4054 359.916 50.0672 359.916C49.7289 359.916 49.4547 360.192 49.4547 360.533C49.4547 360.874 49.7289 361.151 50.0672 361.151Z" fill="#552659"/>
</g>
<g style="mix-blend-mode:multiply">
<path d="M351.334 400.914C370.761 400.914 386.51 395.504 386.51 388.831C386.51 382.158 370.761 376.748 351.334 376.748C331.907 376.748 316.159 382.158 316.159 388.831C316.159 395.504 331.907 400.914 351.334 400.914Z" fill="#E7E7E7"/>
</g>
<g style="mix-blend-mode:multiply" opacity="0.7">
<path d="M211.209 343.007C218.097 343.007 223.68 341.065 223.68 338.669C223.68 336.273 218.097 334.331 211.209 334.331C204.321 334.331 198.738 336.273 198.738 338.669C198.738 341.065 204.321 343.007 211.209 343.007Z" fill="#E7E7E7"/>
</g>
<g style="mix-blend-mode:multiply" opacity="0.7">
<path d="M59.3859 409.158C66.2735 409.158 71.857 407.216 71.857 404.821C71.857 402.425 66.2735 400.483 59.3859 400.483C52.4982 400.483 46.9147 402.425 46.9147 404.821C46.9147 407.216 52.4982 409.158 59.3859 409.158Z" fill="#E7E7E7"/>
</g>
<g style="mix-blend-mode:multiply">
<path d="M883.568 411.327C890.456 411.327 896.04 409.385 896.04 406.989C896.04 404.594 890.456 402.652 883.568 402.652C876.681 402.652 871.097 404.594 871.097 406.989C871.097 409.385 876.681 411.327 883.568 411.327Z" fill="#E7E7E7"/>
</g>
<g style="mix-blend-mode:multiply">
<path d="M585.344 405.905C592.232 405.905 597.816 403.963 597.816 401.567C597.816 399.171 592.232 397.229 585.344 397.229C578.457 397.229 572.873 399.171 572.873 401.567C572.873 403.963 578.457 405.905 585.344 405.905Z" fill="#E7E7E7"/>
</g>
<g style="mix-blend-mode:multiply" opacity="0.7">
<path d="M269.769 222.633C276.657 222.633 282.24 220.691 282.24 218.295C282.24 215.899 276.657 213.957 269.769 213.957C262.882 213.957 257.298 215.899 257.298 218.295C257.298 220.691 262.882 222.633 269.769 222.633Z" fill="#E7E7E7"/>
</g>
<g style="mix-blend-mode:multiply">
<path d="M497 286C503.627 286 509 284.209 509 282C509 279.791 503.627 278 497 278C490.373 278 485 279.791 485 282C485 284.209 490.373 286 497 286Z" fill="#E7E7E7"/>
</g>
<g clip-path="url(#clip2)">
<path d="M351.503 262C319.026 262 298.581 296.606 314.536 324.588L350.846 388.277C351.403 389.25 352.823 389.239 353.364 388.262L388.765 324.078C404.183 296.101 383.718 262 351.503 262ZM351.503 325.497C340.674 325.497 331.895 316.815 331.895 306.105C331.895 295.394 340.674 286.712 351.503 286.712C362.333 286.712 371.112 295.394 371.112 306.105C371.112 316.815 362.333 325.497 351.503 325.497Z" fill="#FF5231"/>
<path d="M351.503 345.878C336.857 345.878 323.935 338.604 316.207 327.52L350.84 388.272C351.397 389.244 352.817 389.234 353.358 388.257L387.077 327.125C379.38 338.438 366.322 345.878 351.503 345.878Z" fill="#EF4525"/>
</g>
<path d="M887.613 394.312L887.619 394.306L902.791 379.113C921.583 372.383 935 356.001 935 336.721C935 311.387 911.859 291.038 883.571 291.038C855.282 291.038 832.142 311.387 832.142 336.721C832.142 356.001 845.559 372.384 864.413 379.113L879.584 394.306C881.789 396.514 885.385 396.506 887.613 394.312Z" fill="white" stroke="#E7E7E7" stroke-width="2"/>
<g clip-path="url(#clip3)">
<path d="M857.645 324.826C859.729 332.199 866.107 336.851 871.89 335.217C877.673 333.582 880.671 326.28 878.587 318.906C876.503 311.533 870.126 306.881 864.343 308.515C858.559 310.15 855.561 317.452 857.645 324.826Z" fill="#EEB38B"/>
<path d="M869.54 336.016C864.28 336.016 859.021 331.573 857.117 324.954C855.031 317.337 858.205 309.72 864.28 307.997C867.273 307.181 870.447 307.816 873.258 309.901C876.069 311.896 878.154 315.07 879.152 318.788C881.328 326.405 878.154 334.022 872.079 335.744C871.263 335.926 870.356 336.016 869.54 336.016ZM866.729 308.722C866.003 308.722 865.187 308.813 864.462 308.994C859.021 310.627 856.21 317.609 858.205 324.682C860.2 331.755 866.275 336.198 871.807 334.656C877.338 333.115 880.149 326.133 878.154 319.06C877.157 315.614 875.252 312.712 872.623 310.808C870.719 309.448 868.724 308.722 866.729 308.722Z" fill="#552659"/>
<g opacity="0.5">
<path opacity="0.5" d="M860.612 323.987C862.097 329.24 866.66 332.549 870.805 331.377C874.949 330.206 877.105 324.998 875.62 319.745C874.136 314.492 869.572 311.183 865.428 312.355C861.283 313.526 859.127 318.734 860.612 323.987Z" fill="white"/>
</g>
<path d="M888.568 318.873C886.484 326.247 889.482 333.549 895.265 335.184C901.048 336.818 907.426 332.166 909.51 324.793C911.594 317.419 908.596 310.117 902.813 308.482C897.03 306.848 890.652 311.5 888.568 318.873Z" fill="#EEB38B"/>
<path d="M897.65 336.016C896.834 336.016 895.927 335.926 895.111 335.654C889.036 333.931 885.862 326.314 888.038 318.697C889.036 314.979 891.212 311.896 893.932 309.811C896.743 307.725 899.917 307.09 902.909 307.906C908.985 309.629 912.158 317.246 909.982 324.863C908.259 331.483 903 336.016 897.65 336.016ZM895.474 334.656C901.005 336.198 907.08 331.755 909.075 324.682C911.07 317.609 908.259 310.627 902.728 309.085C900.098 308.36 897.197 308.994 894.658 310.808C892.028 312.712 890.124 315.614 889.126 319.06C887.131 326.042 889.942 333.024 895.474 334.656Z" fill="#552659"/>
<g opacity="0.5">
<path opacity="0.5" d="M891.535 319.712C890.05 324.965 892.206 330.173 896.351 331.344C900.495 332.516 905.059 329.207 906.543 323.954C908.028 318.701 905.872 313.493 901.727 312.322C897.583 311.15 893.019 314.459 891.535 319.712Z" fill="white"/>
</g>
<path d="M883.595 369.477C900.822 369.477 914.788 356.932 914.788 341.457C914.788 325.982 900.822 313.438 883.595 313.438C866.367 313.438 852.402 325.982 852.402 341.457C852.402 356.932 866.367 369.477 883.595 369.477Z" fill="#EEB38B"/>
<path d="M883.595 370.021C866.094 370.021 851.858 357.235 851.858 341.457C851.858 325.77 866.094 312.894 883.595 312.894C901.096 312.894 915.332 325.679 915.332 341.457C915.423 357.235 901.096 370.021 883.595 370.021ZM883.595 313.982C866.729 313.982 852.946 326.314 852.946 341.457C852.946 356.6 866.729 368.933 883.595 368.933C900.461 368.933 914.244 356.6 914.244 341.457C914.244 326.314 900.552 313.982 883.595 313.982Z" fill="#552659"/>
<g opacity="0.5">
<path opacity="0.5" d="M883.595 367.119C894.713 367.119 903.725 361.192 903.725 353.88C903.725 346.568 894.713 340.641 883.595 340.641C872.477 340.641 863.464 346.568 863.464 353.88C863.464 361.192 872.477 367.119 883.595 367.119Z" fill="white"/>
</g>
<path d="M890.94 337.739C892.642 337.739 894.023 336.359 894.023 334.656C894.023 332.954 892.642 331.573 890.94 331.573C889.237 331.573 887.857 332.954 887.857 334.656C887.857 336.359 889.237 337.739 890.94 337.739Z" fill="white"/>
<path d="M890.94 338.283C888.945 338.283 887.313 336.651 887.313 334.656C887.313 332.661 888.945 331.029 890.94 331.029C892.935 331.029 894.567 332.661 894.567 334.656C894.567 336.651 892.935 338.283 890.94 338.283ZM890.94 332.117C889.58 332.117 888.401 333.205 888.401 334.656C888.401 336.107 889.489 337.195 890.94 337.195C892.391 337.195 893.479 336.107 893.479 334.656C893.479 333.205 892.3 332.117 890.94 332.117Z" fill="#552659"/>
<path d="M890.94 336.379C891.891 336.379 892.663 335.608 892.663 334.656C892.663 333.705 891.891 332.933 890.94 332.933C889.988 332.933 889.217 333.705 889.217 334.656C889.217 335.608 889.988 336.379 890.94 336.379Z" fill="#552659"/>
<path d="M890.486 334.475C890.787 334.475 891.03 334.272 891.03 334.022C891.03 333.771 890.787 333.568 890.486 333.568C890.186 333.568 889.942 333.771 889.942 334.022C889.942 334.272 890.186 334.475 890.486 334.475Z" fill="white"/>
<g opacity="0.5">
<path opacity="0.5" d="M908.531 336.198C908.259 336.198 907.987 335.926 907.987 335.654C907.987 329.216 903 323.956 896.834 323.956C890.668 323.956 885.68 329.216 885.68 335.654C885.68 335.926 885.408 336.198 885.136 336.198C884.864 336.198 884.592 335.926 884.592 335.654C884.592 328.581 890.124 322.868 896.834 322.868C903.544 322.868 909.075 328.581 909.075 335.654C909.075 335.926 908.803 336.198 908.531 336.198Z" fill="white"/>
</g>
<g opacity="0.5">
<path opacity="0.5" d="M904.904 358.505C904.723 358.505 904.542 358.414 904.451 358.323C904.269 358.051 904.36 357.779 904.542 357.598C909.438 354.061 910.617 347.351 907.262 342.636C903.816 338.011 897.106 337.105 892.209 340.641C891.937 340.822 891.665 340.732 891.484 340.55C891.303 340.278 891.393 340.006 891.575 339.825C896.925 335.926 904.36 336.923 908.169 342.092C911.886 347.261 910.617 354.605 905.267 358.505C905.176 358.505 905.086 358.505 904.904 358.505Z" fill="white"/>
</g>
<g opacity="0.5">
<path opacity="0.5" d="M892.803 330.124C894.253 330.806 895.602 330.992 895.815 330.539C896.028 330.086 895.025 329.165 893.575 328.483C892.125 327.8 890.777 327.615 890.564 328.068C890.351 328.521 891.353 329.441 892.803 330.124Z" fill="white"/>
</g>
<path d="M876.25 337.739C877.953 337.739 879.333 336.359 879.333 334.656C879.333 332.954 877.953 331.573 876.25 331.573C874.547 331.573 873.167 332.954 873.167 334.656C873.167 336.359 874.547 337.739 876.25 337.739Z" fill="white"/>
<path d="M876.25 338.283C874.255 338.283 872.623 336.651 872.623 334.656C872.623 332.661 874.255 331.029 876.25 331.029C878.245 331.029 879.877 332.661 879.877 334.656C879.877 336.651 878.245 338.283 876.25 338.283ZM876.25 332.117C874.89 332.117 873.711 333.205 873.711 334.656C873.711 336.107 874.799 337.195 876.25 337.195C877.61 337.195 878.789 336.107 878.789 334.656C878.789 333.205 877.701 332.117 876.25 332.117Z" fill="#552659"/>
<path d="M876.25 336.379C877.201 336.379 877.973 335.608 877.973 334.656C877.973 333.705 877.201 332.933 876.25 332.933C875.298 332.933 874.527 333.705 874.527 334.656C874.527 335.608 875.298 336.379 876.25 336.379Z" fill="#552659"/>
<path d="M876.794 334.475C877.094 334.475 877.338 334.272 877.338 334.022C877.338 333.771 877.094 333.568 876.794 333.568C876.494 333.568 876.25 333.771 876.25 334.022C876.25 334.272 876.494 334.475 876.794 334.475Z" fill="white"/>
<g opacity="0.5">
<path opacity="0.5" d="M882.144 336.198C881.872 336.198 881.6 335.926 881.6 335.654C881.6 329.216 876.613 323.956 870.447 323.956C864.28 323.956 859.293 329.216 859.293 335.654C859.293 335.926 859.021 336.198 858.749 336.198C858.477 336.198 858.205 335.926 858.205 335.654C858.205 328.581 863.736 322.868 870.447 322.868C877.157 322.868 882.688 328.581 882.688 335.654C882.688 335.926 882.416 336.198 882.144 336.198Z" fill="white"/>
</g>
<g opacity="0.5">
<path opacity="0.5" d="M862.286 358.505C862.195 358.505 862.104 358.505 861.923 358.414C856.573 354.515 855.213 347.079 859.021 342.001C862.739 336.833 870.175 335.835 875.615 339.734C875.887 339.916 875.887 340.278 875.706 340.46C875.525 340.732 875.162 340.732 874.98 340.55C870.084 337.014 863.374 337.83 859.928 342.545C856.482 347.17 857.752 353.88 862.648 357.507C862.92 357.689 862.92 358.051 862.739 358.233C862.648 358.414 862.467 358.505 862.286 358.505Z" fill="white"/>
</g>
<g opacity="0.5">
<path opacity="0.5" d="M873.595 328.424C872.145 329.106 871.142 330.027 871.356 330.48C871.569 330.933 872.917 330.747 874.367 330.065C875.817 329.382 876.82 328.462 876.607 328.009C876.393 327.556 875.045 327.742 873.595 328.424Z" fill="white"/>
</g>
<path d="M883.595 352.339C888.352 352.339 892.209 349.578 892.209 346.172C892.209 342.767 888.352 340.006 883.595 340.006C878.837 340.006 874.98 342.767 874.98 346.172C874.98 349.578 878.837 352.339 883.595 352.339Z" fill="white"/>
<path d="M883.414 345.538C883.141 345.538 882.869 345.266 882.869 344.994V341.185C882.869 340.913 883.141 340.641 883.414 340.641C883.686 340.641 883.958 340.913 883.958 341.185V344.994C883.958 345.356 883.686 345.538 883.414 345.538Z" fill="#552659"/>
<path d="M883.595 352.973C878.517 352.973 874.436 349.981 874.436 346.263C874.436 342.545 878.517 339.553 883.595 339.553C888.673 339.553 892.753 342.545 892.753 346.263C892.753 349.981 888.673 352.973 883.595 352.973ZM883.595 340.55C879.152 340.55 875.525 343.089 875.525 346.172C875.525 349.255 879.152 351.794 883.595 351.794C888.038 351.794 891.665 349.255 891.665 346.172C891.665 343.089 888.038 340.55 883.595 340.55Z" fill="#552659"/>
<path d="M883.595 346.444C880.602 346.444 877.882 345.084 876.431 342.908C876.25 342.636 876.341 342.364 876.613 342.183C876.885 342.001 877.157 342.092 877.338 342.364C878.517 344.268 880.965 345.447 883.595 345.447C886.315 345.447 888.763 344.178 889.942 342.183C890.124 341.911 890.396 341.82 890.668 342.001C890.94 342.183 891.03 342.455 890.849 342.727C889.489 344.994 886.769 346.444 883.595 346.444Z" fill="#552659"/>
<path d="M883.595 341.639C885.548 341.639 887.131 340.745 887.131 339.644C887.131 338.542 885.548 337.649 883.595 337.649C881.642 337.649 880.058 338.542 880.058 339.644C880.058 340.745 881.642 341.639 883.595 341.639Z" fill="#552659"/>
<path d="M882.779 339.825C883.68 339.825 884.411 339.541 884.411 339.19C884.411 338.84 883.68 338.555 882.779 338.555C881.877 338.555 881.147 338.84 881.147 339.19C881.147 339.541 881.877 339.825 882.779 339.825Z" fill="white"/>
</g>
<path d="M589.876 392.143L589.882 392.137L605.054 376.944C623.846 370.214 637.262 353.832 637.262 334.552C637.262 309.219 614.122 288.869 585.833 288.869C557.545 288.869 534.404 309.219 534.404 334.552C534.404 353.832 547.821 370.215 566.675 376.944L581.847 392.137C584.052 394.345 587.648 394.337 589.876 392.143Z" fill="white" stroke="#E7E7E7" stroke-width="2"/>
<g clip-path="url(#clip4)">
<path d="M586.398 323.266L599.946 306.381C601.185 304.87 603.399 304.426 605.081 305.492C606.232 306.292 606.941 307.536 606.941 308.869V323.621L586.398 323.266Z" fill="#FC924B"/>
<path d="M606.941 324.155L586.398 323.799C586.22 323.799 586.043 323.71 585.955 323.533C585.866 323.355 585.866 323.088 586.043 322.999L599.591 306.114C601.008 304.337 603.487 303.981 605.436 305.137C606.764 305.936 607.561 307.358 607.561 308.958V323.71C607.561 323.888 607.472 323.977 607.384 324.066C607.206 324.066 607.118 324.155 606.941 324.155ZM587.549 322.733L606.41 323.088V308.869C606.41 307.714 605.79 306.647 604.816 306.025C603.399 305.137 601.451 305.403 600.388 306.736L587.549 322.733Z" fill="#552659"/>
<path d="M593.481 317.401L601.097 307.98C601.805 307.092 603.045 306.914 604.019 307.536C604.639 307.98 605.081 308.691 605.081 309.402V317.667L593.481 317.401Z" fill="#FB7440"/>
<path d="M586.309 323.266L572.761 306.381C571.521 304.87 569.308 304.426 567.625 305.492C566.474 306.203 565.766 307.447 565.766 308.78V323.533L586.309 323.266Z" fill="#FC924B"/>
<path d="M565.766 324.155C565.589 324.155 565.5 324.066 565.412 323.977C565.323 323.888 565.234 323.71 565.234 323.621V308.869C565.234 307.358 566.031 305.936 567.36 305.048C569.308 303.804 571.787 304.248 573.204 306.025L586.752 322.822C586.84 322.999 586.929 323.177 586.84 323.355C586.752 323.533 586.575 323.621 586.398 323.621L565.766 324.155ZM569.662 305.492C569.042 305.492 568.422 305.67 567.891 306.025C566.917 306.647 566.297 307.714 566.297 308.869V323.088L585.246 322.733L572.318 306.736C571.61 305.936 570.636 305.492 569.662 305.492Z" fill="#552659"/>
<path d="M579.225 317.401L571.61 307.98C570.902 307.092 569.662 306.914 568.688 307.536C568.068 307.98 567.625 308.691 567.625 309.402V317.667L579.225 317.401Z" fill="#FB7440"/>
<path d="M586.398 366.279C605.079 366.279 620.223 354.024 620.223 338.907C620.223 323.79 605.079 311.535 586.398 311.535C567.716 311.535 552.572 323.79 552.572 338.907C552.572 354.024 567.716 366.279 586.398 366.279Z" fill="#FC924B"/>
<path d="M586.398 366.812C567.448 366.812 552.041 354.281 552.041 338.907C552.041 323.533 567.448 311.091 586.398 311.091C605.347 311.091 620.754 323.621 620.754 338.996C620.754 354.37 605.258 366.812 586.398 366.812ZM586.398 312.157C567.98 312.157 553.103 324.155 553.103 338.907C553.103 353.659 567.98 365.746 586.398 365.746C604.816 365.746 619.692 353.748 619.692 338.907C619.692 324.066 604.727 312.157 586.398 312.157Z" fill="#552659"/>
<path d="M586.398 311.891C601.362 311.891 614.113 319.889 618.187 330.909C611.28 336.685 599.591 340.507 586.398 340.507C573.115 340.507 561.427 336.685 554.609 330.909C558.682 319.889 571.344 311.891 586.398 311.891Z" fill="#FFB566"/>
<path d="M586.398 366.812C567.448 366.812 552.041 354.281 552.041 338.907C552.041 323.533 567.448 311.091 586.398 311.091C605.347 311.091 620.754 323.621 620.754 338.996C620.754 354.37 605.258 366.812 586.398 366.812ZM586.398 312.157C567.98 312.157 553.103 324.155 553.103 338.907C553.103 353.659 567.98 365.746 586.398 365.746C604.816 365.746 619.692 353.748 619.692 338.907C619.692 324.066 604.727 312.157 586.398 312.157Z" fill="#552659"/>
<path d="M586.22 357.036C593.409 357.036 599.237 352.182 599.237 346.194C599.237 340.206 593.409 335.352 586.22 335.352C579.032 335.352 573.204 340.206 573.204 346.194C573.204 352.182 579.032 357.036 586.22 357.036Z" fill="white"/>
<path d="M586.221 357.659C578.782 357.659 572.673 352.504 572.673 346.283C572.673 340.062 578.782 334.908 586.221 334.908C593.659 334.908 599.768 339.973 599.768 346.194C599.768 352.415 593.747 357.659 586.221 357.659ZM586.221 335.885C579.314 335.885 573.735 340.507 573.735 346.194C573.735 351.882 579.314 356.503 586.221 356.503C593.127 356.503 598.706 351.971 598.706 346.194C598.706 340.418 593.127 335.885 586.221 335.885Z" fill="#552659"/>
<path d="M586.309 341.751C588.656 341.751 590.559 340.597 590.559 339.174C590.559 337.75 588.656 336.596 586.309 336.596C583.962 336.596 582.059 337.75 582.059 339.174C582.059 340.597 583.962 341.751 586.309 341.751Z" fill="#552659"/>
<path d="M584.715 339.351C585.595 339.351 586.309 338.914 586.309 338.374C586.309 337.834 585.595 337.396 584.715 337.396C583.835 337.396 583.121 337.834 583.121 338.374C583.121 338.914 583.835 339.351 584.715 339.351Z" fill="white"/>
<path d="M587.195 343.795C586.929 343.795 586.309 343.528 586.309 343.262V339.796C586.309 339.529 586.929 339.263 587.195 339.263C587.46 339.263 588.08 339.529 588.08 339.796V343.262C588.08 343.528 587.46 343.795 587.195 343.795Z" fill="#552659"/>
<path d="M586.221 357.659C582.324 357.659 578.605 356.237 576.037 353.748C575.949 353.659 575.86 353.482 575.86 353.304C576.569 347.616 580.996 343.351 586.221 343.351C591.445 343.351 595.961 347.616 596.581 353.304C596.581 353.482 596.581 353.659 596.404 353.748C593.924 356.237 590.205 357.659 586.221 357.659ZM577.011 353.126C579.402 355.348 582.767 356.592 586.309 356.592C589.851 356.592 593.216 355.348 595.607 353.126C594.898 348.149 590.914 344.417 586.309 344.417C581.616 344.417 577.72 348.149 577.011 353.126Z" fill="#552659"/>
<path d="M592.242 329.22C592.95 333.397 596.758 336.241 600.92 335.708C605.081 335.174 608.092 331.442 607.649 327.176L592.242 329.22Z" fill="white"/>
<path d="M599.857 336.241C595.872 336.241 592.33 333.308 591.711 329.22C591.711 329.042 591.711 328.954 591.799 328.776C591.888 328.687 591.976 328.598 592.153 328.598L607.561 326.554C607.738 326.554 607.826 326.554 608.003 326.643C608.092 326.732 608.181 326.821 608.181 326.998C608.623 331.531 605.524 335.53 601.008 336.152C600.654 336.241 600.211 336.241 599.857 336.241ZM592.862 329.665C593.747 333.308 597.112 335.619 600.831 335.174C604.55 334.641 607.207 331.442 607.118 327.798L592.862 329.665Z" fill="#552659"/>
<path d="M596.404 319.8L592.95 321.133C592.065 321.489 591.533 322.555 591.888 323.444C592.242 324.332 593.304 324.866 594.19 324.51L597.643 323.177C598.529 322.822 599.06 321.755 598.706 320.866C598.352 319.978 597.289 319.445 596.404 319.8Z" fill="#552659"/>
<path d="M595.341 328.776C595.784 331.175 597.997 332.864 600.477 332.508C602.868 332.153 604.639 329.931 604.462 327.532L595.341 328.776Z" fill="#2243F7"/>
<path d="M599.768 333.308C597.201 333.308 594.987 331.442 594.456 328.865L594.278 328.065L605.081 326.643L605.17 327.532C605.436 330.376 603.399 332.953 600.565 333.308C600.3 333.308 600.034 333.308 599.768 333.308ZM596.315 329.398C597.023 330.909 598.617 331.886 600.3 331.62C601.982 331.353 603.31 330.02 603.576 328.42L596.315 329.398Z" fill="#3CD4FF"/>
<path d="M603.504 329.194C602.244 329.364 601.291 330.014 601.375 330.646C601.459 331.279 602.549 331.654 603.81 331.485C605.07 331.315 606.023 330.665 605.939 330.033C605.855 329.4 604.765 329.025 603.504 329.194Z" fill="white"/>
<path d="M592.242 330.02C591.622 330.02 591.179 329.576 591.091 328.954C591.002 328.332 591.445 327.709 592.153 327.621L612.342 324.866C612.962 324.777 613.582 325.221 613.671 325.932C613.759 326.554 613.316 327.176 612.608 327.265L592.33 330.02C592.33 329.931 592.33 330.02 592.242 330.02Z" fill="#552659"/>
<path d="M580.465 329.22C579.756 333.397 575.949 336.241 571.787 335.708C567.625 335.175 564.615 331.442 565.057 327.176L580.465 329.22Z" fill="white"/>
<path d="M572.85 336.241C572.495 336.241 572.141 336.241 571.699 336.152C567.183 335.53 564.083 331.531 564.526 326.998C564.526 326.821 564.615 326.732 564.703 326.643C564.792 326.554 564.969 326.554 565.146 326.554L580.553 328.598C580.73 328.598 580.819 328.687 580.908 328.776C580.996 328.865 580.996 329.042 580.996 329.22C580.288 333.397 576.834 336.241 572.85 336.241ZM565.589 327.709C565.5 331.442 568.157 334.641 571.876 335.086C575.595 335.619 579.048 333.219 579.845 329.576L565.589 327.709Z" fill="#552659"/>
<path d="M576.303 319.8L579.756 321.133C580.642 321.489 581.173 322.555 580.819 323.444C580.465 324.332 579.402 324.866 578.517 324.51L575.063 323.177C574.178 322.822 573.647 321.755 574.001 320.866C574.355 319.978 575.418 319.445 576.303 319.8Z" fill="#552659"/>
<path d="M577.366 328.776C576.923 331.175 574.709 332.864 572.23 332.508C569.839 332.153 568.068 329.931 568.245 327.532L577.366 328.776Z" fill="#2243F7"/>
<path d="M572.938 333.308C572.673 333.308 572.496 333.308 572.23 333.219C569.396 332.864 567.36 330.287 567.625 327.443L567.714 326.643L578.428 328.065L578.251 328.865C577.72 331.531 575.418 333.308 572.938 333.308ZM569.131 328.509C569.396 330.109 570.725 331.531 572.407 331.709C574.089 331.975 575.683 330.998 576.392 329.487L569.131 328.509Z" fill="#3CD4FF"/>
<path d="M568.98 331.439C570.241 331.608 571.331 331.233 571.415 330.601C571.499 329.968 570.546 329.318 569.286 329.149C568.026 328.979 566.935 329.355 566.851 329.987C566.767 330.62 567.72 331.27 568.98 331.439Z" fill="white"/>
<path d="M580.465 330.02C580.376 330.02 580.376 330.02 580.288 330.02L560.01 327.265C559.39 327.176 558.859 326.554 558.948 325.932C559.036 325.31 559.656 324.777 560.276 324.866L580.553 327.621C581.173 327.709 581.705 328.332 581.616 328.954C581.527 329.576 581.085 330.02 580.465 330.02Z" fill="#552659"/>
</g>
<path d="M501.349 268.431L501.355 268.424L515.636 254.115C533.35 247.763 546 232.306 546 214.112C546 190.199 524.171 171 497.5 171C470.829 171 449 190.199 449 214.112C449 232.307 461.651 247.763 479.423 254.115L493.704 268.424C495.804 270.528 499.228 270.52 501.349 268.431Z" fill="white" stroke="#E7E7E7" stroke-width="2"/>
<g clip-path="url(#clip5)">
<path d="M478.439 188.073L494.045 198.507V211.09H472.882V191.065C472.882 188.227 476.079 186.462 478.439 188.073Z" fill="#FC924B"/>
<path d="M494.046 211.628H472.883C472.654 211.628 472.426 211.398 472.426 211.168V191.066C472.426 189.532 473.187 188.228 474.557 187.46C475.928 186.77 477.45 186.847 478.745 187.691L494.275 198.125C494.427 198.202 494.503 198.355 494.503 198.508V211.091C494.503 211.398 494.275 211.628 494.046 211.628ZM473.339 210.707H493.59V198.815L478.212 188.458C477.222 187.767 476.004 187.767 475.014 188.304C473.948 188.841 473.339 189.915 473.339 191.066V210.707Z" fill="#552659"/>
<path d="M476.385 207.715C476.385 207.715 476.385 197.511 476.385 192.984C476.385 192.14 477.374 191.603 478.135 192.064C481.942 194.596 490.545 200.35 490.545 200.35V207.715H476.385Z" fill="#FB7440"/>
<path d="M518.559 188.073L502.953 198.507V211.09H524.116V191.065C524.116 188.227 520.919 186.462 518.559 188.073Z" fill="#FC924B"/>
<path d="M524.117 211.628H502.954C502.725 211.628 502.497 211.398 502.497 211.168V198.508C502.497 198.355 502.573 198.202 502.725 198.125L518.255 187.691C519.55 186.847 521.072 186.77 522.443 187.46C523.737 188.228 524.574 189.532 524.574 191.066V211.091C524.574 211.244 524.498 211.321 524.422 211.398C524.346 211.551 524.194 211.628 524.117 211.628ZM503.41 210.707H523.661V191.066C523.661 189.915 523.052 188.841 521.986 188.304C520.996 187.767 519.778 187.767 518.788 188.458L503.41 198.815V210.707Z" fill="#552659"/>
<path d="M520.615 207.715C520.615 207.715 520.615 197.511 520.615 192.984C520.615 192.064 519.626 191.527 518.865 192.064C515.058 194.596 506.455 200.35 506.455 200.35V207.715H520.615Z" fill="#FB7440"/>
<path d="M498.537 245.539C514.598 245.539 527.618 234.959 527.618 221.908C527.618 208.857 514.598 198.277 498.537 198.277C482.476 198.277 469.456 208.857 469.456 221.908C469.456 234.959 482.476 245.539 498.537 245.539Z" fill="#FC924B"/>
<path d="M498.538 246C482.246 246 469 235.182 469 221.909C469 208.636 482.246 197.818 498.538 197.818C514.83 197.818 528 208.636 528 221.909C528 235.182 514.754 246 498.538 246ZM498.538 198.815C482.703 198.815 469.914 209.173 469.914 221.909C469.914 234.645 482.703 245.079 498.538 245.079C514.297 245.079 527.086 234.722 527.086 221.909C527.086 209.096 514.297 198.815 498.538 198.815Z" fill="#552659"/>
<path d="M498.538 238.788C510.731 238.788 520.615 229.823 520.615 218.763C520.615 207.704 510.731 198.739 498.538 198.739C486.345 198.739 476.461 207.704 476.461 218.763C476.461 229.823 486.345 238.788 498.538 238.788Z" fill="#FFB566"/>
<path d="M498.537 245.539C514.598 245.539 527.618 234.959 527.618 221.908C527.618 208.857 514.598 198.277 498.537 198.277C482.476 198.277 469.456 208.857 469.456 221.908C469.456 234.959 482.476 245.539 498.537 245.539Z" fill="#FC924B"/>
<path d="M498.538 246C482.246 246 469 235.182 469 221.909C469 208.636 482.246 197.818 498.538 197.818C514.83 197.818 528 208.636 528 221.909C528 235.182 514.754 246 498.538 246ZM498.538 198.815C482.703 198.815 469.914 209.173 469.914 221.909C469.914 234.645 482.703 245.079 498.538 245.079C514.297 245.079 527.086 234.722 527.086 221.909C527.086 209.096 514.297 198.815 498.538 198.815Z" fill="#552659"/>
<path d="M498.538 246C482.246 246 469 235.182 469 221.909C469 208.636 482.246 197.818 498.538 197.818C514.83 197.818 528 208.636 528 221.909C528 235.182 514.754 246 498.538 246ZM498.538 198.815C482.703 198.815 469.914 209.173 469.914 221.909C469.914 234.645 482.703 245.079 498.538 245.079C514.297 245.079 527.086 234.722 527.086 221.909C527.086 209.096 514.297 198.815 498.538 198.815Z" fill="#552659"/>
<path d="M514.297 221.602H527.086C527.086 209.326 515.21 199.813 500.746 198.892V208.329C500.746 215.848 506.836 221.602 514.297 221.602Z" fill="#FFB566"/>
<path d="M496.178 208.329V198.892C481.714 199.813 469.914 209.326 469.914 221.602H482.703C490.164 221.602 496.178 215.848 496.178 208.329Z" fill="#FFB566"/>
<path d="M475.852 225.438C478.038 225.438 479.81 223.652 479.81 221.449C479.81 219.245 478.038 217.459 475.852 217.459C473.665 217.459 471.893 219.245 471.893 221.449C471.893 223.652 473.665 225.438 475.852 225.438Z" fill="#D44954"/>
<path d="M479.125 231.116C480.218 231.116 481.105 230.223 481.105 229.121C481.105 228.019 480.218 227.126 479.125 227.126C478.032 227.126 477.146 228.019 477.146 229.121C477.146 230.223 478.032 231.116 479.125 231.116Z" fill="#D44954"/>
<path d="M521.148 225.438C523.335 225.438 525.107 223.652 525.107 221.449C525.107 219.245 523.335 217.459 521.148 217.459C518.962 217.459 517.19 219.245 517.19 221.449C517.19 223.652 518.962 225.438 521.148 225.438Z" fill="#D44954"/>
<path d="M517.951 231.116C519.044 231.116 519.93 230.223 519.93 229.121C519.93 228.019 519.044 227.126 517.951 227.126C516.858 227.126 515.972 228.019 515.972 229.121C515.972 230.223 516.858 231.116 517.951 231.116Z" fill="#D44954"/>
<path d="M498.538 246C482.246 246 469 235.182 469 221.909C469 208.636 482.246 197.818 498.538 197.818C514.83 197.818 528 208.636 528 221.909C528 235.182 514.754 246 498.538 246ZM498.538 198.815C482.703 198.815 469.914 209.173 469.914 221.909C469.914 234.645 482.703 245.079 498.538 245.079C514.297 245.079 527.086 234.722 527.086 221.909C527.086 209.096 514.297 198.815 498.538 198.815Z" fill="#552659"/>
<path d="M498.461 238.711C506.365 238.711 512.773 234.108 512.773 228.43C512.773 222.752 506.365 218.149 498.461 218.149C490.557 218.149 484.149 222.752 484.149 228.43C484.149 234.108 490.557 238.711 498.461 238.711Z" fill="white"/>
<path d="M498.462 239.248C490.316 239.248 483.693 234.415 483.693 228.507C483.693 222.599 490.316 217.766 498.462 217.766C506.608 217.766 513.231 222.599 513.231 228.507C513.231 234.415 506.608 239.248 498.462 239.248ZM498.462 218.61C490.849 218.61 484.606 223.06 484.606 228.43C484.606 233.801 490.849 238.251 498.462 238.251C506.075 238.251 512.317 233.878 512.317 228.43C512.317 222.983 506.151 218.61 498.462 218.61Z" fill="#552659"/>
<path d="M493.361 229.811C490.468 229.811 488.108 227.433 488.108 224.518C488.108 224.287 488.337 224.057 488.565 224.057C488.794 224.057 489.022 224.287 489.022 224.518C489.022 226.896 491.001 228.891 493.361 228.891C495.721 228.891 497.701 226.896 497.701 224.518V221.525C497.701 221.295 497.929 221.065 498.157 221.065C498.386 221.065 498.614 221.295 498.614 221.525V224.518C498.614 227.433 496.254 229.811 493.361 229.811Z" fill="#552659"/>
<path d="M503.639 229.811C500.746 229.811 498.386 227.433 498.386 224.518V221.525C498.386 221.295 498.614 221.065 498.843 221.065C499.071 221.065 499.299 221.295 499.299 221.525V224.518C499.299 226.896 501.279 228.891 503.639 228.891C504.781 228.891 505.923 228.43 506.684 227.586C507.521 226.743 507.978 225.668 507.978 224.518C507.978 224.287 508.206 224.057 508.435 224.057C508.663 224.057 508.892 224.287 508.892 224.518C508.892 225.899 508.359 227.28 507.369 228.277C506.303 229.198 505.009 229.811 503.639 229.811Z" fill="#552659"/>
<path d="M498.462 224.364C500.48 224.364 502.116 223.368 502.116 222.139C502.116 220.91 500.48 219.914 498.462 219.914C496.444 219.914 494.808 220.91 494.808 222.139C494.808 223.368 496.444 224.364 498.462 224.364Z" fill="#552659"/>
<path d="M497.092 222.216C497.848 222.216 498.462 221.838 498.462 221.372C498.462 220.906 497.848 220.528 497.092 220.528C496.335 220.528 495.721 220.906 495.721 221.372C495.721 221.838 496.335 222.216 497.092 222.216Z" fill="white"/>
<path d="M502.192 214.467C506.456 218.763 513.383 218.763 517.723 214.467C513.383 210.17 506.456 210.17 502.192 214.467Z" fill="white"/>
<path d="M509.957 219.531C507.826 219.531 505.77 218.763 504.172 217.152L501.888 214.85C501.736 214.697 501.736 214.39 501.888 214.237L503.03 213.086C506.836 209.25 513.003 209.25 516.885 213.086L518.027 214.237C518.179 214.39 518.179 214.697 518.027 214.85L515.743 217.152C514.145 218.763 512.013 219.531 509.957 219.531ZM502.801 214.467L504.781 216.462C507.597 219.3 512.241 219.3 515.058 216.462L517.037 214.467L516.2 213.623C512.774 210.17 507.141 210.17 503.639 213.623L502.801 214.467Z" fill="#552659"/>
<path d="M509.957 217.766C511.597 217.766 512.926 216.426 512.926 214.774C512.926 213.121 511.597 211.782 509.957 211.782C508.318 211.782 506.988 213.121 506.988 214.774C506.988 216.426 508.318 217.766 509.957 217.766Z" fill="#2243F7"/>
<path d="M509.957 218.456C507.978 218.456 506.303 216.769 506.303 214.774C506.303 212.779 507.978 211.091 509.957 211.091C511.937 211.091 513.612 212.779 513.612 214.774C513.612 216.845 512.013 218.456 509.957 218.456ZM509.957 212.472C508.663 212.472 507.674 213.469 507.674 214.774C507.674 216.078 508.663 217.075 509.957 217.075C511.252 217.075 512.241 216.078 512.241 214.774C512.241 213.546 511.252 212.472 509.957 212.472Z" fill="#3CD4FF"/>
<path d="M506.988 215.157C507.871 215.157 508.587 214.642 508.587 214.007C508.587 213.371 507.871 212.856 506.988 212.856C506.105 212.856 505.39 213.371 505.39 214.007C505.39 214.642 506.105 215.157 506.988 215.157Z" fill="white"/>
<path d="M503.563 206.257L500.746 207.869C499.985 208.252 499.756 209.25 500.137 209.94C500.517 210.707 501.507 210.938 502.192 210.554L505.009 208.943C505.77 208.559 505.999 207.562 505.618 206.871C505.237 206.104 504.324 205.797 503.563 206.257Z" fill="white"/>
<path d="M493.437 206.257L496.254 207.869C497.016 208.252 497.244 209.25 496.863 209.94C496.483 210.707 495.493 210.938 494.808 210.554L491.991 208.943C491.23 208.559 491.001 207.562 491.382 206.871C491.763 206.104 492.676 205.797 493.437 206.257Z" fill="white"/>
<path d="M502.04 215.157C501.812 215.157 501.507 215.081 501.355 214.85C501.05 214.467 501.05 213.853 501.431 213.546L502.725 212.319C504.933 210.324 507.75 209.326 510.643 209.48C513.612 209.633 516.276 210.938 518.256 213.163C518.332 213.239 518.408 213.316 518.484 213.469C518.788 213.853 518.636 214.467 518.256 214.774C517.875 215.081 517.266 214.927 516.961 214.544L516.885 214.467C515.21 212.625 513.003 211.551 510.566 211.398C508.13 211.244 505.77 212.088 503.943 213.776L502.649 215.004C502.497 215.081 502.268 215.157 502.04 215.157Z" fill="#552659"/>
<path d="M494.808 214.467C490.545 218.763 483.617 218.763 479.277 214.467C483.617 210.17 490.545 210.17 494.808 214.467Z" fill="white"/>
<path d="M487.119 219.531C484.987 219.531 482.932 218.763 481.333 217.152L479.049 214.85C478.897 214.697 478.897 214.39 479.049 214.237L480.191 213.086C483.997 209.25 490.164 209.25 494.046 213.086L495.188 214.237C495.341 214.39 495.341 214.697 495.188 214.85L492.905 217.152C491.306 218.763 489.174 219.531 487.119 219.531ZM479.963 214.467L481.942 216.462C484.759 219.3 489.403 219.3 492.219 216.462L494.199 214.467L493.361 213.623C489.936 210.17 484.302 210.17 480.8 213.623L479.963 214.467Z" fill="#552659"/>
<path d="M487.271 217.766C488.911 217.766 490.24 216.426 490.24 214.774C490.24 213.121 488.911 211.782 487.271 211.782C485.631 211.782 484.302 213.121 484.302 214.774C484.302 216.426 485.631 217.766 487.271 217.766Z" fill="#2243F7"/>
<path d="M487.271 218.456C485.292 218.456 483.617 216.769 483.617 214.774C483.617 212.779 485.292 211.091 487.271 211.091C489.25 211.091 490.925 212.779 490.925 214.774C490.925 216.845 489.25 218.456 487.271 218.456ZM487.271 212.472C485.977 212.472 484.987 213.469 484.987 214.774C484.987 216.078 485.977 217.075 487.271 217.075C488.565 217.075 489.555 216.078 489.555 214.774C489.555 213.546 488.489 212.472 487.271 212.472Z" fill="#3CD4FF"/>
<path d="M490.24 215.157C491.123 215.157 491.839 214.642 491.839 214.007C491.839 213.371 491.123 212.856 490.24 212.856C489.357 212.856 488.641 213.371 488.641 214.007C488.641 214.642 489.357 215.157 490.24 215.157Z" fill="white"/>
<path d="M494.96 215.157C494.732 215.157 494.503 215.081 494.351 214.927L493.057 213.7C491.23 212.088 488.87 211.244 486.434 211.321C483.997 211.475 481.714 212.549 480.115 214.39L480.039 214.467C479.734 214.85 479.201 215.004 478.745 214.697C478.364 214.39 478.212 213.853 478.516 213.393C478.592 213.316 478.668 213.239 478.745 213.086C480.724 210.861 483.388 209.557 486.357 209.403C489.326 209.25 492.067 210.247 494.275 212.242L495.569 213.469C495.95 213.776 495.95 214.39 495.645 214.774C495.417 215.081 495.188 215.157 494.96 215.157Z" fill="#552659"/>
</g>
<path d="M215.472 327.525L215.478 327.519L226.693 316.355C240.688 311.351 250.707 299.198 250.707 284.865C250.707 266.003 233.387 250.913 212.293 250.913C191.2 250.913 173.88 266.003 173.88 284.865C173.88 299.199 183.9 311.352 197.941 316.356L209.156 327.519C210.893 329.248 213.719 329.239 215.472 327.525Z" fill="white" stroke="#E7E7E7" stroke-width="2"/>
<g clip-path="url(#clip6)">
<path d="M212.514 305.159C225.301 305.159 235.667 295.896 235.667 284.47C235.667 273.044 225.301 263.781 212.514 263.781C199.726 263.781 189.36 273.044 189.36 284.47C189.36 295.896 199.726 305.159 212.514 305.159Z" fill="#D49072"/>
<path d="M212.515 302.65C222.887 302.65 231.296 294.264 231.296 283.92C231.296 273.576 222.887 265.19 212.515 265.19C202.142 265.19 193.733 273.576 193.733 283.92C193.733 294.264 202.142 302.65 212.515 302.65Z" fill="#EEB38B"/>
<path d="M221.136 265.618C216.332 267.822 213.192 271.433 213.192 275.534C213.192 282.206 221.443 287.654 231.604 287.654C232.836 287.654 234.067 287.592 235.237 287.409C235.36 286.552 235.422 285.634 235.422 284.716C235.483 276.085 229.572 268.679 221.136 265.618Z" fill="#D49072"/>
<path d="M203.894 265.618C208.697 267.822 211.837 271.433 211.837 275.534C211.837 282.206 203.586 287.654 193.425 287.654C192.194 287.654 190.962 287.592 189.792 287.409C189.669 286.552 189.607 285.634 189.607 284.716C189.546 276.085 195.519 268.679 203.894 265.618Z" fill="#D49072"/>
<path d="M212.515 305.588C199.521 305.588 188.93 296.1 188.93 284.532C188.93 272.963 199.521 263.415 212.515 263.415C225.508 263.415 236.099 272.902 236.099 284.471C236.099 296.039 225.508 305.588 212.515 305.588ZM212.515 264.21C199.952 264.21 189.73 273.331 189.73 284.471C189.73 295.611 199.952 304.731 212.515 304.731C225.077 304.731 235.299 295.611 235.299 284.471C235.299 273.331 225.077 264.21 212.515 264.21Z" fill="#552659"/>
<path d="M203.708 283.98C206.837 283.98 209.373 281.459 209.373 278.349C209.373 275.239 206.837 272.718 203.708 272.718C200.579 272.718 198.043 275.239 198.043 278.349C198.043 281.459 200.579 283.98 203.708 283.98Z" fill="white"/>
<path d="M203.709 284.409C200.384 284.409 197.613 281.716 197.613 278.35C197.613 274.983 200.322 272.29 203.709 272.29C207.096 272.29 209.805 274.983 209.805 278.35C209.805 281.716 207.034 284.409 203.709 284.409ZM203.709 273.147C200.815 273.147 198.413 275.473 198.413 278.411C198.413 281.349 200.753 283.675 203.709 283.675C206.603 283.675 209.005 281.349 209.005 278.411C209.005 275.473 206.603 273.147 203.709 273.147Z" fill="#552659"/>
<path d="M221.381 283.98C224.51 283.98 227.046 281.459 227.046 278.349C227.046 275.239 224.51 272.718 221.381 272.718C218.252 272.718 215.716 275.239 215.716 278.349C215.716 281.459 218.252 283.98 221.381 283.98Z" fill="white"/>
<path d="M221.382 284.409C218.057 284.409 215.286 281.716 215.286 278.35C215.286 274.983 217.995 272.29 221.382 272.29C224.769 272.29 227.478 274.983 227.478 278.35C227.478 281.716 224.707 284.409 221.382 284.409ZM221.382 273.147C218.488 273.147 216.086 275.473 216.086 278.411C216.086 281.349 218.426 283.614 221.382 283.614C224.276 283.614 226.678 281.288 226.678 278.35C226.678 275.412 224.276 273.147 221.382 273.147Z" fill="#552659"/>
<path d="M221.382 281.471C223.116 281.471 224.522 280.074 224.522 278.35C224.522 276.626 223.116 275.228 221.382 275.228C219.647 275.228 218.241 276.626 218.241 278.35C218.241 280.074 219.647 281.471 221.382 281.471Z" fill="#552659"/>
<path d="M203.709 281.471C205.443 281.471 206.849 280.074 206.849 278.35C206.849 276.626 205.443 275.228 203.709 275.228C201.974 275.228 200.568 276.626 200.568 278.35C200.568 280.074 201.974 281.471 203.709 281.471Z" fill="#552659"/>
<path d="M220.705 278.411C221.521 278.411 222.182 277.89 222.182 277.248C222.182 276.606 221.521 276.085 220.705 276.085C219.888 276.085 219.227 276.606 219.227 277.248C219.227 277.89 219.888 278.411 220.705 278.411Z" fill="white"/>
<path d="M204.448 278.411C205.264 278.411 205.926 277.89 205.926 277.248C205.926 276.606 205.264 276.085 204.448 276.085C203.632 276.085 202.97 276.606 202.97 277.248C202.97 277.89 203.632 278.411 204.448 278.411Z" fill="white"/>
<path d="M223.106 270.576H219.596C219.042 270.576 218.549 270.087 218.549 269.536V269.352C218.549 268.801 219.042 268.311 219.596 268.311H223.106C223.66 268.311 224.153 268.801 224.153 269.352V269.536C224.153 270.087 223.722 270.576 223.106 270.576Z" fill="white"/>
<path d="M205.495 270.576H201.985C201.43 270.576 200.938 270.087 200.938 269.536V269.352C200.938 268.801 201.43 268.311 201.985 268.311H205.495C206.049 268.311 206.541 268.801 206.541 269.352V269.536C206.541 270.087 206.049 270.576 205.495 270.576Z" fill="white"/>
<path d="M220.149 286.307L221.381 296.406C221.812 299.773 219.164 302.772 215.716 302.772H209.312C205.863 302.772 203.215 299.773 203.646 296.406L204.755 286.307L207.895 283.675C210.42 281.594 214.053 281.533 216.639 283.553L220.149 286.307Z" fill="white"/>
<path d="M212.576 300.875C216.045 300.875 218.857 299.45 218.857 297.692C218.857 295.934 216.045 294.509 212.576 294.509C209.107 294.509 206.295 295.934 206.295 297.692C206.295 299.45 209.107 300.875 212.576 300.875Z" fill="#552659"/>
<path d="M215.717 303.201H209.312C207.588 303.201 205.864 302.466 204.756 301.181C203.586 299.895 203.031 298.12 203.278 296.406L204.509 286.307C204.509 286.062 204.756 285.94 204.94 285.94C205.187 285.94 205.31 286.185 205.31 286.368L204.078 296.468C203.894 297.937 204.386 299.467 205.371 300.63C206.357 301.793 207.835 302.405 209.374 302.405H215.778C217.318 302.405 218.734 301.732 219.781 300.63C220.766 299.528 221.259 297.998 221.074 296.468L219.842 286.368C219.842 286.123 219.966 285.94 220.212 285.94C220.458 285.94 220.643 286.062 220.643 286.307L221.874 296.406C222.059 298.12 221.567 299.895 220.397 301.181C219.165 302.466 217.502 303.201 215.717 303.201Z" fill="#552659"/>
<path d="M212.207 303.201C211.96 303.201 211.776 303.017 211.776 302.772V299.038C211.776 298.794 211.96 298.61 212.207 298.61C212.453 298.61 212.638 298.794 212.638 299.038V302.772C212.638 303.017 212.453 303.201 212.207 303.201Z" fill="#552659"/>
<path d="M210.298 298.365C211.59 298.365 212.638 297.844 212.638 297.202C212.638 296.56 211.59 296.039 210.298 296.039C209.005 296.039 207.958 296.56 207.958 297.202C207.958 297.844 209.005 298.365 210.298 298.365Z" fill="white"/>
<path d="M225.63 267.454L243.242 279.512C244.966 280.675 245.643 282.878 244.904 284.776L240.224 296.956C239.485 298.854 237.33 299.772 235.483 298.915C234.497 298.487 233.758 297.63 233.512 296.589L225.63 267.454Z" fill="#EEB38B"/>
<path d="M236.9 299.651C236.346 299.651 235.791 299.528 235.299 299.283C234.19 298.794 233.39 297.875 233.082 296.713L225.261 267.516C225.2 267.332 225.261 267.21 225.446 267.087C225.569 266.965 225.754 266.965 225.939 267.087L243.55 279.145C245.398 280.431 246.137 282.757 245.336 284.899L240.594 297.08C240.225 298.12 239.424 298.916 238.439 299.283C237.885 299.528 237.392 299.651 236.9 299.651ZM226.308 268.373L233.821 296.529C234.067 297.447 234.683 298.182 235.607 298.61C236.407 298.977 237.269 298.977 238.07 298.61C238.87 298.304 239.486 297.631 239.794 296.835L244.474 284.654C245.151 282.879 244.535 280.921 242.996 279.88L226.308 268.373Z" fill="#552659"/>
<path d="M199.459 267.454L181.848 279.512C180.123 280.675 179.446 282.878 180.185 284.776L184.865 296.956C185.604 298.854 187.759 299.772 189.606 298.915C190.592 298.487 191.331 297.63 191.577 296.589L199.459 267.454Z" fill="#EEB38B"/>
<path d="M188.191 299.651C187.698 299.651 187.144 299.528 186.651 299.344C185.666 298.916 184.927 298.12 184.496 297.08L179.816 284.899C179.016 282.818 179.755 280.431 181.602 279.145L199.214 267.087C199.337 266.965 199.521 266.965 199.706 267.087C199.829 267.21 199.891 267.393 199.829 267.516L192.009 296.713C191.701 297.875 190.9 298.794 189.792 299.283C189.299 299.528 188.745 299.651 188.191 299.651ZM198.782 268.373L182.095 279.819C180.555 280.859 179.939 282.879 180.617 284.593L185.297 296.774C185.605 297.569 186.22 298.243 187.021 298.549C187.821 298.855 188.684 298.855 189.484 298.549C190.346 298.182 191.024 297.386 191.27 296.468L198.782 268.373Z" fill="#552659"/>
</g>
<g clip-path="url(#clip7)">
<path d="M716.756 62.809C686.395 48.5439 639.474 39.3887 586.805 39.3887C534.14 39.3887 487.214 48.5439 456.854 62.809H421.234V101.133C421.234 135.236 495.356 162.878 586.89 162.878C678.423 162.878 752.546 135.236 752.546 101.133V62.809H716.756Z" fill="#8972B3"/>
<path d="M512.172 156.24C534.507 160.482 559.927 162.878 586.852 162.878C652.647 162.878 709.47 148.597 736.06 127.896V62.809H716.755C686.395 48.5439 639.517 39.3887 586.852 39.3887C559.965 39.3887 534.507 41.7786 512.172 46.0103V156.24Z" fill="#736198"/>
<path d="M586.89 163.942C542.5 163.942 500.765 157.496 469.362 145.791C437.64 133.964 420.17 118.108 420.17 101.133V62.809C420.17 62.2235 420.649 61.7445 421.234 61.7445H456.62C488.427 46.8566 535.858 38.3242 586.805 38.3242C637.751 38.3242 685.182 46.8566 716.989 61.7445H752.546C753.131 61.7445 753.609 62.2235 753.609 62.809V101.133C753.609 118.102 736.14 133.964 704.418 145.791C673.015 157.496 631.279 163.942 586.89 163.942ZM422.297 63.8736V101.133C422.297 117.149 439.278 132.303 470.106 143.795C501.275 155.415 542.745 161.813 586.89 161.813C631.034 161.813 672.504 155.415 703.673 143.795C734.502 132.303 751.482 117.149 751.482 101.133V63.8736H716.755C716.601 63.8736 716.447 63.8416 716.303 63.7724C684.768 48.9538 637.565 40.4533 586.805 40.4533C536.044 40.4533 488.842 48.9538 457.306 63.7724C457.162 63.8363 457.008 63.8736 456.854 63.8736H422.297Z" fill="#552659"/>
<path d="M864.756 252.077V231.542L738.405 179.038L674.371 145.568L662.597 147.537L626.509 132.538V153.829L626.881 153.989L722.446 260.972C740.952 281.688 769.414 290.428 796.345 283.663L853.333 269.35C861.783 267.226 865.84 259.337 864.756 252.077Z" fill="#8972B3"/>
<path d="M798.281 204.012L738.336 179.038L709.996 164.139V246.925L722.494 260.972C741 281.688 769.319 290.428 796.254 283.663L798.281 283.12V204.012Z" fill="#9E86D1"/>
<path d="M778.061 287C756.795 287 736.251 278.026 721.653 261.685L626.243 154.872L626.089 154.803C625.695 154.638 625.445 154.249 625.445 153.824V132.532C625.445 132.176 625.621 131.846 625.919 131.649C626.216 131.452 626.589 131.415 626.918 131.553L662.725 146.436L674.195 144.514C674.424 144.477 674.658 144.514 674.866 144.62L738.857 178.069L865.165 230.557C865.564 230.722 865.819 231.111 865.819 231.542V251.997C866.883 259.353 863.033 268.008 853.593 270.382L796.605 284.695C790.447 286.244 784.22 287 778.061 287ZM627.572 153.18C627.61 153.211 627.642 153.243 627.674 153.275L723.243 260.258C737.432 276.142 757.401 284.866 778.067 284.866C784.06 284.866 790.107 284.131 796.09 282.63L853.077 268.317C861.326 266.246 864.671 258.656 863.708 252.231C863.703 252.178 863.697 252.125 863.697 252.072V232.244L737.996 180.017C737.969 180.006 737.937 179.99 737.91 179.98L674.195 146.675L662.772 148.586C662.576 148.618 662.374 148.597 662.187 148.517L627.572 134.135V153.18Z" fill="#552659"/>
<path d="M586.805 124.553C678.341 124.553 752.546 96.9096 752.546 62.809C752.546 28.7085 678.341 1.06456 586.805 1.06456C495.268 1.06456 421.064 28.7085 421.064 62.809C421.064 96.9096 495.268 124.553 586.805 124.553Z" fill="#C3BCFF"/>
<path d="M589.464 116.569C497.925 116.569 423.723 88.928 423.723 54.8248C423.723 53.5953 423.829 52.3763 424.02 51.1627C422.09 54.9366 421.064 58.8276 421.064 62.809C421.064 96.9122 495.266 124.554 586.805 124.554C675.041 124.554 747.159 98.8657 752.248 66.4711C737.623 95.0013 670.313 116.569 589.464 116.569Z" fill="#DEDCFF"/>
<path d="M586.805 125.618C542.41 125.618 500.658 119.172 469.239 107.467C437.486 95.6401 420 79.7781 420 62.809C420 45.8399 437.486 29.978 469.234 18.1507C500.658 6.44591 542.41 0 586.805 0C631.199 0 672.951 6.44591 704.37 18.1507C736.118 29.978 753.604 45.8399 753.604 62.809C753.604 79.7781 736.118 95.6401 704.37 107.467C672.951 119.172 631.199 125.618 586.805 125.618ZM586.805 2.12912C542.655 2.12912 501.169 8.52712 469.979 20.1468C439.124 31.644 422.127 46.7927 422.127 62.809C422.127 78.8253 439.124 93.974 469.979 105.471C501.169 117.091 542.655 123.489 586.805 123.489C630.955 123.489 672.441 117.091 703.631 105.471C734.486 93.974 751.482 78.8253 751.482 62.809C751.482 46.7927 734.486 31.644 703.631 20.1468C672.441 8.52712 630.949 2.12912 586.805 2.12912Z" fill="#552659"/>
<path d="M626.509 132.559L722.446 239.957C740.952 260.673 769.414 269.413 796.345 262.648L853.333 248.335C867 244.902 869.191 226.384 856.699 219.853L674.371 124.553L626.509 132.559Z" fill="#C3BCFF"/>
<path d="M855.04 240.814L798.052 255.127C771.121 261.892 742.659 253.152 724.153 232.436L633.842 131.335L626.509 132.559L722.446 239.957C740.952 260.673 769.414 269.413 796.345 262.648L853.333 248.335C861.022 246.403 865.08 239.696 864.931 233.032C863.075 236.678 859.735 239.638 855.04 240.814Z" fill="#DEDCFF"/>
<path d="M778.061 265.986C756.795 265.986 736.251 257.011 721.653 240.67L625.716 133.272C625.456 132.985 625.376 132.575 625.504 132.208C625.631 131.84 625.95 131.574 626.333 131.51L674.195 123.505C674.424 123.468 674.658 123.505 674.866 123.611L857.193 218.916C863.373 222.147 866.702 228.455 865.883 235.385C865.064 242.315 860.358 247.675 853.593 249.373L796.605 263.686C790.447 265.23 784.22 265.986 778.061 265.986ZM628.588 133.294L723.238 239.249C741.537 259.737 769.452 268.306 796.084 261.621L853.072 247.308C858.954 245.828 863.054 241.165 863.766 235.135C864.479 229.104 861.581 223.611 856.204 220.8L674.195 125.661L628.588 133.294Z" fill="#552659"/>
<path d="M590.485 98.1631C659.97 98.1631 716.298 78.8099 716.298 54.9366C716.298 31.0633 659.97 11.7102 590.485 11.7102C521 11.7102 464.671 31.0633 464.671 54.9366C464.671 78.8099 521 98.1631 590.485 98.1631Z" fill="#B4E9FF"/>
<path d="M590.485 37.2596C647.026 37.2596 694.851 50.0769 710.709 67.7113C714.341 63.6713 716.298 59.3811 716.298 54.9366C716.298 31.0639 659.97 11.7102 590.485 11.7102C521 11.7102 464.671 31.0639 464.671 54.9366C464.671 59.3811 466.628 63.6713 470.26 67.7113C486.113 50.0769 533.944 37.2596 590.485 37.2596Z" fill="#94D9F8"/>
<path opacity="0.5" d="M526.44 62.809C548.723 62.809 566.788 55.5406 566.788 46.5745C566.788 37.6084 548.723 30.34 526.44 30.34C504.156 30.34 486.092 37.6084 486.092 46.5745C486.092 55.5406 504.156 62.809 526.44 62.809Z" fill="#F5F5F5"/>
<path opacity="0.5" d="M655.731 73.3588C667.77 73.3588 677.53 70.0439 677.53 65.9548C677.53 61.8657 667.77 58.5508 655.731 58.5508C643.692 58.5508 633.933 61.8657 633.933 65.9548C633.933 70.0439 643.692 73.3588 655.731 73.3588Z" fill="#F5F5F5"/>
<path d="M590.485 99.2329C556.763 99.2329 525.047 94.7139 501.179 86.5114C476.951 78.1866 463.608 66.9768 463.608 54.9366C463.608 42.8964 476.951 31.6866 501.174 23.3618C525.047 15.1647 556.763 10.6456 590.485 10.6456C624.206 10.6456 655.923 15.1647 679.795 23.3671C704.019 31.6919 717.362 42.9018 717.362 54.9419C717.362 66.9821 704.019 78.1919 679.795 86.5168C655.923 94.7139 624.201 99.2329 590.485 99.2329ZM590.485 12.7747C556.992 12.7747 525.52 17.2512 501.865 25.3791C478.567 33.3846 465.735 43.8812 465.735 54.9366C465.735 65.9921 478.567 76.4939 501.865 84.4994C525.52 92.6273 556.992 97.1038 590.485 97.1038C623.977 97.1038 655.449 92.6273 679.104 84.4994C702.402 76.4939 715.234 65.9974 715.234 54.9366C715.234 43.8758 702.402 33.3793 679.104 25.3738C655.444 17.2512 623.972 12.7747 590.485 12.7747Z" fill="#552659"/>
</g>
<defs>
<clipPath id="clip0">
<rect width="59.5715" height="53.5641" fill="white" transform="translate(242.253 131.216)"/>
</clipPath>
<clipPath id="clip1">
<rect width="58.2274" height="76.9433" fill="white" transform="translate(30.7941 299.316)"/>
</clipPath>
<clipPath id="clip2">
<rect width="85" height="127" fill="white" transform="translate(309 262)"/>
</clipPath>
<clipPath id="clip3">
<rect width="63.5653" height="62.3865" fill="white" transform="translate(851.858 307.634)"/>
</clipPath>
<clipPath id="clip4">
<rect width="68.6251" height="62.3865" fill="white" transform="translate(552.041 304.426)"/>
</clipPath>
<clipPath id="clip5">
<rect width="59" height="59" fill="white" transform="translate(469 187)"/>
</clipPath>
<clipPath id="clip6">
<rect width="66.074" height="42.1731" fill="white" transform="translate(179.508 263.415)"/>
</clipPath>
<clipPath id="clip7">
<rect width="446" height="287" fill="white" transform="translate(420)"/>
</clipPath>
</defs>
</svg>
