<svg width="157" height="45" viewBox="0 0 157 45" fill="none" xmlns="http://www.w3.org/2000/svg">
<g clip-path="url(#clip0)">
<path d="M59.817 11.1913C59.817 10.8 60.131 10.487 60.5235 10.487H68.923C73.476 10.487 77.1655 14.1652 77.1655 18.6261C77.1655 23.1652 73.476 26.9218 68.923 26.9218H63.585V35.5304C63.585 35.9218 63.271 36.2348 62.8785 36.2348H60.445C60.0525 36.2348 59.7385 35.9218 59.7385 35.5304V11.1913H59.817ZM68.8445 23.3218C71.3565 23.3218 73.3975 21.287 73.3975 18.6261C73.3975 16.1218 71.435 14.2435 68.8445 14.2435H63.585V23.4H68.8445V23.3218Z" fill="#353535"/>
<path d="M85.879 18.9391C90.275 18.9391 93.6505 22.2261 93.6505 26.7652C93.6505 27.0783 93.6505 27.6261 93.572 27.9391C93.572 28.4087 93.1795 28.6435 92.787 28.6435H81.012C81.012 30.9131 83.1315 33.2609 86.1145 33.2609C88.077 33.2609 89.2545 32.5565 90.275 31.8522C90.6675 31.6174 90.9815 31.4609 91.2955 31.9304L92.316 33.4957C92.63 33.887 92.787 34.2 92.2375 34.6696C90.9815 35.7652 88.7835 36.7826 85.9575 36.7826C80.7765 36.7826 77.401 32.7131 77.401 27.8609C77.401 23.0087 80.7765 18.9391 85.879 18.9391ZM90.0395 25.9044C89.961 23.8696 88.3125 22.0696 85.8005 22.0696C83.1315 22.0696 81.483 23.7913 81.2475 25.9044H90.0395Z" fill="#353535"/>
<path d="M97.183 22.3826H95.2205C94.7495 22.3826 94.4355 21.9913 94.4355 21.6V20.1131C94.4355 19.6435 94.7495 19.3304 95.2205 19.3304H97.183V14.5565C97.183 14.087 97.5755 13.7739 97.968 13.7739H100.088C100.559 13.7739 100.873 14.1652 100.873 14.5565V19.3304H105.347C105.818 19.3304 106.132 19.6435 106.132 20.1131V21.6C106.132 21.9913 105.74 22.3826 105.347 22.3826H100.873V31.4609C100.873 32.8696 101.422 33.1826 102.207 33.1826C103.306 33.1826 104.327 32.7131 104.955 32.4C105.504 32.087 105.818 32.4 105.975 32.7913L106.603 34.5131C106.76 34.9826 106.603 35.2174 106.211 35.5304C105.504 36 103.542 36.7826 101.501 36.7826C98.125 36.7826 97.183 34.7478 97.183 31.6957V22.3826Z" fill="#353535"/>
<path d="M108.644 11.3478C108.644 10.9565 109.037 10.5652 109.429 10.5652H111.47C111.863 10.5652 112.255 10.9565 112.255 11.3478V25.7478L118.849 19.8C119.163 19.5652 119.477 19.2522 119.948 19.2522H122.617C123.324 19.2522 123.481 20.0348 123.088 20.4261L116.18 26.9217L123.402 35.1391C123.716 35.5304 123.638 36.2348 122.931 36.2348H119.87C119.556 36.2348 119.242 36.0783 119.085 35.9217L112.255 28.0174V35.4522C112.255 35.9217 111.863 36.2348 111.47 36.2348H109.429C108.958 36.2348 108.644 35.8435 108.644 35.4522V11.3478Z" fill="#353535"/>
<path d="M132.037 18.9391C136.433 18.9391 139.809 22.2261 139.809 26.7652C139.809 27.0783 139.809 27.6261 139.73 27.9391C139.73 28.4087 139.338 28.6435 138.945 28.6435H127.17C127.17 30.9131 129.29 33.2609 132.273 33.2609C134.235 33.2609 135.413 32.5565 136.433 31.8522C136.826 31.6174 137.14 31.4609 137.454 31.9304L138.474 33.4957C138.788 33.887 138.945 34.2 138.396 34.6696C137.14 35.7652 134.942 36.7826 132.116 36.7826C126.935 36.7826 123.559 32.7131 123.559 27.8609C123.559 23.0087 126.935 18.9391 132.037 18.9391ZM136.198 25.9044C136.119 23.8696 134.471 22.0696 131.959 22.0696C129.29 22.0696 127.641 23.7913 127.406 25.9044H136.198Z" fill="#353535"/>
<path d="M140.28 20.3478C140.044 19.7218 140.358 19.2522 140.986 19.2522H143.42C143.655 19.2522 144.048 19.4087 144.126 19.7218L148.051 31.3826H148.13L152.918 19.7218C153.075 19.3305 153.389 19.2522 153.782 19.2522H156.058C156.765 19.2522 157.079 19.8 156.765 20.3478L146.324 44.4522C146.167 44.687 145.932 45 145.618 45H143.263C142.635 45 142.242 44.4522 142.556 43.8261L146.01 35.6087L140.28 20.3478Z" fill="#353535"/>
<path d="M50.397 8.84348C50.868 6.8087 50.24 4.69565 48.67 3.05217C46.8645 1.17391 44.117 0 41.291 0C40.035 0 38.8575 0.234783 37.837 0.626087C36.895 1.01739 36.0315 1.56522 35.4035 2.26957C33.9905 1.09565 32.028 0.391304 29.83 0.391304C25.6695 0.391304 22.0585 2.73913 21.038 5.94783C20.1745 5.55652 19.154 5.32174 18.055 5.32174C15.386 5.32174 12.56 6.73043 10.5975 9C9.34148 10.487 8.63498 12.287 8.47798 13.9304C7.53598 13.9304 6.59398 14.1652 5.73048 14.5565C2.19798 16.2783 -0.235525 20.3478 -2.50023e-05 24.1826C0.235475 27.7043 2.74748 30.2087 6.04448 30.2087C7.06498 30.2087 8.00698 29.9739 9.02748 29.5043C9.49848 29.2696 9.96948 29.0348 10.4405 28.7217C10.362 29.3478 10.362 29.8957 10.4405 30.5217C10.833 37.6435 17.1915 42.5739 25.905 42.5739C27.789 42.5739 29.673 42.3391 31.557 41.8696C42.3115 39.3652 50.3185 30.913 49.926 22.4609C49.769 18.8609 48.042 15.8087 45.216 13.6957C45.687 13.6174 46.0795 13.4609 46.472 13.3043C48.513 12.4435 50.0045 10.8 50.397 8.84348Z" fill="#353535"/>
<path d="M23.3145 5.6348C23.707 3.60002 26.2975 1.95654 29.1235 1.95654C31.9495 1.95654 33.9905 3.60002 33.598 5.6348C33.2055 7.66959 30.615 9.31306 27.789 9.31306C24.963 9.31306 23.0005 7.66959 23.3145 5.6348Z" fill="#FF8631"/>
<path d="M7.06497 24.8087C4.78847 25.8261 2.82597 24.6522 2.66897 22.2261C2.51197 19.8 4.23897 16.9043 6.51547 15.887C8.79197 14.8696 10.7545 16.0435 10.9115 18.4696C10.99 20.9739 9.34147 23.7913 7.06497 24.8087Z" fill="#FF8631"/>
<path d="M12.4814 9.3913C14.2869 7.2 17.2699 6.26087 19.0754 7.27826C20.8809 8.29565 20.8809 10.8 19.0754 12.9913C17.2699 15.1826 14.2869 16.1217 12.4814 15.1043C10.6759 14.087 10.6759 11.5826 12.4814 9.3913Z" fill="#FF8631"/>
<path d="M46.0009 20.8957C46.3149 27.7044 39.2499 34.8261 30.1439 36.9391C21.0379 39.0522 13.3449 35.2957 13.0309 28.5652C12.6384 21.8348 19.7819 14.6348 28.8879 12.5218C37.9939 10.4087 45.6084 14.1652 46.0009 20.8957Z" fill="#FF8631"/>
<path d="M44.588 8.53044C42.3115 9.46957 39.093 8.76522 37.366 6.88696C35.639 5.0087 36.11 2.89566 38.3865 1.95653C40.663 1.0174 43.8815 1.72174 45.6085 3.6C47.3355 5.4 46.8645 7.59131 44.588 8.53044Z" fill="#FF8631"/>
</g>
<defs>
<clipPath id="clip0">
<rect width="157" height="45" fill="white"/>
</clipPath>
</defs>
</svg>
