<svg width="28" height="33" viewBox="0 0 28 33" fill="none" xmlns="http://www.w3.org/2000/svg">
<g clip-path="url(#clip0)">
<path d="M27.8427 26.4952C25.9551 23.3221 23.1236 20.9423 19.8202 19.6731L18.4045 22.5289C21.0787 23.4808 23.5955 25.5433 25.0113 28.0817C25.4832 28.875 26.427 29.0337 27.2135 28.7164C28 28.2404 28.3146 27.2885 27.8427 26.4952Z" fill="#FF8631"/>
<path d="M8.49438 19.8317C5.0337 21.2596 2.04494 23.9567 0.157296 27.4471C-0.157311 28.2404 0.157296 29.1923 0.78651 29.5096C0.943813 29.6683 1.25842 29.6683 1.41572 29.6683C2.04494 29.6683 2.51685 29.351 2.83145 28.7163C4.24718 25.7019 6.76404 23.6394 9.7528 22.5288L8.49438 19.8317Z" fill="#FF8631"/>
<path d="M14.3146 33C13.6854 33 13.2135 32.6827 12.8989 32.2067L4.5618 15.7067C2.83146 12.375 2.98877 8.40865 5.03371 5.23558C6.92135 1.90385 10.382 0 14.1573 0C17.9326 0 21.236 1.90385 23.2809 5.07692C25.1685 8.25 25.4831 12.2163 23.7528 15.5481L15.573 32.0481C15.4157 32.524 14.7865 32.8413 14.3146 33ZM14.1573 3.17308C11.4831 3.17308 9.1236 4.60096 7.70787 6.82212C6.29214 9.04327 6.13483 11.899 7.39326 14.2788L14.1573 27.7644L20.764 14.1202C21.8652 11.7404 21.8652 9.04327 20.4494 6.66346C19.0337 4.28365 16.6742 3.17308 14.1573 3.17308Z" fill="#FF8631"/>
<path d="M14.1573 14.7548C15.9817 14.7548 17.4607 13.2631 17.4607 11.4231C17.4607 9.58301 15.9817 8.09134 14.1573 8.09134C12.3329 8.09134 10.8539 9.58301 10.8539 11.4231C10.8539 13.2631 12.3329 14.7548 14.1573 14.7548Z" fill="#FF8631"/>
</g>
<defs>
<clipPath id="clip0">
<rect width="28" height="33" fill="white"/>
</clipPath>
</defs>
</svg>
