<svg width="70" height="71" viewBox="0 0 70 71" fill="none" xmlns="http://www.w3.org/2000/svg">
<g clip-path="url(#clip0)">
<path d="M33.0251 57.6541H23.2328C13.4404 57.6541 5.48589 49.7488 5.48589 40.0171V13.0574C5.48589 8.85938 8.91458 5.45192 13.1387 5.45192H14.0987C18.3229 5.45192 21.7516 8.85938 21.7516 13.0574V17.8005C21.7516 19.2998 22.9859 20.5265 24.4945 20.5265H40.9796C42.4882 20.5265 43.7226 19.2998 43.7226 17.8005V13.3845C43.7226 9.18649 47.1513 5.77904 51.3754 5.77904H52.3354C56.5596 5.77904 59.9882 9.18649 59.9882 13.3845V35.1922C59.9882 36.6914 61.2226 37.9181 62.7312 37.9181C64.2398 37.9181 65.4741 36.6914 65.4741 35.1922V13.3845C65.4741 6.18793 59.5768 0.327115 52.3354 0.327115H51.3754C44.134 0.327115 38.2367 6.18793 38.2367 13.3845V15.0746H27.2375V13.0574C27.2375 5.86082 21.3401 0 14.0987 0H13.1387C5.89734 0 0 5.86082 0 13.0574V40.0171C0 52.7474 10.4232 63.106 23.2328 63.106H33.0525C34.5611 63.106 35.7955 61.8793 35.7955 60.38C35.7955 58.8808 34.5611 57.6541 33.0251 57.6541Z" fill="#85B94E"/>
<path d="M21.2579 29.4948C21.2304 31.1849 22.6293 32.5752 24.33 32.6024C26.0306 32.6297 27.4295 31.2395 27.4569 29.5494C27.4844 27.8593 26.0855 26.4418 24.3848 26.4418C22.6842 26.4418 21.2579 27.7775 21.2579 29.4948Z" fill="#85B94E"/>
<path d="M44.2985 29.6856C44.326 27.9955 42.9271 26.6052 41.2264 26.578C39.5258 26.5507 38.1269 27.941 38.0995 29.631C38.0721 31.3211 39.471 32.7114 41.1716 32.7386C42.8722 32.7386 44.2711 31.3757 44.2985 29.6856Z" fill="#85B94E"/>
<path d="M33.0525 34.1833C30.5016 34.1561 28.417 36.2005 28.3895 38.7357C28.3621 41.2708 30.4193 43.3425 32.9702 43.3698C35.5212 43.3971 37.6058 41.3526 37.6333 38.8174C37.6607 36.255 35.6035 34.1833 33.0525 34.1833Z" fill="#85B94E"/>
<path d="M69.2045 66.2134L61.8534 58.9078C61.826 58.8806 61.7986 58.8806 61.7711 58.8533C62.8683 57.1087 63.5266 55.037 63.5266 52.8289C63.5266 46.4502 58.315 41.2709 51.8965 41.2709C45.478 41.2709 40.2664 46.4502 40.2664 52.8289C40.2664 59.2077 45.478 64.387 51.8965 64.387C54.1183 64.387 56.1755 63.7328 57.9584 62.6424C57.9859 62.6697 57.9859 62.6969 58.0133 62.7242L65.3644 70.0298C65.913 70.5749 66.5987 70.8203 67.3119 70.8203C68.0251 70.8203 68.7108 70.5477 69.2594 70.0298C70.2743 69.0211 70.2743 67.2765 69.2045 66.2134ZM51.8417 58.9624C48.4404 58.9624 45.6975 56.2091 45.6975 52.8562C45.6975 49.5033 48.4679 46.7501 51.8417 46.7501C55.2155 46.7501 57.9859 49.5033 57.9859 52.8562C57.9859 56.2091 55.2429 58.9624 51.8417 58.9624Z" fill="#FF8631"/>
</g>
<defs>
<clipPath id="clip0">
<rect width="70" height="70.875" fill="white"/>
</clipPath>
</defs>
</svg>
